<svg width="271" height="332" viewBox="0 0 271 332" fill="none" xmlns="http://www.w3.org/2000/svg">
<path d="M61 293.622L103.594 318.015L122.109 327L261 254.446L194.944 222L61 293.622Z" fill="url(#paint0_linear_1_7741)"/>
<path d="M61 293.622L103.594 318.015L122.109 327L261 254.446L194.944 222L61 293.622Z" fill="url(#paint1_linear_1_7741)"/>
<path d="M234.589 240.219L136.291 183.334C134.8 182.473 132.808 182 130.68 182C128.552 182 126.56 182.473 125.07 183.334L2.29182 254.384C1.81538 254.656 1.40467 254.973 0.973414 255.376L0 255.364V257.574C0 258.784 0.817327 259.925 2.29593 260.785L100.594 317.662C102.085 318.527 104.077 319 106.205 319C108.333 319 110.329 318.522 111.815 317.662L234.593 246.62C236.064 245.768 236.877 244.632 236.881 243.418L237 241.265L236.187 241.561C235.797 241.055 235.259 240.602 234.593 240.219H234.589Z" fill="white"/>
<path d="M234.672 240.162L136.39 183.344C134.838 182.448 132.785 182 130.739 182C128.694 182 126.641 182.448 125.089 183.344L2.33253 254.309C1.81511 254.605 1.40035 254.938 1.05129 255.288L0 255.358V257.566C0 258.754 0.776156 259.938 2.33253 260.843L100.614 317.651C102.166 318.548 104.215 319 106.265 319C108.314 319 110.359 318.552 111.915 317.651L234.672 246.695C236.22 245.798 236.996 244.614 237 243.434V241.202L236.285 241.518C235.908 241.025 235.37 240.56 234.672 240.157V240.162ZM236.84 241.453V243.434C236.832 244.61 236.035 245.716 234.589 246.551L111.833 317.508C110.359 318.363 108.379 318.836 106.265 318.836C104.15 318.836 102.175 318.363 100.696 317.508L2.41464 260.699C0.960929 259.856 0.160161 258.746 0.160161 257.566V255.51L1.05952 255.448C1.09647 255.448 1.13343 255.428 1.16218 255.399C1.53587 255.021 1.94238 254.712 2.41053 254.445L125.163 183.48C126.641 182.629 128.62 182.16 130.731 182.16C132.842 182.16 134.825 182.629 136.3 183.48L234.581 240.297C235.238 240.676 235.764 241.12 236.146 241.617C236.179 241.658 236.224 241.679 236.277 241.679C236.298 241.679 236.322 241.671 236.343 241.662L236.832 241.448L236.84 241.453Z" fill="#120E1E"/>
<path d="M234.707 238.213L136.357 181.338C134.866 180.473 132.873 180 130.744 180C128.615 180 126.622 180.477 125.131 181.338L2.2889 252.378C0.809525 253.234 0 254.374 0 255.58C0 256.786 0.813634 257.926 2.2889 258.783L100.639 315.662C102.126 316.527 104.119 317 106.248 317C108.377 317 110.374 316.527 111.865 315.662L234.707 244.618C236.186 243.762 237 242.626 237 241.416C237 240.206 236.186 239.069 234.707 238.213Z" fill="white"/>
<path d="M234.669 238.156L136.387 181.349C134.834 180.448 132.781 180 130.736 180C128.691 180 126.638 180.448 125.085 181.349L2.32841 252.303C-0.776137 254.104 -0.776137 257.043 2.32841 258.84L100.61 315.651C102.163 316.548 104.208 317 106.257 317C108.306 317 110.355 316.552 111.912 315.651L234.669 244.693C237.777 242.896 237.777 239.957 234.669 238.16V238.156ZM234.586 244.545L111.829 315.503C110.347 316.359 108.372 316.827 106.257 316.827C104.142 316.827 102.167 316.359 100.693 315.503L2.41052 258.692C0.960912 257.853 0.160143 256.743 0.160143 255.568C0.160143 254.392 0.956805 253.277 2.41052 252.439L125.163 181.484C126.642 180.629 128.621 180.16 130.732 180.16C132.843 180.16 134.826 180.629 136.3 181.484L234.582 238.291C236.036 239.13 236.837 240.24 236.837 241.42C236.837 242.6 236.036 243.706 234.582 244.545H234.586Z" fill="#120E1E"/>
<path d="M11 253.43L110.855 311L233 240.574L133.153 183L11 253.43Z" fill="#120E1E"/>
<path d="M11 252.426L110.855 310L233 239.57L133.153 182L11 252.426Z" fill="url(#paint2_linear_1_7741)"/>
<path d="M146.553 256.505L118.578 240.257C117.984 239.914 117.036 239.914 116.446 240.257C115.851 240.6 115.851 241.16 116.446 241.499L144.417 257.746C145.011 258.085 145.963 258.085 146.557 257.746C147.148 257.403 147.148 256.843 146.557 256.509L146.553 256.505Z" fill="#120E1E"/>
<path d="M119.557 246.506L91.5782 230.257C90.9838 229.914 90.0361 229.914 89.4458 230.257C88.8514 230.6 88.8514 231.156 89.4458 231.499L117.417 247.743C118.011 248.086 118.963 248.086 119.557 247.743C120.148 247.4 120.148 246.844 119.557 246.506Z" fill="#120E1E"/>
<path d="M158.565 261.61L150.54 257.238C149.955 256.921 149.015 256.921 148.438 257.238C147.854 257.554 147.854 258.064 148.438 258.385L156.463 262.765C157.052 263.078 157.984 263.078 158.565 262.765C159.145 262.445 159.145 261.935 158.565 261.614V261.61Z" fill="#120E1E"/>
<path d="M87.5646 227.61L79.5397 223.238C78.9551 222.921 78.019 222.921 77.4384 223.238C76.8539 223.554 76.8539 224.068 77.4384 224.385L85.4674 228.765C86.052 229.078 86.9841 229.078 87.5646 228.765C88.1451 228.449 88.1451 227.935 87.5646 227.614V227.61Z" fill="#120E1E"/>
<path d="M114.566 237.545L84.5311 220.25C83.9519 219.917 83.0177 219.917 82.4344 220.25C81.8552 220.588 81.8552 221.129 82.4344 221.458L112.469 238.753C113.052 239.082 113.982 239.082 114.566 238.753C115.145 238.415 115.145 237.874 114.566 237.545V237.545Z" fill="#120E1E"/>
<path d="M151.563 264.541L121.531 247.25C120.948 246.917 120.018 246.917 119.434 247.25C118.855 247.588 118.855 248.129 119.434 248.458L149.47 265.753C150.049 266.082 150.983 266.082 151.563 265.753C152.146 265.415 152.146 264.87 151.563 264.545V264.541Z" fill="#120E1E"/>
<path d="M170.763 198.325C170.009 197.892 169.091 197.892 168.341 198.325L163.208 201.3C161.597 202.232 161.597 204.556 163.208 205.487L191.229 221.675C191.978 222.108 192.897 222.108 193.647 221.675L198.792 218.704C200.403 217.773 200.403 215.444 198.792 214.513L170.763 198.325V198.325Z" fill="#120E1E"/>
<path d="M198.829 212.614L170.677 196.315C170.321 196.112 169.915 196 169.502 196C169.088 196 168.686 196.108 168.326 196.315L163.171 199.311C162.434 199.739 162 200.502 162 201.353C162 202.203 162.439 202.963 163.175 203.39L191.319 219.689C191.675 219.892 192.081 220 192.49 220C192.9 220 193.309 219.892 193.665 219.685L198.829 216.693C199.561 216.266 200 215.502 200 214.651C200 213.801 199.561 213.042 198.829 212.614Z" fill="white"/>
<path d="M170.763 196.326C170.388 196.111 169.968 196 169.552 196C169.136 196 168.716 196.107 168.341 196.326L163.208 199.301C161.597 200.236 161.597 202.56 163.208 203.492L191.229 219.674C191.603 219.889 192.02 220 192.436 220C192.852 220 193.276 219.889 193.647 219.674L198.792 216.703C200.403 215.768 200.403 213.444 198.792 212.516L170.763 196.33V196.326ZM199.834 214.602C199.834 215.418 199.41 216.151 198.705 216.559L193.564 219.53C193.222 219.732 192.831 219.835 192.436 219.835C192.04 219.835 191.653 219.732 191.311 219.534L163.29 203.348C162.582 202.94 162.162 202.21 162.162 201.398C162.162 200.582 162.586 199.853 163.29 199.441L168.423 196.466C168.765 196.268 169.157 196.165 169.552 196.165C169.948 196.165 170.339 196.268 170.681 196.466L198.71 212.652C199.414 213.06 199.838 213.79 199.838 214.602H199.834Z" fill="#120E1E"/>
<path d="M212.666 235.414L199.758 227.783C197.98 226.736 195.102 226.741 193.329 227.787C191.551 228.833 191.563 230.531 193.329 231.581L206.237 239.217C208.018 240.259 210.892 240.263 212.666 239.217C214.443 238.162 214.443 236.465 212.674 235.414H212.666Z" fill="white"/>
<path d="M108.185 255.273L99.8694 250.476C99.3288 250.169 98.6109 250 97.8464 250C97.082 250 96.3557 250.173 95.8151 250.485C95.2872 250.788 95 251.189 95 251.61C95 252.032 95.2914 252.424 95.8151 252.723L104.131 257.519C104.671 257.827 105.393 258 106.162 258C106.931 258 107.649 257.827 108.185 257.519C108.713 257.216 109 256.82 109 256.398C109 255.981 108.709 255.581 108.185 255.277V255.273Z" fill="white"/>
<path d="M108.151 255.179L99.9365 250.479C99.3691 250.157 98.6348 250 97.8964 250V250.161C98.639 250.161 99.3357 250.326 99.8531 250.62L108.068 255.32C108.56 255.6 108.831 255.964 108.831 256.348C108.831 256.732 108.556 257.091 108.068 257.372C107.546 257.67 106.854 257.835 106.107 257.835C105.36 257.835 104.663 257.67 104.142 257.372L95.9272 252.672C95.435 252.391 95.1638 252.028 95.1638 251.652C95.1638 251.276 95.4391 250.909 95.9314 250.624C96.4529 250.326 97.1496 250.161 97.8964 250.161V250C97.1538 250 96.4153 250.161 95.8479 250.487C94.7174 251.136 94.7174 252.177 95.8479 252.821L104.063 257.521C104.626 257.839 105.368 258 106.111 258C106.854 258 107.592 257.839 108.155 257.521C109.282 256.877 109.282 255.828 108.155 255.183L108.151 255.179Z" fill="#120E1E"/>
<path d="M24 253.041L110.762 303L111 302.975L24.304 253L24 253.041Z" fill="white"/>
<path d="M24 253.18L110.696 303L111 302.828L24.3038 253L24 253.18Z" fill="#120E1E"/>
<path d="M114.185 252.279L105.874 247.48C105.329 247.173 104.611 247 103.851 247C103.09 247 102.36 247.177 101.815 247.489C101.287 247.792 101 248.188 101 248.605C101 249.022 101.287 249.418 101.815 249.726L110.139 254.52C110.68 254.827 111.398 255 112.166 255C112.935 255 113.649 254.831 114.185 254.524C114.713 254.221 115 253.82 115 253.399C115 252.978 114.709 252.582 114.185 252.283V252.279Z" fill="white"/>
<path d="M114.149 252.185L105.937 247.483C105.37 247.161 104.635 247 103.897 247C103.158 247 102.416 247.161 101.848 247.491C100.717 248.135 100.717 249.175 101.848 249.824L110.073 254.521C110.636 254.843 111.379 255 112.121 255C112.864 255 113.594 254.843 114.153 254.521C115.284 253.877 115.28 252.82 114.153 252.185H114.149ZM114.066 254.377C113.548 254.674 112.856 254.835 112.113 254.835C111.37 254.835 110.665 254.674 110.148 254.373L101.923 249.675C101.427 249.394 101.16 249.031 101.16 248.651C101.16 248.271 101.431 247.908 101.927 247.627C102.453 247.33 103.15 247.165 103.893 247.165C104.635 247.165 105.332 247.326 105.85 247.623L114.062 252.325C114.554 252.602 114.825 252.969 114.825 253.345C114.825 253.729 114.554 254.096 114.062 254.377H114.066Z" fill="#120E1E"/>
<path d="M97 294.221L106.982 300L150 274.812L140.068 269L97 294.221Z" fill="white"/>
<path d="M97 294.227L107.007 300L150 274.781L139.997 269L97 294.227ZM149.675 274.781L107.003 299.811L97.3209 294.223L139.993 269.185L149.671 274.777L149.675 274.781Z" fill="#120E1E"/>
<path d="M83 286.231L93.016 292L127 272.798L117.013 267L83 286.231Z" fill="white"/>
<path d="M83 286.244L93.0417 292L127 272.76L116.954 267L83 286.244ZM93.0458 291.815L83.3304 286.244L116.954 267.189L126.674 272.76L93.0458 291.815Z" fill="#120E1E"/>
<path d="M69 278.203L79.1244 284L101 271.822L90.909 266L69 278.203Z" fill="white"/>
<path d="M69 278.234L79.1426 284L101 271.77L90.8574 266L69.0042 278.234H69ZM79.1426 283.815L69.3337 278.234L90.8574 266.189L100.671 271.77L79.1468 283.815H79.1426Z" fill="#120E1E"/>
<path d="M59.1868 239.692C58.2944 239.248 57.1619 239 56.0068 239C54.4938 239 53.0714 239.41 52.1111 240.111C51.341 240.688 50.9469 241.404 51.0058 242.138C51.0737 242.978 51.7351 243.769 52.8177 244.313C53.7146 244.757 54.8516 245 56.0022 245C57.5152 245 58.9331 244.59 59.8889 243.884C60.6635 243.307 61.0531 242.587 60.9942 241.857C60.9262 241.017 60.2694 240.231 59.1868 239.692Z" fill="white"/>
<path d="M59.1667 239.68C58.2369 239.222 57.1202 239 56.0035 239C54.5532 239 53.1162 239.379 52.1241 240.096C50.3846 241.381 50.696 243.267 52.8359 244.325C53.7657 244.778 54.8913 245 56.0035 245C57.4494 245 58.8819 244.626 59.8696 243.9C61.6224 242.615 61.2977 240.724 59.1667 239.68V239.68ZM59.7717 243.752C58.8508 244.427 57.4761 244.815 56.008 244.815C54.8824 244.815 53.788 244.584 52.916 244.154C51.8794 243.646 51.2521 242.901 51.1898 242.125C51.132 241.45 51.5013 240.78 52.2309 240.243C53.1607 239.569 54.5399 239.18 56.008 239.18C57.1336 239.18 58.228 239.416 59.0955 239.841C60.1276 240.345 60.7594 241.089 60.8217 241.866C60.8795 242.541 60.5058 243.211 59.7717 243.752Z" fill="#120E1E"/>
<path d="M61.5278 237.253C59.838 236.444 57.7001 236 55.5111 236C52.635 236 49.9467 236.745 48.1288 238.041C46.6439 239.092 45.8929 240.423 46.0123 241.771C46.1446 243.313 47.4034 244.76 49.473 245.747C51.1586 246.556 53.2964 247 55.4897 247C58.3658 247 61.0541 246.259 62.872 244.967C64.3527 243.908 65.1037 242.581 64.9885 241.224C64.8519 239.682 63.5931 238.231 61.5278 237.249V237.253ZM60.9475 244.144C59.6076 245.101 57.6191 245.648 55.494 245.648C53.881 245.648 52.3021 245.32 51.0476 244.726C49.5071 243.989 48.5598 242.891 48.4574 241.711C48.3636 240.669 48.9354 239.652 50.0576 238.856C51.3975 237.904 53.386 237.357 55.5068 237.357C57.1241 237.357 58.6987 237.68 59.9447 238.278C61.4894 239.011 62.4367 240.113 62.5348 241.293C62.6287 242.336 62.0569 243.348 60.9389 244.144H60.9475Z" fill="white"/>
<path d="M61.5104 237.246C59.7511 236.411 57.6238 236 55.5135 236C52.7603 236 50.024 236.691 48.1462 238.026C44.8263 240.37 45.4227 243.834 49.4869 245.758C51.2462 246.593 53.3735 247 55.4881 247C58.2413 247 60.9776 246.309 62.8595 244.987C66.1794 242.63 65.5662 239.166 61.5146 237.246H61.5104ZM62.758 244.847C60.9733 246.106 58.3174 246.83 55.4881 246.83C53.327 246.83 51.2251 246.394 49.5588 245.601C47.5414 244.647 46.3065 243.244 46.1797 241.761C46.0697 240.459 46.8013 239.179 48.2477 238.162C50.0324 236.899 52.6799 236.174 55.5177 236.174C57.6703 236.174 59.7764 236.61 61.4427 237.399C63.46 238.353 64.6908 239.756 64.8219 241.244C64.9361 242.545 64.2044 243.825 62.7622 244.851L62.758 244.847Z" fill="#120E1E"/>
<path d="M59.4026 237.879C58.1673 237.309 56.6097 237 55.0143 237C52.9123 237 50.9442 237.521 49.6168 238.433C48.4904 239.207 47.9209 240.188 48.0089 241.201C48.1135 242.346 49.0557 243.412 50.5966 244.121C51.8361 244.687 53.398 245 54.9933 245C57.0954 245 59.0634 244.475 60.3908 243.567C61.513 242.793 62.0825 241.812 61.9903 240.798C61.8857 239.654 60.9435 238.588 59.3984 237.879H59.4026ZM60.2945 243.433C58.9462 244.357 56.9781 244.837 54.9933 244.837C53.465 244.837 51.9324 244.556 50.6678 243.974C47.7535 242.635 47.318 240.204 49.7089 238.563C51.0572 237.639 53.0253 237.159 55.0143 237.159C56.5343 237.159 58.0626 237.44 59.3314 238.026C62.25 239.361 62.6855 241.796 60.2945 243.433V243.433Z" fill="#120E1E"/>
<path d="M48.1861 237.937C46.4572 239.074 45.7049 240.553 46.1052 242L48.5953 241.816C48.2917 240.692 48.8504 239.589 50.179 238.71C51.5604 237.807 53.6105 237.287 55.797 237.287C57.4643 237.287 59.0876 237.594 60.2843 238.17L62 237.189C60.2579 236.421 58.0538 236 55.797 236C52.8318 236 50.0602 236.707 48.1861 237.937V237.937Z" fill="white"/>
<path d="M48.2069 237.901C46.3562 239.097 45.6927 240.592 46.1292 242L48.7482 241.722C48.4601 240.7 48.9577 239.642 50.2803 238.783C51.6858 237.881 53.7373 237.412 55.8106 237.412C57.3951 237.412 58.9882 237.686 60.3108 238.258L62 237.169C60.1842 236.386 57.9887 236 55.8062 236C52.969 236 50.1449 236.648 48.2069 237.901V237.901ZM60.2933 238.076C59.0231 237.547 57.4343 237.252 55.8106 237.252C53.6194 237.252 51.5679 237.761 50.1799 238.652C48.901 239.483 48.3248 240.517 48.543 241.583L46.2602 241.829C45.9154 240.473 46.6574 239.093 48.3117 238.028C50.1537 236.843 52.8861 236.163 55.8106 236.163C57.9232 236.163 59.9834 236.529 61.6595 237.201L60.2977 238.08L60.2933 238.076Z" fill="#120E1E"/>
<path d="M61.6492 237L60 238.049C61.2898 238.678 62.1652 239.57 62.4654 240.553C62.6769 241.252 62.5923 241.977 62.161 242.524L64.5629 243C65.0238 242.143 65.1211 241.217 64.8505 240.321C64.4572 239.023 63.2858 237.848 61.645 237H61.6492Z" fill="white"/>
<path d="M61.5971 237L60 238.164C62.2162 239.244 62.9879 240.99 62.1295 242.524L64.5314 243C65.7034 240.892 64.6593 238.487 61.5971 237.004V237ZM64.6965 240.323C64.9482 241.147 64.8657 242.006 64.4489 242.804L62.3771 242.397C62.6619 241.785 62.7114 241.13 62.5216 240.497C62.2409 239.579 61.4651 238.751 60.3219 238.135L61.6178 237.191C63.2355 237.994 64.3292 239.099 64.7006 240.323H64.6965Z" fill="#120E1E"/>
<path d="M76.0141 250.062C75.6651 250.019 75.3205 250 74.9805 250C72.6231 250 70.5695 251.016 70.098 252.413C69.9212 252.938 69.9847 253.486 70.2794 253.992C70.8642 254.979 72.2832 255.728 73.9877 255.938C74.3277 255.976 74.6677 256 75.0077 256C77.3606 256 79.4232 254.989 79.9038 253.601C80.0806 253.067 80.0126 252.509 79.7089 251.998C79.115 250.997 77.7323 250.277 76.0141 250.062Z" fill="white"/>
<path d="M76.0073 250.065C75.669 250.023 75.3262 250 74.9879 250C72.6732 250 70.5899 250.975 70.1047 252.399C69.5438 254.022 71.2932 255.607 73.9953 255.94C74.3336 255.982 74.6763 256 75.0057 256C77.316 256 79.4082 255.02 79.8979 253.615C80.4499 251.983 78.7093 250.393 76.0029 250.065H76.0073ZM79.7376 253.55C79.2791 254.863 77.2893 255.82 75.0102 255.82C74.6808 255.82 74.3469 255.797 74.0175 255.76C72.3705 255.556 71.0039 254.854 70.443 253.915C70.167 253.448 70.1091 252.945 70.2739 252.464C70.7279 251.146 72.7088 250.19 74.9924 250.19C75.3262 250.19 75.6601 250.213 75.9895 250.25C77.6276 250.448 78.9942 251.156 79.5596 252.089C79.8445 252.561 79.9068 253.069 79.7421 253.555L79.7376 253.55Z" fill="#120E1E"/>
<path d="M76.4158 247.112C75.7757 247.034 75.1313 247 74.4997 247C70.0016 247 66.0839 248.851 65.192 251.407C64.8463 252.384 64.9701 253.391 65.5419 254.329C66.6515 256.137 69.3486 257.501 72.5792 257.888C73.2194 257.966 73.8638 258 74.4954 258C78.9892 258 82.9069 256.149 83.8116 253.597C84.1531 252.621 84.0293 251.609 83.4489 250.667C82.3393 248.859 79.6421 247.499 76.4158 247.116V247.112ZM81.4132 253.348C80.7347 255.25 77.8199 256.636 74.4954 256.636C74.0302 256.636 73.5523 256.606 73.0828 256.55C70.6545 256.266 68.7 255.272 67.8593 253.903C67.4154 253.184 67.3215 252.405 67.5861 251.652C68.2689 249.741 71.1794 248.351 74.5039 248.351C74.9691 248.351 75.4428 248.377 75.9208 248.437C78.3405 248.721 80.2951 249.716 81.1401 251.088C81.5839 251.811 81.6821 252.59 81.4175 253.348H81.4132Z" fill="white"/>
<path d="M76.4125 247.114C75.7697 247.038 75.1268 247 74.5009 247C70.0813 247 66.1143 248.793 65.1965 251.396C64.1392 254.367 67.455 257.279 72.5851 257.89C73.2237 257.966 73.8622 258 74.4924 258C78.9077 258 82.8833 256.207 83.8052 253.608C84.8583 250.633 81.5341 247.716 76.4125 247.114ZM83.6445 253.553C82.7648 256.033 78.9162 257.835 74.4924 257.835C73.8622 257.835 73.2279 257.801 72.6062 257.725C69.43 257.347 66.7825 256.016 65.6913 254.257C65.1331 253.354 65.0146 252.383 65.353 251.451C66.2284 248.971 70.0771 247.17 74.5009 247.17C75.1353 247.17 75.7696 247.208 76.3956 247.28C79.5633 247.657 82.2108 248.984 83.302 250.739C83.8602 251.642 83.9786 252.612 83.6488 253.553H83.6445Z" fill="#120E1E"/>
<path d="M75.3968 248.081C74.9413 248.028 74.469 248 74.0009 248C70.7118 248 67.8324 249.336 67.1511 251.181C66.8795 251.914 66.9756 252.68 67.4269 253.381C68.2628 254.697 70.202 255.646 72.6009 255.923C73.0606 255.971 73.5286 256 73.9967 256C77.29 256 80.1695 254.668 80.8507 252.831C81.1182 252.094 81.0263 251.332 80.5749 250.623C79.7307 249.299 77.7999 248.35 75.3968 248.077V248.081ZM80.6919 252.782C80.0232 254.591 77.1729 255.841 73.9967 255.841C73.5412 255.841 73.0815 255.817 72.6218 255.764C68.944 255.344 66.5451 253.316 67.3058 251.234C67.9786 249.417 70.8247 248.159 74.0009 248.159C74.4564 248.159 74.9162 248.187 75.3759 248.24C79.062 248.66 81.4525 250.705 80.6919 252.778V252.782Z" fill="#120E1E"/>
<path d="M82.2394 249L80.3077 249.838C81.475 250.831 81.8983 252.04 81.5079 253.235C80.8544 255.185 78.0472 256.606 74.8454 256.606C74.3974 256.606 73.9371 256.575 73.5672 256.46L73 257.885C73.6165 257.965 74.2371 258 74.8454 258C79.1733 258 82.9464 256.103 83.8178 253.487C84.3356 251.912 83.7314 250.275 82.2394 249V249Z" fill="white"/>
<path d="M82.1426 249L80.2065 249.966C81.2826 250.876 81.7635 252.02 81.3682 253.208C80.716 255.131 77.9361 256.462 74.8383 256.462C74.394 256.462 73.9456 256.436 73.4973 256.379L73 257.887C73.6155 257.965 74.2309 258 74.8383 258C79.0937 258 82.9252 256.167 83.8138 253.511C84.36 251.864 83.6752 250.235 82.1426 249ZM83.6589 253.454C82.8111 255.989 79.1019 257.831 74.8383 257.831C74.2961 257.831 73.754 257.801 73.2201 257.74L73.6073 256.561C74.0109 256.609 74.4266 256.631 74.8383 256.631C78.0502 256.631 80.8587 255.214 81.5231 253.26C81.8981 252.116 81.5394 250.967 80.504 250.005L82.1182 249.195C83.5897 250.421 84.1521 251.968 83.6589 253.454Z" fill="#120E1E"/>
<path d="M67.5295 253L65 253.158C65.6345 255.553 68.6185 257.499 72.4341 258L73 256.57C70.1576 256.208 67.9282 254.75 67.5338 253H67.5295Z" fill="white"/>
<path d="M67.5734 253L65 253.264C65.619 255.558 68.5145 257.508 72.4827 258L73 256.444C70.1171 256.086 68.0312 254.673 67.5776 253.004L67.5734 253ZM72.3683 257.803C68.7732 257.325 65.9496 255.58 65.2247 253.416L67.4589 253.188C68.01 254.883 70.062 256.198 72.7753 256.587L72.3683 257.803Z" fill="#120E1E"/>
<path d="M58.0111 260.052C57.6668 260.016 57.3225 260 56.9827 260C54.6225 260 52.5658 260.847 52.0991 262.011C51.9225 262.448 51.9814 262.905 52.2804 263.327C52.8602 264.149 54.2782 264.773 55.9816 264.948C56.3213 264.98 56.6611 265 56.9918 265C59.3565 265 61.4178 264.157 61.9025 262.993C62.0792 262.548 62.0157 262.091 61.7122 261.665C61.1278 260.843 59.7099 260.223 58.0065 260.048L58.0111 260.052Z" fill="white"/>
<path d="M58.0042 260.054C57.6616 260.019 57.3235 260 56.9853 260C54.6718 260 52.5896 260.817 52.1046 262.001C51.544 263.354 53.2926 264.676 55.9932 264.95C56.3269 264.981 56.665 265 56.9987 265C59.3078 265 61.4033 264.183 61.8972 263.007C62.4533 261.642 60.6959 260.324 58.0042 260.05V260.054ZM61.7326 262.957C61.2743 264.056 59.2811 264.854 56.9987 264.854C56.6695 264.854 56.3357 264.834 56.0154 264.803C54.3648 264.634 52.9945 264.044 52.4383 263.265C52.1625 262.876 52.1002 262.456 52.2693 262.055C52.7186 260.952 54.6985 260.154 56.9853 260.154C57.319 260.154 57.6527 260.173 57.9819 260.208C59.6237 260.374 60.994 260.96 61.5546 261.739C61.8349 262.132 61.8972 262.552 61.7281 262.961L61.7326 262.957Z" fill="#120E1E"/>
<path d="M58.4201 257.112C57.7714 257.034 57.127 257 56.4911 257C51.9929 257 48.0795 258.852 47.1918 261.406C46.8461 262.384 46.9698 263.396 47.546 264.335C48.6599 266.144 51.3528 267.505 54.5834 267.888C55.2236 267.966 55.868 268 56.5082 268C60.9936 268 64.9071 266.148 65.8119 263.594C66.1533 262.616 66.0295 261.6 65.4448 260.661C64.331 258.852 61.6337 257.495 58.4159 257.108L58.4201 257.112ZM63.4177 263.349C62.7348 265.256 59.8199 266.643 56.4868 266.643C56.0217 266.643 55.5522 266.617 55.0828 266.561C52.6545 266.273 50.7041 265.278 49.8634 263.908C49.4238 263.189 49.3299 262.41 49.5988 261.656C50.2731 259.744 53.1794 258.357 56.5125 258.357C56.9776 258.357 57.4514 258.383 57.9208 258.439C60.3534 258.727 62.3037 259.722 63.153 261.096C63.5926 261.815 63.6865 262.595 63.4177 263.349Z" fill="white"/>
<path d="M57.3886 258.077C56.9329 258.024 56.4647 258 56.0007 258C52.7021 258 49.8216 259.337 49.1527 261.175C48.881 261.912 48.9729 262.674 49.4203 263.375C50.2564 264.696 52.1921 265.645 54.596 265.927C55.0517 265.976 55.5157 266 55.9797 266C59.2783 266 62.1713 264.667 62.8486 262.829C63.1204 262.096 63.0242 261.334 62.5769 260.633C61.7365 259.308 59.8009 258.355 57.3928 258.077H57.3886ZM62.6856 262.776C62.0166 264.59 59.1571 265.841 55.9756 265.841C55.5283 265.841 55.0684 265.817 54.6085 265.764C50.9337 265.34 48.5423 263.306 49.3032 261.228C49.9638 259.414 52.8192 258.155 55.9965 258.155C56.448 258.155 56.9037 258.179 57.3677 258.232C61.0551 258.656 63.4506 260.698 62.6856 262.772V262.776Z" fill="#120E1E"/>
<path d="M58.4054 257.115C57.7625 257.034 57.1195 257 56.4893 257C52.0733 257 48.1058 258.794 47.1963 261.397C46.1389 264.37 49.4593 267.288 54.5943 267.89C55.2373 267.966 55.8802 268 56.5105 268C60.918 268 64.8813 266.21 65.8077 263.611C66.8524 260.634 63.5362 257.717 58.4054 257.115ZM65.6511 263.552C64.7629 266.032 60.9222 267.835 56.5105 267.835C55.876 267.835 55.2373 267.801 54.6113 267.724C51.4347 267.351 48.7868 266.024 47.6955 264.264C47.1371 263.361 47.0187 262.39 47.3528 261.453C48.22 258.968 52.0649 257.17 56.4851 257.17C57.1195 257.17 57.7583 257.208 58.3843 257.28C61.5525 257.657 64.2003 258.98 65.2916 260.736C65.8542 261.639 65.9768 262.615 65.6469 263.552H65.6511Z" fill="#120E1E"/>
<path d="M62.3059 259.838C63.4653 260.831 63.8888 262.035 63.5023 263.235C62.8445 265.19 60.0364 266.61 56.8254 266.61C56.3773 266.61 55.9251 266.584 55.5591 266.469L55 267.885C55.6167 267.965 56.2375 268 56.8542 268C61.1753 268 64.9454 266.103 65.817 263.487C66.335 261.916 65.7348 260.275 64.2506 259L62.31 259.838H62.3059Z" fill="white"/>
<path d="M64.1448 259L62.2074 259.966C63.276 260.872 63.7533 262.025 63.3658 263.207C62.7131 265.136 59.9232 266.466 56.8192 266.466C56.3827 266.466 55.9341 266.44 55.4854 266.384L55 267.887C55.62 267.965 56.24 268 56.8477 268C61.0979 268 64.9198 266.171 65.8131 263.515C66.3597 261.869 65.6785 260.244 64.1489 259H64.1448ZM65.6581 263.454C64.8015 265.989 61.0979 267.831 56.8437 267.831C56.2971 267.831 55.7505 267.801 55.2121 267.74L55.5915 266.566C55.9953 266.613 56.4072 266.631 56.8151 266.631C60.0334 266.631 62.8559 265.214 63.5167 263.259C63.8919 262.116 63.533 260.967 62.501 260.005L64.1244 259.199C65.5928 260.43 66.1476 261.977 65.6581 263.459V263.454Z" fill="#120E1E"/>
<path d="M49.5324 263L47 263.154C47.6385 265.563 50.6251 267.507 54.4429 268L55 266.577C52.1634 266.214 49.9309 264.753 49.5324 263V263Z" fill="white"/>
<path d="M49.5734 263L47 263.26C47.6232 265.558 50.5188 267.516 54.4955 268L55 266.445C52.1214 266.087 50.0355 264.667 49.5734 263V263ZM54.381 267.807C50.7816 267.332 47.9496 265.59 47.2204 263.417L49.4547 263.193C50.0143 264.891 52.0705 266.208 54.7753 266.598L54.381 267.812V267.807Z" fill="#120E1E"/>
<path d="M39.2849 250.105C38.8547 250.033 38.4245 250 37.9942 250C35.7298 250 33.7417 250.925 33.162 252.249C32.9265 252.788 32.9491 253.35 33.2209 253.884C33.7326 254.88 35.037 255.628 36.7035 255.895C37.1338 255.967 37.5731 256 37.9988 256C40.2677 256 42.2559 255.075 42.8356 253.751C43.0711 253.217 43.0529 252.654 42.7857 252.125C42.2739 251.125 40.9651 250.372 39.2849 250.1V250.105Z" fill="white"/>
<path d="M39.2778 250.102C38.8508 250.032 38.4193 250 37.9967 250C35.7903 250 33.7663 250.891 33.1658 252.236C32.4674 253.834 34.0376 255.478 36.7155 255.898C37.1426 255.968 37.5741 256 38.0011 256C40.212 256 42.236 255.109 42.8276 253.769C43.5438 252.175 41.9646 250.527 39.2778 250.106V250.102ZM42.6675 253.686C42.1114 254.938 40.1942 255.815 37.9967 255.815C37.5741 255.815 37.1515 255.783 36.7378 255.718C35.1275 255.464 33.873 254.753 33.3837 253.815C33.1257 253.326 33.1079 252.808 33.3214 252.314C33.8819 251.062 35.8036 250.185 37.9922 250.185C38.4148 250.185 38.8374 250.222 39.2467 250.286C40.8481 250.54 42.1381 251.27 42.6185 252.203C42.8676 252.688 42.881 253.206 42.663 253.695L42.6675 253.686Z" fill="#120E1E"/>
<path d="M39.9611 247.189C39.1377 247.065 38.3101 247 37.4995 247C33.1906 247 29.4193 248.693 28.3143 251.113C27.8621 252.099 27.9005 253.133 28.4124 254.107C29.3894 255.937 31.8681 257.328 35.0464 257.819C35.8613 257.944 36.6761 258 37.4824 258C41.7998 258 45.5797 256.312 46.6846 253.895C47.1369 252.905 47.1027 251.867 46.5822 250.889C45.6053 249.059 43.1309 247.676 39.9568 247.189H39.9611ZM44.3126 253.585C43.4893 255.39 40.6821 256.648 37.4952 256.648C36.9022 256.648 36.3007 256.605 35.7034 256.51C33.3484 256.144 31.5055 255.11 30.7759 253.736C30.3749 252.987 30.3493 252.186 30.6991 251.423C31.5225 249.619 34.3297 248.361 37.5165 248.361C38.1095 248.361 38.7111 248.404 39.3126 248.499C41.6591 248.852 43.502 249.886 44.2316 251.255C44.6368 252.013 44.6625 252.814 44.3126 253.585V253.585Z" fill="white"/>
<path d="M38.7856 248.13C38.204 248.045 37.6098 248 37.0114 248C33.8521 248 31.0693 249.21 30.2492 250.945C29.8935 251.69 29.9186 252.473 30.3245 253.206C31.0484 254.525 32.8813 255.523 35.2163 255.87C35.7979 255.959 36.3921 256 36.9863 256C40.1456 256 42.9283 254.786 43.7527 253.051C44.1084 252.301 44.0791 251.515 43.6732 250.778C42.9409 249.458 41.1164 248.468 38.7856 248.126V248.13ZM43.6021 252.99C42.7861 254.705 40.0117 255.841 36.9863 255.841C36.4089 255.841 35.8272 255.8 35.2413 255.715C31.5924 255.169 29.4249 253.055 30.3957 251.014C31.2117 249.295 33.986 248.163 37.0114 248.163C37.5889 248.163 38.1747 248.204 38.7606 248.293C42.3969 248.827 44.577 250.941 43.6021 252.994V252.99Z" fill="#120E1E"/>
<path d="M39.9458 247.191C39.1299 247.064 38.3056 247 37.4982 247C33.2962 247 29.4493 248.633 28.3206 251.096C26.9721 254.027 30.0031 257.037 35.0548 257.818C35.8664 257.941 36.6823 258 37.4813 258C41.6875 258 45.5471 256.367 46.68 253.908C48.0243 250.986 45.0102 247.958 39.9458 247.187V247.191ZM46.5278 253.84C45.4456 256.194 41.7298 257.839 37.4855 257.839C36.6781 257.839 35.8707 257.775 35.0844 257.656C31.9561 257.173 29.5212 255.825 28.57 254.044C28.0712 253.111 28.0374 252.114 28.477 251.168C29.5508 248.815 33.2666 247.17 37.5024 247.17C38.3183 247.17 39.13 247.233 39.9247 247.352C43.0445 247.827 45.471 249.171 46.4264 250.952C46.9294 251.889 46.9632 252.89 46.5278 253.836V253.84Z" fill="#120E1E"/>
<path d="M39.849 247.19C39.013 247.062 38.1813 247 37.3583 247C35.4437 247 33.5854 247.335 32 247.812L33.4771 249.066C34.6423 248.62 35.9852 248.381 37.3583 248.381C37.9647 248.381 38.5799 248.43 39.1907 248.527C41.5731 248.889 43.4443 249.948 44.1851 251.352C44.5966 252.129 44.6226 252.954 44.2024 253.616L46.7061 254C47.1393 253.003 47.0916 251.961 46.5762 250.977C45.5842 249.101 43.0718 247.684 39.849 247.185V247.19Z" fill="white"/>
<path d="M39.8376 247.189C39.0092 247.06 38.1808 247 37.361 247C35.4295 247 33.5709 247.339 32 247.945L33.5452 249.182C34.6612 248.761 35.9875 248.525 37.361 248.525C37.9576 248.525 38.5628 248.567 39.1637 248.662C42.8937 249.225 45.1299 251.453 44.1298 253.618L46.6751 254C48.04 251.041 44.9796 247.975 39.8376 247.193V247.189ZM46.5678 253.807L44.3659 253.476C44.632 252.746 44.5762 251.994 44.1985 251.286C43.4473 249.894 41.5759 248.851 39.1852 248.49C38.5885 248.396 37.9705 248.348 37.3567 248.348C36.0218 248.348 34.7127 248.572 33.571 248.988L32.3391 248.001C33.8585 247.46 35.584 247.172 37.361 247.172C38.1851 247.172 39.0135 247.236 39.8161 247.356C42.9838 247.837 45.4475 249.199 46.4176 251.002C46.9069 251.917 46.9584 252.883 46.5721 253.811L46.5678 253.807Z" fill="#120E1E"/>
<path d="M38 256.685L38.2549 258C41.9656 257.756 44.9762 256.299 46 254.394L43.6854 254C42.9813 255.492 40.6667 256.614 38 256.689V256.685Z" fill="white"/>
<path d="M38 256.656L38.2641 258C41.8539 257.782 45.0075 256.385 46 254.341L43.6268 254C42.9224 255.478 40.6173 256.503 38 256.66V256.656ZM45.7599 254.455C44.7434 256.258 41.8339 257.598 38.3922 257.839L38.1881 256.794C40.7854 256.595 42.9705 255.55 43.7188 254.161L45.7599 254.455V254.455Z" fill="#120E1E"/>
<path d="M67.1316 228.203C66.8943 228.07 66.5779 228 66.2439 228C65.9099 228 65.5846 228.07 65.3473 228.203C65.1188 228.327 64.9957 228.484 65.0001 228.646C65.0001 228.803 65.1232 228.956 65.3429 229.076L75.8641 234.801C76.0971 234.93 76.4178 235 76.7606 235C77.1034 235 77.4199 234.93 77.6528 234.801C77.8769 234.681 78 234.524 78 234.362C78 234.201 77.8769 234.044 77.6528 233.92L67.136 228.203H67.1316Z" fill="white"/>
<path d="M67.2364 228.21C66.9804 228.069 66.6464 228 66.3167 228C65.987 228 65.6399 228.069 65.3839 228.21C64.8764 228.49 64.8677 228.927 65.3839 229.202L75.7653 234.798C76.0169 234.931 76.3553 235 76.6936 235C77.032 235 77.3661 234.935 77.6177 234.798C78.1296 234.518 78.1253 234.073 77.6177 233.798L67.2364 228.21V228.21ZM77.5353 234.66C77.3184 234.777 77.0103 234.842 76.6936 234.842C76.377 234.842 76.069 234.777 75.8521 234.66L65.4707 229.064C65.2798 228.963 65.1714 228.838 65.1714 228.712C65.1714 228.587 65.2798 228.453 65.4707 228.352C65.6963 228.231 65.9956 228.162 66.3167 228.162C66.6377 228.162 66.9283 228.227 67.1496 228.348L77.5309 233.936C77.7218 234.037 77.8303 234.175 77.8303 234.3C77.8303 234.425 77.7262 234.555 77.5353 234.66V234.66Z" fill="#120E1E"/>
<path d="M65.1396 230.203C64.9023 230.074 64.586 230 64.2521 230C63.9182 230 63.5887 230.074 63.3471 230.207C63.123 230.327 63 230.484 63 230.645C63 230.806 63.123 230.959 63.3427 231.083L73.856 236.797C74.0977 236.926 74.414 237 74.7566 237C75.0993 237 75.4113 236.926 75.6529 236.797C75.8726 236.678 76 236.52 76 236.359C76 236.198 75.8726 236.045 75.6529 235.921L65.144 230.203H65.1396Z" fill="white"/>
<path d="M75.6145 235.802L65.2432 230.206C64.9872 230.065 64.6532 230 64.3235 230C63.9939 230 63.6469 230.069 63.3866 230.21C62.8748 230.486 62.8704 230.923 63.3779 231.202L73.7623 236.794C74.0182 236.931 74.3522 237 74.6906 237C75.0289 237 75.3542 236.931 75.6145 236.794C76.1307 236.518 76.1263 236.069 75.6145 235.798V235.802ZM75.5278 236.656C75.3065 236.777 75.0115 236.842 74.6906 236.842C74.3696 236.842 74.0703 236.777 73.8447 236.656L63.4647 231.068C63.2738 230.963 63.1697 230.834 63.1697 230.708C63.1697 230.583 63.2781 230.453 63.469 230.348C63.6902 230.227 64.0026 230.158 64.3192 230.158C64.6359 230.158 64.9308 230.223 65.152 230.344L75.5278 235.94C75.7143 236.041 75.827 236.171 75.827 236.3C75.827 236.429 75.7186 236.559 75.5278 236.66V236.656Z" fill="#120E1E"/>
<path d="M62.1403 231.199C61.903 231.07 61.5865 231 61.2525 231C60.9185 231 60.5933 231.074 60.3472 231.203C60.1186 231.327 60 231.488 60 231.65C60 231.811 60.1187 231.964 60.3428 232.084L70.8597 237.797C71.097 237.926 71.4135 238 71.7563 238C72.0991 238 72.4155 237.926 72.6528 237.797C72.8769 237.677 73 237.52 73 237.359C73 237.197 72.8769 237.036 72.6528 236.912L62.1403 231.199Z" fill="white"/>
<path d="M62.2399 231.202C61.984 231.065 61.6501 231 61.3205 231C60.9909 231 60.644 231.069 60.3838 231.206C59.8764 231.486 59.8677 231.927 60.3838 232.206L70.7612 237.794C71.0171 237.931 71.351 238 71.6893 238C72.0275 238 72.3571 237.931 72.613 237.794C73.129 237.518 73.129 237.069 72.613 236.794L62.2442 231.206L62.2399 231.202ZM72.5262 237.652C72.3007 237.773 72.0058 237.838 71.6893 237.838C71.3727 237.838 71.0691 237.773 70.8479 237.652L60.4706 232.064C60.2797 231.963 60.1713 231.838 60.1713 231.708C60.1713 231.579 60.2797 231.445 60.4706 231.344C60.6961 231.227 61.0039 231.158 61.3205 231.158C61.6371 231.158 61.932 231.219 62.1531 231.34L72.5262 236.928C72.717 237.029 72.8254 237.166 72.8254 237.292C72.8254 237.421 72.7213 237.547 72.5262 237.652Z" fill="#120E1E"/>
<path d="M87.144 240.203C86.9023 240.07 86.5904 240 86.2477 240C85.905 240 85.5887 240.075 85.347 240.203C85.1274 240.327 85 240.484 85 240.642C85 240.799 85.1274 240.956 85.3426 241.076L95.8604 246.797C96.0977 246.925 96.4183 247 96.7566 247C97.0949 247 97.4157 246.93 97.6529 246.801C97.8726 246.681 97.9956 246.528 98 246.362C98 246.197 97.877 246.04 97.6529 245.915L87.144 240.199V240.203Z" fill="white"/>
<path d="M97.6193 245.798L87.2375 240.21C86.9816 240.069 86.6475 240 86.3135 240C85.9794 240 85.6367 240.073 85.3807 240.21C84.8731 240.49 84.8731 240.931 85.3807 241.202L95.7668 246.794C96.0228 246.931 96.3568 247 96.6952 247C97.0336 247 97.3633 246.931 97.6193 246.798C98.1312 246.523 98.1226 246.073 97.6193 245.798ZM97.5326 246.66C97.3113 246.777 97.0119 246.846 96.6952 246.846C96.3785 246.846 96.0748 246.782 95.8493 246.66L85.4674 241.068C85.2766 240.967 85.1725 240.846 85.1725 240.716C85.1725 240.587 85.2809 240.457 85.4718 240.356C85.6974 240.235 85.9968 240.166 86.3178 240.166C86.6388 240.166 86.9338 240.235 87.1551 240.352L97.5326 245.94C97.7191 246.041 97.8319 246.179 97.8319 246.308C97.8319 246.438 97.7234 246.563 97.5326 246.664V246.66Z" fill="#120E1E"/>
<path d="M85.1403 242.199C84.903 242.07 84.5866 242 84.2438 242C83.901 242 83.5845 242.075 83.3516 242.203C83.1231 242.323 83 242.48 83 242.642C83 242.803 83.1231 242.96 83.3472 243.08L93.8597 248.797C94.1014 248.93 94.4222 249 94.7694 249C95.1166 249 95.4243 248.93 95.6528 248.801C95.8813 248.681 96 248.52 96 248.358C96 248.197 95.8725 248.04 95.6528 247.92L85.1403 242.195V242.199Z" fill="white"/>
<path d="M95.6118 247.795L85.2356 242.202C84.9797 242.065 84.6457 242 84.3117 242C83.9777 242 83.6436 242.069 83.3877 242.206C82.8715 242.481 82.8715 242.93 83.3834 243.205L93.7595 248.79C94.0155 248.931 94.3581 249 94.7008 249C95.0435 249 95.3645 248.931 95.6161 248.798C96.1323 248.519 96.1236 248.07 95.6161 247.799L95.6118 247.795ZM95.525 248.656C95.3125 248.774 95.0088 248.838 94.6965 248.838C94.3841 248.838 94.0632 248.769 93.8463 248.648L83.4701 243.064C83.2792 242.962 83.1708 242.833 83.1708 242.704C83.1708 242.574 83.2792 242.445 83.4744 242.344C83.6957 242.226 83.995 242.162 84.3117 242.162C84.6283 242.162 84.9276 242.226 85.1488 242.344L95.5294 247.936C95.7159 248.038 95.8286 248.171 95.8286 248.296C95.8286 248.422 95.7202 248.559 95.5294 248.66L95.525 248.656Z" fill="#120E1E"/>
<path d="M82.1417 243.199C81.8999 243.07 81.5832 243 81.2446 243C80.9059 243 80.5849 243.074 80.3474 243.203C80.1231 243.327 80 243.484 80 243.641C80 243.798 80.1188 243.956 80.343 244.08L90.8627 249.797C91.1045 249.93 91.4256 250 91.7686 250C92.1117 250 92.4239 249.93 92.6526 249.806C92.8769 249.681 93 249.524 93 249.363C93 249.202 92.8725 249.04 92.6526 248.916L82.1373 243.203L82.1417 243.199Z" fill="white"/>
<path d="M92.6128 248.79L82.2363 243.202C81.9803 243.065 81.6463 243 81.3123 243C80.9782 243 80.6442 243.069 80.3883 243.206C79.872 243.486 79.872 243.927 80.3796 244.202L90.7605 249.794C91.0164 249.931 91.3591 250 91.6975 250C92.0359 250 92.3612 249.935 92.6128 249.802C93.1334 249.523 93.1247 249.073 92.6128 248.794V248.79ZM92.5304 249.656C92.3135 249.773 92.0142 249.838 91.6975 249.838C91.3808 249.838 91.0685 249.769 90.8472 249.652L80.4664 244.06C80.2755 243.959 80.1714 243.834 80.1714 243.704C80.1714 243.575 80.2798 243.445 80.4707 243.344C80.692 243.227 80.9912 243.162 81.3079 243.162C81.6246 243.162 81.9283 243.227 82.1452 243.344L92.5217 248.932C92.7126 249.033 92.821 249.171 92.821 249.296C92.821 249.421 92.7126 249.559 92.5217 249.66L92.5304 249.656Z" fill="#120E1E"/>
<path d="M196.566 241.617L188.536 237.237C187.951 236.921 187.016 236.921 186.435 237.237C185.855 237.554 185.855 238.068 186.435 238.384L194.466 242.76C195.042 243.08 195.982 243.08 196.566 242.76C197.147 242.447 197.143 241.933 196.566 241.617Z" fill="#120E1E"/>
<path d="M184.569 234.602L178.525 231.24C177.944 230.92 177.013 230.92 176.433 231.24C175.856 231.561 175.856 232.081 176.433 232.402L182.485 235.76C183.058 236.08 183.988 236.08 184.569 235.76C185.146 235.443 185.142 234.919 184.569 234.602Z" fill="#120E1E"/>
<path d="M189.574 245.613L181.542 241.24C180.953 240.92 180.02 240.92 179.436 241.24C178.855 241.553 178.855 242.066 179.436 242.387L187.468 246.76C188.048 247.08 188.985 247.08 189.574 246.76C190.142 246.443 190.142 245.926 189.574 245.613Z" fill="#120E1E"/>
<path d="M175.564 253.619L167.537 249.238C166.953 248.921 166.012 248.921 165.436 249.238C164.855 249.554 164.855 250.068 165.436 250.381L173.463 254.762C174.047 255.079 174.984 255.079 175.564 254.762C176.145 254.446 176.145 253.936 175.564 253.619Z" fill="#120E1E"/>
<path d="M164 197.63L164.06 232C169.745 228.721 172.867 224.399 172.855 219.82L173 187C172.972 191.446 164.334 197.443 164 197.626V197.63Z" fill="#E20338"/>
<path d="M164 197.61L164.06 232C170.011 228.615 173.012 224.164 173 219.724L172.988 187C172.98 191.444 164.004 197.606 164.004 197.606L164 197.61ZM164.217 231.722L164.157 197.698C164.962 197.141 171.326 192.61 172.831 188.591L172.839 219.728C172.851 224.23 169.793 228.483 164.217 231.726V231.722Z" fill="#120E1E"/>
<path d="M154.903 184.778C154.854 184.533 154.774 184.283 154.681 184.041C153.128 180.112 147.526 178.762 145.189 178.362C143.782 178.121 142.343 178 140.916 178C138.147 178 135.431 178.471 133.054 179.354C132.342 179.625 131.663 179.929 131.073 180.2L131 215.113C131.639 214.767 132.326 214.455 133.045 214.188C135.431 213.296 138.163 212.821 140.952 212.821C142.315 212.821 143.689 212.93 145.039 213.151C147.728 213.58 152.542 214.809 154.66 218.379C154.757 218.538 154.859 218.696 155 219L154.992 185.533C154.984 185.278 154.956 185.028 154.903 184.778Z" fill="#D9D9D9"/>
<path d="M154.899 184.775C154.851 184.524 154.77 184.276 154.674 184.029C153.292 180.559 148.692 178.964 145.155 178.363C143.757 178.124 142.323 178 140.885 178C138.198 178 135.5 178.429 133.026 179.348C132.313 179.615 131.632 179.92 131 180.262L131.048 214.871C131.681 214.529 132.362 214.224 133.075 213.96C135.544 213.037 138.243 212.612 140.925 212.612C142.291 212.612 143.657 212.724 144.982 212.938C148.378 213.478 152.599 214.871 154.4 217.887C154.549 218.135 154.722 218.382 154.827 218.641C154.875 218.761 154.944 218.88 155 219V185.546C155 185.546 155 185.546 155 185.537C154.992 185.282 154.964 185.03 154.907 184.779L154.899 184.775ZM154.839 218.304C154.778 218.192 154.71 218.089 154.645 217.982C154.609 217.92 154.569 217.858 154.529 217.797C152.519 214.426 147.697 213.202 145.002 212.773C143.653 212.559 142.279 212.448 140.921 212.448C138.134 212.448 135.399 212.913 133.014 213.803C132.382 214.034 131.773 214.306 131.201 214.599L131.153 180.357C131.745 180.04 132.394 179.751 133.075 179.496C135.435 178.622 138.13 178.161 140.881 178.161C142.299 178.161 143.729 178.28 145.127 178.519C147.443 178.915 152.994 180.246 154.525 184.087C154.621 184.33 154.694 184.565 154.742 184.808C154.795 185.047 154.823 185.29 154.831 185.533C154.831 185.546 154.831 185.554 154.831 185.566V218.299L154.839 218.304Z" fill="#120E1E"/>
<path d="M151 215.414L162.96 222L163 198.731L151.044 192L151 215.414Z" fill="white"/>
<path d="M151 215.378L163 222V198.626L151 192V215.378ZM151.155 192.268L162.845 198.721V221.728L151.155 215.279V192.268V192.268Z" fill="#120E1E"/>
<path d="M119 210.465L130.96 217L131 180.67L119.04 174L119 210.465Z" fill="white"/>
<path d="M119 210.424L131 217V180.576L119 174V210.424ZM119.159 174.27L130.845 180.674V216.73L119.159 210.326V174.27Z" fill="#120E1E"/>
<path d="M164.025 174.643C158.438 170.951 151.07 169 142.723 169C134.375 169 125.629 171.059 119 174.5L131.298 181.248C134.022 179.774 137.644 178.962 141.484 178.962C145.323 178.962 148.937 179.774 151.649 181.252C154.368 182.738 155.862 184.709 155.858 186.815C155.858 188.937 154.336 190.926 151.583 192.269L163.922 199C169.673 195.873 172.812 191.972 172.992 187.719C173.181 183.24 169.998 178.598 164.021 174.647L164.025 174.643Z" fill="#E20338"/>
<path d="M164.003 174.626C158.069 170.715 150.428 169 142.705 169C134.176 169 125.544 171.093 119 174.626L131.348 181.335C134.147 179.824 137.814 179.067 141.473 179.067C145.132 179.067 148.791 179.824 151.578 181.339C157.144 184.364 157.115 189.266 151.512 192.292L163.86 199C176.327 192.271 175.717 182.346 164.003 174.626V174.626ZM163.86 198.813L151.852 192.288C154.459 190.81 155.892 188.867 155.896 186.794C155.896 184.672 154.39 182.679 151.652 181.193C148.934 179.716 145.32 178.904 141.473 178.904C137.626 178.904 134.073 179.699 131.348 181.147L119.344 174.626C125.908 171.151 134.401 169.166 142.709 169.166C151.025 169.166 158.355 171.106 163.913 174.768C169.848 178.68 173.016 183.266 172.827 187.689C172.647 191.88 169.545 195.725 163.856 198.817L163.86 198.813Z" fill="#120E1E"/>
<path d="M122 213.624L130 218V193.38L122 189V213.624Z" fill="white"/>
<path d="M122 213.241L131 218V192.763L122 188V213.237V213.241ZM122.826 189.369L130.174 193.253V216.635L122.826 212.751V189.369Z" fill="#120E1E"/>
<path d="M109.111 196.259C108.627 199.21 109.737 202.231 112.315 205L127.375 200.951C126.349 199.678 125.923 198.306 126.148 196.942C126.436 195.173 127.763 193.552 130 192.226L118.266 186C112.975 188.835 109.724 192.47 109.102 196.259H109.111Z" fill="white"/>
<path d="M131 192.705L118.566 186C108.522 191.379 106.165 199.22 112.553 206L128.292 201.699C125.42 198.65 126.483 195.126 131 192.705V192.705ZM125.947 197.381C125.737 198.691 126.059 200.002 126.883 201.233L112.821 205.077C110.476 202.439 109.474 199.598 109.919 196.828C110.505 193.2 113.571 189.698 118.57 186.932L129.347 192.743C127.39 194.066 126.223 195.655 125.947 197.381V197.381Z" fill="#120E1E"/>
<path d="M111.061 205.411L110.494 204.672C110.494 204.672 109.918 203.806 109.914 203.806C109.751 203.542 109.597 203.274 109.451 202.982C109.313 202.718 109.192 202.454 109.029 202.078C109.021 202.049 109.008 202.025 109 202L109.096 220.29C109.117 220.336 109.163 220.575 109.163 220.616C109.171 220.847 109.188 221.074 109.234 221.4C109.263 221.622 109.3 221.841 109.363 222.142C109.413 222.369 109.48 222.6 109.597 222.971C109.672 223.202 109.751 223.429 109.889 223.758C109.993 224.006 110.106 224.249 110.239 224.517C110.369 224.765 110.51 225.016 110.748 225.4L111.057 225.866L111.387 226.32L111.937 227L112 206.462C111.804 206.26 111.616 206.054 111.378 205.782L111.061 205.402V205.411Z" fill="white"/>
<path d="M112.368 205.238C112.302 205.163 112.235 205.092 112.169 205.021C112.103 204.946 112.041 204.875 111.975 204.8C111.904 204.717 111.833 204.633 111.762 204.55C111.705 204.475 111.643 204.404 111.586 204.329L111.077 205.059L111.294 205.317L111.497 205.547L111.709 205.781C111.829 205.914 111.952 206.039 112.076 206.173L112.12 225.697L111.997 225.534L111.811 225.259L111.594 224.934C111.44 224.692 111.294 224.45 111.157 224.195C111.029 223.949 110.914 223.711 110.764 223.373C110.666 223.148 110.587 222.927 110.463 222.56C110.392 222.343 110.326 222.122 110.26 221.826C110.211 221.609 110.171 221.396 110.127 221.087C110.101 220.87 110.083 220.649 110.07 220.345C110.061 220.211 110.03 220.103 109.994 220.023L109.906 203.415C109.959 203.494 110.003 203.569 110.052 203.645L110.154 203.799L110.308 204.028L110.503 204.304L110.675 204.537C110.741 204.629 110.817 204.729 110.896 204.825L111.586 204.329C111.519 204.245 111.453 204.158 111.391 204.074C111.334 203.999 111.276 203.928 111.223 203.849C111.161 203.761 111.104 203.678 111.046 203.59C110.993 203.515 110.945 203.444 110.896 203.373C110.861 203.323 110.83 203.273 110.799 203.227C110.631 202.969 110.481 202.71 110.335 202.447C110.326 202.439 110.326 202.431 110.326 202.422C110.185 202.164 110.061 201.909 109.946 201.646C109.928 201.613 109.911 201.575 109.893 201.542C109.791 201.3 109.698 201.058 109.619 200.82C109.601 200.77 109.583 200.72 109.57 200.674C109.491 200.428 109.42 200.186 109.362 199.944C109.354 199.915 109.349 199.886 109.34 199.861C109.287 199.627 109.239 199.393 109.208 199.16C109.199 199.122 109.177 199.089 109.172 199.055C109.141 198.809 109.088 198.572 109.08 198.33C109.075 198.221 109 198.113 109 198V198.025L109.119 220.144C109.119 220.228 109.186 220.311 109.19 220.399C109.19 220.42 109.19 220.449 109.19 220.47C109.199 220.716 109.221 220.954 109.252 221.196C109.252 221.229 109.261 221.267 109.265 221.3C109.301 221.534 109.345 221.767 109.393 222.001C109.393 222.022 109.402 222.043 109.402 222.063C109.402 222.072 109.402 222.08 109.411 222.084C109.469 222.33 109.539 222.572 109.619 222.814C109.632 222.864 109.65 222.914 109.667 222.96C109.747 223.202 109.84 223.444 109.941 223.682C109.941 223.695 109.95 223.707 109.955 223.72C109.964 223.745 109.977 223.77 109.986 223.795C110.101 224.053 110.224 224.308 110.366 224.571C110.366 224.579 110.375 224.587 110.379 224.596C110.52 224.854 110.675 225.113 110.843 225.372C110.861 225.397 110.874 225.426 110.887 225.451C110.901 225.472 110.923 225.501 110.936 225.522C110.989 225.597 111.038 225.668 111.091 225.743C111.152 225.831 111.21 225.914 111.272 226.002C111.325 226.077 111.378 226.148 111.435 226.223C111.502 226.31 111.564 226.394 111.63 226.477C111.692 226.552 111.754 226.623 111.811 226.698C111.882 226.786 111.952 226.869 112.023 226.953C112.089 227.028 112.151 227.099 112.218 227.17C112.257 227.22 112.297 227.266 112.346 227.316C112.368 227.341 112.394 227.366 112.412 227.391C112.598 227.595 112.792 227.8 113 228L112.947 205.856C112.744 205.655 112.554 205.451 112.364 205.247L112.368 205.238Z" fill="#120E1E"/>
<path d="M113 205.979L113.045 226.975L128 228L127.955 202L113 205.979Z" fill="white"/>
<path d="M113 205.202L113.05 226.916L129 228L128.95 201L113 205.202ZM113.869 226.169L113.823 205.815L128.127 202.048L128.169 227.139L113.869 226.169V226.169Z" fill="#120E1E"/>
<path d="M115.41 214.24C114.473 213.563 113.611 212.828 113 212L113.021 227.852C113.477 228.319 113.962 228.765 114.49 229.2C122.155 235.535 133.761 236.797 139.996 236.98L141 237L140.9 222.45C131.912 222.365 121.908 219.143 115.406 214.24H115.41Z" fill="#E20338"/>
<path d="M115.528 214.168C114.593 213.493 113.748 212.768 113 212L113.05 227.855C113.503 228.32 113.985 228.769 114.514 229.202C121.158 234.711 131.112 236.713 139.911 236.98C140.277 236.992 141 237 141 237V222.342L140.817 222.334C132.235 222.253 122.247 219.248 115.528 214.168V214.168ZM140.834 236.838C140.601 236.838 140.168 236.83 139.915 236.818C133.728 236.632 122.218 235.382 114.617 229.081C114.127 228.676 113.657 228.243 113.212 227.79L113.166 212.392C113.848 213.064 114.613 213.703 115.428 214.289C121.902 219.187 131.869 222.407 140.809 222.492H140.834V236.834V236.838Z" fill="#120E1E"/>
<path d="M113 211.221C113.746 212.02 114.596 212.776 115.525 213.477C122.113 218.649 132.042 221.992 140.817 221.992C140.817 221.992 140.871 221.992 140.921 222L141 211.28C135.821 211.124 131.142 209.472 128.875 207L113 211.225V211.221Z" fill="white"/>
<path d="M113.004 211.316C113.752 212.11 114.596 212.854 115.531 213.556C122.216 218.758 132.258 221.992 140.813 221.992C140.834 221.992 141 222 141 222V211.233C136.008 211.086 131.302 209.557 128.879 207L113 211.316H113.004ZM140.838 221.829H140.817C132.08 221.829 122.195 218.528 115.631 213.422C114.787 212.791 114.01 212.114 113.316 211.4L128.829 207.18C131.186 209.603 135.762 211.203 140.838 211.387V221.829V221.829Z" fill="#120E1E"/>
<path d="M140.004 227.675V236.992L140.616 237L141.712 236.984C149.46 236.796 156.468 235.177 162 232.301L161.952 223C158.688 223.812 142.78 227.203 140 227.675H140.004Z" fill="white"/>
<path d="M140 226.882V236.992C140.388 236.996 140.715 237 141.021 237C141.397 237 141.744 236.992 142.136 236.984C149.314 236.811 156.73 235.426 163 232.114L162.952 222C162.641 222.161 140.864 226.878 140 226.878V226.882ZM142.111 236.195C141.724 236.203 141.385 236.211 141.017 236.211H140.795V227.55C144.3 226.91 158.038 223.984 162.156 223.01L162.205 231.639C156.71 234.432 149.778 236.01 142.115 236.195H142.111Z" fill="#120E1E"/>
<path d="M146.992 216.366C144.919 216.942 142.699 217.236 140.393 217.236L140 217.228V225.987L141.135 225.979C141.548 225.992 141.962 226 142.38 226C148.913 226 155.975 224.331 161.758 221.418C161.836 221.376 161.918 221.339 162 221.297L150.515 215C149.413 215.58 148.348 215.992 146.996 216.366H146.992Z" fill="white"/>
<path d="M147.207 216.447C145.147 217.033 142.958 217.308 140.793 217.308C140.526 217.308 140.267 217.308 140 217.3V226.979C140.21 226.987 140.421 226.987 140.631 226.987C140.923 226.987 141.218 226.987 141.513 226.979C141.926 226.991 142.339 227 142.756 227C149.307 227 156.364 225.273 162.069 222.332C162.381 222.175 162.688 222.014 163 221.84L150.792 215C149.683 215.615 148.595 216.057 147.207 216.447ZM142.756 226.156C142.347 226.156 141.946 226.147 141.497 226.134C141.262 226.143 141.032 226.143 140.801 226.143V218.14C143.112 218.14 145.337 217.843 147.413 217.249C148.684 216.888 149.744 216.481 150.784 215.938L161.256 221.806C155.688 224.573 148.979 226.151 142.756 226.151V226.156Z" fill="#120E1E"/>
<path d="M95.8643 181C95.2806 181 94.7213 181.163 94.1947 181.485L67 196.629L70.1595 203L97.6849 188.888C98.8075 188.207 99.6158 187.135 99.8974 185.945C100.122 184.991 99.975 184.033 99.4851 183.258C98.8279 182.215 97.489 181 95.8684 181H95.8643Z" fill="white"/>
<path d="M95.8089 181C95.248 181 94.6709 181.145 94.1061 181.493L67 196.607L70.182 203L97.6579 188.969C99.7548 187.704 100.657 185.142 99.4745 183.275C98.7145 182.071 97.3165 181 95.8089 181V181ZM99.7427 185.963C99.4663 187.122 98.678 188.169 97.5888 188.824L70.2552 202.782L67.2113 196.676L94.1914 181.63C94.7035 181.319 95.248 181.162 95.8089 181.162C97.3897 181.162 98.6982 182.346 99.3403 183.36C99.8199 184.112 99.9621 185.037 99.7427 185.963V185.963Z" fill="#120E1E"/>
<path d="M97.8859 188.454C97.2723 187.936 96.3846 187.86 95.6687 188.233C94.8383 188.671 94.4537 189.603 94.6869 190.503C94.8587 191.158 94.7483 191.965 93.7379 192.712C91.0912 194.677 81.6457 199.562 72.5684 204.089C71.3944 204.676 72.2166 206.415 73.4274 205.909C83.0447 201.908 93.4597 196.898 97.9922 192.427C99.7717 190.672 98.8431 189.266 97.8859 188.454V188.454Z" fill="#120E1E"/>
<path d="M67.6545 197C66.2472 197.016 64.8171 198.473 65.0192 200.534C65.2251 202.599 66.9375 204.016 68.3448 204C69.7521 203.984 71.1861 202.527 70.9802 200.466C70.778 198.401 69.0656 196.98 67.6545 197Z" fill="#120E1E"/>
<path d="M67.2937 197C66.6891 197 66.0396 197.183 65.3655 197.545C52.7868 204.5 28.8876 217.807 28.4423 218.368C28.0665 219.051 27.7478 219.8 28.2871 220.808C28.8672 221.866 29.7455 222 30.4441 222C32.7523 222 67.7595 202.852 68.1149 202.657C68.9851 202.198 69.6306 201.421 69.8839 200.526C70.0922 199.81 70.0187 199.086 69.6755 198.497C69.1077 197.521 68.2865 197 67.2937 197Z" fill="white"/>
<path d="M67.2235 197C66.5927 197 65.9213 197.198 65.258 197.554C65.258 197.554 28.7764 217.676 28.4508 218.274C28.109 218.893 27.7183 219.701 28.2921 220.772C28.8862 221.842 29.7896 222 30.514 222C32.8579 222 68.0781 202.774 68.0781 202.774C69.7465 201.889 70.479 199.93 69.6692 198.531C69.0466 197.461 68.1798 197.004 67.2276 197.004L67.2235 197ZM69.7262 200.56C69.4739 201.425 68.8472 202.18 67.9967 202.629C55.8293 209.272 32.333 221.834 30.514 221.834C29.8385 221.834 28.992 221.705 28.4345 220.695C27.9218 219.729 28.2311 219.006 28.577 218.367C29.1914 217.713 52.8913 204.56 65.3353 197.695C65.9986 197.339 66.6294 197.158 67.2194 197.158C68.192 197.158 68.9652 197.642 69.5227 198.604C69.8523 199.17 69.9255 199.865 69.7221 200.56H69.7262Z" fill="#120E1E"/>
<path d="M29.8205 220.745C29.4314 220.315 28.2081 219.316 26.1144 220.733C23.8281 222.275 15 229 15 229C15 229 25.3643 225.222 27.8712 224.126C30.1694 223.119 30.0691 221.506 29.9488 220.929L29.8205 220.749V220.745Z" fill="#120E1E"/>
<path d="M242.419 84.1387L140.435 27.4164C138.379 26.2738 133 27.3794 133 32.0237L135.851 117.631C135.851 118.753 136.457 119.793 137.441 120.34L237.483 179.651C239.539 180.794 244 179.154 244 174.345V86.8472C244 85.7211 243.39 84.6853 242.411 84.1387H242.419Z" fill="#120E1E"/>
<path d="M240.415 85.7073L220.177 74.4173L137.601 28.3962C135.524 27.2466 133 28.7341 133 31.1157V119.553C133 120.702 133.598 121.749 134.585 122.297L135.339 122.713L237.399 179.608C239.452 180.757 242 179.241 242 176.864V88.4515C242 87.3019 241.406 86.2553 240.415 85.7073V85.7073Z" fill="url(#paint3_linear_1_7741)"/>
<path d="M157 66.8747L161 69V68.1254L157 66V66.8747Z" fill="white"/>
<path d="M152 64.0035L157 67V65.9965L152 63V64.0035Z" fill="white"/>
<path d="M147 60.9171L150 63V62.0871L147 60V60.9171Z" fill="white"/>
<path d="M162 69.919L175 78V77.081L162 69V69.919Z" fill="white"/>
<path d="M162 72.8597L175 80V79.1362L162 72V72.8597Z" fill="white"/>
<path d="M158 69.9554L161 72V71.0446L158 69V69.9554Z" fill="white"/>
<path d="M162 68.8638L175 76V75.1362L162 68V68.8638Z" fill="white"/>
<path d="M158 65.9554L161 68V67.0491L158 65V65.9554Z" fill="white"/>
<path d="M148 55.8425L159 62V61.1614L148 55V55.8425Z" fill="white"/>
<path d="M170 70.9074L175 74V73.0927L170 70V70.9074Z" fill="white"/>
<path d="M164 67.7965L168 70V69.2035L164 67V67.7965Z" fill="white"/>
<path d="M157 62.9675L163 67V66.0325L157 62V62.9675Z" fill="white"/>
<path d="M150 58.797L156 62V61.203L150 58V58.797Z" fill="white"/>
<path d="M143 54.8153L149 58V57.1809L143 54V54.8153Z" fill="white"/>
<path d="M152 75.8688L161 81V80.1312L152 75V75.8688Z" fill="white"/>
<path d="M139 68.949L150 76V75.0554L139 68V68.949Z" fill="white"/>
<path d="M162 81.8431L171 87V86.1569L162 81V81.8431Z" fill="white"/>
<path d="M140 67.8231L144 70V69.1808L140 67V67.8231Z" fill="white"/>
<path d="M162 80.8638L175 88V87.1362L162 80V80.8638Z" fill="white"/>
<path d="M158 77.9523L161 80V79.0432L158 77V77.9523Z" fill="white"/>
<path d="M154 69.8925L171 80V79.1032L154 69V69.8925Z" fill="white"/>
<path d="M147 65.7644L151 68V67.2356L147 65V65.7644Z" fill="white"/>
<path d="M148 67.8386L159 74V73.1614L148 67V67.8386Z" fill="white"/>
<path d="M163 76.8797L175 84V83.1162L163 76V76.8797Z" fill="white"/>
<path d="M160 74.8789L162 76V75.1211L160 74V74.8789Z" fill="white"/>
<path d="M170 82.9106L175 86V85.0894L170 82V82.9106Z" fill="white"/>
<path d="M165 79.9264L168 82V81.0779L165 79V79.9264Z" fill="white"/>
<path d="M155 73.8349L164 79V78.1651L155 73V73.8349Z" fill="white"/>
<path d="M144 68.0059L149 71V69.9941L144 67V68.0059Z" fill="white"/>
<path d="M141 65.8747L143 67V66.1212L141 65V65.8747Z" fill="white"/>
<path d="M149 70.9896L154 74V73.015L149 70V70.9896Z" fill="white"/>
<path d="M156 97.8735L160 100V99.1265L156 97V97.8735Z" fill="white"/>
<path d="M151 94.9988L156 98V96.9965L151 94V94.9988Z" fill="white"/>
<path d="M146 91.9171L149 94V93.0829L146 91V91.9171Z" fill="white"/>
<path d="M161 100.919L174 109V108.081L161 100V100.919Z" fill="white"/>
<path d="M161 103.864L174 111V110.136L161 103V103.864Z" fill="white"/>
<path d="M157 100.957L160 103V102.048L157 100V100.957Z" fill="white"/>
<path d="M161 99.8597L174 107V106.136L161 99V99.8597Z" fill="white"/>
<path d="M157 96.9554L160 99V98.0446L157 96V96.9554Z" fill="white"/>
<path d="M147 86.8386L158 93V92.1614L147 86V86.8386Z" fill="white"/>
<path d="M169 101.907L174 105V104.088L169 101V101.907Z" fill="white"/>
<path d="M163 98.7938L167 101V100.206L163 98V98.7938Z" fill="white"/>
<path d="M156 93.9629L162 98V97.0325L156 93V93.9629Z" fill="white"/>
<path d="M149 89.797L155 93V92.1992L149 89V89.797Z" fill="white"/>
<path d="M142 85.8161L148 89V88.1839L142 85V85.8161Z" fill="white"/>
<path d="M151 106.869L160 112V111.131L151 106V106.869Z" fill="white"/>
<path d="M138 99.9446L149 107V106.051L138 99V99.9446Z" fill="white"/>
<path d="M161 112.844L170 118V117.156L161 112V112.844Z" fill="white"/>
<path d="M139 98.8192L143 101V100.181L139 98V98.8192Z" fill="white"/>
<path d="M161 111.86L174 119V118.14L161 111V111.86Z" fill="white"/>
<path d="M157 108.955L160 111V110.045L157 108V108.955Z" fill="white"/>
<path d="M153 100.897L170 111V110.107L153 100V100.897Z" fill="white"/>
<path d="M146 96.767L150 99V98.2366L146 96V96.767Z" fill="white"/>
<path d="M147 98.8386L158 105V104.157L147 98V98.8386Z" fill="white"/>
<path d="M162 107.88L174 115V114.116L162 107V107.88Z" fill="white"/>
<path d="M159 105.877L161 107V106.123L159 105V105.877Z" fill="white"/>
<path d="M169 113.911L174 117V116.089L169 113V113.911Z" fill="white"/>
<path d="M164 110.922L167 113V112.078L164 110V110.922Z" fill="white"/>
<path d="M154 104.835L163 110V109.165L154 104V104.835Z" fill="white"/>
<path d="M143 99.0012L148 102V100.994L143 98V99.0012Z" fill="white"/>
<path d="M140 96.8765L142 98V97.1235L140 96V96.8765Z" fill="white"/>
<path d="M148 101.99L153 105V104.015L148 101V101.99Z" fill="white"/>
<path d="M221.997 117.945C221.727 117.945 221.457 117.871 221.187 117.723C219.255 116.662 217.681 113.424 216.011 109.993C214.162 106.195 212.256 102.274 209.9 101.801C209.697 101.76 209.506 101.739 209.319 101.739C206.619 101.739 205.464 105.845 204.35 109.816C203.432 113.086 202.564 116.18 200.865 116.81C200.595 116.913 200.317 116.962 200.039 116.962C198.281 116.962 196.74 114.979 195.253 113.062C193.99 111.437 192.802 109.902 191.672 109.902C191.498 109.902 191.336 109.935 191.17 110.009C188.39 111.227 188.046 123.216 188 123.265L231.958 148L232 97.5511L229.42 96C229.304 96.8969 226.521 117.941 221.993 117.941L221.997 117.945Z" fill="white"/>
<path d="M221.978 117.813C221.729 117.813 221.472 117.744 221.21 117.6C217.101 115.344 214.381 102.605 209.919 101.715C209.712 101.674 209.513 101.653 209.322 101.653C204.325 101.653 204.545 115.319 200.855 116.689C200.585 116.788 200.32 116.833 200.058 116.833C196.832 116.833 194.203 109.793 191.707 109.793C191.529 109.793 191.35 109.83 191.172 109.908C188.319 111.155 188 123.27 188 123.27L232 148V97.4851L229.305 96C229.305 96 226.468 117.809 221.973 117.809L221.978 117.813ZM231.838 97.5836V147.725L188.166 123.179C188.207 122.035 188.643 111.192 191.234 110.059C191.388 109.99 191.541 109.957 191.703 109.957C192.789 109.957 193.967 111.475 195.211 113.075C196.708 115.003 198.255 116.997 200.054 116.997C200.34 116.997 200.627 116.944 200.908 116.841C202.642 116.197 203.517 113.095 204.441 109.809C205.544 105.879 206.689 101.813 209.322 101.817C209.504 101.817 209.691 101.838 209.886 101.875C212.2 102.338 214.095 106.232 215.928 109.998C217.599 113.432 219.179 116.673 221.128 117.744C221.405 117.895 221.691 117.973 221.978 117.973C226.361 117.973 229.102 98.7569 229.442 96.2626L231.842 97.5836H231.838Z" fill="#120E1E"/>
<path d="M231.754 123.406L232 123.123L227.644 120.672L227.723 108.981L227.352 108.891L227.231 120.487L211.521 111.781L211.6 103.09L211.225 103L211.104 111.6L206.548 109.12L206.431 109.35L211.225 112.039L211.104 121.057L203.105 116.646L199.958 114.884C199.837 114.92 199.716 114.949 199.595 114.949C199.512 114.949 199.424 114.937 199.345 114.896L211.225 121.496L211.104 130.514L195.277 121.742L195.306 113.314C195.177 113.211 195.064 113.092 194.985 112.932L194.864 121.557L191 119.331L191.033 119.77L194.985 122L194.906 125.685L195.281 125.771L195.402 122.176L211.229 130.948L211.15 134.154L211.525 134.244L211.646 131.137L227.356 139.844L227.277 142.992L227.652 143L227.773 140.024L231.783 142.274L231.821 141.93L227.652 139.581L227.773 130.563L231.921 132.527L227.652 130.124L227.773 121.106L231.758 123.402L231.754 123.406ZM227.231 139.405L211.521 130.698V121.75C211.521 121.721 211.533 121.696 211.563 121.68C211.575 121.672 211.592 121.668 211.604 121.668C211.617 121.668 211.633 121.668 211.646 121.676L227.356 130.383L227.236 139.401L227.231 139.405ZM227.231 129.948L211.521 121.241V112.293C211.521 112.264 211.533 112.24 211.563 112.223C211.575 112.215 211.592 112.211 211.604 112.211C211.617 112.211 211.633 112.211 211.646 112.219L227.356 120.926L227.236 129.944L227.231 129.948Z" fill="white"/>
<path d="M231.785 123.395L232 123.002L227.721 120.63V108.885L227.27 108.877V120.377L211.727 111.76V103.008L211.273 103V111.51L206.667 108.954C206.633 109.102 206.596 109.253 206.559 109.408L211.273 112.022V120.949L203.338 116.549L200.154 114.786C199.948 114.852 199.72 114.897 199.476 114.917L199.786 115.089L202.705 116.708L211.273 121.46V130.388L195.614 121.706V113.236C195.49 113.134 195.379 113.019 195.275 112.901C195.238 112.909 195.197 112.913 195.16 112.913V121.448L191.331 119.326L191.215 119.26L191 119.649L191.281 119.804L195.16 121.959V125.718L195.614 125.726V122.213L211.273 130.895V134.175L211.727 134.183V131.153L227.27 139.769V142.992L227.721 143V140.019L231.785 142.272L231.806 142.231L231.996 141.879L231.81 141.777L227.716 139.508V130.58L231.781 132.833L231.905 132.608L231.996 132.445L231.909 132.396L227.716 130.069V121.145L231.781 123.403L231.785 123.395ZM227.638 130.2L231.777 132.498L231.764 132.523L231.719 132.604L227.799 130.433C227.774 130.421 227.745 130.412 227.721 130.412C227.692 130.412 227.663 130.421 227.638 130.433C227.588 130.461 227.559 130.515 227.559 130.572V139.499C227.559 139.557 227.592 139.61 227.642 139.638L231.735 141.908L231.781 141.933L231.723 142.039L227.803 139.867C227.778 139.855 227.75 139.847 227.725 139.847C227.696 139.847 227.667 139.855 227.642 139.867C227.592 139.896 227.563 139.949 227.563 140.006V142.824H227.435V139.757C227.435 139.7 227.402 139.647 227.353 139.618L211.81 131.001C211.785 130.989 211.756 130.981 211.732 130.981C211.703 130.981 211.674 130.989 211.649 131.001C211.599 131.03 211.57 131.083 211.57 131.14V134.007H211.442V130.887C211.442 130.829 211.409 130.776 211.359 130.748L195.701 122.066C195.676 122.049 195.647 122.045 195.623 122.045C195.594 122.045 195.565 122.053 195.54 122.066C195.49 122.094 195.461 122.147 195.461 122.205V125.554H195.333V121.955C195.333 121.898 195.3 121.845 195.251 121.816L191.397 119.677C191.397 119.677 191.38 119.665 191.372 119.657L191.232 119.583L191.289 119.477L195.089 121.583C195.114 121.595 195.139 121.603 195.168 121.603C195.197 121.603 195.226 121.595 195.251 121.583C195.3 121.554 195.329 121.501 195.329 121.444V113.183C195.37 113.224 195.416 113.265 195.457 113.302V121.697C195.457 121.755 195.49 121.808 195.54 121.837L211.198 130.519C211.223 130.531 211.252 130.539 211.277 130.539C211.306 130.539 211.335 130.531 211.359 130.519C211.409 130.49 211.438 130.437 211.438 130.38V121.452C211.438 121.395 211.405 121.342 211.355 121.313L202.788 116.561L199.968 114.995C200.026 114.982 200.08 114.966 200.134 114.954L203.255 116.684L211.19 121.084C211.215 121.096 211.244 121.104 211.268 121.104C211.297 121.104 211.326 121.096 211.351 121.084C211.401 121.055 211.43 121.002 211.43 120.945V112.018C211.43 111.96 211.397 111.907 211.347 111.878L206.741 109.322L206.77 109.2L211.186 111.649C211.211 111.662 211.24 111.67 211.264 111.67C211.293 111.67 211.322 111.662 211.347 111.649C211.397 111.621 211.426 111.568 211.426 111.51V103.168H211.554V111.764C211.554 111.821 211.587 111.874 211.636 111.903L227.179 120.52C227.204 120.532 227.233 120.54 227.257 120.54C227.286 120.54 227.315 120.532 227.34 120.52C227.39 120.491 227.419 120.438 227.419 120.381V109.044H227.547V120.634C227.547 120.691 227.58 120.745 227.63 120.773L231.768 123.067L231.711 123.178L227.791 120.998C227.766 120.986 227.737 120.978 227.712 120.978C227.683 120.978 227.654 120.986 227.63 120.998C227.58 121.027 227.551 121.08 227.551 121.137V130.061C227.551 130.118 227.584 130.171 227.634 130.2H227.638Z" fill="#120E1E"/>
<path d="M212.242 112.021C212.217 112.008 212.188 112 212.163 112C212.133 112 212.104 112.008 212.079 112.021C212.029 112.049 212 112.103 212 112.161V121.157C212 121.214 212.033 121.268 212.083 121.297L227.758 129.979C227.783 129.992 227.812 130 227.837 130C227.867 130 227.896 129.992 227.921 129.979C227.971 129.951 228 129.897 228 129.839V120.843C228 120.786 227.967 120.732 227.917 120.703L212.242 112.021ZM227.833 129.839L212.158 121.157V112.161L227.833 120.843V129.839Z" fill="#120E1E"/>
<path d="M212.242 122.021C212.217 122.008 212.188 122 212.163 122C212.133 122 212.104 122.008 212.079 122.021C212.029 122.049 212 122.103 212 122.161V131.157C212 131.214 212.033 131.268 212.083 131.297L227.758 139.979C227.783 139.992 227.812 140 227.837 140C227.867 140 227.896 139.992 227.921 139.979C227.971 139.951 228 139.897 228 139.839V130.843C228 130.786 227.967 130.732 227.917 130.703L212.242 122.021ZM227.833 139.839L212.158 131.157V122.161L227.833 130.843V139.839Z" fill="#120E1E"/>
<path d="M218.47 120.027C218.204 120.027 217.938 119.953 217.672 119.804C215.746 118.722 214.273 115.7 212.719 112.495C210.968 108.898 209.161 105.173 206.539 103.814C206.191 103.633 205.86 103.542 205.545 103.542C203.475 103.542 202.363 107.506 201.283 111.343C200.285 114.894 199.344 118.247 197.663 118.888C197.397 118.991 197.123 119.04 196.849 119.04C195.115 119.04 193.602 117.05 192.137 115.121C190.898 113.49 189.724 111.95 188.616 111.95C188.444 111.95 188.284 111.987 188.121 112.057C185.384 113.28 185.041 125.313 185 125.363L227.959 150L228 99.371L225.787 98C225.673 98.9003 222.928 120.019 218.474 120.023L218.47 120.027Z" fill="white"/>
<path d="M218.45 119.891C218.205 119.891 217.952 119.821 217.695 119.677C213.653 117.412 211.567 106.317 206.578 103.735C206.21 103.546 205.871 103.455 205.549 103.455C201.548 103.455 201.147 117.437 197.653 118.763C197.387 118.862 197.126 118.907 196.869 118.907C193.692 118.907 191.104 111.842 188.65 111.842C188.474 111.842 188.299 111.879 188.123 111.957C185.31 113.209 185 125.367 185 125.367L228 150V99.3093L225.673 98C225.673 98 222.88 119.887 218.454 119.887L218.45 119.891ZM227.837 99.4081V149.724L185.159 125.276C185.196 124.128 185.625 113.246 188.185 112.11C188.336 112.04 188.487 112.007 188.646 112.007C189.716 112.007 190.871 113.526 192.096 115.136C193.57 117.071 195.093 119.072 196.865 119.072C197.146 119.072 197.428 119.018 197.706 118.915C199.42 118.265 200.368 114.901 201.372 111.34C202.442 107.544 203.544 103.62 205.549 103.62C205.847 103.62 206.169 103.706 206.504 103.879C209.097 105.222 210.897 108.923 212.636 112.497C214.196 115.7 215.67 118.73 217.613 119.817C217.891 119.969 218.169 120.048 218.45 120.048C222.766 120.048 225.469 100.763 225.799 98.2594L227.837 99.4039V99.4081Z" fill="#120E1E"/>
<path d="M228.754 125.395L229 125.113L224.644 122.662L224.723 110.975L224.348 110.885L224.227 122.478L208.517 113.774L208.596 105.086L208.225 105L208.104 113.597L203.848 111.171L203.531 111.405L208.225 114.04L208.104 123.056L200.105 118.646L199.434 118.22C199.321 118.302 199.209 118.376 199.092 118.376C199.059 118.376 199.021 118.367 198.988 118.355L208.229 123.498L208.108 132.514L192.277 123.744L192.335 114.897L191.985 114.679L191.864 123.564L188 121.338L188.033 121.777L191.985 124.006L191.906 127.69L192.277 127.78L192.398 124.187L208.229 132.956L208.15 136.157L208.521 136.247L208.642 133.141L224.352 141.845L224.273 144.992L224.652 145L224.773 142.025L228.783 144.275L228.821 143.93L224.652 141.582L224.773 132.567L228.921 134.53L224.652 132.124L224.773 123.109L228.758 125.404L228.754 125.395ZM224.227 141.394L208.517 132.69V123.748C208.517 123.719 208.529 123.695 208.558 123.678C208.571 123.67 208.588 123.666 208.6 123.666C208.613 123.666 208.629 123.666 208.642 123.674L224.352 132.378L224.231 141.394H224.227ZM224.227 131.936L208.517 123.232V114.29C208.517 114.261 208.529 114.237 208.558 114.22C208.571 114.212 208.588 114.208 208.6 114.208C208.613 114.208 208.629 114.208 208.642 114.216L224.352 122.92L224.231 131.936H224.227Z" fill="white"/>
<path d="M209.246 124.021C209.221 124.008 209.192 124 209.167 124C209.138 124 209.108 124.008 209.083 124.021C209.033 124.049 209 124.103 209 124.161V133.155C209 133.212 209.033 133.266 209.083 133.295L224.758 141.979C224.783 141.992 224.812 142 224.837 142C224.867 142 224.896 141.992 224.921 141.979C224.971 141.951 225 141.897 225 141.839V132.841C225 132.784 224.967 132.73 224.917 132.701L209.242 124.016L209.246 124.021ZM224.837 141.843L209.163 133.159V124.165L224.837 132.85V141.847V141.843Z" fill="#120E1E"/>
<path d="M228.785 125.393L229 125L224.72 122.628V110.884L224.265 110.876V122.375L208.721 113.759V105.008L208.271 105V113.51L203.941 111.109C203.85 111.228 203.751 111.346 203.656 111.461L208.271 114.021V122.947L200.335 118.547L199.583 118.13C199.446 118.232 199.301 118.322 199.148 118.4L199.707 118.711L208.275 123.462V132.389L192.611 123.708V114.802C192.458 114.757 192.309 114.712 192.16 114.663V123.454L188.331 121.332L188.219 121.267L188 121.659L188.281 121.81L192.16 123.97V127.723L192.611 127.732V124.219L208.275 132.9V136.176L208.725 136.184V133.154L224.269 141.77V144.992L224.724 145V142.019L228.789 144.272L228.81 144.231L229 143.88L228.814 143.777L224.72 141.504V132.577L228.785 134.83L228.905 134.605L228.996 134.442L228.909 134.397L224.716 132.07V123.144L228.781 125.401L228.785 125.393ZM224.637 132.201L228.777 134.495L228.764 134.524L228.723 134.601L224.803 132.43C224.778 132.414 224.749 132.41 224.724 132.41C224.695 132.41 224.666 132.418 224.642 132.43C224.592 132.459 224.563 132.512 224.563 132.569V141.496C224.563 141.553 224.596 141.606 224.646 141.635L228.739 143.908L228.785 143.933L228.727 144.039L224.803 141.868C224.778 141.855 224.749 141.847 224.724 141.847C224.695 141.847 224.666 141.855 224.642 141.868C224.592 141.896 224.563 141.949 224.563 142.007V144.824H224.435V141.757C224.435 141.7 224.402 141.647 224.352 141.618L208.808 133.002C208.783 132.99 208.754 132.982 208.73 132.982C208.701 132.982 208.672 132.99 208.647 133.002C208.597 133.031 208.564 133.084 208.564 133.141V136.008H208.44V132.888C208.44 132.831 208.407 132.778 208.357 132.749L192.693 124.068C192.669 124.055 192.64 124.047 192.615 124.047C192.586 124.047 192.557 124.055 192.532 124.068C192.482 124.096 192.454 124.149 192.454 124.207V127.556H192.325V123.957C192.325 123.9 192.292 123.847 192.243 123.818L188.393 121.68C188.393 121.68 188.372 121.663 188.36 121.659L188.223 121.586L188.281 121.479L192.081 123.585C192.106 123.597 192.135 123.606 192.16 123.606C192.189 123.606 192.218 123.597 192.243 123.585C192.292 123.557 192.321 123.503 192.321 123.446V114.875C192.363 114.888 192.404 114.9 192.449 114.912V123.7C192.449 123.757 192.482 123.81 192.532 123.839L208.196 132.52C208.221 132.532 208.25 132.54 208.275 132.54C208.304 132.54 208.333 132.532 208.357 132.52C208.407 132.491 208.436 132.438 208.436 132.381V123.454C208.436 123.397 208.403 123.344 208.353 123.315L199.785 118.564L199.479 118.392C199.516 118.367 199.554 118.343 199.595 118.318L200.257 118.686L208.192 123.086C208.217 123.099 208.246 123.107 208.271 123.107C208.299 123.107 208.328 123.099 208.353 123.086C208.403 123.058 208.432 123.005 208.432 122.947V114.021C208.432 113.963 208.399 113.91 208.349 113.882L203.904 111.416C203.933 111.383 203.958 111.35 203.982 111.318L208.188 113.649C208.213 113.665 208.242 113.669 208.266 113.669C208.295 113.669 208.324 113.661 208.349 113.649C208.399 113.62 208.428 113.567 208.428 113.51V105.168H208.552V113.759C208.552 113.816 208.585 113.869 208.634 113.898L224.178 122.514C224.203 122.526 224.232 122.534 224.257 122.534C224.286 122.534 224.315 122.526 224.34 122.514C224.389 122.485 224.418 122.432 224.418 122.375V111.04H224.546V122.628C224.546 122.686 224.58 122.739 224.629 122.767L228.768 125.061L228.711 125.168L224.79 122.988C224.766 122.976 224.737 122.968 224.712 122.968C224.683 122.968 224.654 122.976 224.629 122.988C224.58 123.017 224.551 123.07 224.551 123.127V132.054C224.551 132.111 224.584 132.164 224.633 132.193L224.637 132.201Z" fill="#120E1E"/>
<path d="M209.246 114.021C209.221 114.008 209.192 114 209.167 114C209.138 114 209.108 114.008 209.083 114.021C209.033 114.049 209 114.103 209 114.161V123.155C209 123.212 209.033 123.266 209.083 123.295L224.758 131.979C224.783 131.992 224.812 132 224.837 132C224.867 132 224.896 131.992 224.921 131.979C224.971 131.951 225 131.897 225 131.839V122.845C225 122.788 224.967 122.734 224.917 122.705L209.242 114.021H209.246ZM224.837 131.839L209.163 123.155V114.161L224.837 122.845V131.839Z" fill="#120E1E"/>
<path d="M214.307 122.558C214.052 122.558 213.792 122.488 213.537 122.343C211.7 121.318 210.328 118.513 208.878 115.547C207.247 112.211 205.558 108.763 203.061 107.477C202.728 107.307 202.41 107.219 202.118 107.219C200.24 107.219 199.337 110.933 198.617 113.92L198.505 114.377C197.718 117.634 196.907 120.998 195.243 121.679C195.033 121.766 194.814 121.82 194.394 121.853C193.521 121.853 192.643 121.318 191.618 120.173C191.35 119.87 191.086 119.546 190.823 119.206C190.538 118.837 190.258 118.455 189.982 118.077C189.109 116.883 188.285 115.758 187.474 115.273C187.338 115.19 187.193 115.123 187.045 115.078C186.926 115.045 186.81 115.024 186.695 115.024C186.522 115.024 186.357 115.065 186.184 115.144C185.884 115.289 185.595 115.584 185.323 116.02L185.109 116.401C184.141 118.302 183.61 121.812 183.334 124.421L183.284 124.911C183.091 126.911 183.037 128.284 183 128.309L223.469 151L224 103.66L221.256 102C221.145 102.838 218.546 122.558 214.307 122.558V122.558Z" fill="white"/>
<path d="M214.281 122.424C214.043 122.424 213.8 122.358 213.554 122.221C209.702 120.079 207.847 109.842 203.095 107.402C202.742 107.22 202.417 107.137 202.121 107.137C200.254 107.137 199.383 110.425 198.548 113.875C198.511 114.024 198.474 114.177 198.437 114.33C197.648 117.597 196.85 120.889 195.235 121.551H195.231C195.017 121.642 194.811 121.692 194.61 121.712C194.544 121.721 194.478 121.721 194.417 121.721C193.446 121.721 192.554 121.022 191.707 120.075C191.44 119.777 191.181 119.454 190.918 119.115C189.738 117.585 188.64 115.823 187.555 115.173C187.407 115.082 187.255 115.012 187.107 114.971C186.984 114.933 186.856 114.913 186.733 114.913C186.552 114.913 186.371 114.954 186.19 115.041C185.865 115.198 185.565 115.513 185.298 115.947C185.224 116.067 185.15 116.199 185.076 116.336C184.122 118.213 183.584 121.634 183.296 124.36C183.28 124.521 183.263 124.686 183.247 124.844C183.045 126.916 183 128.314 183 128.314L223.511 151L224 103.597L221.143 102C221.143 102 218.495 122.424 214.29 122.424H214.281ZM223.831 103.692L223.342 150.723L183.156 128.214C183.169 127.859 183.23 126.589 183.399 124.86L183.428 124.595L183.448 124.372C183.724 121.775 184.254 118.288 185.212 116.406C185.282 116.274 185.352 116.145 185.426 116.025C185.685 115.604 185.964 115.322 186.248 115.186C186.408 115.111 186.564 115.074 186.725 115.074C186.832 115.074 186.943 115.091 187.054 115.124C187.197 115.165 187.333 115.227 187.465 115.31C188.262 115.781 189.08 116.902 189.944 118.085C190.219 118.462 190.499 118.842 190.782 119.21C191.074 119.587 191.333 119.901 191.58 120.174C192.616 121.336 193.516 121.874 194.408 121.874C194.478 121.874 194.548 121.874 194.618 121.866C194.844 121.845 195.066 121.787 195.288 121.7C195.296 121.7 195.305 121.692 195.309 121.688C196.994 120.976 197.804 117.614 198.589 114.363L198.618 114.243C198.647 114.131 198.671 114.015 198.7 113.904C199.416 110.959 200.304 107.29 202.117 107.29C202.392 107.29 202.696 107.373 203.017 107.538C205.488 108.808 207.165 112.233 208.789 115.546C210.244 118.515 211.617 121.324 213.471 122.354C213.739 122.502 214.01 122.577 214.281 122.577C218.38 122.577 220.941 104.651 221.266 102.248L223.831 103.679V103.692Z" fill="#120E1E"/>
<path d="M223.754 128.4L224 128.117L219.643 125.666L219.722 113.976L219.351 113.89L219.23 125.485L203.517 116.78L203.596 108.09L203.225 108L203.104 116.599L198.585 113.988L198.434 114.349L203.229 117.042L203.108 126.059L190.726 119.239L187.273 117.288L187.311 115.329C187.173 115.247 187.027 115.181 186.982 115.058L186.861 117.103L185.135 116.066L184.884 116.337L186.986 117.542L186.865 126.559L183 124.334L183.029 124.772L186.986 126.998L186.907 130.683L187.278 130.773L187.398 127.178L203.233 135.95L203.154 139.151L203.525 139.241L203.646 136.134L219.36 144.84L219.28 147.992L219.656 148L219.777 145.024L223.787 147.279L223.821 146.934L219.652 144.586L219.772 135.568L223.921 137.532L219.652 135.13L219.772 126.113L223.758 128.408L223.754 128.4ZM203.1 135.511L187.265 126.74V117.788C187.265 117.759 187.278 117.735 187.307 117.718C187.319 117.71 187.336 117.706 187.348 117.706C187.361 117.706 187.378 117.706 187.39 117.714L194.545 121.657L203.225 126.494L203.104 135.511H203.1ZM219.23 144.397L203.517 135.691V126.744C203.517 126.715 203.529 126.69 203.558 126.674C203.571 126.666 203.588 126.662 203.6 126.662C203.613 126.662 203.629 126.662 203.642 126.67L219.355 135.376L219.235 144.393L219.23 144.397ZM219.23 134.941L203.517 126.235V117.288C203.517 117.259 203.529 117.23 203.558 117.218C203.571 117.21 203.588 117.206 203.6 117.206C203.613 117.206 203.629 117.206 203.642 117.214L219.355 125.92L219.235 134.937L219.23 134.941Z" fill="white"/>
<path d="M204.242 117.021C204.217 117.008 204.188 117 204.163 117C204.133 117 204.104 117.008 204.079 117.021C204.029 117.049 204 117.103 204 117.161V126.157C204 126.214 204.033 126.268 204.083 126.297L219.754 134.979C219.779 134.992 219.808 135 219.833 135C219.862 135 219.887 134.992 219.917 134.979C219.967 134.951 220 134.897 220 134.839V125.848C220 125.79 219.967 125.736 219.917 125.707L204.246 117.025L204.242 117.021ZM219.833 134.839L204.163 126.157V117.161L219.833 125.843V134.835V134.839Z" fill="#120E1E"/>
<path d="M194.342 121.969L191.42 120.343L187.24 118.021C187.215 118.008 187.186 118 187.161 118C187.132 118 187.103 118.008 187.079 118.025C187.029 118.053 187 118.107 187 118.164V127.127C187 127.185 187.029 127.238 187.083 127.267L202.76 135.979C202.785 135.992 202.814 136 202.839 136C202.868 136 202.897 135.992 202.921 135.979C202.971 135.951 203 135.897 203 135.84V126.885C203 126.828 202.967 126.774 202.917 126.746L194.342 121.977V121.969ZM202.834 135.836L187.157 127.123V118.16L191.337 120.483L194.259 122.108L202.834 126.877V135.832V135.836Z" fill="#120E1E"/>
<path d="M223.781 128.403L223.996 128.01L219.716 125.634V113.886L219.266 113.878V125.38L203.723 116.762V108.008L203.273 108V116.512L198.671 113.956C198.633 114.103 198.596 114.254 198.559 114.406L203.273 117.019V125.945L195.338 121.543L190.997 119.138L187.614 117.265V115.244C187.466 115.154 187.313 115.085 187.164 115.044V117.011L185.344 116.005C185.27 116.124 185.196 116.254 185.121 116.389L187.164 117.522V126.452L183.331 124.329L183.219 124.263L183 124.656L183.281 124.807L187.164 126.963V130.722L187.614 130.73V127.217L203.277 135.901V139.177L203.727 139.185V136.154L219.27 144.769V147.992L219.721 148V145.018L223.785 147.272L223.81 147.231L224 146.879L223.814 146.777L219.721 144.503V135.573L223.785 137.827L223.909 137.598L224 137.435L223.913 137.385L219.721 135.058V126.129L223.785 128.387L223.781 128.403ZM219.634 135.213L223.773 137.508L223.76 137.533L223.715 137.614L219.795 135.442C219.77 135.43 219.741 135.422 219.716 135.422C219.687 135.422 219.659 135.43 219.634 135.442C219.584 135.471 219.555 135.524 219.555 135.582V144.511C219.555 144.568 219.588 144.621 219.638 144.65L223.731 146.924L223.777 146.949L223.719 147.055L219.795 144.883C219.77 144.871 219.741 144.863 219.716 144.863C219.687 144.863 219.659 144.871 219.634 144.883C219.584 144.912 219.555 144.965 219.555 145.022V147.84H219.427V144.773C219.427 144.715 219.394 144.662 219.344 144.634L203.802 136.019C203.777 136.007 203.748 135.999 203.723 135.999C203.694 135.999 203.665 136.007 203.641 136.019C203.591 136.048 203.562 136.101 203.562 136.158V139.026H203.434V135.905C203.434 135.847 203.401 135.794 203.351 135.766L187.689 127.082C187.664 127.069 187.635 127.061 187.61 127.061C187.581 127.061 187.552 127.069 187.528 127.082C187.478 127.11 187.449 127.164 187.449 127.221V130.571H187.325V126.967C187.325 126.91 187.292 126.857 187.242 126.828L183.389 124.693C183.389 124.693 183.368 124.677 183.36 124.672L183.223 124.599L183.281 124.492L187.081 126.599C187.106 126.611 187.135 126.619 187.16 126.619C187.189 126.619 187.217 126.611 187.242 126.599C187.292 126.57 187.321 126.517 187.321 126.46V117.531C187.321 117.473 187.288 117.42 187.238 117.392L185.34 116.336C185.361 116.304 185.377 116.267 185.398 116.234L187.081 117.162C187.106 117.175 187.135 117.183 187.16 117.183C187.189 117.183 187.217 117.175 187.242 117.162C187.292 117.134 187.321 117.081 187.321 117.023V115.285C187.362 115.301 187.403 115.322 187.445 115.346V117.277C187.445 117.334 187.474 117.387 187.528 117.416L190.91 119.29L195.251 121.695L203.186 126.096C203.211 126.108 203.24 126.116 203.264 126.116C203.293 126.116 203.322 126.108 203.347 126.096C203.397 126.067 203.426 126.014 203.426 125.957V117.032C203.426 116.974 203.393 116.921 203.343 116.893L198.737 114.336C198.749 114.295 198.757 114.254 198.766 114.213L203.182 116.663C203.206 116.676 203.235 116.684 203.26 116.684C203.289 116.684 203.318 116.676 203.343 116.663C203.393 116.635 203.421 116.582 203.421 116.524V108.176H203.55V116.774C203.55 116.831 203.583 116.884 203.632 116.913L219.175 125.531C219.2 125.544 219.229 125.552 219.253 125.552C219.282 125.552 219.307 125.544 219.336 125.531C219.386 125.503 219.419 125.45 219.419 125.392V114.058H219.547V125.65C219.547 125.707 219.58 125.761 219.63 125.789L223.768 128.088L223.711 128.194L219.791 126.014C219.766 126.002 219.737 125.994 219.712 125.994C219.683 125.994 219.654 126.002 219.63 126.018C219.58 126.047 219.551 126.1 219.551 126.157V135.087C219.551 135.144 219.584 135.197 219.634 135.226V135.213Z" fill="#120E1E"/>
<path d="M204.242 127.021C204.217 127.008 204.188 127 204.163 127C204.133 127 204.104 127.008 204.079 127.021C204.029 127.049 204 127.103 204 127.161V136.157C204 136.214 204.033 136.268 204.083 136.297L219.754 144.979C219.779 144.992 219.808 145 219.833 145C219.862 145 219.887 144.992 219.917 144.979C219.967 144.951 220 144.897 220 144.839V135.843C220 135.786 219.967 135.732 219.917 135.703L204.246 127.021H204.242ZM219.833 144.839L204.163 136.157V127.161L219.833 135.843V144.839Z" fill="#120E1E"/>
<path d="M221.239 102.74C220.291 109.994 217.926 121.219 215.284 122.414C215.151 122.475 215.027 122.504 214.903 122.504C214.75 122.504 214.592 122.459 214.426 122.369C212.766 121.461 211.424 118.761 209.999 115.893C208.326 112.518 206.595 109.032 203.981 107.707C203.575 107.502 203.178 107.396 202.797 107.396C202.536 107.396 202.279 107.445 202.031 107.543C200.208 108.259 199.281 111.487 198.295 114.928C197.475 117.779 196.547 121.011 195.214 121.502C195.031 121.571 194.845 121.604 194.65 121.604C193.288 121.604 191.954 119.886 190.662 118.225C189.415 116.621 188.235 115.103 186.947 115.103C186.711 115.103 186.475 115.153 186.243 115.255C183.559 116.425 183.099 127.119 183 128.608L224.689 152L225 104.144L221.335 102L221.239 102.745V102.74ZM224.052 104.626L223.671 150.462L183.994 127.945C184.553 120.647 185.468 116.519 186.64 116.008C186.653 116.003 186.926 115.946 186.935 115.946C187.788 115.946 188.877 117.345 189.933 118.703C191.296 120.459 192.84 122.443 194.646 122.443C194.953 122.443 195.259 122.385 195.566 122.271C197.309 121.624 198.216 118.47 199.185 115.095C200.026 112.174 200.983 108.861 202.399 108.304C202.486 108.271 202.623 108.226 202.809 108.226C203.037 108.226 203.286 108.296 203.555 108.431C205.899 109.622 207.564 112.976 209.191 116.249C210.674 119.227 212.074 122.042 213.979 123.085C214.286 123.253 214.605 123.339 214.923 123.339C215.184 123.339 215.445 123.281 215.702 123.167C219.264 121.555 221.459 107.781 222.163 103.538L224.056 104.631L224.052 104.626Z" fill="white"/>
<path d="M221.119 102.742C220.176 109.958 217.833 121.118 215.22 122.297C215.1 122.35 214.989 122.379 214.873 122.379C214.733 122.379 214.588 122.338 214.439 122.252C212.802 121.359 211.467 118.671 210.053 115.828C208.375 112.454 206.643 108.963 204.01 107.629C203.593 107.417 203.184 107.311 202.791 107.311C202.518 107.311 202.254 107.36 201.997 107.462C200.141 108.188 199.211 111.427 198.228 114.857C197.413 117.688 196.492 120.898 195.198 121.375C195.02 121.44 194.842 121.473 194.665 121.473C193.346 121.473 192.027 119.78 190.75 118.136C189.498 116.525 188.303 114.992 186.976 114.992C186.737 114.992 186.493 115.04 186.241 115.151C183.355 116.411 183.021 128.073 183.012 128.313L183 128.611L224.727 152L225 104.076L221.222 102L221.127 102.742H221.119ZM221.346 102.257L224.831 104.17L224.562 151.727L183.165 128.521L183.174 128.322V128.269C183.372 122.831 184.306 116.17 186.307 115.297C186.53 115.2 186.753 115.151 186.972 115.151C188.216 115.151 189.382 116.648 190.618 118.23C191.916 119.903 193.263 121.632 194.66 121.632C194.863 121.632 195.057 121.595 195.252 121.526C196.62 121.02 197.508 117.92 198.381 114.902C199.356 111.512 200.278 108.306 202.055 107.609C202.291 107.515 202.539 107.47 202.787 107.47C203.155 107.47 203.539 107.572 203.932 107.768C206.515 109.077 208.239 112.544 209.909 115.905C211.335 118.769 212.678 121.473 214.356 122.387C214.534 122.485 214.704 122.534 214.869 122.534C215.005 122.534 215.142 122.501 215.282 122.436C218.159 121.139 220.461 108.995 221.276 102.755L221.342 102.249L221.346 102.257Z" fill="#120E1E"/>
<path d="M222.065 103.02C222.04 103.008 222.012 103 221.987 103C221.962 103 221.937 103.004 221.913 103.016C221.863 103.041 221.83 103.086 221.826 103.139C220.628 111.72 218.352 121.338 215.569 122.603C215.326 122.714 215.079 122.767 214.832 122.767C214.531 122.767 214.227 122.685 213.93 122.522C212.057 121.493 210.674 118.697 209.192 115.708C207.586 112.459 205.923 109.099 203.568 107.899C203.292 107.756 203.029 107.687 202.79 107.687C202.637 107.687 202.498 107.715 202.353 107.772C200.908 108.344 199.953 111.667 199.101 114.635C198.154 117.945 197.261 121.073 195.565 121.705C195.272 121.816 194.976 121.869 194.68 121.869C192.926 121.869 191.402 119.901 190.056 118.166C188.998 116.798 187.907 115.386 187.018 115.386C186.903 115.386 186.796 115.41 186.693 115.455C185.482 115.986 184.581 120.015 184.013 127.433L184 127.629C183.996 127.69 184.029 127.751 184.083 127.78L223.498 149.98C223.522 149.992 223.551 150 223.58 150C223.609 150 223.634 149.992 223.662 149.98C223.712 149.951 223.745 149.898 223.745 149.841L224 104.176C224 104.114 223.967 104.061 223.918 104.033L222.077 103.016L222.065 103.02ZM223.572 149.845L184.157 127.645C184.284 125.992 184.96 116.394 186.755 115.606C186.837 115.57 186.923 115.553 187.014 115.553C187.821 115.553 188.887 116.929 189.925 118.268C191.304 120.052 192.843 122.036 194.675 122.036C194.98 122.036 195.293 121.983 195.618 121.86C197.388 121.199 198.294 118.031 199.253 114.684C200.089 111.769 201.032 108.466 202.411 107.927C202.506 107.891 202.629 107.854 202.79 107.854C202.971 107.854 203.202 107.903 203.494 108.05C205.799 109.226 207.45 112.565 209.052 115.794C210.534 118.786 211.929 121.615 213.852 122.673C214.173 122.848 214.502 122.934 214.832 122.934C215.103 122.934 215.371 122.873 215.639 122.754C219.257 121.113 221.464 106.935 221.991 103.167L223.831 104.184L223.576 149.849L223.572 149.845Z" fill="#120E1E"/>
<defs>
<linearGradient id="paint0_linear_1_7741" x1="113.871" y1="184.565" x2="248.009" y2="291.545" gradientUnits="userSpaceOnUse">
<stop stop-color="#E20338"/>
<stop offset="0.61877" stop-color="white" stop-opacity="0"/>
</linearGradient>
<linearGradient id="paint1_linear_1_7741" x1="91.7427" y1="230.059" x2="160.363" y2="350.723" gradientUnits="userSpaceOnUse">
<stop stop-color="#E20338"/>
<stop offset="0.749031" stop-color="#E20338" stop-opacity="0"/>
</linearGradient>
<linearGradient id="paint2_linear_1_7741" x1="77.6701" y1="66.4234" x2="121.884" y2="310.021" gradientUnits="userSpaceOnUse">
<stop stop-color="white"/>
<stop offset="1" stop-color="#E20338"/>
</linearGradient>
<linearGradient id="paint3_linear_1_7741" x1="81.1092" y1="9.17085" x2="221.406" y2="189.685" gradientUnits="userSpaceOnUse">
<stop stop-color="white"/>
<stop offset="1" stop-color="#E20338"/>
</linearGradient>
</defs>
</svg>
