<svg width="214" height="333" viewBox="0 0 214 333" fill="none" xmlns="http://www.w3.org/2000/svg">
<path style="mix-blend-mode:multiply" d="M122.346 298.228L139.335 305.711L212 247.779L117 232.711L122.346 298.228Z" fill="url(#paint0_linear_927_16365)"/>
<path d="M145.879 233.302V230.193C145.866 223.331 145.85 216.332 145.824 209.348C145.824 208.744 145.807 208.142 145.807 207.54C145.778 198.497 145.739 189.523 145.697 181.067C145.54 154.536 145.315 133.089 144.977 130.22C144.13 123.135 139.344 115.684 133.033 112.255L79.8461 83.2478C76.4529 81.3997 73.3823 81.2605 71.2397 82.6038C70.4908 83.0649 68.4654 84.4096 68 84.7172C68.1725 84.62 68.3549 84.5198 68.5372 84.4371C68.6972 84.3627 68.8612 84.2974 69.0286 84.2413C69.0723 84.2186 69.1199 84.2043 69.1689 84.1993C69.3715 84.1309 69.578 84.0747 69.7874 84.0309H69.8592C70.0673 83.9847 70.2783 83.9522 70.4907 83.9339C70.7306 83.9049 70.9721 83.8903 71.2137 83.8902C73.0737 83.9546 74.888 84.4797 76.492 85.4179L98.4943 97.4156L108.947 103.112L116.566 107.271L129.683 114.425C130.05 114.616 130.406 114.827 130.75 115.056C130.97 115.183 131.182 115.323 131.385 115.476C131.451 115.504 131.509 115.548 131.555 115.602C131.753 115.728 131.932 115.854 132.115 115.993C132.555 116.315 132.978 116.667 133.401 117.018C133.567 117.184 133.74 117.338 133.906 117.49C134.072 117.647 134.245 117.799 134.414 117.968C134.43 117.984 134.443 118.002 134.453 118.023C134.625 118.207 134.808 118.387 134.977 118.555C138.947 122.784 141.555 128.609 141.74 134.15C141.74 134.15 141.74 134.836 141.753 136.113C141.753 136.714 141.753 137.443 141.766 138.296C141.822 145.24 141.906 160.543 142.02 179.051C142.063 187.645 142.105 196.928 142.16 206.393C142.16 206.997 142.16 207.584 142.174 208.185C142.229 216.892 142.258 225.726 142.3 234.268C142.317 235.206 142.317 236.172 142.317 237.096C142.499 269.462 142.642 296.934 142.642 296.934C142.642 297.435 142.642 297.94 142.61 298.461V298.739C142.597 299.709 142.488 300.675 142.284 301.623C142.276 301.69 142.258 301.756 142.229 301.817C142.203 301.985 142.162 302.149 142.105 302.309C142.067 302.461 142.019 302.61 141.962 302.756C141.906 302.895 141.851 303.037 141.792 303.19C141.695 303.387 141.597 303.581 141.483 303.766C141.411 303.917 141.327 304.062 141.232 304.199C141.203 304.242 141.174 304.28 141.144 304.322C141.005 304.525 140.85 304.718 140.682 304.899C140.489 305.121 140.276 305.327 140.047 305.513C139.973 305.587 139.893 305.653 139.806 305.711C140.161 305.471 143.007 303.653 143.105 303.568C146.286 301.202 145.993 297.225 145.993 294.021C145.993 288.994 145.977 263.096 145.879 233.302Z" fill="#120E1E"/>
<path d="M142.983 298.307C142.971 293.513 142.83 267.194 142.658 236.977C142.658 236.038 142.658 235.085 142.648 234.133C142.603 225.564 142.563 216.716 142.521 208.02C142.508 207.419 142.508 206.832 142.508 206.228C142.449 196.747 142.407 187.465 142.365 178.868C142.267 162.135 142.182 148.02 142.153 140.294C142.14 139.496 142.14 138.782 142.14 138.123C142.127 137.27 142.127 136.541 142.127 135.94C142.114 134.663 142.114 133.977 142.114 133.977C142.069 129.596 140.352 124.794 137.404 120.804C136.993 120.244 136.552 119.706 136.082 119.194C135.857 118.912 135.603 118.645 135.349 118.38C135.179 118.212 134.997 118.032 134.824 117.847C134.814 117.827 134.801 117.808 134.785 117.792C134.616 117.639 134.443 117.472 134.277 117.315C134.111 117.163 133.938 117.009 133.772 116.842C133.349 116.491 132.926 116.14 132.486 115.818C132.303 115.679 132.124 115.552 131.926 115.426C131.879 115.372 131.821 115.329 131.756 115.3C131.544 115.146 131.332 115.007 131.121 114.881C130.776 114.651 130.42 114.441 130.053 114.249L116.933 107.094L109.311 102.935L98.8553 97.2379L76.8466 85.2387C75.2422 84.3005 73.4274 83.7753 71.5668 83.7109C71.3251 83.711 71.0836 83.7256 70.8437 83.7546C70.6311 83.7729 70.4201 83.8054 70.2119 83.8516H70.1401C69.9307 83.8954 69.7241 83.9517 69.5214 84.02C69.4724 84.0251 69.4248 84.0393 69.3811 84.0621C69.2137 84.1181 69.0496 84.1835 68.8895 84.2579C68.7071 84.3405 68.5247 84.4408 68.3522 84.538C68.339 84.538 68.3257 84.5509 68.3096 84.5509C66.2249 85.7843 64.9712 88.3317 65.0005 91.931V255.699C65.0098 256.771 65.1222 257.84 65.336 258.891V258.904C66.2122 262.949 68.0492 266.727 70.6938 269.922C71.3527 270.749 72.0631 271.534 72.8207 272.272C73.202 272.638 73.5928 272.975 73.9869 273.324C74.1594 273.464 74.342 273.606 74.5244 273.745C75.3248 274.376 76.1779 274.938 77.0746 275.425L81.5402 277.888L87.8101 281.336L90.5007 282.818L102.461 289.399L110.438 293.782L113.594 295.517L115.496 296.556L130.079 304.577L131.179 305.179C134.785 307.153 137.997 307.153 140.179 305.558C140.266 305.5 140.346 305.433 140.42 305.36C140.492 305.292 140.563 305.221 140.632 305.166C140.78 305.033 140.922 304.893 141.055 304.745C141.224 304.565 141.378 304.372 141.518 304.169C141.547 304.127 141.577 304.088 141.606 304.046C141.687 303.907 141.772 303.768 141.856 303.612C141.971 303.428 142.068 303.233 142.166 303.036C142.225 302.884 142.28 302.741 142.335 302.602C142.392 302.456 142.44 302.307 142.479 302.155C142.535 301.996 142.577 301.831 142.603 301.664C142.632 301.602 142.65 301.537 142.658 301.469C142.857 300.69 142.972 299.891 143 299.087C143 299.087 143 298.906 142.983 298.585V298.307Z" fill="url(#paint1_linear_927_16365)"/>
<g style="mix-blend-mode:screen">
<g style="mix-blend-mode:screen" opacity="0.3">
<path d="M67 254.088L139.896 292.711L140 292.336L67.1033 253.711L67 254.088Z" fill="white"/>
</g>
</g>
<g style="mix-blend-mode:screen">
<g style="mix-blend-mode:screen" opacity="0.3">
<path d="M68 91.0746L137.9 128.711L138 128.344L68.097 90.7109L68 91.0746Z" fill="white"/>
</g>
</g>
<g style="mix-blend-mode:screen">
<g style="mix-blend-mode:screen" opacity="0.3">
<path d="M118 286.082L128.894 291.711L129 291.337L118.106 285.711L118 286.082Z" fill="white"/>
</g>
</g>
<g style="mix-blend-mode:screen">
<g style="mix-blend-mode:screen" opacity="0.3">
<path d="M118 288.084L128.894 293.711L129 293.341L118.11 287.711L118 288.084Z" fill="white"/>
</g>
</g>
<g style="mix-blend-mode:screen">
<g style="mix-blend-mode:screen" opacity="0.3">
<path d="M118 290.085L128.898 295.711L129 295.341L118.106 289.711L118 290.085Z" fill="white"/>
</g>
</g>
<g style="mix-blend-mode:screen">
<g style="mix-blend-mode:screen" opacity="0.3">
<path d="M78.8574 265.711L74.133 266.33C74.1013 266.333 74.0713 266.347 74.0479 266.369C74.0245 266.391 74.0088 266.42 74.0034 266.453C73.9973 266.492 73.9994 266.532 74.0097 266.57C74.02 266.608 74.0383 266.644 74.0632 266.674L77.9807 271.711L78.2629 271.469L74.581 266.732L79 266.16L78.8574 265.711Z" fill="white"/>
</g>
</g>
<path d="M105.857 196.929C104.266 194.252 102.241 192.064 99.9841 190.804C97.6165 189.481 95.3794 189.402 93.5542 190.336L93.5508 190.332L91.1273 191.62L91.3928 192.16C90.1035 193.805 89.2659 196.221 89.1042 199.246C88.6839 207.031 92.8767 215.872 98.4655 218.993C99.8984 219.793 101.283 220.134 102.559 220.076L102.307 220.827L104.803 219.511C104.862 219.481 104.922 219.448 104.981 219.416L105.179 219.306C105.905 218.875 106.541 218.313 107.054 217.648L99.2257 204.899L105.857 196.929Z" fill="#120E1E"/>
<path d="M96.6816 206.136L104.695 218.753L107.054 217.539L99.0422 204.923L96.6816 206.136Z" fill="#120E1E"/>
<path d="M96.6816 205.615L99.0015 204.417L105.671 196.626L103.351 197.824L96.6816 205.615Z" fill="#120E1E"/>
<path d="M106.634 199.936L106.72 201.392L102.213 206.734L107.531 215.283L107.857 220.827L110.212 219.591C111.534 217.929 112.389 215.487 112.555 212.434C112.812 207.753 111.39 202.691 108.989 198.7L106.634 199.936Z" fill="#120E1E"/>
<path d="M103.78 198.325C102.189 195.645 100.165 193.452 97.9093 192.19C92.319 189.064 87.4491 192.851 87.0289 200.646C86.61 208.441 90.8006 217.296 96.3909 220.423C99.8052 222.332 102.952 221.662 104.978 219.076L97.1494 206.306L103.78 198.325Z" fill="white"/>
<path d="M100.139 208.061L108.138 220.828C109.459 219.177 110.314 216.753 110.481 213.72C110.737 209.071 109.315 204.046 106.915 200.083L100.139 208.061Z" fill="white"/>
<path d="M104.803 247.059C105.259 244.932 106.136 242.92 107.381 241.142C108.627 239.364 110.215 237.857 112.052 236.711C107.348 236.734 102.278 240.841 100.716 248.213C98.0742 260.592 102.972 278.13 111.594 287.278C116.703 292.673 121.991 293.958 126 291.542C122.8 291.578 119.196 289.819 115.697 286.117C107.059 276.976 102.164 259.441 104.803 247.059Z" fill="#120E1E"/>
<path d="M127 294.711L131.315 293.51C133.772 292.812 136.377 291.2 137.443 290.028C138.673 288.689 139.658 287.159 141 283.711L136.24 284.356C136.24 284.356 130.54 292.914 127 294.711Z" fill="#120E1E"/>
<path d="M137.174 250.568C136.176 248.41 135.01 246.331 133.687 244.351C132.219 242.131 130.495 240.087 128.55 238.26C123.365 233.461 117.904 231.855 113.251 233.132L110 234.018C110 234.018 117.532 235.061 122.714 239.861C126.201 243.092 128.874 247.111 130.926 251.307C133.002 255.616 134.459 260.191 135.255 264.898C135.713 267.577 135.934 270.292 135.915 273.009C135.899 274.41 135.837 275.792 135.435 279.711L141.447 278.042C142.951 271.063 141.055 262.083 139.706 257.324C139.041 255.011 138.194 252.752 137.174 250.568Z" fill="#120E1E"/>
<path d="M137 279.905L146.969 290.711L151 289.53L141.018 278.711L137 279.905Z" fill="#120E1E"/>
<path d="M124.413 239.398C119.554 234.63 114.48 232.939 110.148 234.029C108.001 234.593 106.064 235.783 104.579 237.45C104.122 237.932 103.702 238.448 103.321 238.994C103.125 239.277 102.935 239.567 102.752 239.862C102.563 240.161 102.379 240.483 102.203 240.805C101.839 241.475 101.512 242.164 101.225 242.87C101.08 243.238 100.929 243.615 100.791 244.005C100.726 244.197 100.659 244.395 100.591 244.594C100.466 244.994 100.34 245.397 100.221 245.81C100.17 246.024 100.112 246.239 100.058 246.46C96.6008 260.15 101.897 279.244 111.872 289.045C112.03 289.191 112.18 289.344 112.335 289.493C112.618 289.753 112.894 290.007 113.174 290.241C113.946 290.916 114.763 291.538 115.618 292.101C115.924 292.306 116.235 292.491 116.541 292.664C116.83 292.833 117.12 292.986 117.403 293.132C117.551 293.204 119.383 293.981 119.4 293.981C119.582 294.051 119.768 294.112 119.956 294.163C120.072 294.202 120.802 294.39 121.046 294.446C121.207 294.478 121.374 294.514 121.528 294.54C121.663 294.563 121.796 294.582 121.93 294.602C122.139 294.631 122.348 294.654 122.564 294.677C122.673 294.68 122.786 294.693 122.898 294.696C123.133 294.712 123.776 294.713 123.866 294.709C124.146 294.699 124.432 294.683 124.706 294.654C124.85 294.646 124.993 294.626 125.133 294.595C125.524 294.542 125.91 294.459 126.288 294.348C126.323 294.342 126.355 294.335 126.387 294.329L126.603 294.267C129.922 293.262 134.378 290.81 135.986 284.427L144.401 293.233L148 290.69L137.234 279.481C138.832 262.14 133.208 248.04 124.413 239.398ZM134.076 276.646C133.906 279.507 132.31 284.317 131.963 285.071C130.452 288.407 128.301 290.579 125.738 291.353C125.738 291.353 125.529 291.412 125.477 291.428C125.227 291.499 124.973 291.553 124.715 291.591C124.664 291.594 124.614 291.603 124.564 291.617C124.519 291.617 124.429 291.633 124.384 291.633C124.182 291.656 123.979 291.666 123.77 291.672C123.683 291.672 123.236 291.672 123.059 291.662C122.985 291.662 122.905 291.656 122.821 291.649C122.654 291.633 122.493 291.613 122.333 291.594C122.236 291.581 122.126 291.558 122.017 291.545C121.918 291.523 121.792 291.503 121.667 291.47C121.47 291.431 120.933 291.291 120.802 291.246C120.689 291.217 120.58 291.178 120.464 291.139C120.149 291.009 119.004 290.524 118.712 290.394C118.487 290.274 118.264 290.157 118.046 290.033C117.75 289.864 117.509 289.721 117.274 289.562C116.523 289.072 115.808 288.53 115.132 287.939C114.875 287.721 114.637 287.5 114.393 287.269C114.277 287.168 114.206 287.097 114.133 287.022L113.93 286.83C109.515 282.496 105.913 275.93 103.823 268.39C101.729 260.846 101.428 253.318 102.968 247.208C103.019 247.013 103.074 246.805 103.122 246.606C103.222 246.259 103.337 245.878 103.456 245.514C103.495 245.403 103.63 245.013 103.63 245.013C103.746 244.678 103.872 244.343 104.003 244.025C104.251 243.423 104.531 242.836 104.842 242.265C104.981 242.015 105.132 241.739 105.296 241.482C105.45 241.235 105.614 240.984 105.781 240.74C106.074 240.327 106.395 239.934 106.74 239.563C107.837 238.311 109.274 237.412 110.872 236.978C114.342 236.103 118.412 237.736 122.316 241.579C126.76 245.936 130.352 252.492 132.442 260.02C133.896 265.432 134.449 271.051 134.076 276.646Z" fill="white"/>
<path d="M150.264 286.713C149.873 286.718 149.483 286.775 149.107 286.881C148.804 286.964 148.509 287.072 148.224 287.203C146.557 287.958 145.149 289.167 144.167 290.685C143.675 291.449 142.185 294.065 143.585 295.477C143.727 295.613 157.5 308.661 161.778 312.711C161.715 312.062 161.786 311.408 161.988 310.787C162.291 309.839 162.761 308.95 163.375 308.158C164.582 306.488 166.315 305.248 168.309 304.626C168.745 304.502 169.196 304.437 169.651 304.433C169.77 304.433 169.887 304.44 170 304.449L151.861 287.27C151.425 286.886 150.851 286.686 150.264 286.713Z" fill="white"/>
<path d="M150.648 286.713C150.222 286.717 149.798 286.778 149.389 286.895C149.069 286.984 148.756 287.098 148.455 287.236C146.714 288.021 145.243 289.285 144.223 290.875C143.334 292.268 142.277 294.689 143.686 296.114C143.706 296.136 163.241 314.689 163.264 314.711C163.097 314.551 162.956 314.366 162.847 314.163C162.398 313.34 162.499 312.291 162.766 311.43C163.061 310.51 163.516 309.647 164.11 308.879C165.279 307.329 166.978 305.951 168.898 305.431C169.309 305.315 169.734 305.254 170.161 305.25C170.838 305.22 171.499 305.454 172 305.9L152.484 287.364C151.984 286.918 151.324 286.685 150.648 286.713ZM168.719 304.804C166.641 305.451 164.835 306.745 163.577 308.49C162.934 309.318 162.444 310.249 162.128 311.242C162.001 311.65 161.92 312.072 161.887 312.498C156.272 307.163 144.318 295.808 144.165 295.661C142.918 294.402 144.324 291.943 144.786 291.219C145.74 289.741 147.109 288.563 148.728 287.826C148.998 287.704 149.278 287.603 149.564 287.523C149.917 287.422 150.281 287.369 150.648 287.364C151.151 287.338 151.644 287.506 152.022 287.833L169.699 304.622C169.368 304.657 169.04 304.717 168.719 304.804Z" fill="#120E1E"/>
<path d="M169.902 305.715C169.525 305.72 169.15 305.774 168.787 305.876C166.315 306.552 163.782 309.104 163.141 311.561C162.882 312.571 162.981 313.437 163.428 314.001C163.632 314.239 163.89 314.427 164.181 314.549C164.472 314.672 164.788 314.726 165.104 314.707C165.48 314.703 165.853 314.649 166.214 314.547C168.688 313.871 171.218 311.322 171.857 308.864C172.119 307.852 172.02 306.982 171.576 306.418C171.373 306.18 171.115 305.993 170.824 305.87C170.534 305.748 170.218 305.695 169.902 305.715Z" fill="white"/>
<path d="M170.493 305.711C170.072 305.715 169.654 305.775 169.249 305.891C166.581 306.622 163.852 309.363 163.158 312.037C162.585 314.254 163.613 315.711 165.516 315.711C165.934 315.707 166.349 315.647 166.751 315.531C169.419 314.803 172.151 312.047 172.838 309.388C173.418 307.162 172.394 305.711 170.493 305.711ZM172.205 309.23C171.581 311.646 169.003 314.248 166.578 314.913C166.232 315.01 165.875 315.062 165.516 315.068C165.237 315.084 164.959 315.038 164.701 314.931C164.444 314.825 164.215 314.663 164.031 314.456C163.632 313.951 163.545 313.147 163.791 312.198C164.431 309.738 166.956 307.187 169.425 306.512C169.772 306.413 170.132 306.359 170.493 306.354C170.77 306.337 171.048 306.383 171.304 306.488C171.56 306.593 171.788 306.754 171.971 306.96C172.372 307.468 172.455 308.272 172.205 309.23Z" fill="#120E1E"/>
<path d="M35.9281 83.9858L103.528 121.431C103.847 121.607 104.455 121.916 104.616 122.188C104.777 122.461 105 122.934 105 123.216V180.976C105 184.155 101.623 185.235 100.26 184.48L33.9452 145.324C33.6254 145.148 33.3589 144.889 33.1736 144.574C32.9884 144.26 32.8913 143.901 32.8924 143.537L31 87.0285C31 83.9633 34.5651 83.2309 35.9281 83.9858Z" fill="#120E1E"/>
<path d="M101.023 184.711C100.689 184.711 100.36 184.625 100.068 184.462L32.016 146.695C31.7081 146.523 31.4518 146.271 31.2732 145.966C31.0947 145.662 31.0004 145.315 31 144.961V86.6919C31.0005 86.1669 31.209 85.6636 31.5796 85.2922C31.9502 84.9209 32.4529 84.7118 32.9772 84.7109C33.3117 84.7117 33.6404 84.7984 33.9318 84.9628L101.987 122.736C102.295 122.907 102.552 123.157 102.73 123.461C102.908 123.765 103.001 124.111 103 124.464V182.731C102.999 183.256 102.791 183.759 102.42 184.13C102.05 184.501 101.547 184.71 101.023 184.711Z" fill="white"/>
<path d="M33.0562 84.8754C33.3751 84.8763 33.6885 84.959 33.9666 85.1155L101.864 122.828C102.159 122.991 102.405 123.23 102.576 123.521C102.747 123.811 102.836 124.143 102.836 124.48V182.651C102.835 183.153 102.635 183.635 102.281 183.99C101.926 184.346 101.445 184.546 100.944 184.546C100.624 184.546 100.311 184.463 100.033 184.305L32.1392 146.601C31.844 146.437 31.598 146.197 31.4266 145.905C31.2551 145.614 31.1645 145.282 31.164 144.944V86.7709C31.1648 86.2684 31.3644 85.7867 31.7191 85.4314C32.0738 85.0761 32.5546 84.8762 33.0562 84.8754ZM33.0529 84.7109C32.5081 84.7117 31.9859 84.929 31.6009 85.3153C31.216 85.7016 30.9999 86.2251 31 86.7709V144.944C30.9998 145.311 31.0979 145.672 31.284 145.989C31.4702 146.306 31.7376 146.567 32.0585 146.746L99.9527 184.45C100.255 184.621 100.597 184.711 100.944 184.711C101.489 184.711 102.012 184.494 102.397 184.107C102.783 183.721 103 183.197 103 182.651V124.48C103.001 124.113 102.903 123.753 102.717 123.437C102.532 123.121 102.265 122.86 101.944 122.683L34.0473 84.9722C33.7435 84.8016 33.4012 84.7116 33.0529 84.7109Z" fill="#120E1E"/>
<path d="M73 130.877L74.4967 129.711L93 147.588L91.5641 148.711L73 130.877Z" fill="#120E1E"/>
<path d="M74.4852 129.93L92.7572 147.428L91.5148 148.494L73.2428 130.993L74.4852 129.93ZM74.4913 129.711L73 130.986L91.5083 148.711L93 147.434L74.4913 129.711Z" fill="white"/>
<path d="M71 144.873L72.5503 143.711L84.8446 146.232L85 147.711L71 144.873Z" fill="#120E1E"/>
<path d="M72.5477 143.881L84.6212 146.248L84.8043 147.51L71.3596 144.874L72.5477 143.881ZM72.4993 143.711L71 144.964L85 147.711L84.7689 146.115L72.4993 143.711Z" fill="white"/>
<path d="M37 122.719L37.4578 118.711L58 122.206L57.417 126.917L43.1827 123.861L56.4587 136.183L55.9381 140.711L37 122.719Z" fill="#120E1E"/>
<path d="M37.5812 118.901L57.8161 122.24L57.3403 126.667L43.2403 123.747C43.2286 123.744 43.2165 123.743 43.2045 123.744C43.1739 123.743 43.1438 123.751 43.1176 123.767C43.0914 123.782 43.0702 123.805 43.0565 123.831C43.039 123.863 43.0328 123.899 43.0387 123.934C43.0447 123.969 43.0624 124.001 43.0893 124.026L56.329 136.048L55.8661 140.36L37.1773 122.69L37.5812 118.901ZM37.433 118.711L37 122.753L55.9975 140.711L56.5063 135.985L43.2045 123.906L57.4879 126.864L58 122.105L37.433 118.711Z" fill="white"/>
<path d="M57 145.516L66.9429 123.711L71 126.033L61.0143 147.711L57 145.516Z" fill="#120E1E"/>
<path d="M66.9301 123.944L70.784 126.05L60.9915 147.478L57.2164 145.414L66.9301 123.944ZM66.8512 123.711L57 145.485L61.0704 147.711L71 125.979L66.8512 123.711Z" fill="white"/>
<path d="M70 149.349L70.5791 144.678L84.8295 147.603L71.5403 135.37L72.0698 130.711L91 148.828L90.5559 152.711L70 149.349Z" fill="#120E1E"/>
<path d="M72.1256 131.063L90.823 148.753L90.4227 152.522L70.1837 149.211L70.6561 144.806L84.7752 147.612C84.7859 147.614 84.797 147.615 84.808 147.615C84.8392 147.615 84.8699 147.607 84.8966 147.591C84.9232 147.575 84.9448 147.552 84.9589 147.525C84.9751 147.493 84.9803 147.457 84.9738 147.422C84.9673 147.387 84.9493 147.354 84.9227 147.33L71.6698 135.353L72.1256 131.063ZM71.9943 130.711L71.4923 135.417L84.808 147.452L70.5087 144.611L70 149.349L90.5703 152.711L91 148.693L71.9943 130.711Z" fill="white"/>
<path d="M91.425 148.941L93 147.711L92.4063 151.614L91 152.711L91.425 148.941Z" fill="#120E1E"/>
<path d="M92.786 148.084L92.3979 151.416L91.214 152.338L91.6021 149.005L92.786 148.084ZM93 147.711L91.4381 148.93L91 152.711L92.5619 151.492L93 147.711Z" fill="white"/>
<path d="M67 124.086L68.6572 122.711L73 125.38L71.396 126.711L67 124.086Z" fill="#120E1E"/>
<path d="M68.6411 122.935L72.692 125.282L71.3588 126.487L67.3084 124.141L68.6411 122.935ZM68.617 122.711L67 124.176L71.383 126.711L73 125.248L68.617 122.711Z" fill="white"/>
<path d="M70.5271 126.009L72 124.711L62.1885 146.657L61 147.711L70.5271 126.009Z" fill="#120E1E"/>
<path d="M71.5531 125.328L62.3336 146.303L61.4496 147.091L70.6632 126.119L71.5531 125.328ZM72 124.711L70.5308 126.018L61 147.711L62.4656 146.403L72 124.711Z" fill="white"/>
<path d="M37 118.978L38.5703 117.711L59 121.471L57.4658 122.711L37 118.978Z" fill="#120E1E"/>
<path d="M38.5752 117.896L58.6211 121.444L57.4248 122.525L37.376 118.979L38.5752 117.896ZM38.5263 117.711L37 119.09L57.4741 122.711L59 121.334L38.5263 117.711Z" fill="white"/>
<path d="M57.4899 121.991L59 120.711L58.3487 125.566L57 126.711L57.4899 121.991Z" fill="#120E1E"/>
<path d="M58.7946 121.102L58.3421 125.35L57.2055 126.32L57.6582 122.072L58.7946 121.102ZM59 120.711L57.5009 121.991L57 126.711L58.4992 125.431L59 120.711Z" fill="white"/>
<path d="M43 123.711L46.8292 124.64L58 134.59L56.4985 135.711L43 123.711Z" fill="#120E1E"/>
<path d="M43.5641 123.991L46.7904 124.648L57.7443 134.423L56.4531 135.492L43.5641 123.991ZM43 123.711L56.4497 135.711L58 134.427L46.8737 124.499L43 123.711Z" fill="white"/>
<path d="M56.4874 136.003L58 134.711L57.351 139.562L56 140.711L56.4874 136.003Z" fill="#120E1E"/>
<path d="M57.791 135.106L57.3441 139.343L56.2057 140.32L56.6559 136.079L57.791 135.106ZM58 134.711L56.4983 136L56 140.711L57.5013 139.425L58 134.711Z" fill="white"/>
<path d="M166.75 187.81C164.357 185.281 161.45 183.711 159.163 183.711C158.706 183.711 158.252 183.782 157.816 183.922C157.521 184.001 157.234 184.109 156.961 184.247L154 185.495L154.895 186.658C153.448 189.745 153.821 194.202 155.869 198.29C158.206 202.954 162.15 206.132 166.73 207.03L171.754 211.711L171.157 207.334L170.877 205.101C171.543 204.158 171.927 203.041 171.984 201.883C172.089 199.302 171.68 196.726 170.781 194.308C169.881 191.89 168.511 189.68 166.75 187.81Z" fill="white"/>
<path d="M159.184 183.711C158.769 183.708 158.356 183.765 157.957 183.88C157.615 183.97 157.284 184.093 156.966 184.247L154 185.612L154.876 186.672C151.856 193.097 156.897 205.044 166.631 206.922L171.786 211.711L171.162 207.15L170.87 205.001C171.539 204.054 171.925 202.933 171.982 201.771C172.43 191.216 164.236 183.711 159.184 183.711ZM170.997 207.173L171.556 211.267L166.745 206.796C166.722 206.775 166.693 206.761 166.662 206.756C162.187 205.892 158.3 202.765 155.993 198.175C153.972 194.157 153.603 189.775 155.027 186.745C155.041 186.716 155.046 186.683 155.043 186.651C155.039 186.618 155.026 186.588 155.006 186.563L154.271 185.675L157.041 184.4C157.308 184.267 157.586 184.16 157.873 184.082L158.004 184.042C158.388 183.93 158.786 183.876 159.186 183.88C161.43 183.88 164.289 185.423 166.648 187.907C168.386 189.749 169.739 191.925 170.627 194.306C171.515 196.686 171.919 199.223 171.815 201.765C171.759 202.894 171.383 203.984 170.732 204.905C170.72 204.922 170.711 204.941 170.707 204.962C170.702 204.982 170.701 205.003 170.704 205.024L170.997 207.173Z" fill="#120E1E"/>
<path d="M154.957 184.881C154.057 185.079 153.254 185.589 152.687 186.322C148.123 192.244 153.167 205.902 163.631 207.919L168.786 212.711L168.162 208.147L167.869 205.998C168.54 205.052 168.927 203.931 168.982 202.769C169.468 191.31 159.758 183.438 154.957 184.881Z" fill="#E20338"/>
<path d="M163.67 196.715C163.152 196.654 162.874 197.272 163.056 198.104C163.24 198.932 163.808 199.653 164.333 199.71C164.423 199.715 164.512 199.697 164.595 199.657C164.679 199.617 164.754 199.556 164.817 199.478C164.879 199.399 164.928 199.306 164.959 199.203C164.991 199.101 165.004 198.991 164.998 198.882C165.035 198.075 164.472 196.804 163.67 196.715Z" fill="#120E1E"/>
<path d="M159.669 195.715C159.151 195.658 158.874 196.275 159.056 197.103C159.24 197.932 159.809 198.656 160.334 198.71C160.424 198.715 160.513 198.698 160.597 198.658C160.68 198.618 160.756 198.557 160.818 198.478C160.881 198.4 160.93 198.307 160.961 198.204C160.992 198.101 161.004 197.991 160.998 197.882C161.036 197.078 160.473 195.808 159.669 195.715Z" fill="#120E1E"/>
<path d="M155.669 193.715C155.151 193.658 154.873 194.278 155.057 195.105C155.239 195.933 155.808 196.653 156.333 196.71C156.423 196.715 156.512 196.697 156.595 196.657C156.679 196.617 156.754 196.556 156.817 196.478C156.88 196.4 156.928 196.307 156.959 196.204C156.991 196.101 157.004 195.992 156.998 195.883C157.035 195.08 156.472 193.811 155.669 193.715Z" fill="#120E1E"/>
<path d="M168 206.04L168.951 212.711L172 211.426L171.158 204.711L168 206.04Z" fill="white"/>
<path d="M168 206.092L168.927 212.711L172 211.327L171.074 204.711L168 206.092ZM169.065 212.466L168.186 206.193L170.937 204.955L171.814 211.225L169.065 212.466Z" fill="#120E1E"/>
<path d="M66.2047 217.134C63.7361 213.337 60.5132 211.067 57.1303 210.74C56.9226 210.721 56.718 210.711 56.5186 210.711C55.6396 210.701 54.7735 210.915 54.0085 211.332L52.0038 212.488L52.2216 213.03C50.8919 215.056 50.6341 218.143 51.5152 221.502C53.204 227.942 58.5034 233.549 63.3291 234.003L63.7528 234.054L64.2132 234.711L66.2146 233.465C66.438 233.345 66.6525 233.21 66.8564 233.062C68.3689 231.922 69.3264 229.882 69.4179 227.602C69.4592 226.123 69.2989 224.645 68.9408 223.206L73 220.269L66.2047 217.134Z" fill="white"/>
<path d="M66.2775 217.119C64.0907 213.764 60.922 211.099 57.1914 210.74C56.9816 210.721 56.7749 210.711 56.5748 210.711C55.6848 210.7 54.8075 210.916 54.0326 211.337L52.0094 212.589L52.231 213.046C50.9484 214.997 50.5963 218.011 51.517 221.515C53.2062 227.941 58.4758 233.523 63.3386 233.977C63.4626 233.99 63.5798 233.986 63.699 233.993L64.2032 234.711L66.2561 233.434C66.4685 233.323 66.6719 233.196 66.8644 233.056L66.9073 233.03V233.027C68.5123 231.82 69.3998 229.676 69.4859 227.551C69.5335 226.101 69.3632 224.652 68.9801 223.249L73 220.2L66.2775 217.119ZM69.3173 227.544C69.2264 229.781 68.2875 231.782 66.8032 232.9C66.7987 232.901 66.7946 232.903 66.7917 232.906L66.7619 232.925C66.573 233.064 66.3729 233.189 66.1635 233.297L64.2511 234.488L63.8396 233.901C63.8246 233.88 63.8052 233.864 63.7825 233.851C63.7599 233.839 63.7347 233.832 63.7089 233.831C63.6609 233.828 63.6146 233.828 63.5667 233.825C63.4973 233.825 63.4295 233.821 63.3551 233.815C58.5897 233.37 53.3534 227.834 51.6806 221.474C50.8112 218.167 51.064 215.124 52.3747 213.132C52.3897 213.109 52.3985 213.082 52.4003 213.055C52.402 213.028 52.3967 213.001 52.3847 212.976L52.2243 212.649L54.117 211.477C54.8665 211.071 55.7145 210.862 56.5748 210.873C56.7698 210.873 56.9715 210.883 57.1749 210.902C60.5122 211.223 63.694 213.462 66.1338 217.204C66.1512 217.23 66.1758 217.251 66.2049 217.265L72.681 220.235L68.8744 223.123C68.8491 223.142 68.8301 223.167 68.8198 223.197C68.8095 223.226 68.8084 223.258 68.8164 223.288C69.1966 224.676 69.3654 226.109 69.3173 227.544Z" fill="#120E1E"/>
<path d="M64.2799 218.313C62.0917 214.857 58.9233 212.111 55.1929 211.742C50.3984 211.273 47.8315 216.218 49.5191 222.839C51.2083 229.462 56.4771 235.209 61.3397 235.68C65.1888 236.079 67.3506 232.539 67.4861 229.06C67.534 227.565 67.3636 226.072 66.9804 224.626L71 221.487L64.2799 218.313Z" fill="#120E1E"/>
<path d="M55.9321 221.711L55.2998 221.799C55.0823 221.977 54.9764 222.204 55.0044 222.433C54.9963 222.687 55.0921 222.938 55.2813 223.159C55.4706 223.38 55.7461 223.561 56.0783 223.685L56.2859 223.711C56.4409 223.7 56.5867 223.656 56.7025 223.587C56.8183 223.517 56.8981 223.424 56.9304 223.322C57.1574 222.835 56.8302 221.923 55.9321 221.711Z" fill="white"/>
<path d="M55.9748 221.741C55.8975 221.721 55.8159 221.711 55.7335 221.711C55.3028 221.711 54.9897 222.015 55.0004 222.471C54.9928 222.719 55.085 222.963 55.2668 223.177C55.4487 223.391 55.7132 223.566 56.0313 223.684C56.1025 223.702 56.1776 223.711 56.2532 223.711C56.4148 223.702 56.5678 223.658 56.6902 223.585C56.8126 223.512 56.8979 223.414 56.9338 223.306C57.1534 222.823 56.8252 221.946 55.9748 221.741ZM56.7207 223.261C56.6577 223.404 56.4838 223.559 56.2532 223.559C56.2028 223.559 56.1528 223.553 56.1052 223.541C55.8316 223.433 55.6054 223.276 55.4502 223.087C55.2949 222.898 55.2162 222.685 55.2223 222.468C55.2001 222.28 55.2825 222.094 55.4529 221.946C55.4892 221.92 55.5327 221.899 55.5809 221.885C55.6291 221.871 55.681 221.863 55.7335 221.863C55.7907 221.863 55.8474 221.87 55.901 221.884C56.6207 222.06 56.9119 222.841 56.7207 223.261Z" fill="#120E1E"/>
<path d="M57.9329 222.711L57.2977 222.802C57.0811 222.979 56.976 223.205 57.0046 223.433C56.9944 223.687 57.089 223.939 57.2781 224.16C57.4672 224.38 57.7435 224.562 58.0767 224.685L58.2845 224.711C58.4399 224.7 58.5862 224.657 58.7025 224.587C58.8188 224.517 58.899 224.424 58.9315 224.322C59.1562 223.835 58.8291 222.923 57.9329 222.711Z" fill="white"/>
<path d="M57.9753 222.741C57.8981 222.721 57.8163 222.711 57.7339 222.711C57.3031 222.711 56.9899 223.012 57.0006 223.471C56.9915 223.719 57.0829 223.963 57.2646 224.177C57.4462 224.392 57.7111 224.567 58.0296 224.684C58.101 224.701 58.176 224.71 58.2516 224.711C58.4139 224.703 58.5678 224.659 58.6908 224.586C58.8139 224.513 58.8993 224.415 58.9346 224.306C59.1521 223.823 58.8257 222.947 57.9753 222.741ZM58.7216 224.261C58.6979 224.338 58.6399 224.408 58.5557 224.461C58.4715 224.514 58.3653 224.548 58.2516 224.559C58.2004 224.558 58.1497 224.552 58.1013 224.541C57.8274 224.433 57.6014 224.276 57.447 224.087C57.2927 223.898 57.2159 223.684 57.2247 223.468C57.1998 223.282 57.2817 223.096 57.4532 222.95C57.4889 222.923 57.5322 222.901 57.5805 222.886C57.6287 222.872 57.681 222.864 57.7339 222.863C57.7908 222.865 57.8471 222.872 57.9012 222.884C58.6171 223.057 58.9106 223.841 58.7216 224.261Z" fill="#120E1E"/>
<path d="M59.9325 224.711L59.302 224.802C59.0847 224.979 58.9779 225.205 59.0038 225.433C58.9938 225.688 59.0891 225.94 59.2793 226.16C59.4695 226.381 59.7471 226.563 60.0817 226.685L60.292 226.711C60.4464 226.7 60.5914 226.656 60.7063 226.586C60.8212 226.516 60.9003 226.424 60.932 226.322C61.1617 225.835 60.805 224.917 59.9325 224.711Z" fill="white"/>
<path d="M59.9749 224.741C59.8985 224.722 59.8186 224.712 59.7377 224.711C59.3073 224.711 58.9918 225.015 59.0006 225.473C58.9917 225.72 59.0835 225.964 59.2655 226.177C59.4476 226.39 59.7127 226.565 60.0314 226.681C60.1026 226.701 60.1787 226.711 60.2555 226.711C60.4172 226.701 60.5702 226.657 60.6922 226.583C60.8142 226.51 60.8988 226.412 60.9338 226.303C61.1534 225.824 60.8249 224.946 59.9749 224.741ZM60.7187 226.262C60.6962 226.338 60.6394 226.407 60.5563 226.46C60.4732 226.513 60.368 226.547 60.2555 226.556C60.2037 226.556 60.1523 226.55 60.103 226.539C59.8297 226.431 59.6038 226.275 59.4492 226.087C59.2946 225.899 59.217 225.686 59.2246 225.47C59.1994 225.282 59.2829 225.095 59.4572 224.949C59.4926 224.922 59.5359 224.9 59.5842 224.886C59.6325 224.871 59.6848 224.863 59.7377 224.863C59.7933 224.864 59.8483 224.871 59.9008 224.884C60.6208 225.059 60.912 225.839 60.7187 226.262Z" fill="#120E1E"/>
<path d="M55.2056 222.163C55.1995 221.94 55.2389 221.747 55.3972 221.711C55.1498 221.737 54.99 222.034 55.0005 222.447C54.9944 222.699 55.0531 222.948 55.1702 223.166C55.2872 223.384 55.4582 223.564 55.6643 223.685L55.7941 223.711C55.9299 223.711 56.0581 223.617 55.9721 223.553C55.7352 223.422 55.5376 223.222 55.402 222.976C55.2664 222.73 55.1984 222.449 55.2056 222.163Z" fill="white"/>
<path d="M55.8377 223.415C55.6652 223.299 55.5217 223.123 55.4232 222.908C55.3248 222.694 55.2753 222.449 55.2804 222.2C55.2721 222.031 55.301 221.861 55.3639 221.711C55.1463 221.738 54.991 222.03 55.0004 222.466C54.9951 222.714 55.0443 222.959 55.1426 223.174C55.2408 223.388 55.3842 223.564 55.5567 223.681C55.5956 223.701 55.6372 223.711 55.6791 223.711C55.7469 223.707 55.8125 223.679 55.869 223.631C55.9255 223.583 55.9708 223.517 56 223.439C55.9856 223.442 55.9711 223.443 55.9565 223.442C55.9161 223.441 55.8759 223.432 55.8377 223.415ZM55.6791 223.559C55.6506 223.557 55.6225 223.55 55.5956 223.538C55.4476 223.429 55.3254 223.271 55.2418 223.082C55.1582 222.892 55.1163 222.678 55.1204 222.46C55.1167 222.345 55.1303 222.229 55.1605 222.12C55.1593 222.148 55.1593 222.176 55.1605 222.203C55.1574 222.473 55.2107 222.738 55.315 222.973C55.4194 223.207 55.571 223.402 55.7543 223.538C55.7304 223.551 55.7049 223.558 55.6791 223.559Z" fill="#120E1E"/>
<path d="M57.2055 223.157C57.2009 222.931 57.24 222.737 57.3953 222.711C57.1497 222.734 56.9913 223.025 57.0005 223.442C56.9941 223.695 57.0525 223.944 57.1692 224.163C57.2859 224.382 57.4564 224.563 57.6622 224.685L57.792 224.711C57.9307 224.711 58.0588 224.617 57.9714 224.552C57.7348 224.42 57.5375 224.219 57.4021 223.973C57.2667 223.726 57.1985 223.444 57.2055 223.157Z" fill="white"/>
<path d="M57.8337 224.418C57.6619 224.3 57.5191 224.124 57.4211 223.908C57.3232 223.693 57.2739 223.447 57.2789 223.198C57.2711 223.029 57.2999 222.861 57.3622 222.711C57.1456 222.735 56.9922 223.028 57.0004 223.464C56.9951 223.713 57.0441 223.959 57.1418 224.174C57.2396 224.39 57.3823 224.566 57.554 224.684C57.6388 224.723 57.7321 224.72 57.8149 224.674C57.8978 224.628 57.9639 224.544 58 224.439C57.9832 224.444 57.9658 224.446 57.9485 224.445C57.9093 224.445 57.8705 224.435 57.8337 224.418ZM57.6746 224.558C57.6467 224.558 57.619 224.552 57.5926 224.54C57.4453 224.431 57.3238 224.273 57.2408 224.084C57.1578 223.894 57.1164 223.679 57.121 223.461C57.1172 223.346 57.1303 223.23 57.1596 223.12C57.1585 223.147 57.1585 223.174 57.1596 223.201C57.1565 223.471 57.2097 223.737 57.3135 223.973C57.4174 224.208 57.5682 224.404 57.7507 224.54C57.7265 224.553 57.7007 224.559 57.6746 224.558Z" fill="#120E1E"/>
<path d="M60.2062 225.161C60.2016 224.934 60.2424 224.737 60.3966 224.711C60.1503 224.733 59.99 225.028 60.0005 225.445C59.9945 225.697 60.0532 225.946 60.1702 226.165C60.2873 226.383 60.4581 226.563 60.6642 226.685L60.7958 226.711C60.9333 226.711 61.0616 226.62 60.968 226.552C60.7325 226.419 60.5364 226.219 60.4018 225.973C60.2672 225.727 60.1994 225.446 60.2062 225.161Z" fill="white"/>
<path d="M60.829 226.418C60.6581 226.3 60.5161 226.124 60.419 225.909C60.3218 225.694 60.2733 225.449 60.2789 225.201C60.271 225.031 60.2997 224.862 60.362 224.711C60.1455 224.735 59.9911 225.028 60.0004 225.467C59.9954 225.716 60.0445 225.961 60.1422 226.176C60.24 226.391 60.3825 226.567 60.554 226.684C60.6386 226.723 60.7315 226.72 60.8142 226.675C60.8969 226.63 60.9632 226.547 61 226.442C60.9837 226.445 60.9673 226.447 60.9508 226.448C60.9092 226.446 60.8682 226.436 60.829 226.418ZM60.6758 226.559C60.6475 226.558 60.6195 226.552 60.5926 226.541C60.4454 226.432 60.3239 226.275 60.2407 226.085C60.1576 225.896 60.1158 225.682 60.1198 225.464C60.1158 225.347 60.1293 225.229 60.1596 225.117C60.1584 225.145 60.1584 225.173 60.1596 225.201C60.1549 225.471 60.2071 225.738 60.3106 225.974C60.4142 226.209 60.5653 226.405 60.7483 226.541C60.7253 226.553 60.7007 226.559 60.6758 226.559Z" fill="#120E1E"/>
<path d="M64 218.84L70.7985 221.711L73 220.603L66.2439 217.711L64 218.84Z" fill="white"/>
<path d="M64 218.928L70.783 221.711L73 220.494L66.2153 217.711L64 218.928ZM72.648 220.514L70.7712 221.545L64.3519 218.91L66.2269 217.877L72.648 220.514Z" fill="#120E1E"/>
<path d="M128.966 128.028C126.437 125.323 122.211 122.356 118.5 124.378L116 125.904C117.067 125.369 120.676 124.201 125.703 128.881C128.524 131.595 130.584 135.038 131.668 138.852C132.205 140.69 131.577 147.379 130.083 148.918C126.466 152.646 123.343 157.711 123.343 157.711L126.153 156.04C126.153 156.04 133.277 147.806 133.83 146.913C135.154 144.779 135.171 142.042 134.772 139.627C133.99 135.256 131.97 131.221 128.966 128.028Z" fill="#120E1E"/>
<path d="M119.097 125.735C118.914 125.719 118.73 125.712 118.547 125.712C117.842 125.697 117.141 125.827 116.49 126.093C115.839 126.359 115.252 126.756 114.767 127.257C113.307 128.815 113 131.035 113 132.623C113 139.436 122.767 156.257 123.616 157.711C124.406 156.863 130.829 149.956 131.603 148.903C132.651 147.482 133.112 145.565 132.977 143.201C132.759 139.381 131.19 135.387 128.561 131.958C127.229 130.22 123.641 126.139 119.097 125.735ZM125.18 145.565C125.054 145.564 124.929 145.558 124.804 145.545C121.728 145.239 118.351 141.604 117.273 137.444C116.652 135.055 116.894 132.929 117.935 131.619C118.237 131.229 118.629 130.915 119.079 130.702C119.529 130.49 120.024 130.384 120.524 130.393C120.664 130.393 120.804 130.4 120.944 130.416C125.693 130.892 128.984 137.373 128.801 141.343C128.717 143.442 127.447 145.565 125.18 145.565Z" fill="white"/>
<path d="M128.582 131.95C126.374 129.066 122.981 126.077 119.138 125.738C118.953 125.721 118.768 125.712 118.583 125.712C117.872 125.698 117.166 125.83 116.51 126.099C115.854 126.368 115.262 126.769 114.774 127.275C113.428 128.712 113 130.765 113 132.659C113 139.8 123.597 157.711 123.597 157.711C123.597 157.711 130.773 150 131.601 148.874C132.799 147.242 133.09 145.125 132.978 143.16C132.748 139.133 131.029 135.145 128.582 131.95ZM131.464 148.776C130.719 149.79 124.681 156.296 123.628 157.432C122.479 155.461 113.168 139.275 113.168 132.659C113.168 131.095 113.469 128.913 114.897 127.389C115.37 126.898 115.942 126.51 116.577 126.25C117.212 125.99 117.895 125.862 118.583 125.877C118.763 125.877 118.943 125.887 119.123 125.903C123.593 126.298 127.134 130.331 128.446 132.05C131.044 135.439 132.593 139.389 132.809 143.17C132.941 145.494 132.489 147.381 131.464 148.776Z" fill="#120E1E"/>
<path d="M121.089 130.734C120.947 130.718 120.804 130.711 120.661 130.712C120.149 130.702 119.643 130.809 119.183 131.023C118.723 131.237 118.322 131.553 118.014 131.945C116.96 133.245 116.714 135.346 117.34 137.711C118.42 141.807 121.819 145.386 124.916 145.692C125.043 145.705 125.172 145.711 125.301 145.711C127.614 145.711 128.908 143.595 128.993 141.504C129.177 137.593 125.865 131.205 121.089 130.734ZM125.301 145.549C125.178 145.548 125.056 145.542 124.934 145.53C121.897 145.23 118.571 141.714 117.504 137.669C116.485 133.816 117.893 130.874 120.661 130.874C120.793 130.874 120.931 130.884 121.07 130.896C125.735 131.355 129.009 137.548 128.823 141.497C128.742 143.512 127.508 145.549 125.301 145.549Z" fill="#120E1E"/>
<path d="M119.393 134.002C119.379 132.48 119.829 130.987 120.685 129.714C117.788 129.594 116.287 132.629 117.332 136.657C118.406 140.788 121.754 144.388 124.809 144.691C125.075 144.717 125.342 144.717 125.607 144.691C126.032 144.648 126.443 144.52 126.815 144.316C127.307 144.032 127.715 143.627 128 143.142C122.993 143.067 119.44 138.62 119.393 134.002Z" fill="#120E1E"/>
<path d="M26.083 181.937L22.7084 170.711L18.9756 178.002L11 175.081L16.6103 185.474L15.0546 194.898L22.2555 194.03L26.3674 199.155L25.9752 199.509L25.8211 200.381L27.5407 203.711L29.2696 202.774L28.1095 191.845L34 187.825L26.083 181.937Z" fill="#E20338"/>
<path d="M9 175.64L17.2142 178.711L18 177.268L10.7672 174.711L9 175.64Z" fill="#E20338"/>
<path d="M24.0106 183.011L20.7738 171.711L16.9156 179.095L9 176.037L14.6511 186.564L12.9947 195.966L20.3099 195.121L27.1811 203.711L26.0809 192.902L32 188.986L24.0106 183.011Z" fill="white"/>
<path d="M24.0831 182.917L20.7086 171.711L16.9757 178.984L9 176.072L14.6105 186.445L13.0566 195.85L20.2572 194.984L27.2696 203.711L26.1097 192.803L32 188.788L24.0831 182.917ZM27.0422 203.162L20.388 194.88C20.3721 194.861 20.3521 194.845 20.3295 194.835C20.3069 194.824 20.2822 194.819 20.2572 194.818H20.2375L13.2578 195.659L14.7759 186.471C14.7821 186.435 14.7757 186.399 14.7578 186.367L9.35647 176.381L16.9186 179.139C16.957 179.153 16.9991 179.153 17.037 179.138C17.075 179.123 17.1061 179.095 17.1246 179.058L20.6678 172.155L23.9229 182.966C23.9337 183 23.9548 183.029 23.9834 183.05L31.7121 188.782L26.015 192.666C25.9902 192.683 25.9703 192.706 25.9576 192.733C25.9449 192.76 25.9398 192.79 25.9429 192.819L27.0422 203.162Z" fill="#120E1E"/>
<path d="M21 171.635L24.3062 182.711L26 181.784L22.6938 170.711L21 171.635Z" fill="#E20338"/>
<path d="M27 191.711L27.3324 191.55L34 187.711L32.0799 188.631L27 191.711Z" fill="white"/>
<path d="M26 192.711L27.8153 191.766L34 187.711L32.1847 188.653L26 192.711Z" fill="#120E1E"/>
<defs>
<linearGradient id="paint0_linear_927_16365" x1="149.85" y1="285.005" x2="175.749" y2="243.815" gradientUnits="userSpaceOnUse">
<stop stop-color="#E20338"/>
<stop offset="1" stop-color="white" stop-opacity="0"/>
</linearGradient>
<linearGradient id="paint1_linear_927_16365" x1="24.3246" y1="129.93" x2="253.958" y2="204.688" gradientUnits="userSpaceOnUse">
<stop stop-color="#E20338"/>
<stop offset="1" stop-color="white"/>
</linearGradient>
</defs>
</svg>
