<svg width="261" height="333" viewBox="0 0 261 333" fill="none" xmlns="http://www.w3.org/2000/svg">
<path style="mix-blend-mode:multiply" d="M74 304.042L131.228 332.711L261 236.218L225.488 219.711L74 304.042Z" fill="url(#paint0_linear_927_30709)"/>
<path d="M225.771 215.785L158.248 179.423C156.332 178.318 153.672 177.711 150.754 177.711C147.23 177.711 143.672 178.59 140.982 180.131L2.40825 256.79C1.2715 257.418 0.450514 258.419 0.151592 259.537C-0.374681 261.504 0.501037 263.552 2.28615 264.519L71.3668 301.999C73.2824 303.104 75.9432 303.711 78.8609 303.711C82.3848 303.711 85.9424 302.832 88.6243 301.295L226.049 222.643C227.666 221.718 228.385 219.83 227.796 218.05C227.493 217.129 226.773 216.325 225.771 215.785Z" fill="white"/>
<path d="M226.554 215.888L158.993 179.48C156.933 178.294 154.177 177.711 151.287 177.711C147.819 177.711 144.162 178.549 141.31 180.185L2.62362 256.954C1.4481 257.604 0.512736 258.664 0.167242 259.956C-0.422625 262.161 0.592789 264.379 2.50564 265.414L71.6296 302.942C73.69 304.128 76.4455 304.711 79.3358 304.711C82.8034 304.711 86.4606 303.872 89.313 302.237L226.841 223.477C228.568 222.487 229.44 220.403 228.779 218.391C228.421 217.301 227.569 216.437 226.554 215.888ZM226.428 222.76L88.9001 301.52C86.2752 303.021 82.7908 303.885 79.3358 303.885C76.4876 303.885 73.9006 303.294 72.0257 302.216L2.9017 264.689C1.28799 263.809 0.491669 261.951 0.97199 260.165C1.24164 259.155 1.99162 258.245 3.03231 257.671L141.727 180.901C144.352 179.401 147.836 178.537 151.295 178.537C154.144 178.537 156.731 179.124 158.601 180.205L226.166 216.613C227.076 217.104 227.725 217.825 227.995 218.643C228.517 220.236 227.877 221.93 226.432 222.755L226.428 222.76Z" fill="#120E1E"/>
<path d="M221.469 218.041C221.469 218.041 221.461 218.037 221.457 218.033L158.45 184.957C154.079 182.399 146.714 180.167 141.652 183.105L19.9481 251.787L12.1365 255.99C10.6586 256.831 10.6583 258.722 11.9252 259.563L78.4613 294.467C82.5626 296.865 89.1002 295.522 93.8436 292.768L221.469 219.867C222.165 219.466 222.186 218.425 221.477 218.041H221.469Z" fill="url(#paint1_linear_927_30709)"/>
<path d="M31 255.254L78.4094 280.711L175 223.035L126.789 205.711L31 255.254Z" fill="#120E1E"/>
<path d="M128 206.928V251.711L173 224.753L128.413 206.711L128 206.928Z" fill="#120E1E"/>
<path d="M2.10689 261.15C2.05153 259.369 3.28007 258.607 4.85091 259.448L6.01588 260.071C6.01929 260.073 6.01774 260.072 6.02115 260.074C6.13244 260.134 68.3499 293.763 70.8845 294.8C72.6889 295.539 75.8807 297.253 77.5734 298.181C78.1948 298.522 78.7011 299.37 78.7018 300.063C78.7041 302.241 77.2097 303.197 75.2644 302.296C73.6973 301.57 71.9578 300.782 70.8896 300.352C68.5696 299.42 6.13367 265.684 6.02631 265.626C6.02302 265.624 6.02453 265.625 6.02123 265.623L4.31527 264.71C3.13713 264.079 2.14841 262.485 2.10689 261.15Z" fill="#D9D9D9"/>
<g filter="url(#filter0_f_927_30709)">
<path d="M77.0622 298.988C73.6606 298.203 73.3146 302.529 76.8825 302.921C79.332 303.19 82.6972 302.826 86.9612 300.72C96.8602 295.829 204.897 232.848 209.503 230.261C213.6 227.96 221.598 223.338 223.319 222.342C223.486 222.245 223.6 221.992 223.55 221.836C223.442 221.496 223.124 221.404 222.758 221.612C220.532 222.879 212.785 227.286 209.195 229.299C204.978 231.664 93.7009 296.352 88.0143 298.069C82.3277 299.785 82.5383 300.252 77.0622 298.988Z" fill="url(#paint2_linear_927_30709)"/>
</g>
<path d="M40.6075 280.159L32.3206 275.855C31.5699 275.46 30.9795 275.907 31.0005 276.849C31.0216 277.791 31.6458 278.874 32.3965 279.265L40.6834 283.569C41.4341 283.96 42.0245 283.517 41.9992 282.575C41.9781 281.632 41.354 280.549 40.6033 280.159H40.6075Z" fill="#120E1E"/>
<path d="M29.4784 263.833L29 264.711L60.6497 281.866L61.1281 280.988L29.4784 263.833Z" fill="#E20338"/>
<path d="M108 177.894L118 183.711L128 177.563L117.946 171.711L108 177.894Z" fill="white"/>
<path d="M108 177.779L118.002 183.711L128 177.642L118.002 171.711L108 177.784V177.779ZM127.581 177.642L118.002 183.463L108.419 177.779L118.006 171.959L127.581 177.642Z" fill="#120E1E"/>
<path d="M108.163 236.04L118 241.711V183.475L108 177.711L108.163 236.04Z" fill="white"/>
<path d="M108 235.879L118 241.711V183.543L108 177.711V235.879ZM108.207 178.077L117.788 183.665V241.341L108.207 235.752V178.077Z" fill="#120E1E"/>
<path d="M118 241.711L128 235.752V177.711L118 183.665V241.711Z" fill="#D9D9D9"/>
<path d="M132 146.898L142.002 152.711L152 146.563L141.948 140.711L132 146.898Z" fill="white"/>
<path d="M132 146.786L142.002 152.711L152 146.64L142.002 140.711L132 146.782V146.786ZM151.581 146.645L141.998 152.459L132.415 146.782L141.998 140.963L151.577 146.645H151.581Z" fill="#120E1E"/>
<path d="M132.163 223.044L142 228.711V152.462L132 146.711L132.163 223.044Z" fill="white"/>
<path d="M132 222.882L142 228.711V152.536L132 146.711V222.882ZM132.212 147.077L141.788 152.658V228.341L132.212 222.76V147.077Z" fill="#120E1E"/>
<path d="M142 228.711L152 222.753V146.711L142 152.664V228.711Z" fill="#E20338"/>
<path d="M61 224.782L71.0021 230.711L81 224.636L71.0021 218.711L61 224.782Z" fill="white"/>
<path d="M61 262.907L71 268.711V230.515L61 224.711V262.907Z" fill="white"/>
<path d="M71 268.711L81 262.788V224.711L71 230.638V268.711Z" fill="#D9D9D9"/>
<path d="M85 207.892L95.0042 213.711L105 207.561L94.9499 201.711L85 207.892Z" fill="white"/>
<path d="M85 207.782L95.0021 213.711L105 207.64L95.0021 201.711L85 207.782ZM104.581 207.645L94.9979 213.463L85.415 207.782L94.9979 201.968L104.577 207.649L104.581 207.645Z" fill="#120E1E"/>
<path d="M85.1058 207.892L94.8949 213.491V254.53L85.2675 249.023L85.1058 207.892Z" fill="white" stroke="#120E1E" stroke-width="0.210131"/>
<path d="M61 262.938L71 268.711V230.155L61 224.711V262.938ZM61.2116 225.057L70.7884 230.273V268.369L61.2116 262.824V225.06V225.057Z" fill="#120E1E"/>
<path d="M95 255.711L105 249.687V207.711L95 213.731V255.711Z" fill="#D9D9D9"/>
<path d="M82 157.711L98.4518 166.905L126 169.711L109.548 160.517L82 157.711Z" fill="#E20338"/>
<path d="M99 166.711L99.1157 174.037L127 176.711L126.884 169.389L99 166.711Z" fill="#120E1E"/>
<path d="M172 119.711V87.7109L141 102.727L172 119.711Z" fill="#120E1E"/>
<path d="M82.3563 157.38L45 224.711L61.6597 233.846L99.016 166.515L82.3563 157.38Z" fill="#E20338"/>
<path d="M141 103.307L147.494 106.711L149 99.9821L141 95.7109V103.307Z" fill="#120E1E"/>
<path d="M61 233.711L67.0351 230.41L98 174.167L97.8879 166.711L61 233.711Z" fill="#120E1E"/>
<path d="M126 168.271L126.143 175.711L164 115.155L163.857 107.711L126 168.271Z" fill="#120E1E"/>
<path d="M147.418 99.5145L110 159.774L126.237 168.711L163.651 108.451L171.127 112.563L172 80.7109L140.724 95.8322L147.418 99.5145Z" fill="#E20338"/>
<path d="M171 113.004L171.794 120.711L173 84.4822L172.037 80.7109L171 113.004Z" fill="#120E1E"/>
<path d="M139 114.542L192.741 301.711L194 300.121L139.627 111.711L139 114.542Z" fill="white"/>
<path d="M139 114.543L192.643 301.711L194 299.996L139.786 111.711L139 114.543ZM193.814 299.958L192.715 301.354L139.178 114.543L139.79 112.325L193.814 299.954V299.958Z" fill="#120E1E"/>
<path d="M133 112.711L186.961 301.748L192 302.711L138.753 114.826L133 112.711Z" fill="white"/>
<path d="M133 112.711L186.772 301.665L192 302.711L138.794 114.879L133 112.711ZM186.902 301.522L133.252 112.985L138.66 115.009L191.765 302.496L186.902 301.522Z" fill="#120E1E"/>
<path d="M161 285.501L164.457 288.711L184 274.845L183.368 272.711L161 285.501Z" fill="white"/>
<path d="M161 285.35L164.477 288.711L184 274.919L183.403 272.711L161 285.35ZM164.498 288.5L161.274 285.383L183.304 272.959L183.818 274.853L164.498 288.5Z" fill="#120E1E"/>
<path d="M159 284.815L163.464 286.711L184 272.635L179.485 270.711L159 284.815Z" fill="white"/>
<path d="M159 284.675L163.506 286.711L184 272.755L179.49 270.711L159 284.675ZM183.667 272.784L163.489 286.527L159.333 284.646L179.507 270.899L183.667 272.784Z" fill="#120E1E"/>
<path d="M153 257.492L156.456 260.711L176 246.856L175.36 244.711L153 257.492Z" fill="white"/>
<path d="M153 257.343L156.479 260.711L176 246.926L175.395 244.711L153.004 257.343H153ZM156.496 260.5L153.269 257.38L175.288 244.959L175.809 246.864L156.492 260.504L156.496 260.5Z" fill="#120E1E"/>
<path d="M151 256.803L155.468 258.711L176 244.631L171.481 242.711L151 256.803Z" fill="white"/>
<path d="M151 256.667L155.509 258.711L176 244.754L171.486 242.711L151 256.663V256.667ZM175.667 244.783L155.492 258.527L151.333 256.643L171.503 242.903L175.667 244.787V244.783Z" fill="#120E1E"/>
<path d="M146 229.498L149.452 232.711L169 218.849L168.364 216.711L146 229.498Z" fill="white"/>
<path d="M146 229.349L149.476 232.711L169 218.919L168.399 216.711L146.004 229.349H146ZM149.492 232.5L146.273 229.382L168.296 216.955L168.809 218.853L149.488 232.5H149.492Z" fill="#120E1E"/>
<path d="M144 228.812L148.467 230.711L169 216.639L164.481 214.711L144 228.812Z" fill="white"/>
<path d="M144 228.675L148.509 230.711L169 216.755L164.491 214.711L144.004 228.679L144 228.675ZM168.667 216.784L148.492 230.527L144.333 228.646L164.503 214.895L168.663 216.784H168.667Z" fill="#120E1E"/>
<path d="M138 201.498L141.456 204.711L161 190.849L160.36 188.711L138 201.498Z" fill="white"/>
<path d="M138 201.35L141.476 204.711L161 190.923L160.395 188.711L138 201.35ZM141.496 204.5L138.273 201.383L160.296 188.955L160.818 190.853L141.501 204.496L141.496 204.5Z" fill="#120E1E"/>
<path d="M136 200.811L140.461 202.711L161 188.631L156.492 186.711L136 200.811Z" fill="white"/>
<path d="M136 200.675L140.503 202.711L161 188.751L156.497 186.711L136 200.675ZM160.671 188.78L140.49 202.527L136.337 200.646L156.518 186.899L160.671 188.78Z" fill="#120E1E"/>
<path d="M130 173.498L133.451 176.711L153 162.853L152.36 160.711L130 173.498Z" fill="white"/>
<path d="M130 173.346L133.475 176.711L153 162.923L152.395 160.711L130.004 173.346H130ZM133.487 176.5L130.269 173.379L152.288 160.955L152.809 162.853L133.487 176.496V176.5Z" fill="#120E1E"/>
<path d="M128 172.804L132.464 174.711L153 160.639L148.484 158.711L128 172.804Z" fill="white"/>
<path d="M128 172.667L132.506 174.711L153 160.759L148.49 158.711L128.004 172.672L128 172.667ZM152.667 160.783L132.489 174.523L128.333 172.639L148.507 158.895L152.667 160.783Z" fill="#120E1E"/>
<path d="M122 145.498L125.449 148.711L145 134.849L144.364 132.711L122 145.498Z" fill="white"/>
<path d="M122 145.35L125.472 148.711L145 134.923L144.395 132.711L122 145.35ZM125.488 148.5L122.273 145.383L144.296 132.955L144.814 134.853L125.492 148.496L125.488 148.5Z" fill="#120E1E"/>
<path d="M120 144.811L124.46 146.711L145 132.631L140.488 130.711L120 144.811Z" fill="white"/>
<path d="M120 144.671L124.502 146.711L145 132.751L140.493 130.711L120 144.671ZM144.667 132.78L124.485 146.527L120.333 144.646L140.515 130.899L144.671 132.78H144.667Z" fill="#120E1E"/>
<path d="M117 124.542L170.741 311.711L172 310.121L117.623 121.711L117 124.542Z" fill="white"/>
<path d="M117 124.543L170.643 311.711L172 309.996L117.786 121.711L117 124.543ZM171.818 309.963L170.715 311.358L117.173 124.548L117.786 122.329L171.814 309.963H171.818Z" fill="#120E1E"/>
<path d="M111 121.711L164.481 309.08L170 311.711L116.745 123.822L111 121.711Z" fill="white"/>
<path d="M111 121.711L164.281 308.953L170 311.711L116.786 123.875L111 121.711ZM164.423 308.839L111.252 121.985L116.652 124.005L169.744 311.407L164.423 308.839Z" fill="#120E1E"/>
<path d="M146.143 219.896C145.635 221.032 146.573 222.854 147.494 223.679C148.502 224.577 154.565 229.986 158.506 228.432C158.981 228.245 159.456 228.015 159.799 227.624C160.389 226.956 159.555 223.283 158.898 222.624C158.039 221.756 146.56 218.964 146.147 219.9L146.143 219.896Z" fill="#120E1E"/>
<path d="M152.398 219.467C151.175 218.987 149.68 218.711 148.292 218.711C146.777 218.711 146.139 219.041 146.065 219.195C145.707 219.989 146.905 221.648 147.901 222.542C150.265 224.643 154.617 226.711 156.684 226.711C156.927 226.711 157.133 226.682 157.302 226.623C157.903 226.423 158.611 226.105 158.846 225.842C159.241 225.399 158.821 223.352 158.212 222.759C157.598 222.162 153.855 220.039 152.402 219.467H152.398Z" fill="white"/>
<path d="M153.049 219.508C151.657 218.958 150.053 218.711 148.733 218.711C147.413 218.711 146.315 218.975 146.101 219.448C145.588 220.586 147.146 222.521 148.069 223.352C150.433 225.469 154.928 227.711 157.251 227.711C157.539 227.711 157.79 227.677 158.003 227.604C158.492 227.438 159.402 227.08 159.745 226.693C160.342 226.015 159.795 223.663 159.081 222.96C158.412 222.299 154.532 220.1 153.049 219.516V219.508ZM159.135 226.117C159.001 226.266 158.446 226.565 157.744 226.799C157.656 226.825 157.502 226.863 157.251 226.863C155.229 226.863 150.951 224.805 148.612 222.717C147.526 221.745 146.64 220.271 146.795 219.879C146.891 219.793 147.447 219.55 148.733 219.55C150.02 219.55 151.578 219.827 152.752 220.292C154.268 220.889 157.97 223.028 158.508 223.56C158.981 224.021 159.331 225.759 159.135 226.117Z" fill="#120E1E"/>
<path d="M154.498 224.711C154.227 224.711 154 224.935 154 225.211C154 225.487 154.227 225.711 154.498 225.711C154.77 225.711 155 225.487 155 225.211C155 224.935 154.773 224.711 154.498 224.711Z" fill="#120E1E"/>
<path d="M158.312 221.711L157 223.075L157.334 223.562C157.988 224.296 157.885 226.711 157.885 226.711C159.398 226.626 159.924 225.934 159.924 225.934C160.312 223.55 159.089 222.638 159.089 222.638L158.312 221.711Z" fill="#120E1E"/>
<path d="M158.611 220.774C158.35 220.774 157.796 220.623 157.087 220.431C155.98 220.129 154.464 219.711 153.375 219.711C152.657 219.711 152.213 219.891 152.048 220.251C151.968 220.422 151.989 220.694 152.099 220.975C152.247 221.355 152.796 222.322 154.705 223.121C155.271 223.364 156.128 223.648 157.011 223.648H157.159C157.294 223.648 157.42 223.657 157.509 223.711C157.374 223.284 157.56 222.79 157.94 222.552C158.088 222.46 158.261 222.414 158.447 222.414C158.709 222.414 158.937 222.506 159 222.661C158.848 222.146 158.751 221.615 158.658 221.083L158.607 220.77L158.611 220.774Z" fill="white"/>
<path d="M158.53 220.747C157.887 220.747 155.146 219.711 153.419 219.711C152.759 219.711 152.248 219.862 152.055 220.282C151.824 220.783 152.257 222.166 154.688 223.189C155.381 223.483 156.197 223.711 156.972 223.711C157.162 223.711 157.351 223.699 157.533 223.666C157.413 223.291 157.582 222.838 157.92 222.63C158.064 222.545 158.217 222.508 158.369 222.508C158.592 222.508 158.81 222.581 159 222.687C158.81 222.051 158.711 221.395 158.592 220.743C158.571 220.743 158.555 220.751 158.53 220.751V220.747ZM158.373 222.345C158.18 222.345 157.998 222.394 157.838 222.492C157.491 222.704 157.298 223.128 157.343 223.527C157.223 223.54 157.1 223.548 156.976 223.548C156.127 223.548 155.303 223.271 154.754 223.038C152.92 222.268 152.397 221.35 152.252 220.991C152.153 220.734 152.133 220.494 152.203 220.343C152.347 220.029 152.755 219.87 153.419 219.87C154.47 219.87 155.946 220.274 157.026 220.567C157.685 220.747 158.176 220.881 158.46 220.902L158.505 221.146C158.58 221.562 158.654 221.986 158.761 222.402C158.641 222.365 158.514 222.341 158.373 222.341V222.345Z" fill="#120E1E"/>
<path d="M159.173 242.864C158.879 244.084 160.125 245.691 161.175 246.313C162.323 246.994 169.232 251.094 172.811 248.78C173.246 248.495 173.671 248.178 173.936 247.724C174.394 246.944 172.919 243.5 172.157 242.983C171.165 242.306 159.419 241.863 159.178 242.868L159.173 242.864Z" fill="#120E1E"/>
<path d="M165.396 241.162C164.117 240.936 162.6 240.967 161.241 241.248C159.757 241.555 159.191 242.009 159.15 242.175C158.941 243.029 160.406 244.421 161.546 245.1C164.235 246.691 168.869 247.839 170.894 247.421C171.131 247.371 171.329 247.305 171.479 247.214C172.157 246.822 172.696 246.4 172.852 246.132C173.16 245.616 172.384 243.685 171.681 243.224C170.986 242.761 166.934 241.43 165.4 241.157L165.396 241.162Z" fill="white"/>
<path d="M166.039 241.07C164.583 240.81 162.968 240.891 161.676 241.158C160.384 241.425 159.355 241.907 159.231 242.416C158.931 243.64 160.802 245.234 161.853 245.861C164.545 247.463 169.345 248.761 171.623 248.29C171.905 248.231 172.145 248.147 172.34 248.033C172.785 247.771 173.613 247.234 173.883 246.783C174.348 245.999 173.392 243.79 172.568 243.246C171.795 242.727 167.604 241.352 166.044 241.078L166.039 241.07ZM173.177 246.35C173.076 246.518 172.611 246.906 171.936 247.298C171.859 247.344 171.714 247.409 171.469 247.46C169.489 247.869 164.931 246.713 162.267 245.127C161.03 244.386 159.897 243.118 159.986 242.695C160.06 242.593 160.565 242.241 161.821 241.981C163.076 241.722 164.651 241.679 165.883 241.899C167.484 242.186 171.493 243.542 172.106 243.951C172.65 244.309 173.304 245.949 173.176 246.346L173.177 246.35Z" fill="#120E1E"/>
<path d="M168.491 245.611C168.222 245.666 168.041 245.931 168.091 246.201C168.141 246.472 168.404 246.649 168.672 246.595C168.941 246.54 169.121 246.272 169.071 246.002C169.021 245.731 168.76 245.557 168.491 245.611Z" fill="#120E1E"/>
<path d="M172.29 242.453L171.249 244.052L171.665 244.464C172.441 245.06 172.772 247.452 172.772 247.452C174.242 247.063 174.632 246.278 174.632 246.278C174.581 243.856 173.214 243.204 173.214 243.204L172.289 242.449L172.29 242.453Z" fill="#120E1E"/>
<path d="M171.664 241.439C171.407 241.491 170.834 241.454 170.104 241.405C168.969 241.328 167.408 241.222 166.345 241.438C165.642 241.581 165.24 241.846 165.144 242.232C165.096 242.413 165.17 242.675 165.33 242.933C165.597 243.357 166.336 244.129 168.272 244.522C168.87 244.648 169.763 244.761 170.623 244.587C170.673 244.577 170.727 244.566 170.776 244.556C170.909 244.529 171.034 244.512 171.127 244.549C170.917 244.156 171.009 243.633 171.343 243.327C171.471 243.207 171.632 243.127 171.815 243.09C172.067 243.039 172.311 243.083 172.397 243.224C172.16 242.751 171.973 242.251 171.786 241.751L171.668 241.438L171.664 241.439Z" fill="white"/>
<path d="M171.58 241.432C170.947 241.561 168.083 241.085 166.392 241.429C165.746 241.56 165.27 241.814 165.156 242.262C165.024 242.792 165.696 244.074 168.267 244.592C168.998 244.743 169.835 244.811 170.594 244.657C170.783 244.618 170.966 244.565 171.142 244.496C170.957 244.151 171.041 243.676 171.334 243.404C171.459 243.291 171.602 243.225 171.755 243.194C171.969 243.151 172.196 243.179 172.401 243.242C172.1 242.658 171.887 242.027 171.647 241.41C171.627 241.414 171.609 241.427 171.584 241.431L171.58 241.432ZM171.722 243.038C171.529 243.078 171.36 243.162 171.22 243.29C170.92 243.567 170.807 244.019 170.924 244.403C170.809 244.438 170.689 244.471 170.56 244.497C169.741 244.663 168.875 244.556 168.3 244.436C166.373 244.045 165.689 243.243 165.483 242.919C165.335 242.687 165.275 242.454 165.313 242.296C165.397 241.959 165.772 241.721 166.422 241.589C167.447 241.381 168.961 241.485 170.067 241.556C170.723 241.598 171.258 241.635 171.541 241.603L171.635 241.841C171.783 242.232 171.928 242.635 172.109 243.022C171.989 243.009 171.86 243.011 171.726 243.038L171.722 243.038Z" fill="#120E1E"/>
<path d="M148.262 141.13C148.206 141.13 148.155 141.122 148.107 141.122C147.926 141.122 147.779 141.152 147.615 141.186C147.322 141.25 146.994 141.319 146.667 141.319C145.938 141.319 145.498 140.968 145.317 140.246C144.924 138.668 144.295 137.711 144.126 137.711C143.824 138.365 144.351 141.079 144.924 142.191C145.097 142.528 145.282 142.845 145.455 143.131C145.847 143.785 146.128 144.255 146.02 144.559L145.476 144.828C145.036 144.828 144.424 144.61 143.928 144.435C143.6 144.319 143.29 144.208 143.156 144.208C143.001 144.341 142.966 144.482 143.031 144.64C143.354 145.409 145.735 146.226 146.83 146.226C148.616 146.226 152.247 156.578 152.64 157.711L157 155.937C156.728 155.693 151.255 146.999 150.686 144.516C150.505 143.734 149.953 142.255 148.258 141.126L148.262 141.13Z" fill="white"/>
<path d="M148.356 141.111C148.318 141.085 148.258 141.072 148.185 141.072C147.869 141.072 147.283 141.284 146.727 141.284C146.172 141.284 145.671 141.085 145.47 140.285C145.098 138.791 144.47 137.711 144.205 137.711C144.196 137.711 144.188 137.711 144.179 137.711C143.701 137.859 144.282 141.03 144.919 142.266C145.556 143.498 146.419 144.493 145.817 144.718C145.74 144.747 145.646 144.76 145.543 144.76C144.829 144.76 143.598 144.142 143.243 144.142C143.205 144.142 143.175 144.15 143.158 144.163C142.251 145.065 145.488 146.305 146.885 146.305C148.677 146.305 152.597 157.711 152.597 157.711L157 155.924C157 155.924 151.361 146.991 150.788 144.514C150.566 143.558 149.942 142.173 148.347 141.106L148.356 141.111ZM152.708 157.495C152.097 155.73 148.685 146.144 146.894 146.144C145.735 146.144 143.487 145.293 143.205 144.62C143.158 144.506 143.175 144.409 143.26 144.311C143.397 144.32 143.696 144.426 143.983 144.531C144.479 144.709 145.098 144.929 145.547 144.929C145.676 144.929 145.787 144.912 145.881 144.879C146.06 144.811 146.133 144.692 146.163 144.608C146.283 144.273 145.996 143.791 145.594 143.122C145.428 142.842 145.235 142.525 145.069 142.194C144.419 140.941 144.017 138.287 144.222 137.897C144.423 138.05 144.953 138.93 145.304 140.327C145.492 141.073 145.971 141.454 146.723 141.454C147.056 141.454 147.39 141.382 147.681 141.322C147.877 141.28 148.061 141.242 148.181 141.242C148.241 141.242 148.258 141.255 148.258 141.255C149.912 142.355 150.455 143.799 150.63 144.557C151.16 146.873 155.953 154.574 156.756 155.852L152.704 157.495H152.708Z" fill="#120E1E"/>
<path d="M165.721 155.909C161.041 155.268 158.042 154.126 156.702 153.738C155.358 153.35 150.658 157.225 152.371 158.86C156.727 163 162.074 164.068 165.957 164.517C170.562 165.045 173.877 164.665 173.997 161.213C174.101 158.158 171.218 156.663 165.725 155.909H165.721Z" fill="#120E1E"/>
<path d="M172.93 183.295C171.909 182.531 168.755 182.084 165.589 184.798C159.952 189.634 165.259 212.237 165.369 216.471C165.683 223.637 166.971 241.651 166.971 241.651C166.971 241.651 169.217 243.709 173.494 242.089C173.494 242.089 174.647 226.769 175.032 222.58C175.346 219.123 174.926 216.083 174.575 214.68C175.232 210.842 176.728 198.691 176.927 196.457C177.139 193.981 177.169 186.448 172.934 183.299L172.93 183.295Z" fill="#120E1E"/>
<path d="M167.868 184.955C167.5 184.794 167.029 184.711 166.469 184.711C160.537 184.711 146.3 193.871 143.006 196.332C141.542 197.429 141.832 199.551 142.88 201.082C145.584 207.201 152.567 221.548 152.886 222.206H152.894C152.984 222.206 153.893 222.711 155.116 222.711C156.298 222.711 157.423 222.248 158.462 221.342C157.894 219.472 154.302 207.614 153.214 203.941C153.054 203.399 152.882 202.865 152.706 202.335C152.669 202.232 152.678 202.112 152.731 202.008C152.784 201.909 152.874 201.835 152.984 201.806L155.329 201.198C159.047 200.234 162.893 199.241 164.047 198.769L164.448 198.608C166.694 197.706 170.089 196.349 170.903 191.757C170.94 191.554 171.762 186.684 167.864 184.951L167.868 184.955Z" fill="white"/>
<path d="M168.598 184.989C168.162 184.798 167.635 184.711 167.026 184.711C160.604 184.711 145.578 194.675 143.177 196.467C141.56 197.676 141.728 200.008 142.959 201.804C145.73 208.077 153.012 223 153.012 223C153.012 223 154.074 223.711 155.606 223.711C156.713 223.711 158.068 223.337 159.439 222.056C159.439 222.056 155.268 208.335 154.083 204.323C153.922 203.774 153.745 203.234 153.564 202.698C157.903 201.567 163.308 200.216 164.749 199.63C167.022 198.703 170.982 197.402 171.896 192.281C172.118 191.042 172.332 186.648 168.598 184.994V184.989ZM171.097 192.127C170.315 196.512 167.153 197.776 164.848 198.699L164.444 198.861C163.304 199.322 159.27 200.366 155.705 201.289L153.358 201.896C153.14 201.954 152.955 202.099 152.848 202.303C152.741 202.502 152.72 202.739 152.794 202.956C152.971 203.479 153.144 204.011 153.305 204.552C154.354 208.102 157.738 219.255 158.508 221.778C157.594 222.514 156.623 222.884 155.61 222.884C154.684 222.884 153.955 222.568 153.634 222.406C152.712 220.506 146.253 207.229 143.704 201.463C142.688 199.954 142.395 198.067 143.667 197.123C146.957 194.667 161.163 185.526 167.034 185.526C167.54 185.526 167.96 185.596 168.277 185.738C171.912 187.346 171.134 191.931 171.101 192.127H171.097Z" fill="#120E1E"/>
<path d="M175.316 171.327C176.215 165.155 175.932 156.711 169.426 156.711C166.209 156.711 155.641 159.426 155.641 166.395C155.641 172.509 156.668 186.124 155 193.445C155 193.445 172.223 197.267 177 191.63C177 191.63 174.42 177.496 175.32 171.327H175.316Z" fill="#EF9CB0"/>
<path d="M165.356 146.321C165.102 145.878 164.771 145.381 164.28 145.079C163.884 144.835 163.368 144.711 162.718 144.711C162.494 144.711 162.275 144.723 162.055 144.744C161.298 144.819 160.338 144.976 159.645 145.568C159.348 145.824 158.986 145.841 158.668 145.857C158.255 145.878 158.035 145.907 158.005 146.267C157.971 146.611 158.113 146.867 158.255 147.116C158.423 147.418 158.599 147.732 158.423 148.171C158.225 148.664 157.966 149.773 158.384 150.447L158.84 151.18C159.933 152.955 160.803 154.358 161.943 154.358C162.081 154.358 162.219 154.338 162.361 154.296C162.765 155.555 162.029 156.854 161.672 157.483C161.625 157.566 161.577 157.649 161.547 157.711C162.8 157.504 165.963 156.44 167 155.915C166.759 154.777 166.742 153.655 166.72 152.575C166.682 150.501 166.643 148.543 165.347 146.321H165.356Z" fill="white"/>
<path d="M164.319 145.082C163.852 144.797 163.292 144.711 162.732 144.711C162.511 144.711 162.29 144.723 162.074 144.744C161.204 144.825 160.301 145.013 159.651 145.572C159.036 146.099 158.077 145.523 158.005 146.319C157.929 147.107 158.722 147.437 158.425 148.176C158.217 148.691 157.963 149.801 158.396 150.486C159.711 152.584 160.644 154.384 161.972 154.384C162.112 154.384 162.257 154.364 162.409 154.323C162.8 155.903 161.306 157.711 161.484 157.711C162.66 157.552 165.944 156.446 167 155.915C166.436 152.368 167.356 149.686 165.405 146.34C165.125 145.858 164.798 145.388 164.319 145.086V145.082ZM166.818 155.817C165.753 156.323 163.012 157.246 161.739 157.499C161.752 157.474 161.769 157.446 161.781 157.421C162.133 156.797 162.872 155.491 162.57 154.282C162.558 154.242 162.532 154.205 162.49 154.18C162.464 154.168 162.435 154.16 162.405 154.16C162.392 154.16 162.375 154.16 162.358 154.168C162.227 154.205 162.095 154.221 161.968 154.221C160.89 154.221 160.05 152.858 158.985 151.127C158.841 150.891 158.693 150.65 158.536 150.401C158.137 149.764 158.387 148.703 158.578 148.229C158.765 147.76 158.578 147.421 158.408 147.119C158.273 146.874 158.141 146.646 158.171 146.331C158.196 146.042 158.34 146.021 158.748 145.997C159.057 145.98 159.444 145.96 159.762 145.691C160.424 145.123 161.353 144.968 162.091 144.899C162.329 144.878 162.541 144.866 162.732 144.866C163.36 144.866 163.848 144.98 164.229 145.213C164.696 145.503 165.014 145.98 165.26 146.405C166.529 148.584 166.567 150.503 166.605 152.535C166.622 153.572 166.644 154.642 166.818 155.809V155.817Z" fill="#120E1E"/>
<path d="M166.001 142.497C166.465 140.121 162.092 140.194 162.158 142.253C159.94 141.012 156.603 143.62 158.626 147.416C158.626 147.416 159.028 146.207 159.899 146.606C159.899 148.583 161.263 147.473 161.735 149.731C162.025 151.118 162.469 152.575 163.733 153.4C164.815 154.108 167.572 153.384 167.572 153.384C167.572 153.384 168.003 152.314 168.124 152.037C168.683 150.78 170.781 148.685 169.691 146.586C170.81 143.908 168.024 142.204 165.993 142.501L166.001 142.497Z" fill="#120E1E"/>
<path d="M167.298 154.716C166.081 154.776 165 154.983 162.392 156.259C161.746 156.573 160.98 157.63 161 158.711L169 156.259L168.267 155.181C168.056 154.871 167.687 154.693 167.298 154.712V154.716Z" fill="#120E1E"/>
<path d="M136.486 158.104C136.311 157.776 135.933 156.417 136.228 155.819C136.702 154.87 136.977 153.669 136.794 153.354C136.786 153.354 136.773 153.354 136.761 153.354C136.54 153.354 136.266 153.817 136.058 154.167C135.821 154.569 135.575 154.98 135.351 155.233C135.334 155.25 135.051 155.43 135.026 155.43C134.847 155.43 134.718 155.242 134.49 154.897C134.344 154.674 134.153 154.39 133.878 154.053C132.922 152.86 130.301 151.825 130.002 151.711C129.956 151.842 130.788 153.009 131.982 153.647C132.547 153.948 132.63 154.053 132.61 154.162C132.352 154.241 132.198 154.259 132.073 154.259C132.011 154.259 131.952 154.25 131.894 154.25C131.695 154.228 131.47 154.215 131.279 154.215C130.963 154.215 130.867 154.267 130.838 154.298C130.622 154.538 130.376 155.653 130.214 156.382C130.127 156.767 130.056 157.09 130.006 157.239C129.919 157.492 131.062 158.204 131.74 158.633C132.111 158.864 132.452 159.078 132.685 159.253C134.635 160.717 141.065 169.697 141.793 170.711L145 167.342C144.875 167.342 137.921 160.77 136.49 158.117L136.486 158.104Z" fill="white"/>
<path d="M136.588 158.089C136.399 157.743 136.07 156.448 136.333 155.917C136.893 154.798 137.197 153.291 136.724 153.291C136.716 153.291 136.704 153.291 136.691 153.291C136.436 153.322 135.811 154.699 135.333 155.23C135.23 155.343 135.148 155.399 135.074 155.399C134.839 155.399 134.662 154.885 134 154.069C133.132 152.989 130.909 152.03 130.132 151.728C130.103 151.715 130.078 151.711 130.057 151.711C129.749 151.711 130.724 153.101 132.02 153.797C132.72 154.172 132.699 154.259 132.415 154.259C132.169 154.259 131.72 154.194 131.362 154.194C131.136 154.194 130.946 154.22 130.868 154.306C130.535 154.682 130.185 156.789 130.033 157.238C129.876 157.683 131.934 158.75 132.708 159.328C134.72 160.84 141.757 170.711 141.757 170.711L145 167.308C145 167.308 138.02 160.74 136.588 158.089ZM144.765 167.313L141.778 170.448C140.835 169.13 134.704 160.611 132.806 159.186C132.572 159.013 132.234 158.797 131.872 158.573C131.288 158.205 130.197 157.523 130.189 157.286C130.243 157.139 130.308 156.828 130.395 156.439C130.543 155.766 130.794 154.639 130.992 154.418C130.992 154.418 131.049 154.362 131.366 154.362C131.555 154.362 131.774 154.38 131.971 154.397C132.144 154.41 132.304 154.427 132.42 154.427C132.518 154.427 132.724 154.427 132.765 154.25C132.806 154.073 132.671 153.948 132.103 153.645C131.21 153.166 130.49 152.35 130.251 151.957C130.942 152.233 133.057 153.149 133.881 154.177C134.148 154.509 134.333 154.785 134.481 155.006C134.716 155.355 134.856 155.567 135.078 155.567C135.234 155.567 135.362 155.45 135.453 155.347C135.683 155.092 135.93 154.682 136.165 154.28C136.358 153.952 136.625 153.507 136.728 153.455C136.901 153.736 136.687 154.846 136.193 155.835C135.881 156.461 136.263 157.83 136.448 158.171C137.786 160.645 143.782 166.38 144.765 167.313Z" fill="#120E1E"/>
<path d="M158.129 162.711C156.719 162.711 154.888 163.057 152.544 163.765C148.807 164.899 145.983 165.281 144.298 165.51L143.388 165.639C142.708 165.747 141.123 168.104 141.007 169.769C140.94 170.734 141.403 170.87 141.553 170.919C143.313 171.446 145.178 171.711 147.101 171.711C150.642 171.711 153.854 170.802 155.964 170.122C159.414 169 161.216 167.943 161.8 166.696C162.087 166.073 162.067 165.393 161.729 164.609C161.161 163.314 160.023 162.711 158.133 162.711H158.129Z" fill="white"/>
<path d="M158.685 162.711C157.159 162.711 155.237 163.097 152.929 163.807C148.37 165.208 145.145 165.479 143.753 165.705C142.361 165.931 139.607 171.204 141.848 171.881C143.812 172.477 145.734 172.711 147.567 172.711C151.04 172.711 154.182 171.869 156.633 171.064C161.082 169.598 163.98 167.898 162.693 164.9C162.041 163.389 160.708 162.711 158.685 162.711ZM162.003 167.019C161.309 168.522 158.454 169.61 156.368 170.296C154.27 170.986 151.074 171.902 147.563 171.902C145.666 171.902 143.824 171.635 142.092 171.109C142.008 171.085 141.835 171.031 141.827 170.534C141.81 169.052 143.324 166.69 143.904 166.501C144.131 166.465 144.434 166.423 144.796 166.374C146.507 166.14 149.371 165.746 153.177 164.58C155.502 163.869 157.302 163.52 158.685 163.52C160.914 163.52 161.591 164.423 161.928 165.216C162.222 165.902 162.247 166.493 161.999 167.019H162.003Z" fill="#120E1E"/>
<defs>
<filter id="filter0_f_927_30709" x="72.2542" y="219.4" width="153.41" height="85.6992" filterUnits="userSpaceOnUse" color-interpolation-filters="sRGB">
<feFlood flood-opacity="0" result="BackgroundImageFix"/>
<feBlend mode="normal" in="SourceGraphic" in2="BackgroundImageFix" result="shape"/>
<feGaussianBlur stdDeviation="1.05066" result="effect1_foregroundBlur_927_30709"/>
</filter>
<linearGradient id="paint0_linear_927_30709" x1="124.114" y1="121.356" x2="188.841" y2="273.258" gradientUnits="userSpaceOnUse">
<stop stop-color="#E20338"/>
<stop offset="1" stop-color="#E20338" stop-opacity="0"/>
</linearGradient>
<linearGradient id="paint1_linear_927_30709" x1="114.554" y1="162.904" x2="114.749" y2="299.283" gradientUnits="userSpaceOnUse">
<stop stop-color="#E20338"/>
<stop offset="1" stop-color="#E20338" stop-opacity="0"/>
</linearGradient>
<linearGradient id="paint2_linear_927_30709" x1="79.5896" y1="300.327" x2="166.047" y2="146.994" gradientUnits="userSpaceOnUse">
<stop stop-color="#E3E2E8"/>
<stop offset="1" stop-color="#D9D9D9" stop-opacity="0.62"/>
</linearGradient>
</defs>
</svg>
