<svg width="186" height="333" viewBox="0 0 186 333" fill="none" xmlns="http://www.w3.org/2000/svg">
<path style="mix-blend-mode:multiply" d="M186 296.205L169.045 302.711L130 279.535L143.331 273.711L186 296.205Z" fill="url(#paint0_linear_927_32521)"/>
<path d="M139.477 79.0933L76.9352 38.0216C75.6331 37.1675 74.1456 36.7109 72.6451 36.7109C68.3636 36.7109 64.7159 40.1471 64.1553 44.7368C64.1036 45.0264 64.0605 45.3209 64.0432 45.6007L64.0001 229.425C63.9829 234.27 66.0913 238.756 69.6226 241.407L131.914 282.263L132.229 282.415C133.535 283.274 134.954 283.711 136.437 283.711C140.843 283.711 144.517 279.892 144.806 274.973C144.849 274.679 144.879 274.374 144.883 274.055L145 90.8842C145.021 86.1227 142.947 81.7097 139.485 79.0982L139.477 79.0933Z" fill="white"/>
<path d="M139.267 78.1636L76.8884 37.2575C76.8236 37.2182 76.7631 37.1887 76.6983 37.1495L76.6033 37.0856C75.1648 36.143 73.6139 35.7109 72.089 35.7109C67.8167 35.7109 63.7777 39.1034 63.1686 44.121C63.1124 44.4303 63.0649 44.7543 63.0433 45.0832L63.0001 228.93C62.9828 233.923 65.1816 238.592 68.8448 241.337L131.284 282.218C131.362 282.258 131.439 282.287 131.517 282.321L131.565 282.351C132.99 283.284 134.511 283.711 135.997 283.711C140.399 283.711 144.485 279.975 144.801 274.564C144.848 274.245 144.883 273.916 144.883 273.568L144.999 90.3736C145.021 85.4641 142.861 80.8737 139.258 78.1636H139.267ZM144.036 273.568C144.036 273.862 144.006 274.142 143.958 274.505C143.69 279.125 140.196 282.749 136.005 282.749C134.593 282.749 133.245 282.336 131.94 281.482C131.906 281.457 131.755 281.403 131.72 281.389L69.3243 240.536C65.8857 237.959 63.8425 233.629 63.8597 228.94L63.9029 45.152C63.9202 44.8672 63.9591 44.5923 64.0196 44.2584C64.5466 39.943 68.0198 36.6879 72.0977 36.683C73.5319 36.683 74.9444 37.1151 76.262 37.9791C76.275 37.989 76.4521 38.0871 76.465 38.097L138.8 78.9688C142.174 81.507 144.179 85.7685 144.157 90.3736L144.04 273.568H144.036Z" fill="#120E1E"/>
<path d="M143.295 97.7109C143.072 97.7109 142.817 97.7859 142.552 97.9208C141.7 98.3754 141.005 99.3796 141 100.159L141.011 102.962C141.011 103.431 141.271 103.711 141.705 103.711C141.928 103.711 142.183 103.636 142.448 103.501C143.3 103.046 143.995 102.047 144 101.268L143.989 98.4603C143.989 97.9907 143.729 97.7109 143.295 97.7109Z" fill="white"/>
<path d="M143.24 97.7158C143.022 97.7158 142.769 97.7882 142.495 97.9331C141.669 98.3873 141 99.3921 141 100.18L141.01 102.89C141.01 103.416 141.309 103.711 141.755 103.711C141.973 103.711 142.226 103.638 142.5 103.489C143.326 103.035 143.995 102.035 144 101.247L143.99 98.5322C143.99 98.0056 143.691 97.7109 143.245 97.7109L143.24 97.7158ZM142.399 103.329C142.171 103.45 141.948 103.518 141.755 103.518C141.279 103.518 141.208 103.122 141.208 102.89L141.198 100.18C141.198 99.4694 141.841 98.5177 142.596 98.0974C142.824 97.9718 143.047 97.9042 143.24 97.9042C143.716 97.9042 143.787 98.3051 143.787 98.537L143.797 101.252C143.797 101.977 143.169 102.904 142.399 103.329Z" fill="#120E1E"/>
<path d="M141 100.367V103.463L141.041 103.711C141.185 103.672 141.329 103.612 141.473 103.518C142.28 103.017 142.938 101.915 142.938 101.055L143 97.7109C142.82 97.744 142.64 97.7881 142.465 97.8982C141.658 98.3996 141 99.5016 141 100.361V100.367Z" fill="white"/>
<path d="M142.947 97.7162C142.784 97.748 142.601 97.7904 142.413 97.907C141.63 98.4053 141 99.5025 141 100.366V103.345C141 103.483 141.029 103.605 141.058 103.711C141.221 103.679 141.399 103.61 141.582 103.488C142.365 102.99 143 101.893 143 101.029L142.99 98.0502C142.99 97.9124 142.976 97.8222 142.947 97.7109V97.7162ZM141.486 103.313C141.389 103.377 141.293 103.425 141.197 103.456C141.197 103.425 141.187 103.388 141.187 103.345V100.366C141.187 99.5714 141.779 98.5537 142.505 98.0872C142.601 98.0289 142.697 97.9865 142.798 97.9653C142.798 97.9918 142.798 98.0237 142.798 98.0555L142.808 101.034C142.808 101.829 142.212 102.847 141.486 103.313Z" fill="#120E1E"/>
<path d="M144.09 100.711C143.848 100.711 143.582 100.781 143.322 100.913C142.477 101.334 141.893 102.272 142.017 102.994C142.093 103.444 142.43 103.711 142.909 103.711C143.145 103.711 143.417 103.641 143.677 103.514C144.521 103.097 145.112 102.159 144.982 101.428C144.905 100.978 144.569 100.711 144.09 100.711Z" fill="white"/>
<path d="M144.051 100.711C143.815 100.711 143.552 100.777 143.278 100.91C142.456 101.325 141.892 102.24 142.018 102.96C142.1 103.441 142.472 103.711 142.955 103.711C143.19 103.711 143.453 103.645 143.722 103.512C144.544 103.097 145.108 102.182 144.982 101.462C144.9 100.98 144.528 100.711 144.045 100.711H144.051ZM143.612 103.366C143.388 103.477 143.163 103.534 142.96 103.534C142.566 103.534 142.303 103.318 142.237 102.933C142.127 102.279 142.648 101.436 143.399 101.056C143.623 100.945 143.853 100.883 144.056 100.883C144.445 100.883 144.714 101.109 144.78 101.484C144.889 102.138 144.369 102.982 143.618 103.362L143.612 103.366Z" fill="#120E1E"/>
<path d="M141.725 100.881C141.262 101.273 140.939 102.143 141.01 102.818C141.042 103.123 141.104 103.28 141.23 103.367L141.829 103.711C141.783 103.598 141.751 103.467 141.735 103.319C141.66 102.579 142.007 101.638 142.508 101.216C142.602 101.138 142.696 101.081 142.812 101.081C142.867 101.081 142.932 101.094 143 101.125L142.262 100.711C142.181 100.711 141.906 100.724 141.722 100.881H141.725Z" fill="#120E1E"/>
<path d="M142.795 100.711C142.686 100.711 142.289 100.727 142.018 100.926C141.363 101.42 140.914 102.511 141.014 103.367C141.058 103.75 141.154 103.976 141.363 104.113L142.533 104.711C142.341 104.564 142.201 104.312 142.162 103.945C142.066 103.089 142.511 101.997 143.166 101.509C143.384 101.341 143.598 101.267 143.786 101.267C143.86 101.267 143.935 101.278 144 101.304L142.821 100.711H142.791H142.795ZM143.079 101.33C142.363 101.866 141.887 103.026 141.996 103.971C142.005 104.065 142.022 104.149 142.044 104.228L141.451 103.924C141.324 103.84 141.232 103.714 141.189 103.336C141.097 102.559 141.512 101.556 142.11 101.105C142.293 100.968 142.581 100.921 142.791 100.921L143.319 101.189C143.236 101.231 143.157 101.278 143.079 101.336V101.33Z" fill="white"/>
<path d="M142.145 126.925C141.519 127.334 141.008 128.249 141.008 128.959L141 136.623C141 136.955 141.112 137.169 141.451 137.338L142.141 137.711C142.093 137.593 142.073 137.447 142.073 137.288L142.081 129.624C142.081 128.855 142.624 127.871 143.298 127.43C143.418 127.353 143.537 127.293 143.685 127.293C143.777 127.293 143.88 127.316 144 127.366L142.672 126.711C142.536 126.711 142.372 126.779 142.149 126.925H142.145Z" fill="#120E1E"/>
<path d="M142.855 126.778H142.847L142.792 126.749C142.736 126.721 142.677 126.711 142.618 126.711C142.47 126.711 142.304 126.793 142.097 126.946C141.495 127.393 141.007 128.392 141.007 129.175L141 137.265C141 137.688 141.144 137.928 141.362 138.048L141.454 138.106L142.433 138.711C142.249 138.596 142.134 138.341 142.134 137.966L142.142 129.877C142.142 129.094 142.629 128.094 143.232 127.643C143.431 127.494 143.616 127.427 143.778 127.427C143.86 127.427 143.933 127.446 144 127.48L142.881 126.797C142.881 126.797 142.858 126.783 142.851 126.778H142.855ZM143.161 127.48C142.507 127.97 142.001 129.022 142.001 129.877L141.994 137.966C141.994 138.062 142.001 138.149 142.012 138.24L141.521 137.938L141.417 137.875C141.229 137.774 141.144 137.582 141.144 137.27L141.151 129.18C141.151 128.474 141.617 127.523 142.171 127.115C142.363 126.97 142.507 126.903 142.618 126.903C142.663 126.903 142.699 126.913 142.744 126.932L142.825 126.97L143.413 127.331C143.331 127.369 143.246 127.417 143.165 127.484L143.161 127.48Z" fill="white"/>
<path d="M144.295 127.711C144.072 127.711 143.817 127.788 143.557 127.928C142.705 128.398 142.011 129.436 142.011 130.241L142 138.936C142 139.422 142.26 139.711 142.694 139.711C142.917 139.711 143.172 139.633 143.438 139.494C144.289 139.024 144.984 137.991 144.989 137.186L145 128.491C145 128 144.74 127.711 144.306 127.711H144.295Z" fill="white"/>
<path d="M144.245 127.711C144.027 127.711 143.774 127.782 143.505 127.939C142.679 128.416 142.01 129.467 142.01 130.3L142 138.848C142 139.401 142.299 139.711 142.75 139.711C142.968 139.711 143.221 139.635 143.495 139.477C144.321 139 144.99 137.95 144.99 137.122L145 128.574C145 128.021 144.701 127.711 144.25 127.711H144.245ZM144.787 137.122C144.787 137.884 144.159 138.858 143.388 139.305C143.16 139.432 142.938 139.503 142.745 139.503C142.269 139.503 142.198 139.087 142.198 138.843L142.208 130.295C142.208 129.533 142.831 128.554 143.601 128.107C143.829 127.98 144.052 127.909 144.245 127.909C144.595 127.909 144.797 128.153 144.797 128.574L144.787 137.122Z" fill="#120E1E"/>
<path d="M142.148 145.932C141.52 146.361 141.008 147.303 141.008 148.043L141 152.585C141 152.929 141.116 153.15 141.452 153.325L142.144 153.711C142.1 153.588 142.076 153.438 142.076 153.273L142.084 148.726C142.084 147.935 142.628 146.917 143.3 146.46C143.42 146.375 143.54 146.319 143.688 146.319C143.776 146.319 143.88 146.342 144 146.394L142.668 145.711C142.532 145.711 142.372 145.782 142.144 145.932H142.148Z" fill="#120E1E"/>
<path d="M142.852 145.778H142.845L142.79 145.751C142.734 145.724 142.675 145.711 142.616 145.711C142.469 145.711 142.306 145.787 142.096 145.931C141.494 146.354 141.007 147.285 141.007 148.022L141 152.357C141 152.753 141.144 152.978 141.365 153.09L141.458 153.144L142.435 153.711C142.251 153.603 142.137 153.369 142.137 153.014L142.144 148.674C142.144 147.941 142.631 147.011 143.232 146.588C143.432 146.448 143.613 146.385 143.775 146.385C143.856 146.385 143.934 146.403 144 146.439L142.882 145.801C142.882 145.801 142.863 145.787 142.852 145.778ZM143.162 146.435C142.509 146.894 142.004 147.878 142.004 148.674L141.996 153.014C141.996 153.104 142.004 153.189 142.015 153.27L141.524 152.987L141.421 152.928C141.236 152.83 141.148 152.65 141.148 152.362L141.155 148.027C141.155 147.352 141.609 146.484 142.17 146.089C142.365 145.954 142.506 145.891 142.616 145.891C142.661 145.891 142.697 145.9 142.742 145.918L142.79 145.94L142.823 145.963L143.41 146.3C143.328 146.336 143.247 146.385 143.162 146.444V146.435Z" fill="white"/>
<path d="M144.539 146.711C144.39 146.711 144.22 146.776 144.042 146.898C143.472 147.295 143.007 148.168 143.007 148.848L143 153.057C143 153.279 143.047 153.454 143.142 153.567C143.221 153.663 143.33 153.711 143.461 153.711C143.61 153.711 143.78 153.645 143.958 153.528C144.528 153.131 144.993 152.259 144.993 151.578L145 147.37C145 147.147 144.953 146.968 144.855 146.859C144.775 146.763 144.666 146.711 144.535 146.711H144.539Z" fill="#120E1E"/>
<path d="M144.503 146.715C144.357 146.715 144.184 146.779 144.005 146.907C143.453 147.307 143.007 148.188 143.007 148.881L143 152.988C143 153.451 143.2 153.711 143.497 153.711C143.643 153.711 143.812 153.647 143.995 153.515C144.547 153.115 144.993 152.234 144.993 151.541L145 147.434C145 146.97 144.8 146.711 144.503 146.711V146.715ZM144.861 151.545C144.861 152.183 144.442 153 143.931 153.375C143.778 153.485 143.629 153.541 143.501 153.541C143.396 153.541 143.311 153.502 143.25 153.426C143.176 153.332 143.135 153.179 143.135 152.988L143.142 148.881C143.142 148.243 143.562 147.426 144.073 147.051C144.225 146.941 144.374 146.881 144.503 146.881C144.607 146.881 144.692 146.919 144.753 147C144.827 147.094 144.868 147.247 144.868 147.439L144.861 151.545Z" fill="white"/>
<path d="M134.291 81.4292L71.2791 39.9301C66.7656 37.0364 63.2967 39.655 63.0431 43.998L63.0001 229.15C62.9829 234.146 65.1709 238.813 68.816 241.564L131.884 283.039C135.508 284.881 139.867 282.833 139.884 278.146L140 93.6475C140.021 88.7346 137.872 84.1411 134.291 81.4292Z" fill="#120E1E"/>
<path d="M131.989 84.3208L71.9046 44.5649C68.7302 42.5376 66.2934 44.3735 66.1122 47.412L66.0001 227.592C65.9871 231.087 67.5269 234.356 70.0888 236.285L130.216 276.022C132.619 277.828 135.827 275.874 135.84 272.595L136 92.8669C136.013 89.4259 134.503 86.2106 131.985 84.3109L131.989 84.3208Z" fill="#E20338"/>
<path d="M74 148.711V190.672L128 226.711L127.974 184.656L74 148.711Z" fill="#120E1E"/>
<path d="M86.577 171.435C83.8095 169.587 81 170.818 81 173.879V178.896C81 180.883 82.2233 183.053 84.0193 184.254L113.294 203.822C116.064 205.674 118.877 204.44 118.873 201.374L118.867 196.332C118.865 194.346 117.641 192.177 115.845 190.978L86.577 171.435Z" fill="white"/>
<path d="M86.3766 181.169L86.5732 175.215L87.1945 175.642L87.1115 178.156L87.9573 178.736L88.696 177.694C88.8457 177.487 88.9781 177.343 89.0931 177.261C89.2132 177.177 89.3316 177.146 89.4482 177.171C89.565 177.189 89.6957 177.248 89.8404 177.347C89.9452 177.419 90.0344 177.499 90.1081 177.587L89.9802 178.214C89.9457 178.177 89.9134 178.149 89.8835 178.129C89.8538 178.102 89.8264 178.08 89.8015 178.063C89.7316 178.015 89.6661 177.989 89.605 177.984C89.5442 177.973 89.477 177.998 89.4035 178.059C89.3351 178.123 89.2473 178.23 89.1403 178.379L88.4423 179.348L90.0294 183.677L89.3482 183.209L87.9294 179.348L87.0911 178.773L86.9978 181.595L86.3766 181.169ZM90.906 186.218C90.8262 186.163 90.7491 186.101 90.6749 186.032C90.6056 185.965 90.5414 185.9 90.4823 185.834L90.6216 185.327C90.6611 185.366 90.7056 185.409 90.7551 185.456C90.8044 185.508 90.8515 185.55 90.8964 185.58C91.101 185.721 91.2737 185.747 91.4144 185.658C91.555 185.575 91.6672 185.423 91.751 185.202L91.8441 184.932L90.5305 179.51L91.1667 179.947L91.8272 182.897C91.8759 183.122 91.9265 183.364 91.9792 183.623C92.0369 183.886 92.0898 184.138 92.1379 184.382L92.1678 184.402C92.2293 184.24 92.2886 184.068 92.3457 183.884C92.4028 183.701 92.4595 183.529 92.5158 183.37L93.2477 181.376L93.8465 181.787L92.319 185.62C92.2246 185.852 92.1137 186.042 91.9863 186.19C91.864 186.341 91.7132 186.423 91.5342 186.436C91.3599 186.459 91.1505 186.386 90.906 186.218ZM94.7772 186.936L94.9229 182.526L97.8347 184.525L97.689 188.936L97.0752 188.514L97.2008 184.712L95.5166 183.555L95.391 187.358L94.7772 186.936ZM99.2889 190.034L99.4346 185.624L100.033 186.035L99.9728 187.868C99.965 188.104 99.949 188.359 99.9246 188.633C99.9054 188.904 99.8837 189.177 99.8593 189.451L99.8892 189.472C99.9637 189.381 100.049 189.278 100.144 189.164C100.245 189.048 100.33 188.945 100.399 188.857L101.86 187.289L102.436 187.684L102.291 192.095L101.692 191.684L101.752 189.851C101.76 189.615 101.774 189.358 101.793 189.08C101.817 188.806 101.842 188.532 101.866 188.258L101.836 188.238C101.767 188.326 101.682 188.429 101.581 188.545C101.48 188.661 101.395 188.764 101.326 188.853L99.8578 190.425L99.2889 190.034ZM104.697 193.747L104.822 189.944L103.602 189.107L103.622 188.499L106.676 190.596L106.656 191.204L105.436 190.366L105.31 194.168L104.697 193.747ZM107.713 195.818L107.859 191.407L108.472 191.829L108.419 193.453L109.107 193.926C109.536 194.221 109.88 194.568 110.137 194.967C110.399 195.37 110.522 195.813 110.506 196.297C110.49 196.787 110.344 197.052 110.067 197.091C109.795 197.133 109.444 197.007 109.015 196.712L107.713 195.818ZM108.346 195.64L108.968 196.067C109.572 196.481 109.882 196.419 109.9 195.881C109.909 195.603 109.841 195.349 109.696 195.119C109.555 194.892 109.33 194.673 109.021 194.461L108.399 194.034L108.346 195.64Z" fill="black"/>
<path d="M103.062 80.7042C92.5717 73.744 84.0341 79.3347 84.0001 93.1963C83.9703 104.5 89.6067 117.814 97.3743 126.119L91.8613 137.711L108.251 133.436C116.168 135.647 121.97 129.851 122 118.425C122.034 104.558 113.552 87.6692 103.062 80.7042Z" fill="#120E1E"/>
<path d="M100.066 82.7073C89.5716 75.7421 81.0341 81.3329 81.0001 95.1998C80.9746 106.504 86.6067 119.818 94.3742 128.123L88.8612 139.711L105.251 135.441C113.164 137.652 118.97 131.851 119 120.424C119.034 106.562 110.552 89.6726 100.062 82.7024L100.066 82.7073Z" fill="white"/>
<path d="M89 85.6184L92.0044 87.7109L95 85.8395L92.0434 83.7109L89 85.6184Z" fill="#EF9CB0"/>
<path d="M89 85.6914L92 87.7109L95 85.7354L92 83.7109L89 85.6914ZM92 87.4909L89.3333 85.6963L91.9957 83.9359L94.6624 85.7354L92 87.4909Z" fill="#120E1E"/>
<path d="M92 116.711L94.8743 114.966L95 86.7109L92 88.5364V116.711Z" fill="#EF9CB0"/>
<path d="M92 117.711L95 115.758V86.7109L92 88.6642V117.711ZM92.1666 88.7754L94.8291 87.0446V115.647L92.1666 117.382V88.7754Z" fill="#120E1E"/>
<path d="M89 115.789L91.9604 117.711L92 88.798L89.044 86.7109L89 115.789Z" fill="#EF9CB0"/>
<path d="M89 115.717L92 117.711V88.7049L89 86.7109V115.717ZM89.1667 87.0489L91.829 88.8159V117.378L89.1667 115.611V87.0489Z" fill="#120E1E"/>
<path d="M102 103.608L105.002 105.711L108 103.834L105.041 101.711L102 103.608Z" fill="white"/>
<path d="M102 103.684L105 105.711L108 103.733L105 101.711L102 103.684ZM105 105.486L102.333 103.684L104.996 101.931L107.662 103.733L105 105.486Z" fill="#120E1E"/>
<path d="M105 125.711L107.87 123.982L108 104.711L105 106.524V125.711Z" fill="white"/>
<path d="M105 126.711L108 124.755V104.711L105 106.672V126.711ZM105.167 106.783L107.833 105.041V124.643L105.167 126.381V106.783Z" fill="#120E1E"/>
<path d="M102 124.784L104.956 126.711L105 106.814L102.044 104.711L102 124.784Z" fill="white"/>
<path d="M102 124.711L105 126.711V106.716L102 104.711V124.711ZM102.167 105.045L104.829 106.822V126.377L102.167 124.604V105.05V105.045Z" fill="#120E1E"/>
<path d="M95 94.6132L98.0043 96.7109L101 94.8395L98.0433 92.7109L95 94.6132Z" fill="#120E1E"/>
<path d="M95 94.6865L98 96.7109L101 94.7354L98 92.7109L95 94.6865ZM98.0043 96.486L95.3376 94.6865L98 92.931L100.667 94.7305L98.0043 96.486Z" fill="white"/>
<path d="M98 120.711L100.87 119.001L101 95.7109L98 97.4996V120.711Z" fill="#120E1E"/>
<path d="M98 121.711L101 119.787V95.7109L98 97.6348V121.711ZM98.1667 97.7443L100.829 96.0395V119.678L98.1667 121.382V97.7443Z" fill="white"/>
<path d="M95 119.821L97.9604 121.711L98 97.7728L95.044 95.7109L95 119.821Z" fill="#120E1E"/>
<path d="M95 119.748L98 121.711V97.6788L95 95.7109V119.748ZM95.1667 96.0437L97.8333 97.7881V121.383L95.1667 119.643V96.0437Z" fill="white"/>
<path d="M108 109.616L111.002 111.711L114 109.837L111.041 107.711L108 109.616Z" fill="white"/>
<path d="M108 109.689L111 111.711L114 109.733L111 107.711L108 109.689ZM111 111.491L108.333 109.689L111 107.936L113.662 109.738L111 111.491Z" fill="#120E1E"/>
<path d="M111 129.711L114 127.779V110.711L111 112.647V129.711Z" fill="#120E1E"/>
<path d="M108 127.801L110.96 129.711L111 112.785L108.044 110.711L108 127.801Z" fill="white"/>
<path d="M108 127.736L111 129.711V112.686L108 110.711V127.736ZM108.167 111.046L110.829 112.795V129.381L108.167 127.631V111.046Z" fill="#120E1E"/>
<path d="M93.9573 55.8347C93.433 55.5095 93 55.8468 93 56.5936C93 57.3344 93.416 58.2017 93.9459 58.527L94.0427 58.5872C94.567 58.9124 94.9943 58.5751 95 57.8283C95 57.0875 94.5784 56.2202 94.0541 55.901L93.9573 55.8347Z" fill="white"/>
<path d="M98.7145 58.8158C98.3232 58.5403 98.0043 58.826 98 59.4586C98 60.0861 98.3147 60.8208 98.706 61.0963L112.286 70.6061C112.677 70.8816 113 70.5959 113 69.9633C113 69.3357 112.685 68.6011 112.294 68.3256L98.7145 58.8158Z" fill="white"/>
<path d="M41 305.736L88.0661 332.711L144 304.665L93.2794 276.711L41 305.736Z" fill="url(#paint1_linear_927_32521)"/>
<path d="M92.7059 274.618L63.4989 257.711L44.7284 268.55C43.9711 268.986 42.8788 269.238 41.7315 269.238C40.5841 269.238 39.4918 268.986 38.73 268.55L37.8902 268.008L10.2574 283.97C9.49099 284.378 9.04583 284.961 9.00452 285.613C8.94945 286.343 9.3992 287.091 10.262 287.716L40.0563 304.917C40.9467 305.431 42.1308 305.711 43.3928 305.711C44.6549 305.711 45.8344 305.426 46.7201 304.917L92.6967 278.374C93.5365 277.887 94 277.221 94 276.501C94 275.78 93.5274 275.096 92.6967 274.623L92.7059 274.618Z" fill="white"/>
<path d="M92.6656 274.559L63.4281 257.711L44.6965 268.511C43.9592 268.932 42.8875 269.179 41.7517 269.179C40.6159 269.179 39.5442 268.932 38.8023 268.511L37.8726 267.971L10.302 283.872C8.60746 284.778 8.52503 286.471 10.302 287.765L40.0343 304.906C40.9686 305.441 42.1868 305.711 43.4096 305.711C44.6324 305.711 45.8461 305.441 46.7758 304.906L92.6565 278.456C94.5159 277.381 94.3785 275.542 92.6565 274.559H92.6656ZM92.5741 278.301L46.6934 304.75C45.8232 305.254 44.6553 305.533 43.4188 305.533C42.1822 305.533 41.0098 305.254 40.135 304.75L10.4165 287.619C9.57839 287.01 9.14792 286.288 9.19372 285.597C9.23494 284.979 9.66539 284.421 10.4027 284.028L37.8817 268.182L38.7199 268.667C39.4939 269.106 40.6022 269.362 41.7609 269.362C42.9196 269.362 44.0279 269.106 44.7927 268.667L63.4372 257.921L92.5832 274.719C93.3755 275.172 93.8335 275.83 93.8381 276.512C93.8381 277.198 93.3939 277.834 92.5832 278.301H92.5741Z" fill="#120E1E"/>
<path d="M52.6341 196.728C51.4767 197.624 51.9155 198.537 52.0747 198.794C52.1866 198.973 52.8148 199.846 54.011 199.065C54.1616 198.964 54.2864 198.84 54.381 198.693C54.381 198.693 54.3896 198.693 54.3896 198.684C53.9981 200.374 52.561 203.803 51.5541 206.214C49.7254 210.58 48 214.707 48 216.989V223.375C48 224.109 48.5593 224.711 49.2521 224.711C49.9448 224.711 50.5042 224.114 50.5042 223.375V216.989C50.5042 215.272 52.3544 210.855 53.8389 207.306C56.7218 200.433 57.6296 197.899 56.5755 196.467C55.7665 195.374 54.2563 195.47 52.6341 196.728Z" fill="#120E1E"/>
<path d="M100.601 234.757L64.6835 214.361C63.9543 213.946 62.8995 213.711 61.7805 213.711C60.6616 213.711 59.6022 213.946 58.873 214.361L3.48333 245.826C3.26321 245.957 3.08895 246.092 2.97888 246.101C3.0385 246.169 3.00636 246.219 2.70368 246.702C2.47897 247.058 1.88279 248.019 2.02037 248.218L9.6882 282.711L56.6901 255.948C57.6073 255.424 58.8226 255.14 60.1158 255.14C61.4091 255.14 62.6198 255.424 63.537 255.948L94.575 274.837L100.583 247.685L100.821 236.318L101 234.929C101 234.929 100.991 234.929 100.982 234.929C100.908 234.929 100.628 234.78 100.592 234.753L100.601 234.757ZM18.0897 275.013C17.5302 275.992 16.668 276.854 15.6591 277.436C14.8749 277.896 14.0632 278.135 13.3249 278.135C12.16 278.135 11.3024 277.522 11.0365 276.497L7.12918 261.642C6.87695 260.681 7.0604 259.53 7.66117 258.411C8.28028 257.274 9.22956 256.313 10.3348 255.704C11.1144 255.275 11.9124 255.05 12.6507 255.05C14.0265 255.05 15.063 255.844 15.3519 257.116L18.7042 272.152C18.8923 272.996 18.6721 274.011 18.0851 275.008L18.0897 275.013ZM28.2202 269.165C27.624 270.148 26.7619 271.001 25.7988 271.556C25.0467 271.994 24.2808 272.224 23.5883 272.224C22.4418 272.224 21.6255 271.592 21.41 270.527L18.2686 255.438C18.0668 254.458 18.3007 253.308 18.9289 252.189C19.5389 251.083 20.5065 250.104 21.5751 249.513C22.3042 249.111 23.0472 248.899 23.7305 248.899C25.0834 248.899 26.0648 249.72 26.2849 251.042L28.8852 266.286C29.0411 267.143 28.8026 268.167 28.2156 269.16L28.2202 269.165ZM38.0938 263.447C37.4793 264.44 36.6263 265.284 35.6954 265.825C34.98 266.236 34.2645 266.457 33.6225 266.457C32.4898 266.457 31.7148 265.798 31.5359 264.697L29.1328 249.4C28.9769 248.416 29.2566 247.229 29.8941 246.146C30.5178 245.023 31.4441 244.08 32.5173 243.493C33.2052 243.114 33.8977 242.916 34.5351 242.916C35.865 242.916 36.7914 243.764 36.9611 245.131L38.8551 260.568C38.956 261.448 38.69 262.473 38.0938 263.452V263.447ZM47.729 257.874C47.1329 258.845 46.289 259.684 45.3535 260.234C44.6839 260.622 44.0144 260.821 43.4136 260.821C42.2946 260.821 41.5471 260.14 41.4279 258.993L39.7219 243.511C39.6073 242.514 39.9053 241.35 40.5519 240.24C41.2077 239.112 42.1387 238.177 43.166 237.613C43.8126 237.257 44.4684 237.067 45.0646 237.067C46.3716 237.067 47.2521 237.938 47.3621 239.337L48.5728 254.968C48.6416 255.866 48.339 256.895 47.729 257.87V257.874ZM57.1533 252.423C56.5479 253.394 55.7133 254.224 54.8007 254.752C54.1632 255.126 53.5212 255.32 52.9571 255.32C51.8748 255.32 51.1593 254.603 51.086 253.448L50.0541 237.771C49.9899 236.747 50.3247 235.583 50.9897 234.486C51.6317 233.376 52.5718 232.429 53.567 231.892C54.1815 231.549 54.8006 231.368 55.3601 231.368C56.6167 231.368 57.4605 232.284 57.5109 233.706L58.0796 249.504C58.1117 250.406 57.7861 251.449 57.1624 252.423H57.1533ZM69.6822 254.034C69.673 254.901 69.2419 255.496 68.5036 255.668C68.3522 255.704 68.1872 255.722 68.0084 255.722C67.3709 255.722 66.6279 255.487 65.8666 255.031C63.8534 253.854 62.2253 251.543 62.152 249.779L61.5375 233.421C61.4962 232.262 61.9135 231.413 62.7115 231.034C63.0279 230.872 63.3902 230.782 63.7984 230.782C64.4083 230.782 65.0733 230.971 65.7795 231.337C68.1642 232.587 70.1363 235.583 70.0812 237.889L69.6868 254.034H69.6822ZM81.1656 260.699C81.0555 261.543 80.5098 262.093 79.6659 262.211C79.5329 262.233 79.3954 262.247 79.2532 262.247C78.5241 262.247 77.6756 261.976 76.8043 261.466C74.6672 260.207 73.0805 257.879 73.1768 256.164L74.0848 240.14C74.1444 239.017 74.7038 238.177 75.6165 237.844C75.9421 237.713 76.3044 237.654 76.6988 237.654C77.4142 237.654 78.2168 237.875 79.0239 238.29C81.638 239.676 83.5228 242.658 83.2201 244.946L81.1656 260.708V260.699ZM93.3688 267.784C93.1533 268.596 92.5114 269.092 91.2869 269.187C90.4156 269.187 89.3975 268.871 88.4252 268.298C86.1506 266.958 84.5958 264.602 84.8801 262.928L87.5401 247.324C87.7189 246.237 88.4343 245.447 89.5029 245.154C89.8193 245.064 90.1678 245.014 90.5347 245.014C91.4015 245.014 92.3508 245.276 93.2863 245.767C95.4188 246.891 97.0606 248.976 97.377 250.997L93.3734 267.784H93.3688Z" fill="white"/>
<path d="M23.6659 248.711C22.9636 248.711 22.1967 248.937 21.4529 249.351C20.3579 249.969 19.3692 250.978 18.7455 252.116C18.1033 253.277 17.8677 254.475 18.071 255.498L21.2357 270.905C21.4621 272.034 22.3122 272.711 23.518 272.711C24.2295 272.711 25.0196 272.471 25.7911 272.015C26.7752 271.439 27.6484 270.559 28.2628 269.541C28.8634 268.504 29.1083 267.445 28.9558 266.542L26.3362 250.982C26.1006 249.582 25.0796 248.716 23.6705 248.716L23.6659 248.711ZM28.1058 269.449C27.5421 270.393 26.7012 271.269 25.6987 271.859C24.9317 272.31 24.1787 272.527 23.518 272.527C22.4508 272.527 21.6331 271.955 21.4159 270.868L18.2512 255.461C18.0479 254.461 18.3066 253.286 18.9072 252.203C19.4986 251.121 20.4364 250.13 21.5406 249.508C22.2891 249.089 23.0145 248.895 23.6659 248.895C24.9456 248.895 25.9251 249.655 26.1515 251.01L28.771 266.574C28.9281 267.463 28.6555 268.504 28.1058 269.449Z" fill="#120E1E"/>
<path d="M12.7522 254.711C11.9915 254.711 11.1754 254.948 10.3824 255.395C9.25737 256.033 8.28913 257.038 7.66208 258.225C7.04887 259.398 6.85064 260.609 7.11345 261.628L11.0417 276.951C11.3183 278.055 12.2128 278.711 13.43 278.711C14.1907 278.711 15.0207 278.455 15.8229 277.976C16.8511 277.37 17.7317 276.467 18.2988 275.443C18.8982 274.396 19.1287 273.325 18.9305 272.432L15.5601 256.922C15.2604 255.563 14.1908 254.716 12.7569 254.716L12.7522 254.711ZM18.1375 275.346C17.6073 276.3 16.7635 277.198 15.7261 277.813C14.9284 278.287 14.1262 278.525 13.4254 278.525C12.3373 278.525 11.4797 277.966 11.2169 276.905L7.28865 261.581C7.03046 260.576 7.25178 259.394 7.81889 258.314C8.40444 257.211 9.33117 256.205 10.47 255.558C11.263 255.111 12.0468 254.892 12.7522 254.892C14.0617 254.892 15.0898 255.633 15.3803 256.955L18.7507 272.464C18.9443 273.349 18.6908 274.387 18.1375 275.346Z" fill="#120E1E"/>
<path d="M101.788 235.183L101.774 235.201C101.695 235.142 101.612 235.078 101.483 235.005L65.3055 214.382C64.5618 213.957 63.4763 213.711 62.3354 213.711C61.1945 213.711 60.1043 213.957 59.3606 214.382L3.57059 246.197C3.27496 246.375 3.1179 246.521 3.03475 246.608C3.09018 246.676 1.72291 248.533 2.05087 248.711L9.80182 283.711L57.2543 256.591C58.192 256.052 59.4253 255.788 60.6587 255.788C61.892 255.788 63.1207 256.057 64.0583 256.591L95.4593 275.631L101.515 248.163L101.755 236.684L102 235.42C101.963 235.365 101.885 235.297 101.788 235.215V235.187V235.183ZM101.806 235.47L101.575 236.675L101.339 248.118L95.3392 275.339L64.1553 256.431C63.2176 255.897 61.9797 255.601 60.6633 255.601C59.3468 255.601 58.1042 255.897 57.1665 256.431L9.93117 283.428L2.23565 248.67C2.22641 248.638 2.21256 248.606 2.18947 248.583C2.18947 248.36 2.69292 247.557 2.91002 247.205C3.07631 246.941 3.1687 246.79 3.20566 246.694C3.31652 246.585 3.47818 246.471 3.66295 246.352L59.4531 214.537C60.1736 214.126 61.2222 213.889 62.3354 213.889C63.4486 213.889 64.4925 214.126 65.2131 214.537L101.39 235.16C101.51 235.228 101.589 235.292 101.663 235.342C101.663 235.342 101.667 235.342 101.667 235.352C101.732 235.406 101.774 235.447 101.801 235.475L101.806 235.47Z" fill="#120E1E"/>
<path d="M94.7708 246.467C93.7996 245.973 92.8143 245.711 91.9089 245.711C91.5241 245.711 91.1629 245.76 90.8298 245.853C89.6991 246.147 88.9438 246.952 88.7561 248.059L86.035 263.436C85.7394 265.117 87.3486 267.483 89.7085 268.822C90.7172 269.4 91.7776 269.711 92.683 269.711C92.7769 269.711 92.8659 269.711 92.9598 269.702C93.9778 269.618 94.6723 269.106 94.9022 268.261L98.9979 251.719C98.9979 251.696 99.0026 251.674 98.9979 251.652C98.6648 249.673 96.9664 247.588 94.7614 246.471L94.7708 246.467ZM94.7285 268.221C94.5127 269.017 93.8465 269.453 92.9504 269.529C92.8659 269.537 92.7769 269.538 92.6924 269.538C91.8573 269.538 90.8439 269.262 89.8117 268.67C87.5504 267.385 85.9412 265.091 86.2274 263.467L88.9485 248.09C89.1315 247.014 89.854 246.293 90.8908 246.022C91.2051 245.933 91.5523 245.889 91.9182 245.889C92.7627 245.889 93.7199 246.129 94.6911 246.623C96.9149 247.752 98.5193 249.807 98.829 251.679L94.7332 268.221H94.7285Z" fill="#120E1E"/>
<path d="M55.27 231.711C54.7111 231.711 54.0941 231.895 53.4816 232.241C52.498 232.784 51.568 233.74 50.9331 234.857C50.2714 235.962 49.945 237.142 50.0076 238.17L51.0136 253.763C51.0896 254.961 51.8184 255.711 52.9272 255.711C53.495 255.711 54.1344 255.509 54.7692 255.132C55.6679 254.598 56.4951 253.767 57.0897 252.789C57.7112 251.801 58.0331 250.756 57.9973 249.836L57.4429 234.126C57.3982 232.663 56.5398 231.715 55.261 231.715L55.27 231.711ZM56.9466 252.695C56.3877 253.606 55.5875 254.441 54.6843 254.979C54.0539 255.352 53.4503 255.531 52.9317 255.531C51.957 255.531 51.2684 254.903 51.1969 253.749L50.1909 238.156C50.1238 237.138 50.4681 235.984 51.0896 234.943C51.6887 233.888 52.574 232.941 53.571 232.393C54.1791 232.048 54.7603 231.886 55.2745 231.886C56.4235 231.886 57.2372 232.712 57.282 234.126L57.8364 249.84C57.8721 250.751 57.5323 251.775 56.9556 252.695H56.9466Z" fill="#120E1E"/>
<path d="M34.5566 243.716C33.9033 243.716 33.1902 243.921 32.4908 244.309C31.4005 244.916 30.4528 245.879 29.8225 247.025C29.1692 248.143 28.8885 249.366 29.0403 250.38L31.4511 265.853C31.6397 267.013 32.454 267.711 33.6364 267.711C34.2989 267.711 35.035 267.487 35.762 267.058C36.7143 266.501 37.5793 265.639 38.2004 264.621C38.8077 263.612 39.0837 262.558 38.9779 261.649L37.0778 246.034C36.9029 244.601 35.9368 243.711 34.552 243.711L34.5566 243.716ZM38.0486 264.534C37.4735 265.47 36.6407 266.342 35.6746 266.908C34.9523 267.328 34.2483 267.528 33.641 267.528C32.5967 267.528 31.8146 266.94 31.6397 265.826L29.2289 250.352C29.0725 249.344 29.367 248.175 29.9835 247.116C30.577 246.034 31.4925 245.071 32.5829 244.469C33.2822 244.076 33.9539 243.894 34.5612 243.894C35.808 243.894 36.7373 244.679 36.9029 246.057L38.803 261.672C38.9043 262.567 38.6144 263.594 38.0531 264.534H38.0486Z" fill="#120E1E"/>
<path d="M66.0136 231.277C65.3571 230.904 64.7301 230.711 64.1535 230.711C63.7663 230.711 63.417 230.796 63.1266 230.967C62.3565 231.358 61.961 232.234 62.003 233.428L62.567 249.71C62.6343 251.493 64.1451 253.824 66.0136 255.01C66.7291 255.468 67.4235 255.711 68.021 255.711C68.1852 255.711 68.345 255.688 68.4923 255.657C69.2077 255.477 69.6286 254.853 69.637 253.95L69.999 237.879C70.0495 235.517 68.2609 232.557 66.0094 231.281L66.0136 231.277ZM69.4729 253.946C69.4645 254.804 69.0605 255.329 68.4545 255.482C68.3198 255.518 68.1768 255.536 68.021 255.536C67.474 255.536 66.809 255.316 66.0978 254.862C64.2882 253.708 62.7942 251.43 62.7311 249.706L62.1672 233.424C62.1293 232.279 62.5164 231.479 63.1982 231.129C63.4718 230.971 63.7916 230.891 64.1535 230.891C64.6754 230.891 65.2814 231.061 65.9337 231.434C68.1263 232.678 69.8853 235.607 69.8348 237.875L69.4729 253.946Z" fill="#120E1E"/>
<path d="M79.8294 238.367C79.0292 237.939 78.2335 237.711 77.5227 237.711C77.1293 237.711 76.7627 237.779 76.4364 237.911C75.511 238.267 74.9476 239.141 74.8895 240.307L74.0044 256.477C73.906 258.239 75.4752 260.625 77.5808 261.909C78.4436 262.433 79.2886 262.711 80.0128 262.711C80.1558 262.711 80.2989 262.702 80.424 262.679C81.2868 262.552 81.8501 261.969 81.9663 261.076L83.9691 245.175C84.2641 242.829 82.4134 239.778 79.8294 238.367ZM81.7876 261.058C81.6803 261.905 81.1527 262.397 80.3972 262.501C80.272 262.524 80.1424 262.533 80.0083 262.533C79.3333 262.533 78.5196 262.274 77.6658 261.759C75.6451 260.525 74.0804 258.194 74.1743 256.491L75.0595 240.32C75.1176 239.182 75.663 238.399 76.4945 238.08C76.8029 237.952 77.1472 237.889 77.5182 237.889C78.1888 237.889 78.9443 238.093 79.7445 238.522C82.248 239.892 84.0764 242.898 83.7903 245.147L81.7876 261.053V261.058Z" fill="#120E1E"/>
<path d="M45.4202 237.711C44.8145 237.711 44.1496 237.901 43.4893 238.268C42.4555 238.843 41.5219 239.793 40.8616 240.938C40.2104 242.066 39.9098 243.252 40.0236 244.27L41.7178 259.796C41.8453 260.978 42.6331 261.711 43.7807 261.711C44.3909 261.711 45.074 261.503 45.7526 261.109C46.6953 260.548 47.5423 259.697 48.1434 258.714C48.7582 257.718 49.0588 256.668 48.9905 255.749L47.7882 240.074C47.6744 238.616 46.7681 237.711 45.4202 237.711ZM47.9886 258.624C47.4193 259.556 46.6041 260.398 45.6615 260.96C44.992 261.349 44.3408 261.534 43.7807 261.534C42.7606 261.534 42.0183 260.923 41.8954 259.783L40.2012 244.252C40.0874 243.233 40.4153 242.07 41.0164 241.029C41.6358 239.956 42.542 239.001 43.5803 238.426C44.2361 238.06 44.8646 237.887 45.4247 237.887C46.6315 237.887 47.5059 238.689 47.6152 240.087L48.8174 255.768C48.8857 256.664 48.5715 257.691 47.9931 258.624H47.9886Z" fill="#120E1E"/>
<path d="M80.2429 252.113L55.6514 266.274L29.757 251.313L54.3441 237.148L80.2429 252.113Z" fill="#EF9CB0" stroke="black" stroke-width="0.756654"/>
<path d="M29.3783 251.367L55.6217 266.547V292.055L29.3783 276.87V251.367Z" fill="#EF9CB0" stroke="black" stroke-width="0.756654"/>
<path d="M80.6217 277.746L56.3783 292.048V266.671L80.6217 252.373V277.746Z" fill="#EF9CB0" stroke="black" stroke-width="0.756654"/>
<mask id="path-69-inside-1_927_32521" fill="white">
<path d="M42 244.103L68.4652 259.711L69 259.397L42.4069 243.711L42 244.103Z"/>
</mask>
<path d="M42 244.103L68.4652 259.711L69 259.397L42.4069 243.711L42 244.103Z" fill="#120E1E"/>
<path d="M42 244.103L41.4747 243.559L40.7585 244.25L41.6156 244.755L42 244.103ZM68.4652 259.711L68.0808 260.363L68.4643 260.589L68.8483 260.363L68.4652 259.711ZM69 259.397L69.3831 260.049L70.4919 259.398L69.3844 258.745L69 259.397ZM42.4069 243.711L42.7913 243.059L42.2957 242.767L41.8816 243.166L42.4069 243.711ZM41.6156 244.755L68.0808 260.363L68.8495 259.059L42.3844 243.452L41.6156 244.755ZM68.8483 260.363L69.3831 260.049L68.6169 258.744L68.0821 259.058L68.8483 260.363ZM69.3844 258.745L42.7913 243.059L42.0225 244.363L68.6156 260.049L69.3844 258.745ZM41.8816 243.166L41.4747 243.559L42.5253 244.648L42.9322 244.256L41.8816 243.166Z" fill="black" mask="url(#path-69-inside-1_927_32521)"/>
<path d="M68.6217 259.225V285.125L68.3783 285.2V259.3L68.6217 259.225Z" fill="#120E1E" stroke="black" stroke-width="0.756654"/>
<mask id="path-72-inside-2_927_32521" fill="white">
<path d="M42.1324 258.419L42 258.498V284.711H42.5431V258.822L68 244.188L67.7307 243.711L42.1324 258.419Z"/>
</mask>
<path d="M42.1324 258.419L42 258.498V284.711H42.5431V258.822L68 244.188L67.7307 243.711L42.1324 258.419Z" fill="#120E1E"/>
<path d="M42.1324 258.419L41.7554 257.763L41.7457 257.769L42.1324 258.419ZM42 258.498L41.6133 257.847L41.2433 258.067V258.498H42ZM42 284.711H41.2433V285.468H42V284.711ZM42.5431 284.711V285.468H43.2997V284.711H42.5431ZM42.5431 258.822L42.166 258.166L41.7864 258.384V258.822H42.5431ZM68 244.188L68.3771 244.844L69.0282 244.469L68.6588 243.815L68 244.188ZM67.7307 243.711L68.3895 243.339L68.0146 242.675L67.3537 243.055L67.7307 243.711ZM41.7457 257.769L41.6133 257.847L42.3867 259.148L42.519 259.069L41.7457 257.769ZM41.2433 258.498V284.711H42.7567V258.498H41.2433ZM42 285.468H42.5431V283.954H42V285.468ZM43.2997 284.711V258.822H41.7864V284.711H43.2997ZM42.9202 259.478L68.3771 244.844L67.6229 243.532L42.166 258.166L42.9202 259.478ZM68.6588 243.815L68.3895 243.339L67.0719 244.083L67.3412 244.56L68.6588 243.815ZM67.3537 243.055L41.7554 257.763L42.5093 259.075L68.1077 244.367L67.3537 243.055Z" fill="black" mask="url(#path-72-inside-2_927_32521)"/>
<path d="M73.9421 250.349C73.94 250.351 73.9379 250.353 73.9358 250.355C73.1068 251.215 71.8041 251.693 70.3338 251.942C69.3286 252.112 68.2181 252.179 67.075 252.176C66.5339 252.174 65.9855 252.157 65.4375 252.127C63.0382 251.998 60.6178 251.631 58.8029 251.297C58.8539 251.358 58.9032 251.422 58.9507 251.488C61.1728 251.894 64.2216 252.331 67.075 252.331C69.9912 252.331 72.6887 251.87 74.0557 250.458M73.9421 250.349L72.278 243.024C73.4196 243.625 74.2378 244.737 74.7255 246.342C75.2495 248.07 75.0217 249.451 74.0557 250.458M73.9421 250.349L74.0557 250.458M73.9421 250.349L73.9425 250.348L74.0557 250.458M55.8642 250.363L55.7754 250.441L55.6413 250.363L55.6694 250.314L55.8642 250.363ZM58.5076 251.242L58.3672 251.378L58.5076 251.242Z" fill="#120E1E" stroke="black" stroke-width="0.756654"/>
<path d="M42.1255 281.067C40.5616 281.067 39.09 280.709 37.9828 280.065L2 258.992L9.15505 285.612C9.39033 286.308 9.63017 287.022 10.4974 287.528L40.4463 304.908C41.3412 305.428 42.5314 305.711 43.8047 305.711C45.0779 305.711 46.2589 305.423 47.1492 304.908L93.3688 278.084C94.3052 277.537 94.5728 276.841 94.7204 276.168L101.446 249.265L102 247.711L46.2681 280.055C45.1609 280.7 43.6893 281.057 42.1255 281.057V281.067ZM17.2604 289.625C17.1035 289.68 16.9282 289.708 16.7299 289.708C16.1809 289.708 15.4843 289.485 14.7278 289.063C12.5965 287.876 10.5713 285.468 10.1146 283.581L5.97194 266.413C5.6767 265.226 5.8935 264.386 6.58086 264.048C6.79307 263.932 7.0468 263.867 7.34205 263.867C7.61884 263.867 7.93253 263.923 8.26468 264.025C8.62913 264.131 9.04891 264.326 9.51484 264.6C9.91619 264.827 10.3129 265.119 10.6866 265.425C12.7072 267.054 14.3772 269.517 14.7508 271.414L17.9662 287.867C18.1323 288.776 17.8786 289.416 17.2604 289.625ZM28.1706 295.738C28.0137 295.789 27.8384 295.812 27.6493 295.812C27.0865 295.812 26.3991 295.594 25.6656 295.177C23.6266 294.04 21.7398 291.693 21.4491 289.949L18.6721 273.844C18.4737 272.75 18.7689 271.947 19.4839 271.632C19.6961 271.534 19.9453 271.483 20.2221 271.483C20.7526 271.483 21.3753 271.664 22.0304 272.007L22.3764 272.193C22.3764 272.193 22.8285 272.471 22.8285 272.476C25.0382 273.983 26.8881 276.641 27.1372 278.668L29.0379 294.11C29.1394 294.991 28.8303 295.567 28.1752 295.738H28.1706ZM38.7532 301.675C38.6056 301.713 38.4442 301.731 38.2735 301.731C37.6876 301.731 36.9956 301.513 36.2621 301.1C34.26 299.987 32.5624 297.798 32.3963 296.118L30.9016 280.997C30.8001 279.953 31.1553 279.225 31.9073 278.947C32.1148 278.868 32.3501 278.826 32.6085 278.826C33.2497 278.826 34.0016 279.072 34.7951 279.536C37.0648 280.881 38.9793 283.627 39.0715 285.659L39.745 300.159C39.782 300.961 39.4175 301.518 38.7532 301.68V301.675ZM92.6444 255.332C93.1934 254.59 93.8439 253.866 94.5313 253.249C94.9741 252.85 95.4401 252.507 95.9014 252.229C96.4273 251.913 96.9162 251.709 97.3499 251.617C97.5159 251.584 97.6728 251.566 97.8204 251.566C98.291 251.566 98.6693 251.733 98.9138 252.053C99.2829 252.526 99.3566 253.296 99.1168 254.284L94.6927 272.379C94.4482 273.367 93.83 274.522 92.9489 275.621C92.077 276.73 91.0621 277.648 90.0887 278.205C89.3829 278.627 88.7324 278.849 88.2065 278.849C87.7913 278.849 87.4546 278.705 87.2378 278.436C86.9472 278.079 86.8734 277.504 87.0256 276.781L90.7669 259.126C91.0114 257.971 91.6803 256.622 92.6444 255.323V255.332ZM76.6736 282.936L79.4738 265.889C79.6675 264.776 80.2672 263.463 81.1714 262.197C82.0479 260.977 83.1136 259.938 84.1746 259.265L84.5206 259.066C85.1849 258.69 85.817 258.495 86.3383 258.495C86.8273 258.495 87.224 258.667 87.4869 258.992C87.8514 259.442 87.9482 260.165 87.7637 261.075L84.2945 278.552C84.1008 279.522 83.538 280.644 82.703 281.711C81.8773 282.773 80.8808 283.673 79.8889 284.253C79.1739 284.68 78.5096 284.903 77.9653 284.903C77.527 284.903 77.1764 284.759 76.9458 284.485C76.6551 284.142 76.5628 283.604 76.6736 282.94V282.936ZM68.2776 272.592C68.4021 271.507 68.9696 270.198 69.8184 269.011C70.6765 267.754 71.7698 266.696 72.8954 266.033C73.6381 265.583 74.3439 265.347 74.9298 265.347C75.4326 265.347 75.8524 265.523 76.1338 265.852C76.5029 266.284 76.6367 266.961 76.5075 267.81L73.9657 284.675C73.8273 285.612 73.3152 286.698 72.5263 287.737C71.7374 288.776 70.7641 289.666 69.7953 290.242C69.0618 290.678 68.3791 290.905 67.8024 290.905C67.3503 290.905 66.9813 290.756 66.7322 290.478C66.4462 290.149 66.3262 289.648 66.4 289.031L68.2822 272.592H68.2776ZM57.1506 279.253C57.2152 278.218 57.7042 276.98 58.5207 275.774C59.3234 274.577 60.4121 273.51 61.5055 272.852C62.2759 272.393 63.0047 272.156 63.6229 272.156C64.1488 272.156 64.5871 272.332 64.887 272.666C65.256 273.074 65.4082 273.705 65.3298 274.484L63.706 290.756C63.6183 291.656 63.1523 292.714 62.4004 293.725C61.6623 294.732 60.7166 295.604 59.734 296.188C58.9912 296.633 58.2854 296.865 57.695 296.865C57.2244 296.865 56.8415 296.717 56.5786 296.439C56.2925 296.128 56.1542 295.659 56.1911 295.084L57.1506 279.253ZM50.2124 279.629C50.992 279.165 51.7393 278.919 52.3898 278.919C52.9388 278.919 53.3955 279.095 53.7184 279.434C54.0875 279.819 54.2674 280.403 54.2351 281.118L53.5246 296.786C53.4923 297.654 53.0726 298.688 52.3437 299.695C51.6286 300.687 50.706 301.546 49.7418 302.111C48.9899 302.557 48.2748 302.793 47.6567 302.793C46.651 302.793 46.0467 302.163 46.0467 301.1L46.1159 285.863C46.1159 284.865 46.5403 283.669 47.3107 282.486C48.0949 281.294 49.1237 280.278 50.217 279.624L50.2124 279.629Z" fill="white"/>
<path d="M35.0258 279.427C34.2231 278.956 33.4572 278.711 32.8059 278.711C32.5353 278.711 32.2922 278.753 32.0766 278.836C31.2969 279.122 30.9116 279.899 31.0171 280.971L32.5032 296.031C32.6774 297.732 34.3836 299.946 36.3971 301.073C37.1401 301.489 37.8465 301.711 38.4428 301.711C38.6216 301.711 38.7867 301.688 38.9427 301.655C39.649 301.484 40.0343 300.898 39.9976 300.047L39.3279 285.601C39.2362 283.549 37.3099 280.777 35.0349 279.427H35.0258ZM38.8968 301.475C38.7546 301.512 38.6033 301.531 38.4428 301.531C37.897 301.531 37.2319 301.337 36.4843 300.916C34.5396 299.83 32.8517 297.663 32.682 296.018L31.196 280.957C31.0951 279.922 31.4666 279.256 32.1409 279.007C32.3335 278.933 32.5628 278.891 32.8059 278.891C33.4067 278.891 34.1406 279.118 34.934 279.584C37.1769 280.92 39.0527 283.628 39.1399 285.61L39.8095 300.057C39.8462 300.847 39.4931 301.332 38.8922 301.48L38.8968 301.475Z" fill="#120E1E"/>
<path d="M11.2536 265.291C10.8023 264.944 10.3946 264.67 10.0063 264.457C9.50641 264.179 9.05499 263.984 8.67642 263.873C8.31241 263.767 7.97755 263.711 7.67178 263.711C7.3466 263.711 7.06026 263.776 6.83215 263.896C6.38563 264.11 5.70613 264.707 6.13808 266.367L10.4965 283.519C10.9867 285.429 13.1368 287.857 15.3985 289.058C16.209 289.484 16.9564 289.711 17.5534 289.711C17.7718 289.711 17.9708 289.683 18.1406 289.623C18.8347 289.396 19.1307 288.724 18.9463 287.764L15.5635 271.326C15.1704 269.411 13.3988 266.927 11.2536 265.287V265.291ZM18.0824 289.456C17.9271 289.507 17.7475 289.535 17.5534 289.535C17.0001 289.535 16.3012 289.326 15.4907 288.905C13.3066 287.746 11.1614 285.345 10.6857 283.482L6.32737 266.329C6.02161 265.152 6.26912 264.374 6.91948 264.063C7.12332 263.952 7.38058 263.896 7.67664 263.896C7.9727 263.896 8.27359 263.952 8.61818 264.054C9.01131 264.165 9.44814 264.36 9.91407 264.619C10.3315 264.846 10.744 265.134 11.1371 265.435C13.1999 267.015 14.9859 269.462 15.379 271.363L18.7619 287.801C18.9317 288.696 18.6697 289.266 18.0872 289.456H18.0824Z" fill="#120E1E"/>
<path d="M22.5137 272.697L22.3323 272.588C22.2415 272.542 22.146 272.483 22.0362 272.419L21.7257 272.256L21.6827 272.238C20.9902 271.893 20.3264 271.711 19.7628 271.711C19.4667 271.711 19.1944 271.765 18.9556 271.861C18.1772 272.188 17.8524 273.014 18.0625 274.127L20.9329 289.897C21.2481 291.659 23.1823 293.935 25.3458 295.08C26.1243 295.493 26.8455 295.711 27.4473 295.711C27.6526 295.711 27.8437 295.684 28.0061 295.638C28.7368 295.461 29.0902 294.843 28.9803 293.944L27.0126 278.824C26.75 276.816 24.8157 274.182 22.509 272.692L22.5137 272.697ZM27.963 295.466C27.8102 295.511 27.6383 295.534 27.452 295.534C26.9076 295.534 26.2199 295.334 25.4414 294.921C23.3639 293.821 21.4248 291.578 21.1239 289.865L18.2488 274.091C18.0434 273.014 18.3634 272.301 19.0321 272.024C19.2422 271.938 19.4858 271.893 19.7628 271.893C20.2834 271.893 20.9042 272.052 21.592 272.397L21.6349 272.415C21.74 272.469 21.8499 272.529 21.9502 272.578C22.0457 272.638 22.1507 272.697 22.2463 272.747L22.4134 272.846C24.6533 274.291 26.578 276.898 26.8359 278.846L28.8036 293.967C28.9087 294.803 28.5935 295.316 27.9726 295.466H27.963Z" fill="#120E1E"/>
<path d="M42.2011 280.954C40.7209 280.954 39.236 280.626 38.1063 279.969L2 259.065L2.4519 260.739L9.13824 285.57C9.38263 286.291 9.62243 287.04 10.5355 287.568L40.4719 304.897C41.4126 305.438 42.6438 305.711 43.875 305.711C45.1062 305.711 46.3282 305.438 47.2642 304.897L93.4645 278.152C94.4006 277.61 94.6957 276.912 94.8571 276.186L101.58 249.362L102 247.711L46.2913 279.96C45.1615 280.617 43.6813 280.945 42.1965 280.945L42.2011 280.954ZM101.719 248.095L101.405 249.33L94.682 276.154C94.539 276.801 94.2854 277.476 93.3723 278.004L47.172 304.749C46.2959 305.258 45.12 305.535 43.875 305.535C42.6299 305.535 41.4494 305.258 40.5687 304.749L10.6323 287.42C9.79309 286.93 9.5717 286.264 9.31808 285.528L2.63174 260.693L2.29974 259.444L38.0186 280.126C39.1392 280.778 40.624 281.135 42.2057 281.135C43.7874 281.135 45.2722 280.778 46.3927 280.126L101.723 248.095H101.719Z" fill="#120E1E"/>
<path d="M57.5504 295.706C58.1364 295.706 58.8289 295.474 59.5569 295.04C60.5157 294.477 61.4302 293.623 62.1449 292.643C62.8773 291.655 63.3301 290.622 63.4189 289.737L64.9814 274.05C65.0569 273.276 64.9015 272.646 64.5286 272.23C64.2223 271.89 63.774 271.711 63.2457 271.711C62.6376 271.711 61.9185 271.948 61.1638 272.395C60.0985 273.035 59.0419 274.072 58.2607 275.235C57.4616 276.415 56.9911 277.618 56.9289 278.638L56.0056 293.9C55.9701 294.477 56.1032 294.951 56.4006 295.268C56.667 295.559 57.0621 295.711 57.5371 295.711L57.5504 295.706ZM57.1154 278.647C57.1775 277.632 57.6702 276.438 58.416 275.333C59.1662 274.215 60.1872 273.191 61.2615 272.543C62.0161 272.096 62.6909 271.881 63.2546 271.881C64.32 271.881 64.9459 272.655 64.8127 274.027L63.2502 289.714C63.1614 290.591 62.6953 291.606 62.0072 292.532C61.328 293.466 60.4225 294.316 59.4681 294.884C58.7445 295.313 58.0831 295.523 57.5504 295.523C56.6715 295.523 56.1254 294.96 56.192 293.9L57.1154 278.638V278.647Z" fill="#120E1E"/>
<path d="M87.3251 278.273C87.5698 278.556 87.9441 278.711 88.4096 278.711C88.9711 278.711 89.667 278.488 90.4156 278.059C91.4377 277.503 92.5031 276.596 93.4196 275.498C94.3458 274.404 94.9936 273.264 95.2527 272.275L99.8548 254.496C100.109 253.498 100.028 252.714 99.6244 252.226C99.3461 251.893 98.9286 251.711 98.4103 251.711C98.252 251.711 98.0792 251.729 97.9016 251.766C97.441 251.857 96.9275 252.062 96.3612 252.376C95.8622 252.664 95.3823 253.005 94.9264 253.388C94.2066 253.994 93.5203 254.71 92.9493 255.444C91.9367 256.734 91.2362 258.069 90.977 259.218L87.0852 276.564C86.9172 277.307 86.9988 277.891 87.3203 278.273H87.3251ZM87.2724 276.605L91.1641 259.259C91.4281 258.101 92.1431 256.775 93.1029 255.558C93.6787 254.815 94.3506 254.122 95.0512 253.53C95.5119 253.142 95.9917 252.809 96.462 252.54C97.0139 252.231 97.5034 252.039 97.9401 251.948C98.108 251.916 98.2616 251.902 98.4103 251.902C99.5477 251.902 100.08 252.828 99.6676 254.459L95.0656 272.239C94.8017 273.242 94.1346 274.367 93.2661 275.388C92.4215 276.405 91.3753 277.33 90.3195 277.909C89.5709 278.328 88.9231 278.529 88.4096 278.529C87.4691 278.529 86.994 277.849 87.2724 276.605Z" fill="#120E1E"/>
<path d="M47.6223 302.711C48.2218 302.711 48.9315 302.47 49.6589 302.017C50.589 301.448 51.4795 300.583 52.1716 299.583C52.8813 298.565 53.2869 297.515 53.3178 296.631L53.9966 281.001C54.0275 280.261 53.8468 279.655 53.4809 279.252C53.1547 278.901 52.6962 278.711 52.1496 278.711C51.5192 278.711 50.783 278.961 50.0248 279.433C48.9712 280.094 47.9749 281.112 47.2167 282.315C46.4717 283.509 46.0661 284.721 46.0661 285.735L46 300.934C46 302.031 46.6216 302.711 47.6223 302.711ZM46.2381 285.735C46.2381 284.717 46.6701 283.528 47.3622 282.412C48.0719 281.284 49.0462 280.256 50.113 279.59C50.8712 279.113 51.5677 278.891 52.1496 278.891C53.2076 278.891 53.8776 279.641 53.8247 280.992L53.1458 296.622C53.115 297.501 52.6918 298.524 52.035 299.477C51.3958 300.402 50.5361 301.272 49.5751 301.864C48.8521 302.313 48.1821 302.53 47.6267 302.53C46.7494 302.53 46.1763 301.98 46.1763 300.934L46.2425 285.735H46.2381Z" fill="#120E1E"/>
<path d="M77.3285 284.267C77.5687 284.557 77.9333 284.711 78.3825 284.711C78.9206 284.711 79.5788 284.489 80.2815 284.063C81.2466 283.491 82.2161 282.602 83.0166 281.555C83.8305 280.499 84.3776 279.388 84.5644 278.426L87.9087 261.341C88.0955 260.425 87.9932 259.695 87.6241 259.228C87.3484 258.888 86.9437 258.711 86.4501 258.711C85.9208 258.711 85.3204 258.901 84.6489 259.282L84.3153 259.482C83.2835 260.144 82.2428 261.164 81.3934 262.37C80.5172 263.622 79.9302 264.918 79.7434 266.02L77.0438 282.684C76.9326 283.364 77.035 283.913 77.3285 284.262V284.267ZM77.2173 282.716L79.9168 266.052C80.1036 264.946 80.7129 263.658 81.5402 262.479C82.3451 261.341 83.368 260.307 84.4087 259.636L84.7378 259.441C85.3915 259.069 85.9697 258.892 86.4501 258.892C87.5041 258.892 88.0466 259.767 87.7398 261.309L84.3953 278.395C84.2085 279.351 83.6438 280.449 82.8788 281.446C82.1317 282.421 81.1799 283.323 80.1926 283.908C79.4988 284.326 78.8761 284.53 78.3825 284.53C77.5064 284.53 77.0305 283.895 77.2218 282.711L77.2173 282.716Z" fill="#120E1E"/>
<path d="M67.4691 290.711C68.0343 290.711 68.7153 290.481 69.4362 290.053C70.3842 289.49 71.3276 288.617 72.0975 287.594C72.8674 286.577 73.3614 285.509 73.5038 284.586L75.9515 268.21C76.0805 267.359 75.9514 266.675 75.5731 266.233C75.2794 265.896 74.8611 265.711 74.3449 265.711C73.7619 265.711 73.0677 265.945 72.3379 266.391C71.2386 267.044 70.1749 268.08 69.3382 269.305C68.506 270.471 67.9631 271.755 67.8341 272.827L66.0183 288.788C65.9516 289.418 66.0673 289.927 66.3655 290.265C66.6236 290.558 67.0018 290.711 67.4647 290.711H67.4691ZM68.0165 272.849C68.1411 271.791 68.6841 270.543 69.4896 269.413C70.2728 268.256 71.3187 267.211 72.4313 266.544C73.1612 266.098 73.8153 265.891 74.3493 265.891C75.4085 265.891 76.0005 266.715 75.7824 268.179L73.3303 284.554C73.1923 285.469 72.6805 286.527 71.9595 287.482C71.2341 288.441 70.3084 289.324 69.3471 289.896C68.6306 290.324 67.9898 290.531 67.4691 290.531C66.588 290.531 66.0718 289.927 66.2008 288.81L68.0165 272.845V272.849Z" fill="#120E1E"/>
<path d="M101.273 238.07L45.7808 270.069C44.6783 270.707 43.213 271.06 41.6557 271.06C40.0984 271.06 38.6331 270.707 37.5306 270.069L1.56187 249.327C0.946314 248.978 0.468564 248.537 0.179161 248.065C0.110256 247.959 0.0505307 247.844 0 247.734L0.0321873 256.917C0.0689369 257.256 0.165364 257.541 0.335331 257.803C0.60636 258.257 1.06113 258.67 1.65372 259.005L37.6224 279.747C38.6973 280.371 40.1306 280.711 41.6557 280.711C43.1808 280.711 44.6141 280.371 45.689 279.747L101.181 247.748C101.81 247.381 102.265 246.954 102.531 246.491C102.724 246.16 102.821 245.816 102.821 245.343L103 235.711C102.991 236.055 102.885 236.404 102.683 236.743C102.403 237.239 101.925 237.689 101.268 238.07H101.273Z" fill="white"/>
<path d="M101.314 238.056L45.8247 269.939C44.6993 270.588 43.2248 270.913 41.7457 270.913C40.2666 270.913 38.7921 270.588 37.6667 269.939L1.69957 249.272C1.07026 248.916 0.620126 248.49 0.34911 248.042C0.183744 247.786 0.0826627 247.516 0.0367278 247.251L0 246.922V256.926H0.0367278C0.0688822 257.242 0.156183 257.548 0.34911 257.841C0.620126 258.289 1.07026 258.714 1.69957 259.07L37.6667 279.737C38.7921 280.386 40.2712 280.711 41.7457 280.711C43.2202 280.711 44.6993 280.386 45.8247 279.737L101.314 247.855C101.971 247.475 102.43 247.036 102.697 246.57C102.899 246.223 103 245.866 103 245.509C103 245.463 102.977 245.427 102.977 245.381H103V235.711C103 236.068 102.899 236.424 102.697 236.767C102.426 237.238 101.966 237.677 101.314 238.056ZM102.821 245.29C102.802 245.317 102.798 245.345 102.798 245.381C102.798 245.432 102.807 245.473 102.821 245.509C102.821 245.834 102.724 246.163 102.541 246.483C102.279 246.936 101.838 247.343 101.222 247.704L45.7328 279.586C44.6763 280.194 43.257 280.533 41.7457 280.533C40.2344 280.533 38.8196 280.194 37.7585 279.586L1.79147 258.915C1.21269 258.59 0.771696 258.188 0.505273 257.745C0.344501 257.502 0.252633 257.232 0.220479 256.908C0.220479 256.88 0.206719 256.853 0.183751 256.83V248.125C0.183751 248.125 0.188354 248.134 0.192947 248.138C0.486931 248.627 0.973821 249.076 1.60772 249.432L37.5748 270.099C38.691 270.743 40.1701 271.096 41.7457 271.096C43.3213 271.096 44.8003 270.743 45.9166 270.099L101.406 238.217C102.054 237.837 102.527 237.403 102.821 236.918V245.29Z" fill="#120E1E"/>
<path d="M100.373 233.696L64.6669 212.692C63.6002 212.06 62.1871 211.711 60.6737 211.711C59.1603 211.711 57.7381 212.06 56.6623 212.692L1.60162 245.102C0.544077 245.729 -0.0348428 246.547 0.00162432 247.723C0.0380914 247.979 0.133773 248.23 0.297875 248.499C0.580495 248.959 1.02727 249.382 1.60162 249.712L37.2937 270.73C38.3558 271.362 39.7781 271.711 41.296 271.711C42.814 271.711 44.2408 271.362 45.3029 270.73L100.373 238.325C100.993 237.948 101.439 237.521 101.708 237.047C101.9 236.698 102 236.35 102 236.01C102 235.146 101.426 234.318 100.373 233.696ZM99.3517 236.508L44.2818 268.913C43.516 269.359 42.4311 269.619 41.3051 269.619C40.1792 269.619 39.0852 269.364 38.3194 268.913L2.62726 247.904C2.4586 247.816 2.35827 247.649 2.35371 247.453C2.34459 247.235 2.45855 247.026 2.63633 246.919L57.6925 214.495C58.4264 214.058 59.5113 213.807 60.6692 213.807C61.827 213.807 62.9119 214.058 63.6458 214.495L99.3517 235.513C99.5158 235.615 99.616 235.801 99.616 236.006C99.616 236.215 99.5158 236.405 99.3517 236.508Z" fill="white"/>
<path d="M64.782 215.408C64.0347 214.962 62.9253 214.711 61.7424 214.711C60.5596 214.711 59.4547 214.967 58.7029 215.408L3.33052 247.839C3.12422 247.964 2.99128 248.206 3.00045 248.452C3.00962 248.685 3.12879 248.88 3.31675 248.978L38.297 269.456L39.2185 269.995C39.9979 270.451 41.1073 270.711 42.2626 270.711C43.418 270.711 44.5182 270.451 45.2976 269.995L100.688 237.583C100.881 237.462 101 237.244 101 237.002C101 236.76 100.881 236.547 100.684 236.43L64.7729 215.408H64.782ZM100.601 237.425L45.2151 269.837C44.4678 270.269 43.4042 270.53 42.2672 270.53C41.1303 270.53 40.0529 270.274 39.3102 269.837L38.3932 269.298L3.41307 248.82C3.08298 248.643 3.13342 248.173 3.42683 247.997L58.7991 215.566C59.5327 215.134 60.6146 214.892 61.747 214.892C62.8794 214.892 63.9613 215.134 64.6949 215.566L100.606 236.588C100.899 236.765 100.913 237.235 100.606 237.425H100.601Z" fill="#120E1E"/>
<path d="M101.31 233.645L65.3304 212.703C64.2096 212.04 62.7352 211.711 61.2608 211.711C59.7863 211.711 58.3073 212.045 57.1727 212.703L1.6949 245.018C0.574135 245.676 0 246.538 0 247.404C0 247.511 0.0137642 247.631 0.041324 247.724C0.0780703 247.997 0.18833 248.261 0.349095 248.53C0.624693 248.975 1.06562 249.411 1.6949 249.768L37.6604 270.724C38.7812 271.387 40.2602 271.711 41.7393 271.711C43.2183 271.711 44.6974 271.382 45.8227 270.724L101.314 238.414C101.971 238.02 102.426 237.575 102.692 237.107C102.89 236.755 103 236.393 103 236.027C103 235.165 102.44 234.303 101.314 233.64L101.31 233.645ZM102.532 237.019C102.27 237.478 101.829 237.895 101.218 238.261L45.7262 270.571C44.6698 271.192 43.2505 271.535 41.7347 271.535C40.2189 271.535 38.8041 271.192 37.7477 270.571L1.7776 249.615C1.21263 249.295 0.771658 248.887 0.500654 248.438C0.339888 248.183 0.24802 247.942 0.211274 247.673C0.188307 247.603 0.174547 247.501 0.174547 247.404C0.174547 246.575 0.744116 245.782 1.7822 245.175L57.26 212.86C58.3349 212.239 59.7542 211.896 61.2608 211.896C62.7674 211.896 64.1821 212.239 65.2385 212.86L101.218 233.803C102.247 234.41 102.816 235.197 102.816 236.032C102.816 236.351 102.72 236.68 102.532 237.019Z" fill="#120E1E"/>
<path d="M64.0502 199.461C63.1843 198.377 61.5677 198.473 59.8267 199.716C58.5923 200.604 59.0576 201.51 59.2326 201.765C59.3523 201.943 60.0248 202.808 61.3052 202.034C61.4664 201.934 61.6 201.811 61.7013 201.665C61.8671 201.569 62.0467 201.478 62.1941 201.424C65.4504 205.613 89.0507 236.923 90.2068 240.343C90.4002 241.076 90.322 245.584 90.1377 249.322C90.1009 250.055 90.672 250.675 91.409 250.711C91.432 250.711 91.455 250.711 91.478 250.711C92.1827 250.711 92.7815 250.155 92.8138 249.45C92.9427 246.895 93.1914 240.812 92.7446 239.5C91.2846 235.165 64.3081 199.789 64.0456 199.456L64.0502 199.461Z" fill="#120E1E"/>
<path d="M53.4692 194.539L53.5563 194.589H53.5589C54.3869 195.084 55.1464 195.858 55.7042 196.726C56.2833 197.627 56.6217 198.593 56.6217 199.407C56.6217 200.173 56.3245 200.61 55.9275 200.804L55.9169 200.809L55.9068 200.815L34.0815 213.21L29.5453 206.611L50.9728 194.439L50.9879 194.461L51.2959 194.274C51.747 194 52.5013 193.987 53.4692 194.539Z" fill="#D9D9D9" stroke="black" stroke-width="0.756654"/>
<path d="M31.4477 207.246C30.8349 206.893 30.2271 206.711 29.6989 206.711C28.6328 206.711 28 207.442 28 208.664C28 210.588 29.5893 213.062 31.5473 214.176C32.1651 214.529 32.768 214.711 33.2961 214.711C33.8242 214.711 34.2277 214.539 34.5267 214.21C34.8356 213.872 35 213.366 35 212.758C35 210.834 33.4057 208.36 31.4477 207.246Z" fill="white"/>
<path d="M31.4976 207.248C30.8581 206.888 30.2671 206.711 29.7488 206.711C28.7024 206.711 28 207.43 28 208.71C28 210.622 29.5647 213.067 31.4976 214.174C32.137 214.534 32.7329 214.711 33.2464 214.711C34.2927 214.711 35 213.992 35 212.712C35 210.8 33.4305 208.355 31.4976 207.248ZM33.2464 214.524C32.7474 214.524 32.1758 214.347 31.5944 214.016C29.7148 212.947 28.1889 210.565 28.1889 208.715C28.1889 207.579 28.7702 206.903 29.7488 206.903C30.2478 206.903 30.8146 207.08 31.4007 207.411C33.2803 208.484 34.8111 210.862 34.8111 212.712C34.8111 213.848 34.2249 214.524 33.2512 214.524H33.2464Z" fill="#120E1E"/>
<path d="M59.4692 198.541L59.5563 198.591H59.559C60.3846 199.083 61.1441 199.858 61.7026 200.726C62.2823 201.628 62.6217 202.593 62.6217 203.405C62.6217 204.17 62.3256 204.604 61.9252 204.803L61.9158 204.808L61.9067 204.813L40.0816 217.21L35.5452 210.61L56.9321 198.459L56.9477 198.49L57.2976 198.275C57.7469 197.999 58.4995 197.988 59.4692 198.541Z" fill="#D9D9D9" stroke="black" stroke-width="0.756654"/>
<path d="M38.4501 211.246C37.8319 210.893 37.2286 210.711 36.7001 210.711C35.6332 210.711 35 211.442 35 212.664C35 214.588 36.5905 217.062 38.5499 218.176C39.1631 218.529 39.7714 218.711 40.2999 218.711C40.8084 218.711 41.2322 218.539 41.5314 218.205C41.8405 217.867 42 217.361 42 216.753C42 214.829 40.4095 212.355 38.4501 211.246Z" fill="white"/>
<path d="M38.5 211.248C37.8601 210.883 37.2638 210.711 36.75 210.711C35.6981 210.711 35 211.43 35 212.71C35 214.622 36.5658 217.067 38.5 218.174C39.1351 218.534 39.7313 218.711 40.25 218.711C41.2971 218.711 42 217.992 42 216.707C42 214.8 40.4342 212.35 38.5 211.248ZM40.25 218.524C39.7507 218.524 39.1835 218.347 38.597 218.016C36.7161 216.942 35.1891 214.565 35.1891 212.715C35.1891 211.579 35.7708 210.903 36.75 210.903C37.2444 210.903 37.8165 211.08 38.403 211.411C40.2839 212.484 41.8109 214.857 41.8109 216.707C41.8109 217.843 41.2244 218.519 40.25 218.519V218.524Z" fill="#120E1E"/>
<path d="M37.6873 216.363C37.5567 215.872 37.5071 215.709 38.3001 215.209C38.9128 214.819 39.111 213.989 38.7326 213.354C38.3586 212.724 37.5431 212.52 36.9304 212.909C35.8671 213.577 34.5291 214.74 35.1643 217.091C35.3401 217.745 51.2666 263.154 51.2666 263.154C51.2666 263.154 51.3837 268.49 51.199 272.302C51.1629 273.043 51.7216 273.678 52.4425 273.711C52.465 273.711 52.4875 273.711 52.51 273.711C53.2039 273.711 53.785 273.145 53.8211 272.427C53.9427 269.821 54.1861 263.627 53.7535 262.291C53.0957 260.261 37.8901 217.068 37.6919 216.354L37.6873 216.363Z" fill="#120E1E"/>
<path d="M30.9375 208.907C30.2929 209.297 29.5462 209.951 28.6883 210.928C27.9741 211.749 11 230.988 11 236.734V238.711L13.6945 237.205V236.734C13.6945 233.108 25.4001 218.656 30.7381 212.618C31.6193 211.628 32.1294 211.265 32.3567 211.121C32.9874 210.74 33.1915 209.947 32.8019 209.333C32.4077 208.723 31.5776 208.526 30.9375 208.902V208.907Z" fill="#120E1E"/>
<defs>
<linearGradient id="paint0_linear_927_32521" x1="-12.543" y1="121.61" x2="235.964" y2="283.718" gradientUnits="userSpaceOnUse">
<stop offset="0.290577" stop-color="#E20338"/>
<stop offset="0.854633" stop-color="#E20338" stop-opacity="0"/>
</linearGradient>
<linearGradient id="paint1_linear_927_32521" x1="-2.40166" y1="198.119" x2="92.3678" y2="312.231" gradientUnits="userSpaceOnUse">
<stop stop-color="#E20338"/>
<stop offset="1" stop-color="#E20338" stop-opacity="0"/>
</linearGradient>
</defs>
</svg>
