<svg width="249" height="333" viewBox="0 0 249 333" fill="none" xmlns="http://www.w3.org/2000/svg">
<g style="mix-blend-mode:multiply">
<g style="mix-blend-mode:multiply">
<path style="mix-blend-mode:multiply" d="M52.5742 260.288L135.365 309.611L196.947 280.637L93.3948 221.298L52.5742 260.288Z" fill="url(#paint0_linear_927_33470)"/>
</g>
</g>
<path d="M76.0537 211.198C74.5776 210.396 72.9227 209.98 71.2428 209.989C69.5629 209.998 67.9126 210.432 66.4452 211.25L25.378 234.156H16.8711V241.222H16.9129C16.9294 241.847 17.1082 242.457 17.4316 242.992C17.7551 243.528 18.2121 243.97 18.7579 244.275L66.4452 270.879C67.9126 271.697 69.5629 272.131 71.2428 272.14C72.9227 272.149 74.5776 271.733 76.0537 270.931L125.021 244.295C125.576 243.992 126.042 243.549 126.372 243.009C126.701 242.47 126.884 241.854 126.9 241.222H126.944V234.156H118.264L76.0537 211.198Z" fill="#120E1E"/>
<path d="M125.022 230.614L76.0542 203.982C74.5784 203.179 72.9234 202.762 71.2433 202.771C69.5632 202.78 67.9128 203.215 66.4457 204.034L18.7604 230.629C18.1877 230.948 17.7105 231.415 17.3784 231.98C17.0462 232.545 16.8711 233.189 16.8711 233.844C16.8711 234.5 17.0462 235.143 17.3784 235.709C17.7105 236.274 18.1877 236.74 18.7604 237.059L66.4457 263.659C67.9128 264.478 69.5632 264.912 71.2433 264.921C72.9234 264.93 74.5784 264.514 76.0542 263.711L125.022 237.075C125.603 236.759 126.088 236.292 126.426 235.723C126.764 235.155 126.942 234.506 126.942 233.844C126.942 233.183 126.764 232.534 126.426 231.965C126.088 231.397 125.603 230.93 125.022 230.614Z" fill="white"/>
<path d="M124.757 230.224L75.7891 203.593C74.4047 202.846 72.8569 202.454 71.284 202.451C69.6885 202.452 68.1196 202.86 66.7255 203.636L19.0359 230.244C18.5488 230.513 18.1426 230.907 17.8598 231.387C17.5769 231.866 17.4277 232.412 17.4277 232.968C17.4277 233.524 17.5769 234.07 17.8598 234.549C18.1426 235.028 18.5488 235.423 19.0359 235.692L66.7315 262.288C68.1279 263.071 69.7014 263.483 71.3021 263.485C72.8681 263.481 74.409 263.091 75.7891 262.351L124.757 235.711C125.252 235.444 125.666 235.048 125.954 234.565C126.243 234.082 126.395 233.53 126.395 232.968C126.395 232.405 126.243 231.853 125.954 231.37C125.666 230.887 125.252 230.491 124.757 230.224Z" fill="white"/>
<path d="M125.023 229.735L76.0548 203.099C74.5889 202.307 72.9493 201.891 71.2832 201.89C69.5926 201.889 67.9301 202.322 66.4543 203.146L53.8461 210.168L35.4388 220.442L18.763 229.754C18.1892 230.072 17.7109 230.537 17.3778 231.102C17.0448 231.667 16.8691 232.311 16.8691 232.967C16.8691 233.623 17.0448 234.267 17.3778 234.832C17.7109 235.397 18.1892 235.862 18.763 236.18L36.3532 245.997L65.685 262.339L66.4543 262.772C67.9328 263.606 69.6019 264.043 71.2993 264.04C72.9594 264.04 74.5933 263.627 76.0548 262.839L107.599 245.682L121.364 238.204L125.023 236.204C125.606 235.889 126.093 235.422 126.433 234.852C126.773 234.283 126.952 233.632 126.952 232.969C126.952 232.306 126.773 231.656 126.433 231.086C126.093 230.517 125.606 230.05 125.023 229.735ZM124.486 235.225L120.83 237.217L107.064 244.701L75.5258 261.853C74.2265 262.553 72.7747 262.92 71.2993 262.923C69.7945 262.922 68.3151 262.535 67.003 261.798L66.2297 261.361L36.8978 245.022L19.3036 235.198C18.9044 234.977 18.5717 234.653 18.3402 234.26C18.1088 233.867 17.987 233.419 17.9876 232.963C17.9882 232.507 18.1112 232.059 18.3437 231.667C18.5763 231.275 18.9098 230.952 19.3096 230.732L35.9854 221.42L54.3908 211.146L66.999 204.124C68.3085 203.393 69.7835 203.01 71.2832 203.011C72.7625 203.013 74.2184 203.381 75.5218 204.08L124.49 230.717C124.896 230.936 125.236 231.262 125.473 231.659C125.709 232.056 125.834 232.51 125.834 232.972C125.833 233.434 125.708 233.888 125.471 234.285C125.233 234.681 124.893 235.006 124.486 235.225Z" fill="#120E1E"/>
<path d="M59.9546 235.082L62.0081 225.926L62.2051 221.142L59.881 223.954C59.5462 223.896 59.2069 223.868 58.8671 223.87C58.2262 223.876 57.5882 223.957 56.9664 224.112C54.5768 224.705 52.4994 226.347 52.1374 227.941L50.2927 236.005L48.917 237.687L49.0301 242.566C49.0674 242.86 49.1778 243.139 49.3511 243.38C49.5245 243.62 49.7552 243.813 50.0224 243.941L51.5033 244.629L101.676 234.832C104.246 234.331 106.584 232.816 107.121 231.301C107.232 230.962 107.275 230.604 107.248 230.248L107.388 226.041L84.4195 231.516L59.9546 235.082Z" fill="white"/>
<path d="M60.065 235.106L62.0749 226.255C62.088 226.162 62.0934 226.067 62.0908 225.973L62.1226 225.925L62.1205 221.071L59.9 223.842C59.5605 223.784 59.2166 223.757 58.8722 223.758C58.2212 223.762 57.573 223.845 56.9418 224.005C54.4228 224.625 52.3871 226.339 52.0292 227.913L50.2064 235.937L48.8027 237.687V242.605L48.9198 242.581C48.952 242.871 49.053 243.149 49.2146 243.392C49.3761 243.635 49.5934 243.835 49.8484 243.977C49.8882 243.997 49.9317 244.017 49.9736 244.04L51.4926 244.748L101.699 234.943C104.212 234.454 106.659 232.939 107.228 231.337C107.353 230.993 107.378 230.621 107.299 230.263L107.363 230.248V225.929L84.4028 231.408L60.065 235.106ZM107.14 226.216V230.104C107.115 230.131 107.096 230.163 107.086 230.198C107.075 230.234 107.074 230.271 107.08 230.307C107.15 230.625 107.128 230.956 107.017 231.261C106.492 232.744 104.188 234.231 101.655 234.72L51.5203 244.514L50.0552 243.83L49.9577 243.782C49.7327 243.657 49.541 243.48 49.3988 243.265C49.2566 243.051 49.1681 242.806 49.1406 242.55C49.1369 242.519 49.1266 242.49 49.1105 242.464C49.0943 242.438 49.0727 242.415 49.0471 242.399C49.0413 242.395 49.0332 242.39 49.0274 242.386V237.766L50.3812 236.076C50.4028 236.05 50.4178 236.018 50.425 235.985L52.246 227.965C52.6 226.41 54.6415 224.8 56.9935 224.219C57.608 224.065 58.2387 223.985 58.8722 223.981C59.2038 223.98 59.535 224.007 59.8622 224.061C59.8745 224.064 59.8873 224.066 59.9 224.065C59.9336 224.065 59.9668 224.057 59.9971 224.043C60.0275 224.029 60.0541 224.007 60.0751 223.981L61.8959 221.707L61.8999 225.854C61.8822 225.884 61.8714 225.918 61.8682 225.953C61.8641 225.997 61.8641 226.041 61.8641 226.08C61.8676 226.122 61.8656 226.163 61.8581 226.203L59.8463 235.058C59.8391 235.091 59.8393 235.125 59.8469 235.157C59.8545 235.19 59.8694 235.22 59.8904 235.246C59.9115 235.272 59.9381 235.293 59.9683 235.308C59.9985 235.322 60.0316 235.329 60.065 235.329H60.0968L84.4544 231.623L107.14 226.216Z" fill="#120E1E"/>
<path d="M102.644 224.057L60.7797 232.232C60.1496 232.355 59.6901 232.124 59.7778 231.73L62.0759 221.623C62.5133 219.695 60.1496 218.581 56.9428 219.373C54.4238 219.989 52.3881 221.699 52.0302 223.277L48.8574 237.246C48.7547 237.655 48.7976 238.088 48.9785 238.469C49.1594 238.851 49.4673 239.157 49.8494 239.337C49.8892 239.365 49.9327 239.381 49.9746 239.405L51.4936 240.112L101.7 230.307C104.213 229.818 106.66 228.303 107.229 226.701C107.954 224.661 105.704 223.456 102.644 224.057ZM54.3543 233.488C54.3593 233.489 54.3644 233.487 54.3683 233.484C54.3644 233.487 54.3593 233.489 54.3543 233.488Z" fill="#E20338"/>
<path d="M90.4487 50.3874L231.926 128.817C232.593 129.189 233.149 129.732 233.537 130.39C233.924 131.048 234.13 131.797 234.131 132.561V253.549C234.131 260.197 227.935 262.466 225.084 260.884L86.2952 178.872C85.6277 178.501 85.0714 177.959 84.6837 177.3C84.2961 176.642 84.0912 175.893 84.0901 175.129L80.1348 56.7563C80.1348 50.3416 87.5949 48.805 90.4487 50.3874Z" fill="#120E1E"/>
<path d="M231.324 134.795V256.733C231.324 257.482 231.13 258.218 230.76 258.869C230.39 259.52 229.856 260.063 229.212 260.445C228.568 260.827 227.836 261.035 227.087 261.047C226.338 261.06 225.599 260.878 224.942 260.518L83.3657 182.053L82.3205 181.472C81.6476 181.097 81.0881 180.548 80.701 179.882C80.3138 179.216 80.1132 178.458 80.1203 177.688V55.7189C80.1192 54.9709 80.3139 54.2356 80.6849 53.5861C81.056 52.9365 81.5905 52.3954 82.2354 52.0163C82.8802 51.6372 83.6131 51.4335 84.3611 51.4253C85.1091 51.4171 85.8462 51.6047 86.4993 51.9695L201.047 115.439L229.121 131.01C229.794 131.385 230.353 131.935 230.741 132.601C231.128 133.267 231.33 134.024 231.324 134.795Z" fill="#EF9CB0"/>
<path d="M126.581 153.601V156.704L132.146 159.903L132.141 156.8L126.581 153.601Z" fill="#120E1E"/>
<path d="M106.906 141.967L106.909 145.065L124.68 155.605V152.502L106.906 141.967Z" fill="#120E1E"/>
<path d="M134.846 161.46L158.731 175.205L158.744 172.107L134.848 158.352L134.846 161.46Z" fill="#120E1E"/>
<path d="M163.039 177.693L179.989 187.439L180.019 184.341L163.062 174.589L163.039 177.693Z" fill="#120E1E"/>
<path d="M183.189 189.285L191.743 194.21L191.781 191.102L183.218 186.188L183.189 189.285Z" fill="#120E1E"/>
<path d="M131.186 170.418L165.523 190.211L165.542 187.118L131.191 167.325L131.186 170.418Z" fill="#120E1E"/>
<path d="M185.324 201.621L191.624 205.252L191.652 202.16L185.349 198.528L185.324 201.621Z" fill="#120E1E"/>
<path d="M169.433 192.465L182.685 200.101L182.713 197.012L169.456 189.377L169.433 192.465Z" fill="#120E1E"/>
<path d="M106.925 153.041L106.927 156.129L128.26 168.724L128.252 165.636L106.925 153.041Z" fill="#120E1E"/>
<path d="M106.917 150.645L142.677 171.553L142.685 168.454L106.914 147.552L106.917 150.645Z" fill="#120E1E"/>
<path d="M146.711 173.872L172.985 189.01L173.007 185.918L146.719 170.779L146.711 173.872Z" fill="#120E1E"/>
<path d="M134.833 177.753L158.645 191.499L158.665 188.411L134.836 174.666L134.833 177.753Z" fill="#120E1E"/>
<path d="M162.942 193.976L172.903 199.713L172.925 196.63L162.963 190.887L162.942 193.976Z" fill="#120E1E"/>
<path d="M106.933 158.286L106.941 161.363L132.138 176.202V173.119L106.933 158.286Z" fill="#120E1E"/>
<path d="M126.581 175.957V179.055L132.146 182.254L132.141 179.152L126.581 175.957Z" fill="#120E1E"/>
<path d="M106.906 164.319L106.909 167.416L124.68 177.957V174.854L106.906 164.319Z" fill="#120E1E"/>
<path d="M134.846 183.812L158.731 197.561L158.744 194.459L134.848 180.703L134.846 183.812Z" fill="#120E1E"/>
<path d="M163.039 200.044L179.989 209.79L180.019 206.693L163.062 196.936L163.039 200.044Z" fill="#120E1E"/>
<path d="M183.189 211.633L191.743 216.561L191.781 213.458L183.218 208.539L183.189 211.633Z" fill="#120E1E"/>
<path d="M131.186 192.769L165.523 212.563L165.542 209.47L131.191 189.672L131.186 192.769Z" fill="#120E1E"/>
<path d="M185.324 223.973L191.624 227.6L191.652 224.512L185.349 220.88L185.324 223.973Z" fill="#120E1E"/>
<path d="M169.433 214.817L182.685 222.452L182.713 219.364L169.456 211.724L169.433 214.817Z" fill="#120E1E"/>
<path d="M106.925 175.388L106.927 178.481L128.26 191.076L128.252 187.988L106.925 175.388Z" fill="#120E1E"/>
<path d="M106.917 172.997L142.677 193.904L142.685 190.807L106.914 169.9L106.917 172.997Z" fill="#120E1E"/>
<path d="M146.711 196.224L172.985 211.357L173.007 208.27L146.719 193.131L146.711 196.224Z" fill="#120E1E"/>
<path d="M134.833 200.105L158.645 213.845L158.665 210.762L134.836 197.018L134.833 200.105Z" fill="#120E1E"/>
<path d="M162.942 216.322L172.903 222.065L172.925 218.988L162.963 213.24L162.942 216.322Z" fill="#120E1E"/>
<path d="M106.933 180.638L106.941 183.72L132.138 198.553V195.471L106.933 180.638Z" fill="#120E1E"/>
<path d="M163.132 119.524L165.543 117.28L196.95 148.055L194.538 150.3L163.132 119.524Z" fill="#120E1E"/>
<path d="M161.334 143.462L163.75 141.224L184.054 145.38L184.507 148.224L161.334 143.462Z" fill="#120E1E"/>
<path d="M136.289 137.826L104.915 107.015L105.442 100.03L138.697 105.697L138.082 113.917L114.962 108.948L136.902 129.667L136.289 137.826Z" fill="white"/>
<path d="M138.864 145.049L153.815 107.894L160.601 111.725L145.52 148.804L138.864 145.049Z" fill="white"/>
<path d="M160.724 151.627L161.334 143.462L184.507 148.224L162.524 127.626L163.132 119.523L194.539 150.299L194.02 157.222L160.724 151.627Z" fill="white"/>
<path d="M194.539 150.3L196.951 148.056L196.432 154.98L194.021 157.223L194.539 150.3Z" fill="#120E1E"/>
<path d="M153.817 107.895L156.231 105.657L163.012 109.477L160.603 111.725L153.817 107.895Z" fill="#120E1E"/>
<path d="M145.522 148.804L147.934 146.555L163.011 109.476L160.603 111.725L145.522 148.804Z" fill="#120E1E"/>
<path d="M105.443 100.031L107.854 97.7871L141.113 103.448L138.699 105.698L105.443 100.031Z" fill="#120E1E"/>
<path d="M138.083 113.918L140.497 111.675L141.113 103.448L138.698 105.698L138.083 113.918Z" fill="#120E1E"/>
<path d="M136.9 129.667L139.311 127.419L121.156 110.276L114.96 108.948L136.9 129.667Z" fill="#120E1E"/>
<path d="M136.287 137.826L138.698 135.588L139.311 127.419L136.9 129.667L136.287 137.826Z" fill="#120E1E"/>
<defs>
<linearGradient id="paint0_linear_927_33470" x1="86.6795" y1="243.449" x2="157.526" y2="293.705" gradientUnits="userSpaceOnUse">
<stop stop-color="#E20338"/>
<stop offset="1" stop-color="white" stop-opacity="0"/>
</linearGradient>
</defs>
</svg>
