<svg width="249" height="333" viewBox="0 0 249 333" fill="none" xmlns="http://www.w3.org/2000/svg">
<path style="mix-blend-mode:multiply" d="M173.209 296.813L220.692 322.074L249.001 316.334L195.195 293.775L173.209 296.813Z" fill="url(#paint0_linear_927_34441)"/>
<path d="M195.061 222.884V219.53C195.047 212.128 195.029 204.577 195.002 197.043C195.002 196.391 194.984 195.742 194.984 195.093C194.953 185.337 194.91 175.655 194.865 166.533C194.698 137.911 194.094 114.81 194.094 111.678C194.094 103.997 193.064 99.0949 181.287 92.2985L124.255 61.0051C120.617 59.0114 117.324 58.8612 115.027 60.3104C114.224 60.8079 112.052 62.2585 111.553 62.5904C111.738 62.4855 111.933 62.3773 112.129 62.2882C112.3 62.2079 112.476 62.1374 112.656 62.077C112.702 62.0525 112.754 62.0371 112.806 62.0316C113.023 61.9579 113.245 61.8972 113.469 61.85H113.546C113.769 61.8001 113.996 61.7651 114.224 61.7453C114.481 61.714 114.74 61.6983 114.999 61.6982C116.993 61.7677 118.939 62.3342 120.659 63.3462L144.251 76.2894L155.459 82.4347L163.63 86.9215L177.694 94.6395C178.087 94.8458 178.469 95.0731 178.839 95.3204C179.074 95.4574 179.302 95.6084 179.519 95.7725C179.59 95.8038 179.652 95.8503 179.701 95.9088C179.914 96.0449 180.106 96.1811 180.302 96.3313C180.773 96.6786 181.227 97.0575 181.681 97.4363C181.859 97.6161 182.044 97.782 182.222 97.9462C182.4 98.1154 182.586 98.2795 182.767 98.4611C182.784 98.4785 182.798 98.4985 182.809 98.5204C182.994 98.7195 183.189 98.9133 183.371 99.0949C187.627 103.657 190.424 109.941 190.623 115.919C190.623 115.919 190.623 116.659 190.637 118.037C190.637 118.684 190.637 119.472 190.651 120.392C190.71 127.883 190.801 144.391 190.923 164.358C190.969 173.63 191.014 183.644 191.073 193.855C191.073 194.506 191.073 195.14 191.088 195.787C191.147 205.182 191.178 214.712 191.223 223.926C191.241 224.939 191.241 225.981 191.241 226.978C191.437 261.893 191.59 291.53 191.59 291.53C191.59 292.071 191.59 292.616 191.555 293.178V293.478C191.542 294.524 191.425 295.566 191.206 296.589C191.198 296.662 191.178 296.733 191.147 296.799C191.119 296.98 191.075 297.157 191.014 297.329C190.973 297.493 190.921 297.654 190.86 297.811C190.801 297.962 190.742 298.115 190.679 298.279C190.574 298.492 190.469 298.702 190.347 298.901C190.27 299.064 190.18 299.22 190.078 299.369C190.047 299.414 190.016 299.456 189.984 299.501C189.834 299.72 189.669 299.928 189.488 300.123C189.281 300.363 189.053 300.585 188.807 300.786C188.728 300.865 188.642 300.937 188.549 300.999C188.929 300.741 191.981 298.779 192.086 298.688C195.497 296.135 195.183 291.844 195.183 288.388C195.183 282.965 195.166 255.026 195.061 222.884Z" fill="black"/>
<path d="M191.555 293.178C191.541 288.007 191.391 259.617 191.206 227.023C191.206 226.01 191.206 224.982 191.195 223.955C191.147 214.712 191.104 205.167 191.059 195.787C191.045 195.14 191.045 194.506 191.045 193.855C190.982 183.628 190.937 173.616 190.892 164.342C190.787 146.292 190.696 131.067 190.665 122.733C190.651 121.872 190.651 121.102 190.651 120.391C190.637 119.471 190.637 118.684 190.637 118.036C190.623 116.659 190.623 115.919 190.623 115.919C190.574 111.193 190.912 107.363 187.752 103.059C187.311 102.455 186.838 101.875 186.334 101.322C186.093 101.018 185.821 100.73 185.549 100.444C185.367 100.263 185.172 100.069 184.987 99.8697C184.976 99.8478 184.962 99.8278 184.945 99.8104C184.763 99.6445 184.578 99.4646 184.4 99.2954C184.222 99.1313 184.037 98.9654 183.859 98.7855C183.405 98.4068 182.951 98.0279 182.48 97.6806C182.284 97.5304 182.092 97.3941 181.879 97.2581C181.83 97.1996 181.767 97.153 181.697 97.1218C181.47 96.9559 181.244 96.8059 181.017 96.6697C180.647 96.4223 180.265 96.195 179.872 95.9888L163.629 86.9213L155.459 82.4345L144.251 76.2892L120.658 63.346C118.938 62.3339 116.993 61.7675 114.998 61.698C114.739 61.6981 114.48 61.7138 114.223 61.7451C113.995 61.7649 113.769 61.7998 113.546 61.8497H113.469C113.244 61.897 113.023 61.9577 112.806 62.0314C112.753 62.0368 112.702 62.0522 112.655 62.0767C112.476 62.1372 112.3 62.2077 112.128 62.288C111.933 62.3771 111.737 62.4853 111.552 62.5902C111.538 62.5902 111.524 62.6041 111.507 62.6041C109.272 63.9345 107.928 66.6823 107.96 70.5648V247.218C107.97 248.375 108.09 249.527 108.319 250.661V250.675C109.258 255.038 111.228 259.113 114.063 262.56C114.769 263.452 115.53 264.299 116.343 265.095C116.751 265.49 117.17 265.853 117.593 266.23C117.778 266.38 117.973 266.534 118.169 266.684C119.027 267.364 119.941 267.971 120.903 268.496L125.69 271.153L132.411 274.872L135.295 276.47L148.116 283.569L156.667 288.297L160.051 290.168L162.089 291.289L177.721 299.941L178.901 300.591C182.767 302.721 186.209 302.721 188.549 300.999C188.641 300.937 188.728 300.865 188.807 300.786C188.884 300.713 188.96 300.636 189.034 300.577C189.193 300.433 189.345 300.282 189.488 300.123C189.668 299.928 189.834 299.72 189.984 299.501C190.015 299.456 190.047 299.414 190.078 299.368C190.165 299.218 190.256 299.068 190.347 298.901C190.469 298.702 190.574 298.492 190.678 298.279C190.741 298.115 190.8 297.961 190.86 297.811C190.921 297.654 190.973 297.493 191.014 297.329C191.074 297.157 191.119 296.979 191.146 296.799C191.178 296.733 191.198 296.662 191.206 296.589C191.419 295.748 191.542 294.887 191.573 294.02C191.573 294.02 191.573 293.824 191.555 293.478V293.178Z" fill="url(#paint1_linear_927_34441)"/>
<g style="mix-blend-mode:screen">
<g style="mix-blend-mode:screen" opacity="0.3">
<path d="M110.408 245.507L189.028 287.295L189.14 286.89L110.52 245.099L110.408 245.507Z" fill="white"/>
</g>
</g>
<g style="mix-blend-mode:screen">
<g style="mix-blend-mode:screen" opacity="0.3">
<path d="M111.438 69.2468L187.122 110.269L187.23 109.87L111.544 68.8503L111.438 69.2468Z" fill="white"/>
</g>
</g>
<g style="mix-blend-mode:screen">
<g style="mix-blend-mode:screen" opacity="0.3">
<path d="M165.405 280.35L176.889 286.453L177.001 286.048L165.517 279.948L165.405 280.35Z" fill="white"/>
</g>
</g>
<g style="mix-blend-mode:screen">
<g style="mix-blend-mode:screen" opacity="0.3">
<path d="M165.258 282.395L176.742 288.498L176.854 288.097L165.373 281.99L165.258 282.395Z" fill="white"/>
</g>
</g>
<g style="mix-blend-mode:screen">
<g style="mix-blend-mode:screen" opacity="0.3">
<path d="M165.111 284.446L176.595 290.548L176.703 290.147L165.223 284.04L165.111 284.446Z" fill="white"/>
</g>
</g>
<g style="mix-blend-mode:screen">
<g style="mix-blend-mode:screen" opacity="0.3">
<path d="M123.111 257.54L118.143 258.175C118.109 258.178 118.078 258.192 118.053 258.215C118.029 258.237 118.012 258.267 118.007 258.301C118 258.341 118.002 258.382 118.013 258.421C118.024 258.46 118.043 258.496 118.069 258.527L122.189 263.695L122.486 263.447L118.614 258.587L123.261 258.001L123.111 257.54Z" fill="white"/>
</g>
</g>
<path d="M184.019 132.167L184.144 178.406L226.667 201.145C226.692 201.159 226.712 201.152 226.736 201.164L226.611 154.912L184.141 132.2C184.099 132.176 184.06 132.185 184.019 132.167Z" fill="white"/>
<path d="M200.567 175.279L216.264 171.297L200.333 153.033L200.567 175.279Z" fill="#120E1E"/>
<path d="M180.077 181.466L162.545 172.09C161.347 171.449 160.194 172.218 160.21 173.651L160.355 187.315C160.349 187.79 160.482 188.274 160.738 188.712C160.994 189.149 161.363 189.523 161.801 189.788L179.333 199.164C180.533 199.806 181.684 199.036 181.668 197.603L181.527 183.939C181.531 183.464 181.397 182.98 181.14 182.542C180.884 182.105 180.515 181.732 180.077 181.466Z" fill="white"/>
<path d="M207.099 223.798L140.151 187.997C138.777 187.259 137.666 188.033 137.669 189.72L137.81 241.52C137.813 243.208 138.932 245.175 140.308 245.911L207.255 281.712C208.631 282.448 209.742 281.676 209.737 279.987L209.6 228.188C209.595 226.498 208.476 224.533 207.099 223.798Z" fill="white"/>
<path d="M206.01 222.575L141.241 187.935C139.263 186.877 137.665 187.988 137.674 190.415L137.688 195.791L209.615 234.258L209.601 228.881C209.594 226.456 207.986 223.632 206.01 222.575Z" fill="#120E1E"/>
<path d="M204.592 224.854C203.921 224.496 203.379 224.871 203.382 225.693C203.385 226.1 203.499 226.513 203.713 226.889C203.927 227.265 204.233 227.591 204.599 227.832C205.27 228.19 205.81 227.815 205.809 226.993C205.806 226.586 205.692 226.173 205.478 225.797C205.264 225.421 204.958 225.095 204.592 224.854Z" fill="white"/>
<path d="M199.12 221.929C198.451 221.569 197.909 221.946 197.912 222.769C197.914 223.175 198.027 223.588 198.241 223.964C198.455 224.34 198.761 224.666 199.127 224.907C199.798 225.266 200.34 224.888 200.337 224.066C200.335 223.66 200.221 223.247 200.007 222.871C199.793 222.495 199.487 222.17 199.12 221.929Z" fill="white"/>
<path d="M193.651 219.005C192.982 218.647 192.44 219.02 192.441 219.844C192.445 220.251 192.559 220.664 192.773 221.04C192.988 221.416 193.294 221.742 193.66 221.983C194.331 222.34 194.871 221.966 194.87 221.142C194.867 220.736 194.753 220.323 194.539 219.947C194.324 219.571 194.018 219.245 193.651 219.005Z" fill="white"/>
<path d="M196.821 178.899L179.29 169.521C178.091 168.881 176.94 169.649 176.954 171.082L177.097 184.746C177.092 185.221 177.225 185.706 177.482 186.144C177.738 186.582 178.108 186.954 178.547 187.219L196.081 196.595C197.277 197.238 198.428 196.467 198.413 195.034L198.271 181.372C198.277 180.897 198.143 180.412 197.887 179.974C197.63 179.536 197.26 179.163 196.821 178.899Z" fill="#120E1E"/>
<path d="M70.4066 163.373L70.4886 193.375L114.792 217.324C114.845 217.352 114.895 217.36 114.947 217.384L114.865 187.38L70.589 163.445C70.527 163.412 70.4696 163.4 70.4066 163.373Z" fill="#120E1E"/>
<path d="M81.5088 179.536L81.5724 180.819L83.9414 182.052L83.8748 180.769L81.5088 179.536Z" fill="white"/>
<path d="M73.1279 175.043L73.193 176.325L80.7633 180.397L80.6996 179.112L73.1279 175.043Z" fill="white"/>
<path d="M85.0901 182.653L95.2569 187.95L95.1987 186.668L85.0278 181.368L85.0901 182.653Z" fill="white"/>
<path d="M97.0891 188.908L104.303 192.663L104.252 191.383L97.0351 187.623L97.0891 188.908Z" fill="white"/>
<path d="M105.665 193.375L109.307 195.272L109.258 193.988L105.614 192.094L105.665 193.375Z" fill="white"/>
<path d="M83.7588 186.417L98.3744 194.046L98.3191 192.765L83.6982 185.137L83.7588 186.417Z" fill="white"/>
<path d="M106.802 198.443L109.484 199.844L109.431 198.563L106.749 197.164L106.802 198.443Z" fill="white"/>
<path d="M100.039 194.913L105.678 197.858L105.627 196.579L99.9852 193.636L100.039 194.913Z" fill="white"/>
<path d="M73.3613 179.623L73.4262 180.901L82.5121 185.765L82.4459 184.488L73.3613 179.623Z" fill="white"/>
<path d="M73.3097 178.634L88.5383 186.7L88.4772 185.419L73.2451 177.353L73.3097 178.634Z" fill="white"/>
<path d="M90.2539 187.593L101.437 193.427L101.384 192.148L90.1933 186.314L90.2539 187.593Z" fill="white"/>
<path d="M85.4188 189.392L95.5548 194.689L95.4996 193.412L85.3569 188.115L85.4188 189.392Z" fill="white"/>
<path d="M97.3836 195.644L101.622 197.857L101.568 196.581L97.3285 194.367L97.3836 195.644Z" fill="white"/>
<path d="M73.4736 181.793L73.5393 183.067L84.2714 188.794L84.2082 187.519L73.4736 181.793Z" fill="white"/>
<path d="M143.924 119.431C143.12 119.002 142.471 119.452 142.473 120.438C142.476 120.925 142.613 121.42 142.87 121.871C143.127 122.322 143.494 122.712 143.933 123.001C144.736 123.43 145.385 122.978 145.383 121.994C145.38 121.507 145.243 121.012 144.987 120.561C144.73 120.11 144.363 119.72 143.924 119.431Z" fill="white"/>
<path d="M157.296 126.581C156.491 126.152 155.843 126.604 155.845 127.589C155.847 128.076 155.984 128.571 156.24 129.022C156.497 129.472 156.864 129.863 157.303 130.151C158.106 130.581 158.755 130.131 158.752 129.144C158.749 128.657 158.613 128.163 158.357 127.712C158.1 127.261 157.734 126.871 157.296 126.581Z" fill="white"/>
<path d="M170.667 133.733C169.864 133.302 169.217 133.754 169.219 134.741C169.222 135.227 169.359 135.722 169.615 136.172C169.871 136.623 170.238 137.013 170.676 137.302C171.48 137.733 172.129 137.281 172.127 136.295C172.124 135.808 171.988 135.313 171.731 134.862C171.474 134.411 171.106 134.021 170.667 133.733Z" fill="white"/>
<path d="M143.963 133.216C143.157 132.787 142.51 133.239 142.512 134.224C142.514 134.711 142.65 135.206 142.907 135.657C143.164 136.108 143.531 136.498 143.97 136.787C144.773 137.216 145.423 136.766 145.419 135.779C145.417 135.292 145.281 134.798 145.024 134.347C144.768 133.896 144.402 133.506 143.963 133.216Z" fill="white"/>
<path d="M157.334 140.367C156.53 139.938 155.881 140.389 155.883 141.374C155.885 141.861 156.022 142.356 156.279 142.807C156.536 143.258 156.903 143.648 157.343 143.937C158.145 144.366 158.792 143.916 158.79 142.93C158.788 142.443 158.651 141.948 158.395 141.497C158.139 141.047 157.772 140.656 157.334 140.367Z" fill="white"/>
<path d="M170.705 147.519C169.902 147.088 169.254 147.54 169.255 148.525C169.258 149.012 169.395 149.507 169.652 149.958C169.908 150.409 170.275 150.8 170.714 151.089C171.519 151.519 172.165 151.067 172.164 150.082C172.161 149.595 172.024 149.1 171.768 148.649C171.511 148.198 171.144 147.808 170.705 147.519Z" fill="white"/>
<path d="M143.997 147.002C143.195 146.572 142.546 147.024 142.548 148.009C142.55 148.496 142.687 148.991 142.944 149.442C143.201 149.893 143.568 150.283 144.008 150.572C144.809 151.001 145.459 150.551 145.457 149.565C145.455 149.077 145.318 148.582 145.061 148.131C144.804 147.681 144.437 147.29 143.997 147.002Z" fill="white"/>
<path d="M157.368 154.154C156.566 153.723 155.917 154.175 155.921 155.161C155.924 155.648 156.06 156.142 156.316 156.593C156.573 157.043 156.939 157.433 157.377 157.722C158.181 158.152 158.83 157.702 158.828 156.715C158.826 156.228 158.689 155.733 158.432 155.283C158.175 154.832 157.808 154.442 157.368 154.154Z" fill="white"/>
<path d="M170.74 161.305C169.937 160.876 169.288 161.326 169.29 162.312C169.294 162.799 169.431 163.293 169.687 163.744C169.943 164.194 170.31 164.584 170.749 164.873C171.555 165.302 172.202 164.853 172.198 163.868C172.196 163.38 172.06 162.885 171.803 162.435C171.546 161.984 171.179 161.593 170.74 161.305Z" fill="white"/>
<path d="M133.512 233.081L130.656 234.455L131.375 235.936L134.53 234.794L135.949 237.85L135.991 237.888L139.425 231.281L132.171 229.725L133.512 233.081Z" fill="#120E1E"/>
<path d="M132.194 229.556C132.186 229.554 132.177 229.553 132.169 229.552C132.087 229.552 132.043 229.654 132.089 229.753L133.51 232.809C133.529 232.844 133.535 232.882 133.527 232.917C133.519 232.952 133.498 232.982 133.468 233L130.617 234.291C130.587 234.309 130.565 234.338 130.558 234.374C130.55 234.409 130.556 234.448 130.575 234.483L131.247 235.926C131.257 235.953 131.276 235.978 131.3 235.996C131.324 236.014 131.352 236.024 131.381 236.026C131.395 236.026 131.409 236.023 131.422 236.018L134.272 234.728C134.285 234.723 134.298 234.72 134.313 234.72C134.342 234.722 134.37 234.734 134.394 234.752C134.418 234.77 134.437 234.794 134.449 234.822L135.868 237.876C135.878 237.904 135.897 237.928 135.921 237.946C135.946 237.964 135.974 237.975 136.003 237.977C136.021 237.977 136.039 237.972 136.053 237.963C136.068 237.955 136.08 237.942 136.087 237.926L139.547 231.442C139.558 231.421 139.563 231.398 139.564 231.373C139.564 231.349 139.558 231.324 139.548 231.3C139.537 231.276 139.521 231.255 139.502 231.236C139.483 231.218 139.46 231.204 139.435 231.195L132.194 229.556ZM135.983 237.721L134.61 234.763C134.582 234.701 134.537 234.646 134.479 234.607C134.422 234.567 134.355 234.545 134.289 234.543C134.251 234.546 134.214 234.554 134.179 234.566L131.392 235.832L130.744 234.437L133.561 233.162C133.63 233.127 133.68 233.065 133.701 232.99C133.722 232.914 133.711 232.83 133.672 232.754L132.276 229.751L139.384 231.343L135.983 237.721Z" fill="#838189"/>
<path d="M127.441 105.537L84.2303 82.4288C82.1608 81.3212 80.4892 82.4824 80.4957 85.0228L80.6376 138.055C80.6457 140.594 82.3276 143.551 84.3986 144.657L127.608 167.767C129.677 168.873 131.35 167.71 131.342 165.171L131.202 112.14C131.194 109.6 129.51 106.642 127.441 105.537Z" fill="white"/>
<path d="M95.5069 119.715L116.258 130.81L116.331 130.481L95.5816 119.385L95.5069 119.715Z" fill="#120E1E"/>
<path d="M105.799 137.792L106.11 137.87L106.039 112.402L105.73 112.325L105.799 137.792Z" fill="#120E1E"/>
<path d="M126.438 109.109L85.3304 87.1274C85.1661 87.0267 84.9821 86.9701 84.7995 86.9639C84.6168 86.9578 84.4428 87.0025 84.2974 87.0928C84.1423 87.2146 84.0214 87.3727 83.9437 87.5555C83.866 87.7384 83.8334 87.9416 83.8482 88.1502L83.9836 138.601C83.9877 139.073 84.1213 139.553 84.3707 139.99C84.6201 140.427 84.9762 140.805 85.402 141.086L126.508 163.069C126.673 163.169 126.857 163.225 127.04 163.231C127.222 163.237 127.397 163.192 127.542 163.101C127.697 162.98 127.818 162.822 127.896 162.64C127.974 162.457 128.007 162.254 127.992 162.046L127.855 111.595C127.851 111.123 127.718 110.643 127.468 110.205C127.219 109.768 126.863 109.389 126.438 109.109ZM127.681 161.968C127.694 162.126 127.671 162.28 127.614 162.419C127.557 162.558 127.467 162.679 127.352 162.773C127.242 162.838 127.112 162.87 126.976 162.865C126.84 162.859 126.703 162.816 126.581 162.74L85.475 140.757C85.1189 140.522 84.8213 140.205 84.6133 139.839C84.4053 139.474 84.2944 139.072 84.2924 138.677L84.1585 88.2262C84.1454 88.0684 84.1683 87.9143 84.2253 87.7751C84.2823 87.6359 84.372 87.5151 84.488 87.4215C84.5974 87.3555 84.7277 87.3237 84.864 87.3299C85.0003 87.336 85.1371 87.3798 85.2589 87.4562L126.365 109.439C126.72 109.674 127.018 109.99 127.225 110.356C127.433 110.722 127.544 111.123 127.546 111.518L127.681 161.968Z" fill="#120E1E"/>
<path d="M102.23 118.081C101.93 118.081 101.737 118.354 101.737 118.775L101.759 126.886C101.76 127.189 101.845 127.497 102.004 127.778C102.163 128.059 102.39 128.302 102.663 128.483L109.271 132.017C109.377 132.076 109.492 132.109 109.607 132.112C109.907 132.112 110.099 131.839 110.099 131.418L110.078 123.307C110.077 123.004 109.992 122.697 109.833 122.416C109.674 122.135 109.447 121.892 109.174 121.712L102.23 118.081Z" fill="white"/>
<path d="M102.601 118.1C102.481 118.033 102.349 117.996 102.218 117.993C101.881 117.993 101.646 118.28 101.647 118.763L101.669 126.874C101.671 127.195 101.761 127.52 101.93 127.816C102.098 128.113 102.339 128.369 102.628 128.56L109.236 132.094C109.356 132.161 109.488 132.198 109.619 132.201C109.956 132.201 110.192 131.914 110.19 131.431L110.169 123.32C110.167 122.999 110.077 122.674 109.909 122.378C109.74 122.082 109.499 121.825 109.21 121.636L102.601 118.1ZM110.011 131.408C110.01 131.782 109.848 132.023 109.595 132.023C109.496 132.02 109.396 131.992 109.305 131.941L102.698 128.408C102.443 128.234 102.23 128.003 102.081 127.738C101.932 127.473 101.851 127.183 101.848 126.897L101.826 118.786C101.827 118.412 101.989 118.171 102.242 118.171C102.341 118.174 102.441 118.202 102.532 118.253L109.141 121.79C109.396 121.963 109.609 122.193 109.757 122.458C109.906 122.722 109.986 123.012 109.988 123.297L110.011 131.408Z" fill="#838189"/>
<path d="M105.941 123.763L98.0637 137.274C95.8144 141.321 95.9854 147.762 98.5424 154.226L100.424 158.957L105.777 161.835L106.365 162.157L111.716 165.038L113.573 162.299C116.088 158.575 116.22 152.293 113.945 145.81L105.941 123.763ZM106.028 151.588C104.091 150.542 102.507 147.743 102.487 145.326C102.493 142.931 104.065 141.844 106 142.889C107.959 143.938 109.54 146.715 109.539 149.131C109.554 151.528 107.985 152.634 106.028 151.588Z" fill="#120E1E"/>
<path d="M101.097 158.921C100.736 158.73 100.449 158.931 100.448 159.374L100.46 163.164C100.461 163.382 100.522 163.603 100.636 163.805C100.75 164.007 100.914 164.182 101.11 164.311L110.644 169.409C111.004 169.601 111.295 169.399 111.294 168.958L111.284 165.166C111.283 164.948 111.221 164.726 111.106 164.524C110.991 164.323 110.827 164.148 110.63 164.019L101.097 158.921Z" fill="#120E1E"/>
<path d="M165.379 244.752C160.904 240.319 159.024 232.46 161.174 227.205C161.603 226.111 162.254 225.138 163.093 224.337C161.311 224.901 159.803 226.338 158.872 228.603C156.659 234.011 158.597 242.089 163.196 246.647C167.283 250.702 172.102 250.612 174.673 246.753C172.074 248.462 168.508 247.852 165.379 244.752Z" fill="#120E1E"/>
<path d="M177.229 234.192C177.568 235.281 177.827 236.382 178.003 237.487C177.827 236.382 177.568 235.281 177.229 234.192Z" fill="url(#paint2_linear_927_34441)"/>
<path d="M175.059 250.144L175.699 251.601L178.344 250.001L177.703 248.543L175.059 250.144Z" fill="#120E1E"/>
<path d="M161.862 220.289L162.506 221.748L165.148 220.146L164.506 218.687L161.862 220.289Z" fill="#120E1E"/>
<path d="M177.618 245.666C177.143 247.373 176.269 248.903 175.059 250.144L177.704 248.544C178.498 247.738 179.141 246.796 179.609 245.754L178.717 246.318L177.618 245.666Z" fill="#120E1E"/>
<path d="M165.148 220.146L162.507 221.748C163.987 221.359 165.617 221.457 167.165 222.029L167.357 220.62L168.289 220.03C167.216 219.842 166.144 219.882 165.148 220.146Z" fill="#120E1E"/>
<path d="M178.717 246.319L179.609 245.754L181.36 244.716L182.022 239.864L179.379 241.464L178.717 246.319Z" fill="#120E1E"/>
<path d="M178.276 240.812L179.377 241.465L182.02 239.864L180.92 239.208L178.276 240.812Z" fill="#120E1E"/>
<path d="M170.972 224.29L173.617 222.688L173.808 221.276L171.163 222.878L170.972 224.29Z" fill="#120E1E"/>
<path d="M178.147 233.66L177.236 234.193H177.231C177.57 235.281 177.829 236.383 178.005 237.488C178.185 238.598 178.277 239.71 178.278 240.812L180.922 239.208C180.91 237.008 180.557 234.779 179.876 232.595L178.147 233.66Z" fill="#120E1E"/>
<path d="M170.974 224.29C172.588 225.69 173.955 227.345 175.001 229.169L177.704 227.663C176.648 225.803 175.261 224.114 173.619 222.688L170.974 224.29Z" fill="#120E1E"/>
<path d="M175.92 228.631L178.145 233.659L179.875 232.595L180.787 232.059L178.565 227.028L175.92 228.631Z" fill="#120E1E"/>
<path d="M177.4 234.094L178.144 233.658L175.919 228.631L175.193 229.053C174.341 227.578 173.288 226.207 172.069 224.981C171.72 224.636 171.366 224.315 171.013 224.019L171.165 222.88L167.355 220.62L167.195 221.805C165.605 221.241 163.938 221.164 162.433 221.587L161.863 220.291L158.701 222.126L159.289 223.448C158.337 224.411 157.591 225.558 157.087 226.834C156.935 227.211 156.798 227.598 156.675 227.995L155.691 227.412L155.029 232.268L155.979 232.831C155.968 235.09 156.316 237.384 157.01 239.631L156.265 240.068L158.486 245.1L159.213 244.671C160.063 246.147 161.116 247.521 162.336 248.746C162.684 249.094 163.04 249.411 163.396 249.71L163.244 250.851L167.049 253.109L167.211 251.925C168.801 252.489 170.467 252.566 171.972 252.143L172.543 253.44L175.701 251.602L175.12 250.281C176.071 249.317 176.815 248.17 177.318 246.893C177.474 246.519 177.607 246.13 177.729 245.734L178.716 246.318L179.376 241.466L178.43 240.902C178.438 238.639 178.091 236.344 177.4 234.094ZM175.534 245.123C173.319 250.525 167.799 251.209 163.196 246.647C158.597 242.089 156.66 234.011 158.873 228.603C161.085 223.202 166.611 222.516 171.21 227.08C175.81 231.642 177.746 239.72 175.534 245.123Z" fill="#E20338"/>
<path d="M168.287 220.03L167.355 220.62L171.163 222.878L173.807 221.276L169.998 219.017L168.287 220.03Z" fill="#120E1E"/>
<defs>
<linearGradient id="paint0_linear_927_34441" x1="173.209" y1="284.399" x2="234.715" y2="322.074" gradientUnits="userSpaceOnUse">
<stop stop-color="#E20338"/>
<stop offset="1" stop-color="white" stop-opacity="0"/>
</linearGradient>
<linearGradient id="paint1_linear_927_34441" x1="96" y1="61.698" x2="238" y2="302.243" gradientUnits="userSpaceOnUse">
<stop stop-color="#E20338"/>
<stop offset="1" stop-color="#F28EA6"/>
</linearGradient>
<linearGradient id="paint2_linear_927_34441" x1="177.449" y1="235.84" x2="177.778" y2="235.796" gradientUnits="userSpaceOnUse">
<stop stop-color="#D3D8EB"/>
<stop offset="1" stop-color="#7F8BC9"/>
</linearGradient>
</defs>
</svg>
