<svg width="299" height="98" viewBox="0 0 299 98" fill="none" xmlns="http://www.w3.org/2000/svg">
<path d="M40.9503 75.7875L91.8717 39.4342L92.0811 39.2847V39.0273V10.982V10.7788L91.9394 10.6332L82.7054 1.15116L82.5582 1H82.3472H16.773H16.562L16.4148 1.15116L7.18085 10.6332L7.03906 10.7788V10.982V29.5453V30.0453H7.53906H26.2746H26.7746V29.5453V20.6969H72.4795V29.4211L7.249 75.8802L7.03906 76.0298V76.2875V94.9844V95.4844H7.53906H91.5811H92.0811V94.9844V76.2875V75.7875H91.5811H40.9503ZM183.751 95.4844H183.958L184.104 95.3383L193.338 86.1234L193.485 85.9769V85.7695V10.982V10.7788L193.343 10.6332L184.109 1.15116L183.962 1H183.751H118.177H117.966L117.819 1.15116L108.585 10.6332L108.443 10.7788V10.982V85.7695V85.9769L108.59 86.1234L117.824 95.3383L117.97 95.4844H118.177H183.751ZM287.805 95.4844H288.012L288.158 95.3383L297.392 86.1234L297.539 85.9769V85.7695V10.982V10.7788L297.397 10.6332L288.163 1.15116L288.016 1H287.805H222.231H222.02L221.873 1.15116L212.639 10.6332L212.497 10.7788V10.982V85.7695V85.9769L212.644 86.1234L221.878 95.3383L222.024 95.4844H222.231H287.805ZM161.308 20.6969L128.178 62.6934V20.6969H161.308ZM173.883 75.7875H141.416L173.883 34.2034V75.7875ZM265.362 20.6969L232.232 62.6934V20.6969H265.362ZM277.937 75.7875H245.471L277.937 34.2034V75.7875Z" stroke="#120E1E"/>
<path d="M65.4404 23.2125V32.6945L0 79.3031V98H84.0421V79.3031H31.8503L84.0421 42.0429V13.9976L74.8082 4.51562H9.23392L0 13.9976V32.5609H18.7355V23.2125H65.4404Z" fill="#120E1E"/>
<path d="M120.139 67.1502V23.2125H154.8L120.139 67.1502ZM166.844 79.3031H132.853L166.844 35.7661V79.3031ZM176.212 98L185.446 88.7851V13.9976L176.212 4.51562H110.638L101.404 13.9976V88.7851L110.638 98H176.212Z" fill="#120E1E"/>
<path d="M224.193 67.1502V23.2125H258.854L224.193 67.1502ZM270.898 79.3031H236.907L270.898 35.7661V79.3031ZM280.266 98L289.5 88.7851V13.9976L280.266 4.51562H214.692L205.458 13.9976V88.7851L214.692 98H280.266Z" fill="#120E1E"/>
</svg>
