<svg width="250" height="212" viewBox="0 0 250 212" fill="none" xmlns="http://www.w3.org/2000/svg">
<path d="M16.8565 128.276H49.2729V98.2911C49.2729 95.4816 49.3809 92.132 49.597 88.242C49.8131 84.352 49.9752 81.0564 50.0833 78.355H49.435C48.1383 80.8403 46.7876 83.2715 45.3829 85.6487C43.9782 88.0259 42.5195 90.4571 41.0067 92.9424L16.8565 128.276ZM49.2729 167.5V138.974H2.75539V130.221L47.0037 64.0918H61.9153V128.276H76.0164V138.974H61.9153V167.5H49.2729ZM120.924 169.445C110.551 169.445 102.393 164.799 96.4501 155.506C90.6151 146.105 87.6977 132.76 87.6977 115.472C87.6977 98.075 90.6151 84.8383 96.4501 75.7617C102.393 66.6851 110.551 62.1468 120.924 62.1468C131.19 62.1468 139.24 66.6851 145.075 75.7617C151.018 84.8383 153.989 98.075 153.989 115.472C153.989 132.76 151.018 146.105 145.075 155.506C139.24 164.799 131.19 169.445 120.924 169.445ZM120.924 158.748C126.975 158.748 131.838 155.344 135.512 148.536C139.186 141.621 141.023 130.599 141.023 115.472C141.023 100.344 139.186 89.4846 135.512 82.8933C131.838 76.1939 126.975 72.8442 120.924 72.8442C114.873 72.8442 109.957 76.1939 106.175 82.8933C102.501 89.4846 100.664 100.344 100.664 115.472C100.664 130.599 102.501 141.621 106.175 148.536C109.957 155.344 114.873 158.748 120.924 158.748ZM177.989 128.276H210.405V98.2911C210.405 95.4816 210.513 92.132 210.729 88.242C210.945 84.352 211.107 81.0564 211.215 78.355H210.567C209.27 80.8403 207.92 83.2715 206.515 85.6487C205.11 88.0259 203.652 90.4571 202.139 92.9424L177.989 128.276ZM210.405 167.5V138.974H163.888V130.221L208.136 64.0918H223.047V128.276H237.149V138.974H223.047V167.5H210.405Z" fill="black"/>
<path d="M24.8565 121.276L23.6618 120.46L22.1145 122.723H24.8565V121.276ZM57.2729 121.276V122.723H58.72V121.276H57.2729ZM58.0833 71.355L59.5293 71.4128L59.5895 69.9078H58.0833V71.355ZM57.435 71.355V69.9078H56.5577L56.1519 70.6856L57.435 71.355ZM53.3829 78.6487L52.137 77.9125L53.3829 78.6487ZM49.0067 85.9424L50.2015 86.759L50.223 86.7274L50.2429 86.6948L49.0067 85.9424ZM57.2729 160.5H55.8257V161.947H57.2729V160.5ZM57.2729 131.974H58.72V130.526H57.2729V131.974ZM10.7554 131.974H9.30823V133.421H10.7554V131.974ZM10.7554 123.221L9.55264 122.416L9.30823 122.782V123.221H10.7554ZM55.0037 57.0918V55.6446H54.2308L53.801 56.287L55.0037 57.0918ZM69.9153 57.0918H71.3624V55.6446H69.9153V57.0918ZM69.9153 121.276H68.4681V122.723H69.9153V121.276ZM84.0164 121.276H85.4635V119.829H84.0164V121.276ZM84.0164 131.974V133.421H85.4635V131.974H84.0164ZM69.9153 131.974V130.526H68.4681V131.974H69.9153ZM69.9153 160.5V161.947H71.3624V160.5H69.9153ZM24.8565 122.723H57.2729V119.829H24.8565V122.723ZM58.72 121.276V91.2911H55.8257V121.276H58.72ZM58.72 91.2911C58.72 88.5164 58.8268 85.1949 59.042 81.3223L56.1521 81.1617C55.935 85.069 55.8257 88.4469 55.8257 91.2911H58.72ZM59.042 81.3223C59.2583 77.4278 59.4208 74.1241 59.5293 71.4128L56.6373 71.2972C56.5296 73.9886 56.368 77.2763 56.1521 81.1617L59.042 81.3223ZM58.0833 69.9078H57.435V72.8022H58.0833V69.9078ZM56.1519 70.6856C54.8669 73.1486 53.5286 75.5575 52.137 77.9125L54.6288 79.3849C56.0467 76.9854 57.4097 74.5319 58.718 72.0244L56.1519 70.6856ZM52.137 77.9125C50.7357 80.284 49.2802 82.7098 47.7705 85.1899L50.2429 86.6948C51.7587 84.2045 53.2207 81.7678 54.6288 79.3849L52.137 77.9125ZM47.812 85.1258L23.6618 120.46L26.0513 122.093L50.2015 86.759L47.812 85.1258ZM58.72 160.5V131.974H55.8257V160.5H58.72ZM57.2729 130.526H10.7554V133.421H57.2729V130.526ZM12.2026 131.974V123.221H9.30823V131.974H12.2026ZM11.9581 124.026L56.2065 57.8966L53.801 56.287L9.55264 122.416L11.9581 124.026ZM55.0037 58.539H69.9153V55.6446H55.0037V58.539ZM68.4681 57.0918V121.276H71.3624V57.0918H68.4681ZM69.9153 122.723H84.0164V119.829H69.9153V122.723ZM82.5692 121.276V131.974H85.4635V121.276H82.5692ZM84.0164 130.526H69.9153V133.421H84.0164V130.526ZM68.4681 131.974V160.5H71.3624V131.974H68.4681ZM69.9153 159.053H57.2729V161.947H69.9153V159.053ZM104.45 148.506L103.221 149.269L103.226 149.277L103.231 149.286L104.45 148.506ZM104.45 68.7617L103.239 67.9689L103.233 67.9791L104.45 68.7617ZM153.075 68.7617L151.857 69.5443L151.864 69.5544L153.075 68.7617ZM153.075 148.506L151.851 147.733L151.849 147.736L153.075 148.506ZM143.512 141.536L144.785 142.224L144.79 142.215L143.512 141.536ZM143.512 75.8933L142.243 76.5891L142.248 76.5978L143.512 75.8933ZM114.175 75.8933L112.915 75.1819L112.911 75.1887L114.175 75.8933ZM114.175 141.536L112.897 142.215L112.903 142.227L112.91 142.239L114.175 141.536ZM128.924 160.998C119.081 160.998 111.367 156.635 105.669 147.726L103.231 149.286C109.42 158.963 118.021 163.892 128.924 163.892V160.998ZM105.68 147.743C100.046 138.666 97.1448 125.63 97.1448 108.472H94.2505C94.2505 125.891 97.1845 139.544 103.221 149.269L105.68 147.743ZM97.1448 108.472C97.1448 91.1982 100.048 78.2848 105.667 69.5442L103.233 67.9791C97.1818 77.3917 94.2505 90.9517 94.2505 108.472H97.1448ZM105.661 69.5544C111.351 60.8637 119.066 56.594 128.924 56.594V53.6997C118.037 53.6997 109.435 58.5065 103.239 67.9689L105.661 69.5544ZM128.924 56.594C138.668 56.594 146.272 60.8564 151.857 69.5442L154.292 67.9791C148.207 58.5138 139.712 53.6997 128.924 53.6997V56.594ZM151.864 69.5544C157.585 78.2926 160.542 91.2016 160.542 108.472H163.436C163.436 90.9483 160.45 77.3839 154.285 67.9689L151.864 69.5544ZM160.542 108.472C160.542 125.626 157.588 138.658 151.851 147.733L154.298 149.279C160.447 139.552 163.436 125.895 163.436 108.472H160.542ZM151.849 147.736C146.257 156.642 138.652 160.998 128.924 160.998V163.892C139.727 163.892 148.222 158.955 154.3 149.275L151.849 147.736ZM128.924 153.195C135.661 153.195 140.941 149.347 144.785 142.224L142.238 140.849C138.735 147.341 134.29 150.3 128.924 150.3V153.195ZM144.79 142.215C148.637 134.974 150.47 123.654 150.47 108.472H147.575C147.575 123.545 145.735 134.268 142.234 140.857L144.79 142.215ZM150.47 108.472C150.47 93.2989 148.64 82.1211 144.776 75.1887L142.248 76.5978C145.732 82.8482 147.575 93.3893 147.575 108.472H150.47ZM144.781 75.1974C140.931 68.1774 135.649 64.3971 128.924 64.3971V67.2914C134.302 67.2914 138.745 70.2104 142.243 76.5891L144.781 75.1974ZM128.924 64.3971C122.205 64.3971 116.872 68.1714 112.915 75.1819L115.435 76.6047C119.041 70.2164 123.542 67.2914 128.924 67.2914V64.3971ZM112.911 75.1887C109.047 82.1211 107.217 93.2989 107.217 108.472H110.111C110.111 93.3893 111.955 82.8482 115.439 76.5978L112.911 75.1887ZM107.217 108.472C107.217 123.654 109.05 134.974 112.897 142.215L115.453 140.857C111.952 134.268 110.111 123.545 110.111 108.472H107.217ZM112.91 142.239C116.862 149.353 122.193 153.195 128.924 153.195V150.3C123.553 150.3 119.052 147.335 115.44 140.834L112.91 142.239ZM185.989 121.276L184.794 120.46L183.247 122.723H185.989V121.276ZM218.405 121.276V122.723H219.852V121.276H218.405ZM219.215 71.355L220.661 71.4128L220.722 69.9078H219.215V71.355ZM218.567 71.355V69.9078H217.69L217.284 70.6856L218.567 71.355ZM214.515 78.6487L213.269 77.9125L214.515 78.6487ZM210.139 85.9424L211.334 86.759L211.355 86.7274L211.375 86.6948L210.139 85.9424ZM218.405 160.5H216.958V161.947H218.405V160.5ZM218.405 131.974H219.852V130.526H218.405V131.974ZM171.888 131.974H170.44V133.421H171.888V131.974ZM171.888 123.221L170.685 122.416L170.44 122.782V123.221H171.888ZM216.136 57.0918V55.6446H215.363L214.933 56.287L216.136 57.0918ZM231.047 57.0918H232.495V55.6446H231.047V57.0918ZM231.047 121.276H229.6V122.723H231.047V121.276ZM245.148 121.276H246.596V119.829H245.148V121.276ZM245.148 131.974V133.421H246.596V131.974H245.148ZM231.047 131.974V130.526H229.6V131.974H231.047ZM231.047 160.5V161.947H232.495V160.5H231.047ZM185.989 122.723H218.405V119.829H185.989V122.723ZM219.852 121.276V91.2911H216.958V121.276H219.852ZM219.852 91.2911C219.852 88.5164 219.959 85.1949 220.174 81.3223L217.284 81.1617C217.067 85.069 216.958 88.4469 216.958 91.2911H219.852ZM220.174 81.3223C220.39 77.4278 220.553 74.1241 220.661 71.4128L217.769 71.2972C217.662 73.9886 217.5 77.2763 217.284 81.1617L220.174 81.3223ZM219.215 69.9078H218.567V72.8022H219.215V69.9078ZM217.284 70.6856C215.999 73.1486 214.661 75.5575 213.269 77.9125L215.761 79.3849C217.179 76.9854 218.542 74.5319 219.85 72.0244L217.284 70.6856ZM213.269 77.9125C211.868 80.284 210.412 82.7098 208.903 85.1899L211.375 86.6948C212.891 84.2045 214.353 81.7678 215.761 79.3849L213.269 77.9125ZM208.944 85.1258L184.794 120.46L187.183 122.093L211.334 86.759L208.944 85.1258ZM219.852 160.5V131.974H216.958V160.5H219.852ZM218.405 130.526H171.888V133.421H218.405V130.526ZM173.335 131.974V123.221H170.44V131.974H173.335ZM173.09 124.026L217.339 57.8966L214.933 56.287L170.685 122.416L173.09 124.026ZM216.136 58.539H231.047V55.6446H216.136V58.539ZM229.6 57.0918V121.276H232.495V57.0918H229.6ZM231.047 122.723H245.148V119.829H231.047V122.723ZM243.701 121.276V131.974H246.596V121.276H243.701ZM245.148 130.526H231.047V133.421H245.148V130.526ZM229.6 131.974V160.5H232.495V131.974H229.6ZM231.047 159.053H218.405V161.947H231.047V159.053Z" fill="black"/>
</svg>
