<svg width="166" height="165" viewBox="0 0 166 165" fill="none" xmlns="http://www.w3.org/2000/svg">
<circle cx="81.499" cy="79.7893" r="72" transform="rotate(-90 81.499 79.7893)" fill="white" stroke="#120E1E"/>
<path d="M119.99 33.3057L120.861 34.141L118.115 41.1057L118.185 41.1735L125.028 38.1372L125.899 38.9725L120.123 44.9966L119.441 44.3419L123.828 39.765L123.77 39.7086L117.498 42.4793L116.839 41.8471L119.344 35.4641L119.285 35.4076L114.897 39.9845L114.214 39.3298L119.99 33.3057Z" fill="#120E1E"/>
<path d="M121.776 47.212L121.154 46.3535L129.711 43.9413L130.323 44.7866L125.363 52.165L124.742 51.3065L128.967 45.1648L128.929 45.112L121.776 47.212ZM124.645 45.6168L127.152 49.0773L126.426 49.6031L123.919 46.1426L124.645 45.6168Z" fill="#120E1E"/>
<path d="M126.663 54.5765L134.187 50.9673L135.408 53.5109C135.691 54.0991 135.822 54.63 135.802 55.1037C135.785 55.5762 135.646 55.9866 135.385 56.3347C135.124 56.6829 134.772 56.9633 134.329 57.176C133.885 57.3886 133.449 57.4865 133.019 57.4697C132.589 57.4528 132.186 57.3039 131.81 57.023C131.437 56.7408 131.11 56.3082 130.83 55.725L129.842 53.6665L130.665 53.2718L131.639 55.3008C131.832 55.7027 132.046 55.998 132.281 56.1866C132.517 56.3777 132.77 56.4767 133.038 56.4836C133.31 56.4918 133.597 56.4236 133.898 56.2791C134.2 56.1346 134.436 55.9519 134.607 55.7311C134.778 55.5103 134.866 55.2468 134.87 54.9405C134.876 54.6331 134.781 54.276 134.586 53.8692L133.817 52.2666L127.1 55.488L126.663 54.5765ZM131.744 56.4986L129.253 59.9725L128.745 58.9138L131.25 55.4694L131.744 56.4986Z" fill="#120E1E"/>
<path d="M130.363 63.0931L138.412 60.8862L138.68 61.8612L134.687 62.956L134.713 63.0504L139.699 65.5723L140.049 66.8461L135.489 64.4609L132 69.0531L131.676 67.8737L134.649 64.0487L133.24 63.3526L130.631 64.0681L130.363 63.0931Z" fill="#120E1E"/>
<path d="M132.531 72.5158L140.845 71.7819L141.291 76.8008L140.398 76.8796L140.041 72.8678L137.232 73.1157L137.565 76.8677L136.672 76.9465L136.339 73.1946L133.513 73.444L133.875 77.5208L132.982 77.5996L132.531 72.5158Z" fill="#120E1E"/>
<path d="M140.438 81.8355L141.331 81.9174L140.762 88.1525L139.869 88.0706L140.108 85.4564L132.688 84.7755L132.78 83.7688L140.199 84.4497L140.438 81.8355Z" fill="#120E1E"/>
<path d="M138.965 96.18L130.921 93.945L131.191 92.971L139.235 95.2059L138.965 96.18Z" fill="#120E1E"/>
<path d="M133.672 109.164L126.156 105.529L126.581 104.648L134.461 103.407L134.497 103.333L128.595 100.479L129.035 99.5691L136.551 103.204L136.126 104.085L128.224 105.334L128.189 105.407L134.105 108.268L133.672 109.164Z" fill="#120E1E"/>
<path d="M125.93 115.89C126.205 115.979 126.473 116.029 126.735 116.038C126.998 116.051 127.251 116.022 127.495 115.951C127.737 115.882 127.965 115.77 128.18 115.613C128.394 115.457 128.59 115.257 128.768 115.014C129.059 114.614 129.221 114.175 129.253 113.698C129.284 113.22 129.17 112.738 128.909 112.252C128.647 111.766 128.225 111.309 127.64 110.884C127.056 110.458 126.492 110.196 125.948 110.098C125.403 110.001 124.906 110.043 124.457 110.227C124.007 110.41 123.63 110.71 123.326 111.127C123.045 111.514 122.879 111.914 122.83 112.329C122.781 112.747 122.848 113.149 123.031 113.534C123.215 113.924 123.513 114.269 123.926 114.57L123.691 114.782L125.169 112.753L125.894 113.281L124.022 115.85L123.297 115.322C122.742 114.917 122.345 114.446 122.107 113.909C121.867 113.375 121.785 112.818 121.862 112.238C121.938 111.662 122.172 111.106 122.562 110.57C122.997 109.973 123.52 109.551 124.131 109.303C124.74 109.058 125.395 108.998 126.098 109.124C126.798 109.251 127.505 109.574 128.216 110.093C128.75 110.482 129.178 110.903 129.5 111.357C129.823 111.814 130.039 112.284 130.148 112.767C130.257 113.25 130.26 113.729 130.158 114.206C130.056 114.683 129.847 115.138 129.532 115.571C129.273 115.927 128.978 116.219 128.646 116.448C128.315 116.681 127.964 116.846 127.593 116.945C127.222 117.048 126.842 117.082 126.454 117.048C126.067 117.015 125.688 116.91 125.316 116.733L125.93 115.89Z" fill="#120E1E"/>
<path d="M109.945 122.759L112.096 121.344L116.687 128.319L114.44 129.797C113.764 130.242 113.093 130.483 112.428 130.52C111.765 130.56 111.134 130.404 110.535 130.053C109.938 129.704 109.402 129.168 108.927 128.446C108.449 127.72 108.166 127.009 108.08 126.314C107.995 125.622 108.107 124.972 108.417 124.365C108.727 123.76 109.237 123.225 109.945 122.759ZM111.745 122.648L110.493 123.472C109.916 123.852 109.512 124.277 109.279 124.749C109.047 125.221 108.973 125.724 109.057 126.257C109.141 126.791 109.37 127.341 109.744 127.909C110.114 128.472 110.525 128.896 110.977 129.182C111.429 129.469 111.91 129.602 112.419 129.58C112.929 129.56 113.457 129.37 114.002 129.012L115.35 128.125L111.745 122.648Z" fill="#120E1E"/>
<path d="M103.489 126.521L106.761 134.203L102.126 136.176L101.775 135.35L105.48 133.774L104.374 131.178L100.909 132.652L100.558 131.827L104.023 130.353L102.911 127.742L99.1459 129.344L98.7945 128.519L103.489 126.521Z" fill="#120E1E"/>
<path d="M96.3101 138.01L92.3377 131.703L92.2423 131.724L91.3815 139.126L90.3481 139.36L91.4889 130.541L92.5064 130.31L97.3435 137.776L96.3101 138.01Z" fill="#120E1E"/>
<path d="M85.5322 131.474L85.8972 139.815L80.8643 140.032L80.8251 139.136L84.8481 138.962L84.7248 136.144L80.9624 136.306L80.9232 135.41L84.6856 135.248L84.5616 132.413L80.4734 132.59L80.4342 131.694L85.5322 131.474Z" fill="#120E1E"/>
<path d="M75.5983 131.392L74.4683 139.663L73.4669 139.525L74.4754 132.143L70.631 131.615L70.7523 130.727L75.5983 131.392Z" fill="#120E1E"/>
<path d="M59.5157 131.752C59.7887 130.915 60.1758 130.241 60.6769 129.73C61.178 129.219 61.7459 128.884 62.3808 128.726C63.0156 128.568 63.6714 128.599 64.3482 128.82C65.025 129.041 65.573 129.404 65.9921 129.906C66.4113 130.409 66.6725 131.015 66.7759 131.723C66.8793 132.432 66.7945 133.204 66.5215 134.041C66.2485 134.878 65.8614 135.552 65.3603 136.063C64.8592 136.574 64.2913 136.908 63.6564 137.067C63.0216 137.225 62.3658 137.194 61.689 136.973C61.0121 136.751 60.4642 136.389 60.045 135.886C59.6259 135.384 59.3647 134.778 59.2613 134.07C59.1579 133.361 59.2427 132.588 59.5157 131.752ZM60.4457 132.056C60.2215 132.743 60.1473 133.36 60.223 133.908C60.2962 134.455 60.4882 134.914 60.799 135.284C61.1073 135.653 61.5017 135.917 61.9822 136.074C62.4627 136.231 62.9375 136.251 63.4068 136.136C63.8735 136.02 64.2989 135.763 64.683 135.366C65.0645 134.967 65.3674 134.424 65.5915 133.737C65.8156 133.05 65.8911 132.433 65.818 131.886C65.7423 131.338 65.5503 130.88 65.242 130.51C64.9312 130.14 64.5355 129.876 64.055 129.719C63.5745 129.562 63.1009 129.542 62.6342 129.658C62.165 129.773 61.7396 130.03 61.358 130.429C60.9739 130.826 60.6698 131.368 60.4457 132.056Z" fill="#120E1E"/>
<path d="M58.4065 126.612L54.4426 133.956L51.9605 132.615C51.3842 132.304 50.9692 131.946 50.7156 131.54C50.4583 131.135 50.336 130.709 50.3488 130.262C50.3615 129.815 50.4846 129.375 50.7182 128.943C50.9517 128.51 51.2525 128.165 51.6204 127.906C51.9859 127.647 52.4084 127.511 52.8878 127.498C53.3659 127.488 53.8907 127.637 54.4623 127.946L56.2414 128.907L55.8156 129.696L54.0651 128.75C53.6706 128.537 53.317 128.434 53.0043 128.441C52.6916 128.448 52.4189 128.538 52.1861 128.712C51.9497 128.887 51.7521 129.122 51.5934 129.416C51.4347 129.71 51.3477 130.002 51.3326 130.294C51.315 130.584 51.3915 130.86 51.5621 131.122C51.7313 131.386 52.0156 131.626 52.415 131.842L53.9789 132.687L57.5169 126.131L58.4065 126.612Z" fill="#120E1E"/>
<path d="M45.9849 129.036L45.0426 128.282L47.153 121.098L47.0766 121.037L40.5345 124.675L39.5921 123.921L44.804 117.403L45.5426 117.994L41.5828 122.946L41.6465 122.997L47.6438 119.675L48.357 120.246L46.4347 126.828L46.4984 126.879L50.4582 121.927L51.1968 122.518L45.9849 129.036Z" fill="#120E1E"/>
<path d="M43.1431 115.555L36.8508 121.037L33.5406 117.237L34.2166 116.648L36.8625 119.686L38.9887 117.833L36.5141 114.992L37.19 114.404L39.6646 117.244L41.803 115.381L39.1142 112.295L39.7901 111.706L43.1431 115.555Z" fill="#120E1E"/>
<path d="M27.0093 107.256L34.1798 102.987L34.6806 103.827L31.3791 111.089L31.4208 111.159L37.0508 107.807L37.5683 108.676L30.3977 112.945L29.897 112.104L33.2041 104.82L33.1624 104.75L27.5184 108.111L27.0093 107.256Z" fill="#120E1E"/>
<path d="M26.144 103.273L25.3042 103.586L23.1111 97.7204L23.951 97.4067L24.8705 99.8661L31.8489 97.2599L32.203 98.207L25.2245 100.813L26.144 103.273Z" fill="#120E1E"/>
<path d="M20.3734 83.1124L20.3747 81.9058L27.3068 79.0807L27.3069 78.9829L20.3813 76.1337L20.3827 74.9271L28.7299 74.9416L28.7288 75.8873L22.3869 75.8763L22.3868 75.9578L28.7258 78.5777L28.7247 79.4908L22.3798 82.0887L22.3797 82.1702L28.7217 82.1812L28.7206 83.1269L20.3734 83.1124Z" fill="#120E1E"/>
<path d="M29.1383 72.4916L20.9269 70.9866L21.8321 66.0308L22.7141 66.1924L21.9906 70.1539L24.7651 70.6624L25.4418 66.9576L26.3239 67.1192L25.6472 70.8241L28.4378 71.3355L29.1731 67.3099L30.0551 67.4716L29.1383 72.4916Z" fill="#120E1E"/>
<path d="M31.879 61.6125L30.9712 64.0229L23.1596 61.0759L24.1076 58.5587C24.393 57.801 24.7936 57.2116 25.3094 56.7906C25.8227 56.3686 26.4245 56.1238 27.1151 56.0561C27.8031 55.9875 28.5514 56.1058 29.36 56.4108C30.1737 56.7178 30.8197 57.127 31.2979 57.6385C31.7736 58.149 32.0647 58.7409 32.1712 59.4141C32.2752 60.0864 32.1778 60.8192 31.879 61.6125ZM30.4883 62.7605L31.0169 61.3569C31.2602 60.7111 31.3371 60.1289 31.2479 59.6103C31.1586 59.0916 30.9231 58.6412 30.5414 58.2591C30.1597 57.877 29.6509 57.566 29.0152 57.3262C28.3846 57.0883 27.8029 56.9864 27.2702 57.0207C26.7349 57.0539 26.2681 57.2292 25.8698 57.5465C25.469 57.8628 25.1536 58.3261 24.9238 58.9363L24.355 60.4466L30.4883 62.7605Z" fill="#120E1E"/>
<path d="M26.9798 49.0152L34.1406 53.3095L33.6212 54.1764L26.4604 49.8821L26.9798 49.0152Z" fill="#120E1E"/>
<path d="M35.4347 50.0459L34.7959 50.8912L29.9826 43.4107L30.6115 42.5784L39.1198 45.1694L38.4811 46.0147L31.3704 43.7652L31.3311 43.8172L35.4347 50.0459ZM33.0686 47.7668L35.6433 44.3597L36.3588 44.9006L33.7842 48.3077L33.0686 47.7668Z" fill="#120E1E"/>
<path d="M78.8338 15.9677L77.8569 15.9105L77.368 24.2415L78.3612 24.2996L78.746 17.7422L78.8274 17.747L83.0013 24.5712L83.9782 24.6283L84.4671 16.2973L83.4577 16.2383L83.0738 22.7794L82.9924 22.7746L78.8338 15.9677Z" fill="#120E1E"/>
<path d="M93.5918 20.0738L92.5911 19.9315C92.5727 19.6351 92.5049 19.3675 92.3878 19.1285C92.2734 18.8899 92.1218 18.6817 91.9329 18.5038C91.7471 18.3237 91.5331 18.178 91.2909 18.0666C91.0487 17.9553 90.7904 17.8802 90.516 17.8411C90.0156 17.77 89.5444 17.8319 89.1023 18.0271C88.663 18.2226 88.2887 18.5495 87.9796 19.0078C87.6731 19.4665 87.4692 20.0538 87.3678 20.7695C87.2665 21.4852 87.2993 22.1061 87.4663 22.6321C87.636 23.1586 87.9047 23.577 88.2724 23.8873C88.6428 24.198 89.0781 24.3889 89.5785 24.4601C89.8529 24.4991 90.1219 24.499 90.3854 24.4596C90.649 24.4203 90.8948 24.3413 91.1229 24.2228C91.3541 24.102 91.5577 23.9429 91.7339 23.7456C91.9131 23.546 92.0525 23.3079 92.1521 23.0311L93.1528 23.1734C93.0177 23.5851 92.8269 23.9437 92.5806 24.249C92.3343 24.5543 92.0466 24.803 91.7175 24.995C91.3888 25.1843 91.0316 25.3132 90.6459 25.3819C90.2629 25.4509 89.8629 25.4558 89.4459 25.3965C88.7411 25.2962 88.1386 25.0348 87.6386 24.6124C87.1386 24.1899 86.7762 23.6388 86.5514 22.959C86.3265 22.2792 86.2759 21.5035 86.3994 20.6317C86.5228 19.7599 86.7869 19.0289 87.1916 18.4387C87.5963 17.8485 88.0974 17.4202 88.695 17.1539C89.2926 16.8876 89.9438 16.8045 90.6486 16.9048C91.0656 16.9641 91.4484 17.0803 91.7971 17.2534C92.1485 17.427 92.4556 17.6518 92.7184 17.928C92.9815 18.2015 93.189 18.5192 93.3408 18.8812C93.493 19.2404 93.5767 19.638 93.5918 20.0738Z" fill="#120E1E"/>
<path d="M96.0689 26.633L98.6964 18.7101L103.478 20.2989L103.195 21.15L99.3735 19.88L98.4857 22.557L102.06 23.7448L101.778 24.5959L98.2034 23.4081L97.3105 26.1007L101.194 27.3913L100.912 28.2424L96.0689 26.633Z" fill="#120E1E"/>
<path d="M106.46 30.8673L104.2 29.6314L108.2 22.3059L110.56 23.5966C111.271 23.9851 111.799 24.4642 112.145 25.0339C112.491 25.6012 112.65 26.2316 112.622 26.9249C112.594 27.616 112.373 28.3406 111.959 29.0989C111.543 29.862 111.048 30.4446 110.476 30.8469C109.904 31.2467 109.278 31.4524 108.597 31.4638C107.917 31.4729 107.204 31.2741 106.46 30.8673ZM105.516 29.3295L106.833 30.0491C107.439 30.3803 108.004 30.5379 108.53 30.5219C109.056 30.5059 109.535 30.3356 109.966 30.0109C110.397 29.6862 110.775 29.2257 111.101 28.6296C111.424 28.0382 111.605 27.4763 111.645 26.9438C111.686 26.409 111.577 25.9222 111.319 25.4834C111.061 25.0422 110.646 24.6651 110.074 24.3522L108.657 23.5778L105.516 29.3295Z" fill="#120E1E"/>
<path d="M44.7807 38.3033L43.9937 39.0126L40.6796 30.7582L41.4544 30.0599L49.3211 34.2113L48.5341 34.9206L41.9756 31.3685L41.9272 31.4122L44.7807 38.3033ZM42.8875 35.6184L46.0597 32.7595L46.6603 33.4258L43.4881 36.2848L42.8875 35.6184Z" fill="#120E1E"/>
<path d="M53.3838 31.5482L51.1935 32.9028L46.7999 25.802L49.0872 24.3874C49.7757 23.9615 50.4528 23.7393 51.1186 23.7207C51.7829 23.6998 52.4093 23.8732 52.9979 24.2411C53.5851 24.6066 54.1061 25.1569 54.5609 25.892C55.0186 26.6317 55.2809 27.3499 55.3479 28.0468C55.4135 28.7413 55.2831 29.3876 54.9567 29.9857C54.629 30.5816 54.1047 31.1024 53.3838 31.5482ZM51.581 31.6085L52.8564 30.8197C53.4433 30.4568 53.8595 30.0427 54.1052 29.5776C54.3509 29.1124 54.439 28.6121 54.3696 28.0765C54.3002 27.541 54.0867 26.9843 53.7291 26.4064C53.3744 25.8332 52.9755 25.3975 52.5324 25.0995C52.0878 24.7992 51.6108 24.6531 51.1016 24.6613C50.5908 24.6671 50.0582 24.8415 49.5037 25.1844L48.1313 26.0332L51.581 31.6085Z" fill="#120E1E"/>
<path d="M56.5181 20.4465L61.3966 26.0818L61.4876 26.0461L61.2215 18.5991L62.2077 18.2117L62.411 27.1026L61.44 27.484L55.5319 20.8338L56.5181 20.4465Z" fill="#120E1E"/>
<path d="M68.7647 25.331L67.7251 25.5359L69.1124 16.7526L70.1361 16.5508L74.7625 24.1484L73.7229 24.3533L69.9125 17.9412L69.8485 17.9538L68.7647 25.331ZM68.516 22.0559L72.7064 21.2296L72.8804 22.1095L68.6899 22.9357L68.516 22.0559Z" fill="#120E1E"/>
</svg>
