<svg width="72" height="48" viewBox="0 0 72 48" fill="none" xmlns="http://www.w3.org/2000/svg">
<ellipse cx="35.6221" cy="23.5" rx="27.6963" ry="17" fill="white"/>
<path fill-rule="evenodd" clip-rule="evenodd" d="M1.22939 27.8725C2.60458 32.5632 5.95317 36.9451 10.6594 40.2121C16.8069 44.4798 25.9034 47.2219 34.7566 47.476C43.2134 47.7188 50.935 46.1158 57.7943 42.6933C65.052 39.0722 69.9395 33.7259 71.3435 27.8725C72.1205 24.6327 72.1201 23.4772 71.3408 20.0274C70.4421 16.0479 67.378 11.7281 63.1945 8.54241C58.0002 4.5869 51.2958 1.97892 43.4486 0.861322C40.686 0.468001 34.518 0.376994 31.2683 0.681712C25.328 1.2388 19.2869 2.93465 14.6127 5.35744C12.6737 6.36236 9.30501 8.66423 7.78834 10.0205C4.45772 12.9987 2.06524 16.7592 1.21944 20.3457C0.823311 22.0258 0.829238 26.5074 1.22939 27.8725ZM34.183 22.8023C42.8055 22.8023 49.8602 22.7695 49.8602 22.7293C49.8602 22.6611 48.1884 21.1672 47.9562 21.0278C47.898 20.9929 47.6157 20.7554 47.3287 20.5001C47.0417 20.2447 46.6982 19.9592 46.5651 19.8658C46.432 19.7724 45.8074 19.2399 45.1771 18.6824C44.5468 18.1248 43.9218 17.5926 43.7881 17.4993C43.6545 17.4061 43.3106 17.1209 43.0236 16.8655C42.7366 16.6102 42.4577 16.3727 42.404 16.3378C42.3502 16.303 42.0658 16.0605 41.7717 15.7991L41.2374 15.3238L42.7904 15.3238C43.9132 15.3238 44.4223 15.3763 44.629 15.5133C44.7861 15.6175 45.8208 16.5158 46.9285 17.5097C48.0361 18.5034 49.0197 19.3356 49.1145 19.3588C49.2092 19.3821 49.2866 19.4819 49.2866 19.5806C49.2866 19.6795 49.3541 19.7602 49.4365 19.7602C49.5191 19.7602 49.7372 19.9293 49.9211 20.1359C50.1053 20.3425 50.3637 20.5849 50.4957 20.6746C50.6276 20.7642 51.3732 21.4224 52.1526 22.1369C52.9321 22.8514 53.6385 23.4361 53.7225 23.4361C53.8064 23.4361 53.875 23.5168 53.875 23.6157C53.875 23.7145 53.9827 23.8285 54.114 23.8692C54.3052 23.9283 54.3052 23.958 54.114 24.017C53.9827 24.0577 53.875 24.1718 53.875 24.2705C53.875 24.3694 53.8064 24.4501 53.7225 24.4501C53.6385 24.4501 52.9336 25.0349 52.1559 25.7494C51.3782 26.4639 50.6884 27.0771 50.623 27.112C50.5576 27.1469 50.2142 27.4606 49.8602 27.8091C49.5061 28.1577 49.1555 28.4714 49.0811 28.5063C49.0067 28.5412 48.0389 29.3828 46.9303 30.3766C45.8218 31.3705 44.7861 32.2688 44.629 32.373C44.4223 32.51 43.9132 32.5625 42.7904 32.5625L41.2374 32.5625L41.7729 32.0897C42.321 31.6056 42.6634 31.319 43.1687 30.9209C43.3264 30.7966 43.6706 30.5072 43.9334 30.278C44.5127 29.7726 47.4835 27.2512 47.813 26.9852C48.541 26.3975 49.8602 25.2194 49.8602 25.1569C49.8602 25.1167 42.8055 25.0839 34.183 25.0839L18.5059 25.0839L18.5059 23.9431L18.5059 22.8023L34.183 22.8023Z" fill="#120E1E"/>
</svg>
