<svg width="71" height="48" viewBox="0 0 71 48" fill="none" xmlns="http://www.w3.org/2000/svg">
<path fill-rule="evenodd" clip-rule="evenodd" d="M70.6964 20.1275C69.3212 15.4368 65.9726 11.0549 61.2664 7.78789C55.1189 3.52018 46.0223 0.778092 37.1692 0.523949C28.7123 0.281213 20.9908 1.88415 14.1315 5.30666C6.87374 8.92779 1.9863 14.2741 0.582252 20.1275C-0.194726 23.3673 -0.194337 24.5228 0.584929 27.9726C1.48369 31.952 4.54779 36.2719 8.73128 39.4576C13.9256 43.4131 20.63 46.0211 28.4772 47.1387C31.2398 47.532 37.4078 47.623 40.6575 47.3183C46.5978 46.7612 52.6388 45.0653 57.3131 42.6426C59.2521 41.6376 62.6208 39.3358 64.1374 37.9795C67.4681 35.0013 69.8605 31.2408 70.7063 27.6543C71.1025 25.9742 71.0965 21.4926 70.6964 20.1275ZM37.7427 25.1977C29.1203 25.1977 22.0656 25.2305 22.0656 25.2707C22.0656 25.3389 23.7373 26.8328 23.9696 26.9722C24.0277 27.0071 24.3101 27.2446 24.5971 27.4999C24.8841 27.7553 25.2276 28.0408 25.3607 28.1342C25.4937 28.2276 26.1183 28.7601 26.7487 29.3176C27.379 29.8752 28.004 30.4074 28.1376 30.5007C28.2713 30.5939 28.6152 30.8791 28.9022 31.1345C29.1892 31.3898 29.4681 31.6273 29.5218 31.6622C29.5755 31.697 29.86 31.9395 30.1541 32.2009L30.6884 32.6762L29.1354 32.6762C28.0126 32.6762 27.5035 32.6237 27.2968 32.4867C27.1397 32.3825 26.105 31.4842 24.9972 30.4903C23.8897 29.4966 22.9061 28.6644 22.8112 28.6412C22.7166 28.6179 22.6392 28.5181 22.6392 28.4194C22.6392 28.3205 22.5717 28.2398 22.4893 28.2398C22.4067 28.2398 22.1886 28.0707 22.0046 27.8641C21.8205 27.6575 21.562 27.4151 21.4301 27.3254C21.2982 27.2358 20.5526 26.5776 19.7731 25.8631C18.9937 25.1486 18.2872 24.5639 18.2033 24.5639C18.1194 24.5639 18.0508 24.4831 18.0508 24.3843C18.0508 24.2855 17.9431 24.1715 17.8118 24.1308C17.6206 24.0717 17.6206 24.042 17.8118 23.983C17.9431 23.9423 18.0508 23.8282 18.0508 23.7295C18.0508 23.6306 18.1194 23.5499 18.2033 23.5499C18.2872 23.5499 18.9921 22.9651 19.7699 22.2506C20.5476 21.5361 21.2374 20.9229 21.3028 20.888C21.3682 20.8531 21.7116 20.5394 22.0656 20.1908C22.4197 19.8423 22.7703 19.5286 22.8447 19.4937C22.9191 19.4588 23.8868 18.6172 24.9955 17.6234C26.104 16.6295 27.1397 15.7312 27.2968 15.627C27.5035 15.49 28.0126 15.4375 29.1354 15.4375L30.6884 15.4375L30.1529 15.9103C29.6048 16.3944 29.2624 16.681 28.7571 17.0791C28.5993 17.2034 28.2552 17.4927 27.9923 17.722C27.413 18.2274 24.4422 20.7488 24.1128 21.0148C23.3848 21.6025 22.0656 22.7806 22.0656 22.8431C22.0656 22.8832 29.1203 22.9161 37.7427 22.9161L53.4198 22.9161L53.4198 24.0569L53.4198 25.1977L37.7427 25.1977Z" fill="black"/>
</svg>
