<svg width="33" height="33" viewBox="0 0 33 33" fill="none" xmlns="http://www.w3.org/2000/svg">
<path fill-rule="evenodd" clip-rule="evenodd" d="M3.3499 14.7555C3.73692 14.1896 7.78159 12.4404 15.555 9.4774C21.9498 7.03967 27.6822 5.02801 28.2945 5.00662C30.5735 4.92683 30.5722 5.39614 28.2683 16.267C27.0886 21.8335 26.1232 26.4601 26.1232 26.5477C26.1232 27.0433 24.664 28 23.9082 28C23.4221 28 22.015 27.2597 20.7811 26.3548C19.5472 25.45 18.2879 24.7097 17.9826 24.7097C17.6773 24.7097 16.7267 25.1724 15.8697 25.7379C14.1611 26.8657 12.8971 27.0462 12.2726 26.252C12.0498 25.9694 11.2318 24.2153 10.4539 22.3546L9.04005 18.9713L6.3563 18.1039C3.32111 17.1229 2.41877 16.1177 3.3499 14.7555ZM12.5268 20.561C12.7508 19.5056 13.5712 18.4399 15.6041 16.5635C17.1289 15.1561 18.1936 14.0025 17.9704 14C17.331 13.9926 11.2211 17.7591 11.0227 18.2833C10.9245 18.5423 11.1542 19.4846 11.5331 20.3772L12.2217 22L12.5268 20.561ZM27.1695 12.6563C26.5256 15.7855 25.6776 20.0679 25.2843 22.1727C24.8911 24.2775 24.3882 26 24.1667 26C23.9452 26 22.2191 24.8365 20.331 23.414C18.4433 21.9919 16.6983 20.6848 16.4531 20.5102C16.1818 20.3166 17.9446 18.3533 20.9656 15.4851C25.9856 10.7186 27.0387 9.03587 25.0029 9.03587C24.4966 9.03587 20.9584 10.8366 17.14 13.0373L10.1977 17.0388L8.25059 16.5303C7.17976 16.2502 6.16841 15.8902 6.0026 15.7297C5.73172 15.4669 26.7408 7.08045 27.8699 7.00018C28.1779 6.97866 27.937 8.92415 27.1695 12.6563ZM16.0329 22.7296C16.1903 22.9791 16.0114 23.4843 15.6359 23.8526C15.0068 24.4695 14.9532 24.4339 14.9532 23.3991C14.9532 22.2567 15.5152 21.9079 16.0329 22.7296Z" fill="#120E1E"/>
</svg>
