<svg width="33" height="33" viewBox="0 0 33 33" fill="none" xmlns="http://www.w3.org/2000/svg">
<path fill-rule="evenodd" clip-rule="evenodd" d="M2.59394 7.39133C0.958029 8.04635 0.617191 9.29064 1.40713 11.7202C2.51852 15.1381 4.43585 18.6921 6.67675 21.489C8.2642 23.4695 9.38992 24.3863 11.5032 25.4208C16.314 27.7753 20.5771 27.1433 20.5771 24.076C20.5771 22.4669 21.1037 22.5766 22.6406 24.5057C23.3509 25.3973 24.5066 26.3635 25.2089 26.6525C26.7033 27.2682 30.3635 27.0244 31.3064 26.2467C32.7885 25.0237 31.8734 22.4501 28.7714 19.1151L27.4077 17.6493L29.4695 14.1066C30.6032 12.1582 31.5309 10.1681 31.5309 9.68433C31.5309 8.07609 30.5421 7.29166 28.2359 7.07137C24.9936 6.76186 23.9728 7.37165 22.2623 10.6417L20.7878 13.4612L20.5771 10.8641C20.4613 9.43598 20.1259 8.02834 19.8323 7.73643C19.1401 7.04874 13.964 6.76814 12.4789 7.33773C10.982 7.91192 10.5312 9.60769 11.4602 11.1711C11.8402 11.8106 12.1511 12.6349 12.1511 13.0022C12.1511 14.4165 11.3827 13.555 10.1306 10.7372C9.17337 8.58244 8.53468 7.6933 7.72326 7.38673C6.39111 6.88332 3.85657 6.8854 2.59394 7.39133ZM7.37192 9.52632C7.59521 9.816 8.09686 10.8758 8.48709 11.8817C9.69016 14.9815 12.0013 18.2632 12.9815 18.2632C13.8153 18.2632 13.849 18.0863 13.6867 14.5789C13.5925 12.5528 13.3679 10.4686 13.1871 9.94737C12.8679 9.02737 12.939 9 15.6252 9H18.3917L18.5124 12.8901C18.6129 16.1175 18.7521 16.8025 19.3307 16.9133C20.3025 17.0994 21.9466 15.1937 23.7043 11.8442L25.1972 9H27.277C29.959 9 29.9573 9.38442 27.2538 13.8821C26.0975 15.8059 25.1513 17.4989 25.1513 17.6442L27.2009 20.2964C29.4531 22.9204 30.3092 24.3267 29.9022 24.7343C29.7563 24.8804 28.7938 25 27.7631 25C26.0529 25 25.6538 24.7794 23.1922 22.4737C19.5905 19.1002 18.6112 19.1869 18.3471 22.9032C18.1848 25.1882 17.5187 25.4084 13.9293 24.3638C12.0235 23.8088 11.0665 23.1832 9.19523 21.2682C6.04228 18.0417 2.29095 10.6914 3.11556 9.35537C3.45827 8.8 6.91945 8.93895 7.37192 9.52632Z" fill="#120E1E"/>
</svg>
