<svg width="33" height="33" viewBox="0 0 33 33" fill="none" xmlns="http://www.w3.org/2000/svg">
<path fill-rule="evenodd" clip-rule="evenodd" d="M3.95874 10.3761C5.61325 7.02203 8.0921 4.70499 11.3742 3.4447C18.1611 0.838946 25.9022 3.7935 29.1187 10.2182C30.2975 12.572 30.5005 13.4777 30.5001 16.3807C30.5001 19.1927 30.2768 20.2539 29.2162 22.4916C26.1475 28.9652 18.4217 32.1219 11.6464 29.6708C9.7839 28.9974 9.40116 29.0006 6.37381 29.7125C4.57824 30.1353 2.98077 30.3523 2.82354 30.1959C2.66631 30.0389 2.89902 28.5787 3.34061 26.9503C4.11418 24.0993 4.11327 23.8967 3.32487 21.4389C2.04547 17.4509 2.25256 13.835 3.95874 10.3761ZM27.6251 21.7087C30.3368 15.5616 27.7069 8.37961 21.8403 5.90906C16.5023 3.66143 11.4095 4.73233 7.66403 8.88939C4.70806 12.1701 3.86961 17.8687 5.7931 21.5993C6.52782 23.0232 6.50626 25.2168 5.73965 27.1308C5.42663 27.9125 5.54203 27.9517 7.1552 27.6095C9.64051 27.0817 10.8701 27.1749 13.1781 28.0657C18.3988 30.08 25.2647 27.0587 27.6251 21.7087ZM10.3774 10.4062C8.34164 12.7611 9.09464 15.4705 12.8313 19.2341C14.9293 21.3473 16.1758 22.2084 17.9749 22.789C21.2297 23.8387 23.4255 23.1702 24.0942 20.9259C24.3398 20.1023 24.0861 19.7906 22.5232 18.9978L20.6596 18.0515L19.6695 18.9764C18.3845 20.1781 17.796 20.1429 15.9696 18.757C13.6058 16.9635 12.8837 15.6284 13.5785 14.337C14.0527 13.4554 14.0343 12.9792 13.4718 11.5701C12.704 9.64771 11.4432 9.17326 10.3774 10.4062Z" fill="#120E1E"/>
</svg>
