<svg width="95" height="36" viewBox="0 0 95 36" fill="none" xmlns="http://www.w3.org/2000/svg">
<path fill-rule="evenodd" clip-rule="evenodd" d="M46.5 3.5L46.9847 4.06035C48.9035 4.06035 51.408 5.24109 51.105 8.66324V31.6977C50.701 34.3594 48.237 35.32 46.8635 35.0998L46.5 35.5H52.3169H57.4541H60.2747C65.7823 35.5 70.1878 33.9238 73.5944 30.6376C76.4933 26.8565 77.0557 25.0553 77.5 21.1729C77.5 18.6896 76.8899 16.6249 76.2074 15.1691C75.3285 13.2947 73.6589 11.6709 72.1574 10.4396C74.0727 13.119 74.5 15.7931 74.5 18.5129C74.5 21.815 73.4339 26.445 70.2698 29.393C66.7707 32.6531 61.6863 33.5 54.5005 33.5C54.5005 32.2402 54.5004 30.9294 54.5003 29.5866C54.5002 28.1768 54.5 26.7318 54.5 25.2737V9.8446C54.5 9.18897 54.5 8.53039 54.5 7.88831C54.5 6.65125 54.5 5.47544 54.5 4.5C56.4293 4.49999 58.4049 4.53203 60.6574 4.63796C58.2966 3.95256 55.9998 3.5 54.3476 3.5H50.8627C50.6241 3.5 50.3719 3.50578 50.0784 3.51251C49.3198 3.5299 48.2856 3.55361 46.5 3.5Z" fill="#120E1E"/>
<path d="M32.1289 22.1301L38.1322 8.32507V26.4861C38.1322 30.3879 38.0176 32.5993 37.7885 33.1206C37.5729 33.6269 37.1212 34.481 36.2723 34.8991C35.4233 35.3171 33.968 35.0716 33.968 35.0716L33.6041 35.5H40.4361H46.5L46.217 35.0716C46.217 35.0716 45.8954 35.1116 44.6906 34.8991C43.4859 34.6865 42.8778 33.7986 42.3567 33.0759C41.9524 32.5153 41.8204 31.2133 41.9524 26.8212V10.4919C41.8204 7.63626 41.9619 6.76399 42.3459 6.09384C42.73 5.42369 43.7608 4.07066 45.8832 4.07066L46.4801 3.5H41.5478H37.9705C35.7605 9.01011 33.7931 13.7235 32.0683 17.6401L27.1565 28.8316L21.8405 16.7466C19.7114 11.9215 17.8316 7.506 16.2011 3.5C14.7862 3.60425 13.6136 3.5 12.8455 3.5C12.2391 3.5 10.8447 3.60425 8.5 3.5L9.57129 4.21088L10.3394 4.90731C11.3635 4.90731 11.2759 5.04134 11.6128 5.3094C11.9631 5.57746 12.1653 5.96466 12.2192 6.47099L14.2607 8.95054L21.4969 25.5032C23.8551 30.9835 25.2835 34.0659 25.7821 35.3913H26.5906C28.0324 31.5193 29.8785 27.3126 32.1289 22.1301Z" fill="#120E1E"/>
<path d="M17.2917 4.64725C20.0417 11.121 29.1667 33.4104 29.4583 34.3528C29.6667 34.9674 29.9583 35.1722 30.3333 35.1722H30.5V35.5H19.875L20 35.2132C20.8333 34.9673 21.5417 34.3118 21.625 33.7791C21.625 33.6562 21.6667 33.5333 21.6667 33.4513C21.6667 32.8367 21.4167 32.2631 21.2083 31.7305C20.2917 29.477 17.0417 21.815 16.1667 19.8483L16 19.4385L11.5 7.80218C10.5833 5.58963 8.95833 4.19654 6.5 3.9507C6.33333 3.9507 5.83333 3.5 5.83333 3.5H16.2083C16.5 3.5 17.125 4.27849 17.2917 4.64725Z" fill="#E20338"/>
<path d="M7.33333 21.4052C7.79167 20.4629 8.66667 19.3566 9.66667 18.8649C7.45833 20.258 7.75007 29.5999 6.91674 33.7791C6.91674 33.7791 6.82382 34.365 6.91667 34.7215C7.00334 35.0543 7.33333 35.5 7.33333 35.5H0.500068C0.583402 35.2132 5.66667 24.847 7.33333 21.4052Z" fill="#E20338"/>
<path d="M61.4218 9.34486C60.8569 9.34486 60.2301 9.37718 59.5413 9.44182C59.5138 9.40303 59.5 9.32546 59.5 9.2091C59.5 9.09275 59.5138 9.00871 59.5413 8.95699C59.8306 8.95699 60.0442 8.93114 60.1819 8.87942C60.3197 8.81478 60.4023 8.76306 60.4299 8.72428C60.4988 8.56913 60.5332 8.16834 60.5332 7.52191V5.8541C60.5332 5.75067 60.5194 5.59553 60.4919 5.38867C60.4643 5.18181 60.4368 5.05252 60.4092 5.00081C60.3128 4.83273 60.0235 4.7487 59.5413 4.7487C59.5138 4.73577 59.5 4.67113 59.5 4.55477C59.5138 4.42548 59.5344 4.36084 59.562 4.36084C60.0855 4.32205 60.5952 4.23155 61.0911 4.08933C61.5871 3.93419 61.9659 3.79844 62.2276 3.68208C62.269 3.69501 62.3172 3.72733 62.3723 3.77904C62.4274 3.83076 62.4481 3.86955 62.4343 3.8954C62.3792 4.11519 62.3447 4.30266 62.331 4.4578C62.3172 4.61295 62.3172 4.69052 62.331 4.69052C62.3447 4.69052 62.3585 4.68405 62.3723 4.67113C62.3861 4.6582 62.4067 4.64527 62.4343 4.63234C62.6271 4.42548 62.8613 4.24448 63.1369 4.08933C63.619 3.81783 64.0461 3.68208 64.418 3.68208C64.8038 3.68208 65.1206 3.75965 65.3686 3.9148C65.6303 4.06994 65.8438 4.35437 66.0092 4.76809C66.0367 4.76809 66.0849 4.73577 66.1538 4.67113C66.2227 4.59355 66.3398 4.49659 66.5051 4.38023C66.6842 4.26387 66.877 4.15398 67.0837 4.05055C67.5796 3.8049 67.9929 3.68208 68.3235 3.68208C68.6679 3.68208 68.9572 3.74672 69.1914 3.87601C69.4394 3.99237 69.6253 4.17337 69.7493 4.41902C69.9835 4.85859 70.1006 5.61492 70.1006 6.688V7.52191C70.1006 7.80634 70.1006 8.04552 70.1006 8.23945C70.1144 8.43338 70.1419 8.5756 70.1833 8.6661C70.2246 8.74367 70.2797 8.80185 70.3486 8.84064C70.4312 8.86649 70.5208 8.89235 70.6172 8.91821C70.755 8.94407 70.9134 8.95699 71.0925 8.95699C71.12 9.00871 71.1338 9.09275 71.1338 9.2091C71.1338 9.32546 71.12 9.40303 71.0925 9.44182C70.4037 9.37718 69.8044 9.34486 69.2947 9.34486C68.7988 9.34486 68.2064 9.37718 67.5176 9.44182C67.4901 9.40303 67.4763 9.32546 67.4763 9.2091C67.4763 9.09275 67.4901 9.00871 67.5176 8.95699C67.6003 8.95699 67.7311 8.94407 67.9102 8.91821C68.0893 8.87942 68.1926 8.81478 68.2202 8.72428C68.2891 8.59499 68.3235 8.43338 68.3235 8.23945C68.3373 8.04552 68.3442 7.80634 68.3442 7.52191V6.51347C68.3442 5.69896 68.1789 5.14949 67.8482 4.86506C67.738 4.76163 67.6003 4.70991 67.435 4.70991C67.2834 4.70991 67.1319 4.73577 66.9804 4.78748C66.8288 4.8392 66.6911 4.89738 66.5671 4.96202C66.2778 5.1301 66.1331 5.27878 66.1331 5.40806V5.48563C66.1745 5.86057 66.1951 6.26136 66.1951 6.688V7.52191C66.1951 8.16834 66.2158 8.54327 66.2571 8.6467C66.2984 8.73721 66.3535 8.80185 66.4224 8.84064C66.5051 8.86649 66.5946 8.89235 66.6911 8.91821C66.8288 8.94407 66.9804 8.95699 67.1457 8.95699C67.1732 9.00871 67.187 9.09275 67.187 9.2091C67.187 9.32546 67.1732 9.40303 67.1457 9.44182C66.4569 9.37718 65.8438 9.34486 65.3066 9.34486C64.8382 9.34486 64.2596 9.37718 63.5708 9.44182C63.5433 9.40303 63.5295 9.32546 63.5295 9.2091C63.5295 9.09275 63.5433 9.00871 63.5708 8.95699C63.6672 8.95699 63.805 8.94407 63.9841 8.91821C64.1769 8.87942 64.294 8.80185 64.3354 8.68549C64.3905 8.54327 64.418 8.15541 64.418 7.52191V6.51347C64.418 5.3111 64.115 4.70991 63.5088 4.70991C63.2471 4.70991 63.0198 4.76809 62.8269 4.88445C62.4825 5.11717 62.3103 5.29817 62.3103 5.42746V7.52191C62.3103 8.16834 62.331 8.54327 62.3723 8.6467C62.4136 8.73721 62.4687 8.80185 62.5376 8.84064C62.6065 8.86649 62.6823 8.89235 62.7649 8.91821C62.9027 8.94407 63.0473 8.95699 63.1989 8.95699C63.2264 9.00871 63.2402 9.09275 63.2402 9.2091C63.2402 9.32546 63.2264 9.40303 63.1989 9.44182C62.5101 9.37718 61.9177 9.34486 61.4218 9.34486Z" fill="#120E1E"/>
<path d="M73.1854 5.77653C73.213 5.77653 73.3025 5.77653 73.4541 5.77653C73.6194 5.7636 73.7985 5.75067 73.9913 5.73774C74.4322 5.72482 74.749 5.70542 74.9419 5.67957C75.0659 5.66664 75.1278 5.59553 75.1278 5.46624C75.1278 5.32403 75.1141 5.17535 75.0865 5.0202C75.059 4.86506 75.0108 4.7293 74.9419 4.61295C74.7903 4.32851 74.5906 4.1863 74.3426 4.1863C74.1084 4.1863 73.9225 4.25094 73.7847 4.38023C73.6469 4.49659 73.5298 4.6388 73.4334 4.80688C73.2681 5.14302 73.1854 5.46624 73.1854 5.77653ZM76.4503 6.12561C75.6238 6.19025 74.5355 6.24196 73.1854 6.28075C73.1854 7.0694 73.4196 7.65119 73.888 8.02613C74.2462 8.29763 74.6319 8.43338 75.0452 8.43338C75.4722 8.43338 75.8029 8.36227 76.0371 8.22006C76.2713 8.07784 76.4641 7.93563 76.6157 7.79341C76.7259 7.81927 76.781 7.89037 76.781 8.00673C76.781 8.12309 76.7534 8.22006 76.6983 8.29763C76.657 8.36227 76.5674 8.4657 76.4297 8.60792C76.2919 8.73721 76.1197 8.86649 75.9131 8.99578C75.3896 9.33193 74.8868 9.5 74.4046 9.5C73.9225 9.5 73.5092 9.44182 73.1648 9.32546C72.8204 9.19618 72.5173 9.01517 72.2556 8.78246C71.6907 8.27824 71.4083 7.62534 71.4083 6.82376C71.4083 5.99632 71.7114 5.27231 72.3175 4.65173C72.965 3.99237 73.6676 3.66269 74.4253 3.66269C75.2381 3.66269 75.858 3.88894 76.285 4.34144C76.6432 4.70345 76.8223 5.12363 76.8223 5.60199C76.8223 5.74421 76.7879 5.86703 76.719 5.97046C76.6501 6.07389 76.5606 6.12561 76.4503 6.12561Z" fill="#120E1E"/>
<path d="M81.7477 9.17032V8.95699C81.7477 8.90528 81.7271 8.89235 81.6858 8.91821C81.6444 8.94407 81.5687 8.98932 81.4585 9.05396C81.3482 9.1186 81.2174 9.18325 81.0658 9.24789C80.3633 9.54525 79.7089 9.55171 79.1028 9.26728C78.4828 8.99578 78.042 8.53035 77.7803 7.87098C77.6425 7.54776 77.5736 7.1599 77.5736 6.7074C77.5736 6.24196 77.6976 5.81532 77.9456 5.42746C78.2073 5.02667 78.5242 4.69698 78.8961 4.43841C79.2681 4.17983 79.6538 3.99237 80.0533 3.87601C80.4666 3.74672 80.8248 3.68208 81.1278 3.68208C81.4309 3.68208 81.6169 3.68854 81.6858 3.70147C81.7271 3.70147 81.7477 3.60451 81.7477 3.41058V2.24699C81.7477 1.97549 81.7202 1.76863 81.6651 1.62641C81.6238 1.54884 81.4929 1.49066 81.2725 1.45188C81.0658 1.41309 80.9212 1.3937 80.8385 1.3937C80.811 1.3937 80.7972 1.33552 80.7972 1.21916C80.7972 1.08987 80.811 1.0123 80.8385 0.986442C81.61 0.921799 82.2368 0.824834 82.719 0.695547C83.2011 0.553331 83.456 0.488687 83.4835 0.501616C83.5248 0.501616 83.5662 0.527473 83.6075 0.579188C83.6488 0.630903 83.6695 0.676154 83.6695 0.714939C83.5731 1.07694 83.5248 1.50359 83.5248 1.99488V8.00673C83.5248 8.11016 83.5248 8.20066 83.5248 8.27824C83.5386 8.35581 83.58 8.42692 83.6488 8.49156C83.7315 8.56913 83.9381 8.60792 84.2687 8.60792C84.2963 8.65963 84.3101 8.73074 84.3101 8.82124C84.3101 8.89881 84.2825 8.96992 84.2274 9.03457C83.9795 9.04749 83.6282 9.10567 83.1736 9.2091C82.3608 9.39011 81.9199 9.48061 81.8511 9.48061C81.7822 9.48061 81.7477 9.37718 81.7477 9.17032ZM80.8799 8.6661C81.0727 8.6661 81.2656 8.60792 81.4585 8.49156C81.6513 8.3752 81.7477 8.27824 81.7477 8.20066V4.90384C81.7477 4.78748 81.6444 4.66466 81.4378 4.53537C81.2311 4.39316 80.997 4.32205 80.7352 4.32205C80.4872 4.32205 80.2875 4.38023 80.136 4.49659C79.9844 4.60002 79.8604 4.74223 79.764 4.92324C79.5987 5.27231 79.516 5.7636 79.516 6.39711C79.516 7.01769 79.6331 7.55423 79.8673 8.00673C80.1153 8.44631 80.4528 8.6661 80.8799 8.6661Z" fill="#120E1E"/>
<path d="M87.5042 3.8954C87.4766 3.96005 87.4284 4.19923 87.3595 4.61295V7.52191C87.3595 8.16834 87.3802 8.54327 87.4215 8.6467C87.4628 8.73721 87.5179 8.80185 87.5868 8.84064C87.6557 8.86649 87.7315 8.89235 87.8141 8.91821C87.9519 8.94407 88.0965 8.95699 88.2481 8.95699C88.2756 9.00871 88.2894 9.09275 88.2894 9.2091C88.2894 9.32546 88.2756 9.40303 88.2481 9.44182C87.5593 9.37718 86.9669 9.34486 86.471 9.34486C85.9061 9.34486 85.2793 9.37718 84.5905 9.44182C84.563 9.40303 84.5492 9.32546 84.5492 9.2091C84.5492 9.09275 84.563 9.00871 84.5905 8.95699C84.8798 8.95699 85.0934 8.93114 85.2311 8.87942C85.3689 8.81478 85.4515 8.76306 85.4791 8.72428C85.548 8.56913 85.5824 8.16834 85.5824 7.52191V5.8541C85.5824 5.75067 85.5686 5.59553 85.5411 5.38867C85.5135 5.18181 85.486 5.05252 85.4584 5.00081C85.362 4.83273 85.0727 4.7487 84.5905 4.7487C84.563 4.73577 84.5492 4.67113 84.5492 4.55477C84.563 4.42548 84.5836 4.36084 84.6112 4.36084C85.1347 4.32205 85.6444 4.23155 86.1403 4.08933C86.6363 3.93419 87.0151 3.79844 87.2769 3.68208C87.3182 3.69501 87.3664 3.72733 87.4215 3.77904C87.4766 3.83076 87.5042 3.86955 87.5042 3.8954Z" fill="#120E1E"/>
<path d="M91.3384 8.58853C91.5175 8.58853 91.6553 8.5562 91.7517 8.49156C91.8619 8.41399 91.917 8.35581 91.917 8.31702V6.53286C91.7655 6.5975 91.607 6.66215 91.4417 6.72679C91.2902 6.77851 91.1318 6.85608 90.9665 6.95951C90.6634 7.15344 90.5119 7.41201 90.5119 7.73523C90.5256 8.05845 90.6221 8.2847 90.8012 8.41399C90.9802 8.53035 91.1593 8.58853 91.3384 8.58853ZM94.3967 8.39459C94.4656 8.43338 94.5 8.49156 94.5 8.56913C94.5 8.6467 94.4793 8.72428 94.438 8.80185C94.3554 8.87942 94.2107 8.98285 94.0041 9.11214C93.6321 9.34486 93.3222 9.46121 93.0742 9.46121C92.8262 9.46121 92.5989 9.39657 92.3923 9.26728C92.1994 9.12507 92.0685 8.97639 91.9997 8.82124C91.8068 9.00224 91.5313 9.15739 91.1731 9.28668C90.8287 9.41596 90.5601 9.48061 90.3672 9.48061C90.1743 9.48061 89.9677 9.43536 89.7473 9.34486C89.5269 9.25435 89.3409 9.138 89.1894 8.99578C88.845 8.67256 88.6728 8.34934 88.6728 8.02613C88.6728 7.70291 88.7416 7.4508 88.8794 7.2698C89.0309 7.07587 89.1825 6.95951 89.334 6.92072C89.4993 6.86901 89.6853 6.80436 89.8919 6.72679C90.1124 6.64922 90.3465 6.56518 90.5945 6.47468C90.9114 6.37125 91.3522 6.21611 91.917 6.00925V5.40806C91.917 5.08484 91.8412 4.79395 91.6897 4.53537C91.5382 4.26387 91.3384 4.12812 91.0904 4.12812C90.8425 4.12812 90.6634 4.23155 90.5532 4.43841C90.4568 4.64527 90.3879 4.85859 90.3465 5.07838C90.2363 5.53088 89.9677 5.75714 89.5406 5.75714C89.3616 5.75714 89.1962 5.70542 89.0447 5.60199C88.907 5.48563 88.8381 5.36281 88.8381 5.23352C88.8381 5.05252 88.9001 4.84566 89.024 4.61295C89.1756 4.47073 89.4235 4.31559 89.768 4.14751C90.4705 3.81137 91.0973 3.64329 91.6484 3.64329C92.2132 3.64329 92.6885 3.82429 93.0742 4.1863C93.4737 4.5483 93.6734 5.0202 93.6734 5.60199V7.98734C93.6734 8.16834 93.7079 8.30409 93.7768 8.39459C93.8456 8.47217 93.9214 8.51095 94.0041 8.51095C94.1005 8.51095 94.1832 8.49156 94.252 8.45277L94.3967 8.39459Z" fill="#120E1E"/>
<path d="M85.7737 0.794737C85.5912 0.977193 85.5 1.20877 85.5 1.48947C85.5 1.77018 85.5912 2.00877 85.7737 2.20526C85.9702 2.40175 86.2088 2.5 86.4895 2.5C86.7702 2.5 87.0088 2.40175 87.2053 2.20526C87.4018 2.00877 87.5 1.77018 87.5 1.48947C87.5 1.20877 87.4018 0.977193 87.2053 0.794737C87.0088 0.598246 86.7702 0.5 86.4895 0.5C86.2088 0.5 85.9702 0.598246 85.7737 0.794737Z" fill="#E20338"/>
</svg>
