<svg width="135" height="134" viewBox="0 0 135 134" fill="none" xmlns="http://www.w3.org/2000/svg">
<ellipse cx="67.0186" cy="66.9268" rx="67" ry="66.4268" fill="#120E1E"/>
<path d="M29.0787 74.1269C28.2654 74.1269 27.5254 73.9869 26.8587 73.7069C26.2054 73.4135 25.6387 73.0135 25.1587 72.5069C24.6787 72.0002 24.3054 71.4202 24.0387 70.7669C23.7854 70.1135 23.6587 69.4202 23.6587 68.6869C23.6587 67.7002 23.8787 66.8002 24.3187 65.9869C24.772 65.1735 25.3987 64.5202 26.1987 64.0269C27.012 63.5335 27.972 63.2869 29.0787 63.2869C30.1454 63.2869 31.072 63.5269 31.8587 64.0069C32.6587 64.4735 33.2454 65.1002 33.6187 65.8869L31.4787 66.5669C31.2387 66.1269 30.8987 65.7869 30.4587 65.5469C30.032 65.2935 29.5587 65.1669 29.0387 65.1669C28.452 65.1669 27.9187 65.3202 27.4387 65.6269C26.972 65.9202 26.5987 66.3335 26.3187 66.8669C26.052 67.3869 25.9187 67.9935 25.9187 68.6869C25.9187 69.3535 26.0587 69.9602 26.3387 70.5069C26.6187 71.0402 26.992 71.4669 27.4587 71.7869C27.9387 72.0935 28.472 72.2469 29.0587 72.2469C29.4187 72.2469 29.7654 72.1869 30.0987 72.0669C30.4454 71.9335 30.7454 71.7602 30.9987 71.5469C31.252 71.3202 31.432 71.0735 31.5387 70.8069L33.6987 71.4469C33.472 71.9669 33.132 72.4269 32.6787 72.8269C32.2387 73.2269 31.712 73.5469 31.0987 73.7869C30.4987 74.0135 29.8254 74.1269 29.0787 74.1269Z" fill="white"/>
<path d="M35.5106 73.9269V63.4669H37.7906L41.3906 69.9269L45.0106 63.4669H47.2506V73.9269H45.1506V66.5669L42.0706 72.0669H40.6906L37.5906 66.5669V73.9269H35.5106Z" fill="white"/>
<path d="M54.5856 74.1269C53.7589 74.1269 53.0189 73.9869 52.3656 73.7069C51.7122 73.4135 51.1456 73.0135 50.6656 72.5069C50.1989 72.0002 49.8389 71.4269 49.5856 70.7869C49.3322 70.1335 49.2056 69.4402 49.2056 68.7069C49.2056 67.9735 49.3322 67.2802 49.5856 66.6269C49.8389 65.9735 50.1989 65.4002 50.6656 64.9069C51.1456 64.4002 51.7122 64.0069 52.3656 63.7269C53.0322 63.4335 53.7722 63.2869 54.5856 63.2869C55.3989 63.2869 56.1322 63.4335 56.7856 63.7269C57.4522 64.0069 58.0189 64.4002 58.4856 64.9069C58.9656 65.4002 59.3322 65.9735 59.5856 66.6269C59.8389 67.2802 59.9656 67.9735 59.9656 68.7069C59.9656 69.4402 59.8389 70.1335 59.5856 70.7869C59.3322 71.4269 58.9656 72.0002 58.4856 72.5069C58.0189 73.0135 57.4522 73.4135 56.7856 73.7069C56.1322 73.9869 55.3989 74.1269 54.5856 74.1269ZM51.4656 68.7269C51.4656 69.3935 51.6056 69.9935 51.8856 70.5269C52.1656 71.0602 52.5389 71.4802 53.0056 71.7869C53.4722 72.0935 53.9989 72.2469 54.5856 72.2469C55.1589 72.2469 55.6789 72.0935 56.1456 71.7869C56.6256 71.4669 57.0056 71.0402 57.2856 70.5069C57.5656 69.9602 57.7056 69.3602 57.7056 68.7069C57.7056 68.0402 57.5656 67.4402 57.2856 66.9069C57.0056 66.3735 56.6256 65.9535 56.1456 65.6469C55.6789 65.3269 55.1589 65.1669 54.5856 65.1669C53.9989 65.1669 53.4722 65.3269 53.0056 65.6469C52.5389 65.9669 52.1656 66.3935 51.8856 66.9269C51.6056 67.4469 51.4656 68.0469 51.4656 68.7269Z" fill="white"/>
<path d="M64.3968 73.9269V65.4069H60.9368V63.4669H70.0768V65.4069H66.5968V73.9269H64.3968Z" fill="white"/>
<path d="M77.6615 74.1269C76.8215 74.1269 76.0815 73.9269 75.4415 73.5269C74.8015 73.1269 74.2948 72.6069 73.9215 71.9669V78.1869H71.7215V63.4669H73.6615V65.3469C74.0615 64.7202 74.5815 64.2202 75.2215 63.8469C75.8615 63.4735 76.5748 63.2869 77.3615 63.2869C78.0815 63.2869 78.7415 63.4335 79.3415 63.7269C79.9415 64.0069 80.4615 64.4002 80.9015 64.9069C81.3415 65.4135 81.6815 65.9935 81.9215 66.6469C82.1748 67.2869 82.3015 67.9669 82.3015 68.6869C82.3015 69.6869 82.1015 70.6002 81.7015 71.4269C81.3148 72.2535 80.7682 72.9135 80.0615 73.4069C79.3682 73.8869 78.5682 74.1269 77.6615 74.1269ZM76.9415 72.2469C77.4082 72.2469 77.8282 72.1469 78.2015 71.9469C78.5882 71.7469 78.9148 71.4802 79.1815 71.1469C79.4615 70.8135 79.6748 70.4335 79.8215 70.0069C79.9682 69.5802 80.0415 69.1402 80.0415 68.6869C80.0415 68.2069 79.9615 67.7535 79.8015 67.3269C79.6415 66.9002 79.4082 66.5269 79.1015 66.2069C78.8082 65.8869 78.4615 65.6335 78.0615 65.4469C77.6748 65.2602 77.2482 65.1669 76.7815 65.1669C76.5015 65.1669 76.2082 65.2202 75.9015 65.3269C75.5948 65.4335 75.3082 65.5802 75.0415 65.7669C74.7748 65.9535 74.5415 66.1735 74.3415 66.4269C74.1415 66.6802 74.0015 66.9469 73.9215 67.2269V69.9669C74.1082 70.3935 74.3548 70.7802 74.6615 71.1269C74.9682 71.4602 75.3215 71.7335 75.7215 71.9469C76.1215 72.1469 76.5282 72.2469 76.9415 72.2469Z" fill="white"/>
<path d="M89.0201 74.1269C88.2068 74.1269 87.4668 73.9869 86.8001 73.7069C86.1468 73.4135 85.5801 73.0202 85.1001 72.5269C84.6201 72.0202 84.2468 71.4469 83.9801 70.8069C83.7268 70.1535 83.6001 69.4602 83.6001 68.7269C83.6001 67.7402 83.8268 66.8402 84.2801 66.0269C84.7334 65.2002 85.3668 64.5402 86.1801 64.0469C86.9934 63.5402 87.9468 63.2869 89.0401 63.2869C90.1334 63.2869 91.0734 63.5402 91.8601 64.0469C92.6601 64.5402 93.2801 65.1935 93.7201 66.0069C94.1601 66.8202 94.3801 67.6935 94.3801 68.6269C94.3801 68.7869 94.3734 68.9402 94.3601 69.0869C94.3468 69.2202 94.3334 69.3335 94.3201 69.4269H85.9401C85.9801 70.0402 86.1468 70.5802 86.4401 71.0469C86.7468 71.5002 87.1334 71.8602 87.6001 72.1269C88.0668 72.3802 88.5668 72.5069 89.1001 72.5069C89.6868 72.5069 90.2401 72.3602 90.7601 72.0669C91.2934 71.7735 91.6534 71.3869 91.8401 70.9069L93.7201 71.4469C93.4934 71.9535 93.1468 72.4135 92.6801 72.8269C92.2268 73.2269 91.6868 73.5469 91.0601 73.7869C90.4334 74.0135 89.7534 74.1269 89.0201 74.1269ZM85.8801 67.9669H92.2001C92.1601 67.3669 91.9868 66.8402 91.6801 66.3869C91.3868 65.9202 91.0068 65.5602 90.5401 65.3069C90.0868 65.0402 89.5801 64.9069 89.0201 64.9069C88.4734 64.9069 87.9668 65.0402 87.5001 65.3069C87.0468 65.5602 86.6734 65.9202 86.3801 66.3869C86.0868 66.8402 85.9201 67.3669 85.8801 67.9669Z" fill="white"/>
<path d="M98.6546 73.9269V65.4069H95.1946V63.4669H104.335V65.4069H100.855V73.9269H98.6546Z" fill="white"/>
<path d="M105.979 73.9269V63.4669H108.179V66.9069H110.679C111.919 66.9069 112.859 67.2202 113.499 67.8469C114.153 68.4735 114.479 69.3002 114.479 70.3269C114.479 71.0202 114.339 71.6402 114.059 72.1869C113.779 72.7335 113.366 73.1602 112.819 73.4669C112.286 73.7735 111.619 73.9269 110.819 73.9269H105.979ZM108.179 72.2269H110.479C110.919 72.2269 111.273 72.1469 111.539 71.9869C111.806 71.8135 112.006 71.5869 112.139 71.3069C112.273 71.0135 112.339 70.7002 112.339 70.3669C112.339 70.0335 112.279 69.7335 112.159 69.4669C112.039 69.1869 111.839 68.9669 111.559 68.8069C111.293 68.6335 110.926 68.5469 110.459 68.5469H108.179V72.2269Z" fill="white"/>
</svg>
